# Export of Universe
# from Aaro4130 OBJ Exporter v2.0
mtllib 185.mtl
g DropSharp2
v 1.40018 0.917638 -1.40018
v 1.91268 0.917638 -0.5125
v 1.71486 1.55 -0.459495
v 1.25536 1.55 -1.25536
v 1.71486 1.55 0.459495
v 1.91268 0.917638 0.5125
v 1.40018 0.917638 1.40018
v 1.25536 1.55 1.25536
v 1.44957 -0.35 1.44957
v 1.98015 -0.35 0.530579
v 1.79792 -0.743405 0.48175
v 1.31617 -0.743405 1.31617
v 1.98015 -0.35 -0.530579
v 1.79792 -0.743405 -0.48175
v 1.44957 -0.35 -1.44957
v 1.31617 -0.743405 -1.31617
v -2.51053E-16 4.10949 0
v 0.459495 1.55 -1.71486
v 0.5125 0.917638 -1.91268
v 1.40018 0.917638 -1.40018
v 1.25536 1.55 -1.25536
v -0.459495 1.55 -1.71486
v -0.5125 0.917638 -1.91268
v -1.40018 0.917638 -1.40018
v -1.25536 1.55 -1.25536
v -1.44957 -0.35 -1.44957
v -0.530579 -0.35 -1.98015
v -0.48175 -0.743405 -1.79792
v 0.48175 -0.743405 -1.79792
v 0.530579 -0.35 -1.98015
v 1.44957 -0.35 -1.44957
v 1.31617 -0.743405 -1.31617
v -1.31617 -0.743405 -1.31617
v -2.51053E-16 4.10949 0
v -1.71486 1.55 -0.459495
v -1.91268 0.917638 -0.5125
v -1.40018 0.917638 -1.40018
v -1.25536 1.55 -1.25536
v -1.71486 1.55 0.459495
v -1.91268 0.917638 0.5125
v -1.40018 0.917638 1.40018
v -1.25536 1.55 1.25536
v -1.44957 -0.35 1.44957
v -1.98015 -0.35 0.530579
v -1.79792 -0.743405 0.48175
v -1.79792 -0.743405 -0.48175
v -1.98015 -0.35 -0.530579
v -1.44957 -0.35 -1.44957
v -1.31617 -0.743405 -1.31617
v -1.31617 -0.743405 1.31617
v -2.51053E-16 4.10949 0
v -0.459495 1.55 1.71486
v -0.5125 0.917638 1.91268
v -1.40018 0.917638 1.40018
v -1.25536 1.55 1.25536
v 0.5125 0.917638 1.91268
v 0.459495 1.55 1.71486
v 1.40018 0.917638 1.40018
v 1.25536 1.55 1.25536
v 1.44957 -0.35 1.44957
v 0.530579 -0.35 1.98015
v 0.48175 -0.743405 1.79792
v -0.48175 -0.743405 1.79792
v -0.530579 -0.35 1.98015
v -1.44957 -0.35 1.44957
v -1.31617 -0.743405 1.31617
v 1.31617 -0.743405 1.31617
v -2.51053E-16 4.10949 0
v 1.79792 -0.743405 -0.48175
v 1.31617 -0.743405 -1.31617
v 0.92125 -1.1748 -0.87125
v 1.24015 -1.1748 -0.3189
v 0.3689 -1.1748 -1.19015
v 0.48175 -0.743405 -1.79792
v -0.2689 -1.1748 -1.19015
v -0.48175 -0.743405 -1.79792
v -0.82125 -1.1748 -0.87125
v -1.31617 -0.743405 -1.31617
v -1.14015 -1.1748 -0.3189
v -1.79792 -0.743405 -0.48175
v -1.14015 -1.1748 0.3189
v -1.79792 -0.743405 0.48175
v -1.31617 -0.743405 1.31617
v -0.82125 -1.1748 0.87125
v -0.48175 -0.743405 1.79792
v -0.2689 -1.1748 1.19015
v 0.48175 -0.743405 1.79792
v 0.3689 -1.1748 1.19015
v 1.31617 -0.743405 1.31617
v 0.92125 -1.1748 0.87125
v 1.79792 -0.743405 0.48175
v 1.24015 -1.1748 0.3189
v -0.01 -1.33 0
vn 0.4044773 0.07829188 -0.4044773
vn 0.5525262 0.07829161 -0.1480491
vn 0.4878071 0.2798084 -0.1307088
vn 0.3570998 0.2798084 -0.3570998
vn 0.4878071 0.2798084 0.1307088
vn 0.5525262 0.07829162 0.1480491
vn 0.4044773 0.07829188 0.4044772
vn 0.3570998 0.2798084 0.3570998
vn 0.4074511 -0.03606375 0.4074511
vn 0.5565885 -0.03606371 0.1491375
vn 0.4274631 -0.3705925 0.115195
vn 0.3099387 -0.3737842 0.3123407
vn 0.5565885 -0.0360637 -0.1491375
vn 0.4274631 -0.3705925 -0.115195
vn 0.4074511 -0.03606375 -0.4074511
vn 0.3099387 -0.3737842 -0.3123407
vn 0 0.5773503 0
vn 0.1307088 0.2798084 -0.4878071
vn 0.1480491 0.07829162 -0.5525262
vn 0.4044773 0.07829188 -0.4044773
vn 0.3570998 0.2798084 -0.3570998
vn -0.1307088 0.2798084 -0.4878071
vn -0.1480491 0.07829162 -0.5525262
vn -0.4044773 0.07829188 -0.4044772
vn -0.3570998 0.2798084 -0.3570998
vn -0.4074511 -0.03606375 -0.4074511
vn -0.1491375 -0.03606371 -0.5565885
vn -0.1134379 -0.3849978 -0.4150203
vn 0.1105307 -0.3791207 -0.4211696
vn 0.1491375 -0.0360637 -0.5565885
vn 0.4074511 -0.03606375 -0.4074511
vn 0.3099387 -0.3737842 -0.3123407
vn -0.3021975 -0.3898578 -0.3000348
vn 0 0.5773503 0
vn -0.4878071 0.2798084 -0.1307088
vn -0.5525262 0.07829162 -0.1480491
vn -0.4044773 0.07829188 -0.4044772
vn -0.3570998 0.2798084 -0.3570998
vn -0.4878071 0.2798084 0.1307088
vn -0.5525262 0.07829162 0.1480491
vn -0.4044772 0.07829189 0.4044773
vn -0.3570998 0.2798084 0.3570998
vn -0.4074511 -0.03606375 0.4074511
vn -0.5565885 -0.0360637 0.1491375
vn -0.4090608 -0.3925726 0.1090383
vn -0.4090608 -0.3925726 -0.1090383
vn -0.5565885 -0.0360637 -0.1491375
vn -0.4074511 -0.03606375 -0.4074511
vn -0.3021975 -0.3898578 -0.3000348
vn -0.3021975 -0.3898578 0.3000348
vn 0 0.5773503 0
vn -0.1307088 0.2798084 0.4878071
vn -0.1480491 0.07829162 0.5525262
vn -0.4044772 0.07829189 0.4044773
vn -0.3570998 0.2798084 0.3570998
vn 0.1480491 0.07829163 0.5525262
vn 0.1307088 0.2798084 0.4878071
vn 0.4044773 0.07829188 0.4044772
vn 0.3570998 0.2798084 0.3570998
vn 0.4074511 -0.03606375 0.4074511
vn 0.1491375 -0.0360637 0.5565885
vn 0.1105308 -0.3791207 0.4211695
vn -0.1134379 -0.3849978 0.4150203
vn -0.1491375 -0.03606371 0.5565885
vn -0.4074511 -0.03606375 0.4074511
vn -0.3021975 -0.3898578 0.3000348
vn 0.3099387 -0.3737842 0.3123407
vn 0 0.5773503 0
vn 0.4274631 -0.3705925 -0.115195
vn 0.3099387 -0.3737842 -0.3123407
vn 0.1818174 -0.5178275 -0.1792497
vn 0.2484386 -0.5169847 -0.06586714
vn 0.06763467 -0.519267 -0.2431476
vn 0.1105307 -0.3791207 -0.4211696
vn -0.0622117 -0.5208938 -0.2411073
vn -0.1134379 -0.3849978 -0.4150203
vn -0.1728594 -0.5222693 -0.175179
vn -0.3021975 -0.3898578 -0.3000348
vn -0.2359626 -0.5230486 -0.06383678
vn -0.4090608 -0.3925726 -0.1090383
vn -0.2359626 -0.5230486 0.06383678
vn -0.4090608 -0.3925726 0.1090383
vn -0.3021975 -0.3898578 0.3000348
vn -0.1728594 -0.5222693 0.175179
vn -0.1134379 -0.3849978 0.4150203
vn -0.0622117 -0.5208938 0.2411073
vn 0.1105308 -0.3791207 0.4211695
vn 0.06763467 -0.519267 0.2431476
vn 0.3099387 -0.3737842 0.3123407
vn 0.1818174 -0.5178275 0.1792497
vn 0.4274631 -0.3705925 0.115195
vn 0.2484386 -0.5169847 0.06586714
vn -0.001785317 -0.5773475 0
vt 0.853554 0.413208
vt 0.629409 0.413208
vt 0.616025 0.529461
vt 0.816986 0.529461
vt 0.383975 0.529461
vt 0.370591 0.413208
vt 0.146446 0.413208
vt 0.183014 0.529461
vt 0.133975 0.180164
vt 0.366026 0.180164
vt 0.378355 0.10784
vt 0.167659 0.10784
vt 0.633974 0.180164
vt 0.621645 0.10784
vt 0.866025 0.180164
vt 0.832341 0.10784
vt 0.5 1
vt 0.616025 0.529461
vt 0.629409 0.413208
vt 0.853554 0.413208
vt 0.816986 0.529461
vt 0.383975 0.529461
vt 0.370591 0.413208
vt 0.146446 0.413208
vt 0.183014 0.529461
vt 0.133975 0.180164
vt 0.366026 0.180164
vt 0.378355 0.10784
vt 0.621645 0.10784
vt 0.633974 0.180164
vt 0.866025 0.180164
vt 0.832341 0.10784
vt 0.167659 0.10784
vt 0.5 1
vt 0.616025 0.529461
vt 0.629409 0.413208
vt 0.853554 0.413208
vt 0.816986 0.529461
vt 0.383975 0.529461
vt 0.370591 0.413208
vt 0.146446 0.413208
vt 0.183014 0.529461
vt 0.133975 0.180164
vt 0.366026 0.180164
vt 0.378355 0.10784
vt 0.621645 0.10784
vt 0.633974 0.180164
vt 0.866025 0.180164
vt 0.832341 0.10784
vt 0.167659 0.10784
vt 0.5 1
vt 0.383975 0.529461
vt 0.370591 0.413208
vt 0.146446 0.413208
vt 0.183014 0.529461
vt 0.629409 0.413208
vt 0.616025 0.529461
vt 0.853554 0.413208
vt 0.816986 0.529461
vt 0.866025 0.180164
vt 0.633974 0.180164
vt 0.621645 0.10784
vt 0.378355 0.10784
vt 0.366026 0.180164
vt 0.133975 0.180164
vt 0.167659 0.10784
vt 0.832341 0.10784
vt 0.5 1
vt 0.953986 0.621645
vt 0.832341 0.832341
vt 0.732621 0.719996
vt 0.813145 0.580524
vt 0.593149 0.80052
vt 0.621645 0.953986
vt 0.432101 0.80052
vt 0.378355 0.953986
vt 0.292629 0.719996
vt 0.167659 0.832341
vt 0.212105 0.580524
vt 0.0460142 0.621645
vt 0.212105 0.419476
vt 0.0460142 0.378355
vt 0.167659 0.167659
vt 0.292629 0.280004
vt 0.378355 0.0460142
vt 0.432101 0.19948
vt 0.621645 0.0460142
vt 0.593149 0.19948
vt 0.832341 0.167659
vt 0.732621 0.280004
vt 0.953986 0.378355
vt 0.813145 0.419476
vt 0.497475 0.5
usemtl baseThingPartMaterial
f 3/3/3 2/2/2 1/1/1
f 4/4/4 3/3/3 1/1/1
f 3/3/3 5/5/5 2/2/2
f 5/5/5 6/6/6 2/2/2
f 7/7/7 6/6/6 5/5/5
f 8/8/8 7/7/7 5/5/5
f 7/7/7 9/9/9 6/6/6
f 9/9/9 10/10/10 6/6/6
f 11/11/11 10/10/10 9/9/9
f 12/12/12 11/11/11 9/9/9
f 13/13/13 10/10/10 11/11/11
f 6/6/6 10/10/10 13/13/13
f 2/2/2 6/6/6 13/13/13
f 14/14/14 13/13/13 11/11/11
f 15/15/15 13/13/13 14/14/14
f 2/2/2 13/13/13 15/15/15
f 1/1/1 2/2/2 15/15/15
f 16/16/16 15/15/15 14/14/14
f 8/8/8 5/5/5 17/17/17
f 3/3/3 4/4/4 17/17/17
f 5/5/5 3/3/3 17/17/17
f 20/20/20 19/19/19 18/18/18
f 21/21/21 20/20/20 18/18/18
f 18/18/18 19/19/19 22/22/22
f 19/19/19 23/23/23 22/22/22
f 22/22/22 23/23/23 24/24/24
f 25/25/25 22/22/22 24/24/24
f 24/24/24 23/23/23 26/26/26
f 23/23/23 27/27/27 26/26/26
f 23/23/23 19/19/19 27/27/27
f 26/26/26 27/27/27 28/28/28
f 28/28/28 27/27/27 29/29/29
f 27/27/27 30/30/30 29/29/29
f 19/19/19 30/30/30 27/27/27
f 29/29/29 30/30/30 31/31/31
f 31/31/31 30/30/30 19/19/19
f 20/20/20 31/31/31 19/19/19
f 32/32/32 29/29/29 31/31/31
f 33/33/33 26/26/26 28/28/28
f 21/21/21 18/18/18 34/34/34
f 18/18/18 22/22/22 34/34/34
f 22/22/22 25/25/25 34/34/34
f 37/37/37 36/36/36 35/35/35
f 38/38/38 37/37/37 35/35/35
f 35/35/35 36/36/36 39/39/39
f 36/36/36 40/40/40 39/39/39
f 39/39/39 40/40/40 41/41/41
f 42/42/42 39/39/39 41/41/41
f 41/41/41 40/40/40 43/43/43
f 40/40/40 44/44/44 43/43/43
f 40/40/40 36/36/36 44/44/44
f 43/43/43 44/44/44 45/45/45
f 45/45/45 44/44/44 46/46/46
f 44/44/44 47/47/47 46/46/46
f 36/36/36 47/47/47 44/44/44
f 46/46/46 47/47/47 48/48/48
f 48/48/48 47/47/47 36/36/36
f 37/37/37 48/48/48 36/36/36
f 49/49/49 46/46/46 48/48/48
f 50/50/50 43/43/43 45/45/45
f 35/35/35 39/39/39 51/51/51
f 39/39/39 42/42/42 51/51/51
f 38/38/38 35/35/35 51/51/51
f 54/54/54 53/53/53 52/52/52
f 55/55/55 54/54/54 52/52/52
f 52/52/52 53/53/53 56/56/56
f 57/57/57 52/52/52 56/56/56
f 57/57/57 56/56/56 58/58/58
f 59/59/59 57/57/57 58/58/58
f 58/58/58 56/56/56 60/60/60
f 56/56/56 61/61/61 60/60/60
f 56/56/56 53/53/53 61/61/61
f 60/60/60 61/61/61 62/62/62
f 62/62/62 61/61/61 63/63/63
f 61/61/61 64/64/64 63/63/63
f 53/53/53 64/64/64 61/61/61
f 63/63/63 64/64/64 65/65/65
f 65/65/65 64/64/64 53/53/53
f 54/54/54 65/65/65 53/53/53
f 66/66/66 63/63/63 65/65/65
f 67/67/67 60/60/60 62/62/62
f 57/57/57 59/59/59 68/68/68
f 52/52/52 57/57/57 68/68/68
f 55/55/55 52/52/52 68/68/68
f 71/71/71 70/70/70 69/69/69
f 72/72/72 71/71/71 69/69/69
f 71/71/71 73/73/73 70/70/70
f 73/73/73 74/74/74 70/70/70
f 73/73/73 75/75/75 74/74/74
f 75/75/75 76/76/76 74/74/74
f 75/75/75 77/77/77 76/76/76
f 77/77/77 78/78/78 76/76/76
f 77/77/77 79/79/79 78/78/78
f 79/79/79 80/80/80 78/78/78
f 79/79/79 81/81/81 80/80/80
f 81/81/81 82/82/82 80/80/80
f 83/83/83 82/82/82 81/81/81
f 84/84/84 83/83/83 81/81/81
f 85/85/85 83/83/83 84/84/84
f 86/86/86 85/85/85 84/84/84
f 87/87/87 85/85/85 86/86/86
f 88/88/88 87/87/87 86/86/86
f 89/89/89 87/87/87 88/88/88
f 90/90/90 89/89/89 88/88/88
f 91/91/91 89/89/89 90/90/90
f 92/92/92 91/91/91 90/90/90
f 69/69/69 91/91/91 92/92/92
f 72/72/72 69/69/69 92/92/92
f 79/79/79 93/93/93 81/81/81
f 81/81/81 93/93/93 84/84/84
f 84/84/84 93/93/93 86/86/86
f 86/86/86 93/93/93 88/88/88
f 88/88/88 93/93/93 90/90/90
f 90/90/90 93/93/93 92/92/92
f 92/92/92 93/93/93 72/72/72
f 72/72/72 93/93/93 71/71/71
f 71/71/71 93/93/93 73/73/73
f 73/73/73 93/93/93 75/75/75
f 75/75/75 93/93/93 77/77/77
f 77/77/77 93/93/93 79/79/79
