# Export of Universe
# from Aaro4130 OBJ Exporter v2.0
mtllib 188.mtl
g DropSharp3Flat
v 1.40018 1.51764 -1.40018
v 1.91268 1.51764 -0.5125
v 1.71486 2.25 -0.459495
v 1.25536 2.25 -1.25536
v 0.459495 2.25 -1.71486
v 0.5125 1.51764 -1.91268
v 1.40018 1.51764 -1.40018
v 1.25536 2.25 -1.25536
v -0.459495 2.25 -1.71486
v -0.5125 1.51764 -1.91268
v 0.5125 1.51764 -1.91268
v 0.459495 2.25 -1.71486
v -1.40018 1.51764 -1.40018
v -0.5125 1.51764 -1.91268
v -0.459495 2.25 -1.71486
v -1.25536 2.25 -1.25536
v -1.71486 2.25 -0.459495
v -1.91268 1.51764 -0.5125
v -1.40018 1.51764 -1.40018
v -1.25536 2.25 -1.25536
v -1.71486 2.25 0.459495
v -1.91268 1.51764 0.5125
v -1.91268 1.51764 -0.5125
v -1.71486 2.25 -0.459495
v -1.40018 1.51764 1.40018
v -1.91268 1.51764 0.5125
v -1.71486 2.25 0.459495
v -1.25536 2.25 1.25536
v -0.459495 2.25 1.71486
v -0.5125 1.51764 1.91268
v -1.40018 1.51764 1.40018
v -1.25536 2.25 1.25536
v 0.5125 1.51764 1.91268
v -0.5125 1.51764 1.91268
v -0.459495 2.25 1.71486
v 0.459495 2.25 1.71486
v 1.40018 1.51764 1.40018
v 0.5125 1.51764 1.91268
v 0.459495 2.25 1.71486
v 1.25536 2.25 1.25536
v 1.71486 2.25 0.459495
v 1.91268 1.51764 0.5125
v 1.40018 1.51764 1.40018
v 1.25536 2.25 1.25536
v 1.91268 1.51764 -0.5125
v 1.91268 1.51764 0.5125
v 1.71486 2.25 0.459495
v 1.71486 2.25 -0.459495
v 1.79792 -1.0434 -0.48175
v 1.31617 -1.0434 -1.31617
v 0.92125 -1.4748 -0.87125
v 1.24015 -1.4748 -0.3189
v 1.31617 -1.0434 -1.31617
v 0.48175 -1.0434 -1.79792
v 0.3689 -1.4748 -1.19015
v 0.92125 -1.4748 -0.87125
v 0.48175 -1.0434 -1.79792
v -0.48175 -1.0434 -1.79792
v -0.2689 -1.4748 -1.19015
v 0.3689 -1.4748 -1.19015
v -0.48175 -1.0434 -1.79792
v -1.31617 -1.0434 -1.31617
v -0.82125 -1.4748 -0.87125
v -0.2689 -1.4748 -1.19015
v -1.31617 -1.0434 -1.31617
v -1.79792 -1.0434 -0.48175
v -1.14015 -1.4748 -0.3189
v -0.82125 -1.4748 -0.87125
v -1.79792 -1.0434 -0.48175
v -1.79792 -1.0434 0.48175
v -1.14015 -1.4748 0.3189
v -1.14015 -1.4748 -0.3189
v -1.14015 -1.4748 0.3189
v -1.79792 -1.0434 0.48175
v -1.31617 -1.0434 1.31617
v -0.82125 -1.4748 0.87125
v -0.82125 -1.4748 0.87125
v -1.31617 -1.0434 1.31617
v -0.48175 -1.0434 1.79792
v -0.2689 -1.4748 1.19015
v -0.2689 -1.4748 1.19015
v -0.48175 -1.0434 1.79792
v 0.48175 -1.0434 1.79792
v 0.3689 -1.4748 1.19015
v 0.3689 -1.4748 1.19015
v 0.48175 -1.0434 1.79792
v 1.31617 -1.0434 1.31617
v 0.92125 -1.4748 0.87125
v 0.92125 -1.4748 0.87125
v 1.31617 -1.0434 1.31617
v 1.79792 -1.0434 0.48175
v 1.24015 -1.4748 0.3189
v 1.24015 -1.4748 0.3189
v 1.79792 -1.0434 0.48175
v 1.79792 -1.0434 -0.48175
v 1.24015 -1.4748 -0.3189
v 1.79792 -1.0434 -0.48175
v 1.98015 -0.65 -0.530579
v 1.44957 -0.65 -1.44957
v 1.31617 -1.0434 -1.31617
v 1.44957 -0.65 -1.44957
v 0.530579 -0.65 -1.98015
v 0.48175 -1.0434 -1.79792
v 1.31617 -1.0434 -1.31617
v 0.48175 -1.0434 -1.79792
v 0.530579 -0.65 -1.98015
v -0.530579 -0.65 -1.98015
v -0.48175 -1.0434 -1.79792
v -0.48175 -1.0434 -1.79792
v -0.530579 -0.65 -1.98015
v -1.44957 -0.65 -1.44957
v -1.31617 -1.0434 -1.31617
v -1.44957 -0.65 -1.44957
v -1.98015 -0.65 -0.530579
v -1.79792 -1.0434 -0.48175
v -1.31617 -1.0434 -1.31617
v -1.79792 -1.0434 -0.48175
v -1.98015 -0.65 -0.530579
v -1.98015 -0.65 0.530579
v -1.79792 -1.0434 0.48175
v -1.79792 -1.0434 0.48175
v -1.98015 -0.65 0.530579
v -1.44957 -0.65 1.44957
v -1.31617 -1.0434 1.31617
v -1.44957 -0.65 1.44957
v -0.530579 -0.65 1.98015
v -0.48175 -1.0434 1.79792
v -1.31617 -1.0434 1.31617
v -0.48175 -1.0434 1.79792
v -0.530579 -0.65 1.98015
v 0.530579 -0.65 1.98015
v 0.48175 -1.0434 1.79792
v 0.48175 -1.0434 1.79792
v 0.530579 -0.65 1.98015
v 1.44957 -0.65 1.44957
v 1.31617 -1.0434 1.31617
v 1.44957 -0.65 1.44957
v 1.98015 -0.65 0.530579
v 1.79792 -1.0434 0.48175
v 1.31617 -1.0434 1.31617
v 1.79792 -1.0434 0.48175
v 1.98015 -0.65 0.530579
v 1.98015 -0.65 -0.530579
v 1.79792 -1.0434 -0.48175
v 1.91268 1.51764 0.5125
v 1.98015 -0.65 0.530579
v 1.44957 -0.65 1.44957
v 1.40018 1.51764 1.40018
v 1.44957 -0.65 1.44957
v 0.530579 -0.65 1.98015
v 0.5125 1.51764 1.91268
v 1.40018 1.51764 1.40018
v 0.530579 -0.65 1.98015
v -0.530579 -0.65 1.98015
v -0.5125 1.51764 1.91268
v 0.5125 1.51764 1.91268
v -0.5125 1.51764 1.91268
v -0.530579 -0.65 1.98015
v -1.44957 -0.65 1.44957
v -1.40018 1.51764 1.40018
v -1.44957 -0.65 1.44957
v -1.98015 -0.65 0.530579
v -1.91268 1.51764 0.5125
v -1.40018 1.51764 1.40018
v -1.98015 -0.65 0.530579
v -1.98015 -0.65 -0.530579
v -1.91268 1.51764 -0.5125
v -1.91268 1.51764 0.5125
v -1.91268 1.51764 -0.5125
v -1.98015 -0.65 -0.530579
v -1.44957 -0.65 -1.44957
v -1.40018 1.51764 -1.40018
v -1.44957 -0.65 -1.44957
v -0.530579 -0.65 -1.98015
v -0.5125 1.51764 -1.91268
v -1.40018 1.51764 -1.40018
v -0.530579 -0.65 -1.98015
v 0.530579 -0.65 -1.98015
v 0.5125 1.51764 -1.91268
v -0.5125 1.51764 -1.91268
v 0.5125 1.51764 -1.91268
v 0.530579 -0.65 -1.98015
v 1.44957 -0.65 -1.44957
v 1.40018 1.51764 -1.40018
v 1.44957 -0.65 -1.44957
v 1.98015 -0.65 -0.530579
v 1.91268 1.51764 -0.5125
v 1.40018 1.51764 -1.40018
v 1.98015 -0.65 -0.530579
v 1.98015 -0.65 0.530579
v 1.91268 1.51764 0.5125
v 1.91268 1.51764 -0.5125
v 0.92125 -1.4748 -0.87125
v -0.01 -1.63 0
v 1.24015 -1.4748 -0.3189
v 0.3689 -1.4748 -1.19015
v -0.01 -1.63 0
v 0.92125 -1.4748 -0.87125
v -0.2689 -1.4748 -1.19015
v -0.01 -1.63 0
v 0.3689 -1.4748 -1.19015
v -0.82125 -1.4748 -0.87125
v -0.01 -1.63 0
v -0.2689 -1.4748 -1.19015
v -1.14015 -1.4748 -0.3189
v -0.01 -1.63 0
v -0.82125 -1.4748 -0.87125
v -1.14015 -1.4748 0.3189
v -0.01 -1.63 0
v -1.14015 -1.4748 -0.3189
v -0.82125 -1.4748 0.87125
v -0.01 -1.63 0
v -1.14015 -1.4748 0.3189
v -0.2689 -1.4748 1.19015
v -0.01 -1.63 0
v -0.82125 -1.4748 0.87125
v 0.3689 -1.4748 1.19015
v -0.01 -1.63 0
v -0.2689 -1.4748 1.19015
v 0.92125 -1.4748 0.87125
v -0.01 -1.63 0
v 0.3689 -1.4748 1.19015
v 1.24015 -1.4748 0.3189
v -0.01 -1.63 0
v 0.92125 -1.4748 0.87125
v 1.24015 -1.4748 -0.3189
v -0.01 -1.63 0
v 1.24015 -1.4748 0.3189
v -2.51053E-16 4.70949 0
v 1.71486 2.25 0.459495
v 1.25536 2.25 1.25536
v -2.51053E-16 4.70949 0
v 0.459495 2.25 -1.71486
v 1.25536 2.25 -1.25536
v -2.51053E-16 4.70949 0
v 1.25536 2.25 1.25536
v 0.459495 2.25 1.71486
v -2.51053E-16 4.70949 0
v -0.459495 2.25 -1.71486
v 0.459495 2.25 -1.71486
v -2.51053E-16 4.70949 0
v 0.459495 2.25 1.71486
v -0.459495 2.25 1.71486
v -2.51053E-16 4.70949 0
v -1.25536 2.25 -1.25536
v -0.459495 2.25 -1.71486
v -2.51053E-16 4.70949 0
v -0.459495 2.25 1.71486
v -1.25536 2.25 1.25536
v -2.51053E-16 4.70949 0
v -1.71486 2.25 0.459495
v -1.71486 2.25 -0.459495
v -2.51053E-16 4.70949 0
v -1.25536 2.25 1.25536
v -1.71486 2.25 0.459495
v -2.51053E-16 4.70949 0
v -1.71486 2.25 -0.459495
v -1.25536 2.25 -1.25536
v -2.51053E-16 4.70949 0
v 1.25536 2.25 -1.25536
v 1.71486 2.25 -0.459495
v -2.51053E-16 4.70949 0
v 1.71486 2.25 -0.459495
v 1.71486 2.25 0.459495
vn 0.4827013 0.1505522 -0.2786876
vn 0.4827013 0.1505522 -0.2786876
vn 0.4827013 0.1505522 -0.2786876
vn 0.4827013 0.1505522 -0.2786876
vn 0.2786876 0.1505522 -0.4827013
vn 0.2786876 0.1505522 -0.4827013
vn 0.2786876 0.1505522 -0.4827013
vn 0.2786876 0.1505522 -0.4827013
vn 0 0.1505523 -0.5573754
vn 0 0.1505523 -0.5573754
vn 0 0.1505523 -0.5573754
vn 0 0.1505523 -0.5573754
vn -0.2786876 0.1505522 -0.4827013
vn -0.2786876 0.1505522 -0.4827013
vn -0.2786876 0.1505522 -0.4827013
vn -0.2786876 0.1505522 -0.4827013
vn -0.4827013 0.1505522 -0.2786876
vn -0.4827013 0.1505522 -0.2786876
vn -0.4827013 0.1505522 -0.2786876
vn -0.4827013 0.1505522 -0.2786876
vn -0.5573754 0.1505523 0
vn -0.5573754 0.1505523 0
vn -0.5573754 0.1505523 0
vn -0.5573754 0.1505523 0
vn -0.4827013 0.1505522 0.2786876
vn -0.4827013 0.1505522 0.2786876
vn -0.4827013 0.1505522 0.2786876
vn -0.4827013 0.1505522 0.2786876
vn -0.2786876 0.1505522 0.4827013
vn -0.2786876 0.1505522 0.4827013
vn -0.2786876 0.1505522 0.4827013
vn -0.2786876 0.1505522 0.4827013
vn 0 0.1505523 0.5573754
vn 0 0.1505523 0.5573754
vn 0 0.1505523 0.5573754
vn 0 0.1505523 0.5573754
vn 0.2786876 0.1505522 0.4827013
vn 0.2786876 0.1505522 0.4827013
vn 0.2786876 0.1505522 0.4827013
vn 0.2786876 0.1505522 0.4827013
vn 0.4827013 0.1505522 0.2786876
vn 0.4827013 0.1505522 0.2786876
vn 0.4827013 0.1505522 0.2786876
vn 0.4827013 0.1505522 0.2786876
vn 0.5573754 0.1505523 0
vn 0.5573754 0.1505523 0
vn 0.5573754 0.1505523 0
vn 0.5573754 0.1505523 0
vn 0.303613 -0.4587216 -0.1752911
vn 0.303613 -0.4587216 -0.1752911
vn 0.303613 -0.4587216 -0.1752911
vn 0.303613 -0.4587216 -0.1752911
vn 0.1717553 -0.4640411 -0.2974883
vn 0.1717553 -0.4640411 -0.2974883
vn 0.1717553 -0.4640411 -0.2974883
vn 0.1717553 -0.4640411 -0.2974883
vn 0 -0.4708042 -0.3341807
vn 0 -0.4708042 -0.3341807
vn 0 -0.4708042 -0.3341807
vn 0 -0.4708042 -0.3341807
vn -0.1626124 -0.4770344 -0.2816534
vn -0.1626124 -0.4770344 -0.2816534
vn -0.1626124 -0.4770344 -0.2816534
vn -0.1626124 -0.4770344 -0.2816534
vn -0.2761756 -0.4812857 -0.1594504
vn -0.2761756 -0.4812857 -0.1594504
vn -0.2761756 -0.4812857 -0.1594504
vn -0.2761756 -0.4812857 -0.1594504
vn -0.3166328 -0.4827804 0
vn -0.3166328 -0.4827804 0
vn -0.3166328 -0.4827804 0
vn -0.3166328 -0.4827804 0
vn -0.2761756 -0.4812857 0.1594504
vn -0.2761756 -0.4812857 0.1594504
vn -0.2761756 -0.4812857 0.1594504
vn -0.2761756 -0.4812857 0.1594504
vn -0.1626124 -0.4770344 0.2816534
vn -0.1626124 -0.4770344 0.2816534
vn -0.1626124 -0.4770344 0.2816534
vn -0.1626124 -0.4770344 0.2816534
vn 0 -0.4708042 0.3341807
vn 0 -0.4708042 0.3341807
vn 0 -0.4708042 0.3341807
vn 0 -0.4708042 0.3341807
vn 0.1717553 -0.4640411 0.2974883
vn 0.1717553 -0.4640411 0.2974883
vn 0.1717553 -0.4640411 0.2974883
vn 0.1717553 -0.4640411 0.2974883
vn 0.303613 -0.4587216 0.1752911
vn 0.303613 -0.4587216 0.1752911
vn 0.303613 -0.4587216 0.1752911
vn 0.303613 -0.4587216 0.1752911
vn 0.3532224 -0.4566917 0
vn 0.3532224 -0.4566917 0
vn 0.3532224 -0.4566917 0
vn 0.3532224 -0.4566917 0
vn 0.4536892 -0.2426689 -0.2619374
vn 0.4536892 -0.2426689 -0.2619374
vn 0.4536892 -0.2426689 -0.2619374
vn 0.4536892 -0.2426689 -0.2619374
vn 0.2619374 -0.2426689 -0.4536892
vn 0.2619374 -0.2426689 -0.4536892
vn 0.2619374 -0.2426689 -0.4536892
vn 0.2619374 -0.2426689 -0.4536892
vn 0 -0.242669 -0.5238751
vn 0 -0.242669 -0.5238751
vn 0 -0.242669 -0.5238751
vn 0 -0.242669 -0.5238751
vn -0.2619374 -0.2426689 -0.4536892
vn -0.2619374 -0.2426689 -0.4536892
vn -0.2619374 -0.2426689 -0.4536892
vn -0.2619374 -0.2426689 -0.4536892
vn -0.4536892 -0.2426689 -0.2619374
vn -0.4536892 -0.2426689 -0.2619374
vn -0.4536892 -0.2426689 -0.2619374
vn -0.4536892 -0.2426689 -0.2619374
vn -0.5238751 -0.242669 0
vn -0.5238751 -0.242669 0
vn -0.5238751 -0.242669 0
vn -0.5238751 -0.242669 0
vn -0.4536892 -0.2426689 0.2619374
vn -0.4536892 -0.2426689 0.2619374
vn -0.4536892 -0.2426689 0.2619374
vn -0.4536892 -0.2426689 0.2619374
vn -0.2619374 -0.2426689 0.4536892
vn -0.2619374 -0.2426689 0.4536892
vn -0.2619374 -0.2426689 0.4536892
vn -0.2619374 -0.2426689 0.4536892
vn 0 -0.242669 0.5238751
vn 0 -0.242669 0.5238751
vn 0 -0.242669 0.5238751
vn 0 -0.242669 0.5238751
vn 0.2619374 -0.2426689 0.4536892
vn 0.2619374 -0.2426689 0.4536892
vn 0.2619374 -0.2426689 0.4536892
vn 0.2619374 -0.2426689 0.4536892
vn 0.4536892 -0.2426689 0.2619374
vn 0.4536892 -0.2426689 0.2619374
vn 0.4536892 -0.2426689 0.2619374
vn 0.4536892 -0.2426689 0.2619374
vn 0.5238751 -0.242669 0
vn 0.5238751 -0.242669 0
vn 0.5238751 -0.242669 0
vn 0.5238751 -0.242669 0
vn 0.4997579 0.01796241 0.2885354
vn 0.4997579 0.01796241 0.2885354
vn 0.4997579 0.01796241 0.2885354
vn 0.4997579 0.01796241 0.2885354
vn 0.2885354 0.01796241 0.4997579
vn 0.2885354 0.01796241 0.4997579
vn 0.2885354 0.01796241 0.4997579
vn 0.2885354 0.01796241 0.4997579
vn 0 0.0179624 0.5770708
vn 0 0.0179624 0.5770708
vn 0 0.0179624 0.5770708
vn 0 0.0179624 0.5770708
vn -0.2885354 0.01796241 0.4997579
vn -0.2885354 0.01796241 0.4997579
vn -0.2885354 0.01796241 0.4997579
vn -0.2885354 0.01796241 0.4997579
vn -0.4997579 0.01796241 0.2885354
vn -0.4997579 0.01796241 0.2885354
vn -0.4997579 0.01796241 0.2885354
vn -0.4997579 0.01796241 0.2885354
vn -0.5770708 0.0179624 0
vn -0.5770708 0.0179624 0
vn -0.5770708 0.0179624 0
vn -0.5770708 0.0179624 0
vn -0.4997579 0.01796241 -0.2885354
vn -0.4997579 0.01796241 -0.2885354
vn -0.4997579 0.01796241 -0.2885354
vn -0.4997579 0.01796241 -0.2885354
vn -0.2885354 0.01796241 -0.4997579
vn -0.2885354 0.01796241 -0.4997579
vn -0.2885354 0.01796241 -0.4997579
vn -0.2885354 0.01796241 -0.4997579
vn 0 0.0179624 -0.5770708
vn 0 0.0179624 -0.5770708
vn 0 0.0179624 -0.5770708
vn 0 0.0179624 -0.5770708
vn 0.2885354 0.01796241 -0.4997579
vn 0.2885354 0.01796241 -0.4997579
vn 0.2885354 0.01796241 -0.4997579
vn 0.2885354 0.01796241 -0.4997579
vn 0.4997579 0.01796241 -0.2885354
vn 0.4997579 0.01796241 -0.2885354
vn 0.4997579 0.01796241 -0.2885354
vn 0.4997579 0.01796241 -0.2885354
vn 0.5770708 0.0179624 0
vn 0.5770708 0.0179624 0
vn 0.5770708 0.0179624 0
vn 0.5770708 0.0179624 0
vn 0.06199128 -0.5728957 -0.03579071
vn 0.06199128 -0.5728957 -0.03579071
vn 0.06199128 -0.5728957 -0.03579071
vn 0.03642476 -0.5727358 -0.0630894
vn 0.03642476 -0.5727358 -0.0630894
vn 0.03642476 -0.5727358 -0.0630894
vn 0 -0.5725032 -0.07465541
vn 0 -0.5725032 -0.07465541
vn 0 -0.5725032 -0.07465541
vn -0.03827623 -0.5722526 -0.06629653
vn -0.03827623 -0.5722526 -0.06629653
vn -0.03827623 -0.5722526 -0.06629653
vn -0.06755231 -0.5720567 -0.03900141
vn -0.06755231 -0.5720567 -0.03900141
vn -0.06755231 -0.5720567 -0.03900141
vn -0.07854737 -0.5719822 0
vn -0.07854737 -0.5719822 0
vn -0.07854737 -0.5719822 0
vn -0.06755231 -0.5720567 0.03900141
vn -0.06755231 -0.5720567 0.03900141
vn -0.06755231 -0.5720567 0.03900141
vn -0.03827623 -0.5722526 0.06629653
vn -0.03827623 -0.5722526 0.06629653
vn -0.03827623 -0.5722526 0.06629653
vn 0 -0.5725032 0.07465541
vn 0 -0.5725032 0.07465541
vn 0 -0.5725032 0.07465541
vn 0.03642476 -0.5727358 0.0630894
vn 0.03642476 -0.5727358 0.0630894
vn 0.03642476 -0.5727358 0.0630894
vn 0.06199128 -0.5728957 0.03579071
vn 0.06199128 -0.5728957 0.03579071
vn 0.06199128 -0.5728957 0.03579071
vn 0.07112841 -0.5729521 0
vn 0.07112841 -0.5729521 0
vn 0.07112841 -0.5729521 0
vn 0.4101467 0.3302114 0.2367985
vn 0.4101467 0.3302114 0.2367985
vn 0.4101467 0.3302114 0.2367985
vn 0.2367985 0.3302114 -0.4101467
vn 0.2367985 0.3302114 -0.4101467
vn 0.2367985 0.3302114 -0.4101467
vn 0.2367985 0.3302114 0.4101467
vn 0.2367985 0.3302114 0.4101467
vn 0.2367985 0.3302114 0.4101467
vn 0 0.3302116 -0.4735965
vn 0 0.3302116 -0.4735965
vn 0 0.3302116 -0.4735965
vn 0 0.3302116 0.4735965
vn 0 0.3302116 0.4735965
vn 0 0.3302116 0.4735965
vn -0.2367985 0.3302114 -0.4101467
vn -0.2367985 0.3302114 -0.4101467
vn -0.2367985 0.3302114 -0.4101467
vn -0.2367985 0.3302114 0.4101467
vn -0.2367985 0.3302114 0.4101467
vn -0.2367985 0.3302114 0.4101467
vn -0.4735965 0.3302116 0
vn -0.4735965 0.3302116 0
vn -0.4735965 0.3302116 0
vn -0.4101467 0.3302114 0.2367985
vn -0.4101467 0.3302114 0.2367985
vn -0.4101467 0.3302114 0.2367985
vn -0.4101467 0.3302114 -0.2367985
vn -0.4101467 0.3302114 -0.2367985
vn -0.4101467 0.3302114 -0.2367985
vn 0.4101467 0.3302114 -0.2367985
vn 0.4101467 0.3302114 -0.2367985
vn 0.4101467 0.3302114 -0.2367985
vn 0.4735965 0.3302116 0
vn 0.4735965 0.3302116 0
vn 0.4735965 0.3302116 0
vt 0.841506 0.496513
vt 0.625 0.496513
vt 0.612072 0.612037
vt 0.806186 0.612037
vt 0.612072 0.612037
vt 0.625 0.496513
vt 0.841506 0.496513
vt 0.806186 0.612037
vt 0.387928 0.612037
vt 0.375 0.496513
vt 0.625 0.496513
vt 0.612072 0.612037
vt 0.158494 0.496513
vt 0.375 0.496513
vt 0.387928 0.612037
vt 0.193814 0.612037
vt 0.612072 0.612037
vt 0.625 0.496513
vt 0.841506 0.496513
vt 0.806186 0.612037
vt 0.387928 0.612037
vt 0.375 0.496513
vt 0.625 0.496513
vt 0.612072 0.612037
vt 0.158494 0.496513
vt 0.375 0.496513
vt 0.387928 0.612037
vt 0.193814 0.612037
vt 0.387928 0.612037
vt 0.375 0.496513
vt 0.158494 0.496513
vt 0.193814 0.612037
vt 0.625 0.496513
vt 0.375 0.496513
vt 0.387928 0.612037
vt 0.612072 0.612037
vt 0.841506 0.496513
vt 0.625 0.496513
vt 0.612072 0.612037
vt 0.806186 0.612037
vt 0.387928 0.612037
vt 0.375 0.496513
vt 0.158494 0.496513
vt 0.193814 0.612037
vt 0.625 0.496513
vt 0.375 0.496513
vt 0.387928 0.612037
vt 0.612072 0.612037
vt 0.938516 0.6175
vt 0.821016 0.821016
vt 0.724695 0.7125
vt 0.802476 0.57778
vt 0.821016 0.821016
vt 0.6175 0.938516
vt 0.589976 0.79028
vt 0.724695 0.7125
vt 0.6175 0.938516
vt 0.3825 0.938516
vt 0.434415 0.79028
vt 0.589976 0.79028
vt 0.3825 0.938516
vt 0.178984 0.821016
vt 0.299695 0.7125
vt 0.434415 0.79028
vt 0.178984 0.821016
vt 0.061484 0.6175
vt 0.221915 0.57778
vt 0.299695 0.7125
vt 0.061484 0.6175
vt 0.061484 0.3825
vt 0.221915 0.42222
vt 0.221915 0.57778
vt 0.221915 0.42222
vt 0.061484 0.3825
vt 0.178984 0.178984
vt 0.299695 0.2875
vt 0.299695 0.2875
vt 0.178984 0.178984
vt 0.3825 0.061484
vt 0.434415 0.20972
vt 0.434415 0.20972
vt 0.3825 0.061484
vt 0.6175 0.061484
vt 0.589976 0.20972
vt 0.589976 0.20972
vt 0.6175 0.061484
vt 0.821016 0.178984
vt 0.724695 0.2875
vt 0.724695 0.2875
vt 0.821016 0.178984
vt 0.938516 0.3825
vt 0.802476 0.42222
vt 0.802476 0.42222
vt 0.938516 0.3825
vt 0.938516 0.6175
vt 0.802476 0.57778
vt 0.6175 0.0925303
vt 0.62941 0.154587
vt 0.853553 0.154587
vt 0.821016 0.0925303
vt 0.853553 0.154587
vt 0.62941 0.154587
vt 0.6175 0.0925303
vt 0.821016 0.0925303
vt 0.6175 0.0925303
vt 0.62941 0.154587
vt 0.37059 0.154587
vt 0.3825 0.0925303
vt 0.3825 0.0925303
vt 0.37059 0.154587
vt 0.146447 0.154587
vt 0.178984 0.0925303
vt 0.853553 0.154587
vt 0.62941 0.154587
vt 0.6175 0.0925303
vt 0.821016 0.0925303
vt 0.6175 0.0925303
vt 0.62941 0.154587
vt 0.37059 0.154587
vt 0.3825 0.0925303
vt 0.3825 0.0925303
vt 0.37059 0.154587
vt 0.146447 0.154587
vt 0.178984 0.0925303
vt 0.146447 0.154587
vt 0.37059 0.154587
vt 0.3825 0.0925303
vt 0.178984 0.0925303
vt 0.3825 0.0925303
vt 0.37059 0.154587
vt 0.62941 0.154587
vt 0.6175 0.0925303
vt 0.6175 0.0925303
vt 0.62941 0.154587
vt 0.853553 0.154587
vt 0.821016 0.0925303
vt 0.146447 0.154587
vt 0.37059 0.154587
vt 0.3825 0.0925303
vt 0.178984 0.0925303
vt 0.3825 0.0925303
vt 0.37059 0.154587
vt 0.62941 0.154587
vt 0.6175 0.0925303
vt 0.375 0.496513
vt 0.37059 0.154587
vt 0.146447 0.154587
vt 0.158494 0.496513
vt 0.853553 0.154587
vt 0.62941 0.154587
vt 0.625 0.496513
vt 0.841506 0.496513
vt 0.62941 0.154587
vt 0.37059 0.154587
vt 0.375 0.496513
vt 0.625 0.496513
vt 0.375 0.496513
vt 0.37059 0.154587
vt 0.146447 0.154587
vt 0.158494 0.496513
vt 0.146447 0.154587
vt 0.37059 0.154587
vt 0.375 0.496513
vt 0.158494 0.496513
vt 0.37059 0.154587
vt 0.62941 0.154587
vt 0.625 0.496513
vt 0.375 0.496513
vt 0.625 0.496513
vt 0.62941 0.154587
vt 0.853553 0.154587
vt 0.841506 0.496513
vt 0.146447 0.154587
vt 0.37059 0.154587
vt 0.375 0.496513
vt 0.158494 0.496513
vt 0.37059 0.154587
vt 0.62941 0.154587
vt 0.625 0.496513
vt 0.375 0.496513
vt 0.625 0.496513
vt 0.62941 0.154587
vt 0.853553 0.154587
vt 0.841506 0.496513
vt 0.853553 0.154587
vt 0.62941 0.154587
vt 0.625 0.496513
vt 0.841506 0.496513
vt 0.62941 0.154587
vt 0.37059 0.154587
vt 0.375 0.496513
vt 0.625 0.496513
vt 0.724695 0.7125
vt 0.497561 0.5
vt 0.802476 0.57778
vt 0.589976 0.79028
vt 0.497561 0.5
vt 0.724695 0.7125
vt 0.434415 0.79028
vt 0.497561 0.5
vt 0.589976 0.79028
vt 0.299695 0.7125
vt 0.497561 0.5
vt 0.434415 0.79028
vt 0.221915 0.57778
vt 0.497561 0.5
vt 0.299695 0.7125
vt 0.221915 0.42222
vt 0.497561 0.5
vt 0.221915 0.57778
vt 0.299695 0.2875
vt 0.497561 0.5
vt 0.221915 0.42222
vt 0.434415 0.20972
vt 0.497561 0.5
vt 0.299695 0.2875
vt 0.589976 0.20972
vt 0.497561 0.5
vt 0.434415 0.20972
vt 0.724695 0.2875
vt 0.497561 0.5
vt 0.589976 0.20972
vt 0.802476 0.42222
vt 0.497561 0.5
vt 0.724695 0.2875
vt 0.802476 0.57778
vt 0.497561 0.5
vt 0.802476 0.42222
vt 0.5 1
vt 0.387928 0.612037
vt 0.193814 0.612037
vt 0.5 1
vt 0.612072 0.612037
vt 0.806186 0.612037
vt 0.5 1
vt 0.806186 0.612037
vt 0.612072 0.612037
vt 0.5 1
vt 0.387928 0.612037
vt 0.612072 0.612037
vt 0.5 1
vt 0.612072 0.612037
vt 0.387928 0.612037
vt 0.5 1
vt 0.193814 0.612037
vt 0.387928 0.612037
vt 0.5 1
vt 0.387928 0.612037
vt 0.193814 0.612037
vt 0.5 1
vt 0.387928 0.612037
vt 0.612072 0.612037
vt 0.5 1
vt 0.193814 0.612037
vt 0.387928 0.612037
vt 0.5 1
vt 0.612072 0.612037
vt 0.806186 0.612037
vt 0.5 1
vt 0.806186 0.612037
vt 0.612072 0.612037
vt 0.5 1
vt 0.612072 0.612037
vt 0.387928 0.612037
usemtl baseThingPartMaterial
f 3/3/3 2/2/2 1/1/1
f 4/4/4 3/3/3 1/1/1
f 7/7/7 6/6/6 5/5/5
f 8/8/8 7/7/7 5/5/5
f 11/11/11 10/10/10 9/9/9
f 12/12/12 11/11/11 9/9/9
f 15/15/15 14/14/14 13/13/13
f 16/16/16 15/15/15 13/13/13
f 19/19/19 18/18/18 17/17/17
f 20/20/20 19/19/19 17/17/17
f 23/23/23 22/22/22 21/21/21
f 24/24/24 23/23/23 21/21/21
f 27/27/27 26/26/26 25/25/25
f 28/28/28 27/27/27 25/25/25
f 31/31/31 30/30/30 29/29/29
f 32/32/32 31/31/31 29/29/29
f 35/35/35 34/34/34 33/33/33
f 36/36/36 35/35/35 33/33/33
f 39/39/39 38/38/38 37/37/37
f 40/40/40 39/39/39 37/37/37
f 43/43/43 42/42/42 41/41/41
f 44/44/44 43/43/43 41/41/41
f 47/47/47 46/46/46 45/45/45
f 48/48/48 47/47/47 45/45/45
f 51/51/51 50/50/50 49/49/49
f 52/52/52 51/51/51 49/49/49
f 55/55/55 54/54/54 53/53/53
f 56/56/56 55/55/55 53/53/53
f 59/59/59 58/58/58 57/57/57
f 60/60/60 59/59/59 57/57/57
f 63/63/63 62/62/62 61/61/61
f 64/64/64 63/63/63 61/61/61
f 67/67/67 66/66/66 65/65/65
f 68/68/68 67/67/67 65/65/65
f 71/71/71 70/70/70 69/69/69
f 72/72/72 71/71/71 69/69/69
f 75/75/75 74/74/74 73/73/73
f 76/76/76 75/75/75 73/73/73
f 79/79/79 78/78/78 77/77/77
f 80/80/80 79/79/79 77/77/77
f 83/83/83 82/82/82 81/81/81
f 84/84/84 83/83/83 81/81/81
f 87/87/87 86/86/86 85/85/85
f 88/88/88 87/87/87 85/85/85
f 91/91/91 90/90/90 89/89/89
f 92/92/92 91/91/91 89/89/89
f 95/95/95 94/94/94 93/93/93
f 96/96/96 95/95/95 93/93/93
f 99/99/99 98/98/98 97/97/97
f 100/100/100 99/99/99 97/97/97
f 103/103/103 102/102/102 101/101/101
f 104/104/104 103/103/103 101/101/101
f 107/107/107 106/106/106 105/105/105
f 108/108/108 107/107/107 105/105/105
f 111/111/111 110/110/110 109/109/109
f 112/112/112 111/111/111 109/109/109
f 115/115/115 114/114/114 113/113/113
f 116/116/116 115/115/115 113/113/113
f 119/119/119 118/118/118 117/117/117
f 120/120/120 119/119/119 117/117/117
f 123/123/123 122/122/122 121/121/121
f 124/124/124 123/123/123 121/121/121
f 127/127/127 126/126/126 125/125/125
f 128/128/128 127/127/127 125/125/125
f 131/131/131 130/130/130 129/129/129
f 132/132/132 131/131/131 129/129/129
f 135/135/135 134/134/134 133/133/133
f 136/136/136 135/135/135 133/133/133
f 139/139/139 138/138/138 137/137/137
f 140/140/140 139/139/139 137/137/137
f 143/143/143 142/142/142 141/141/141
f 144/144/144 143/143/143 141/141/141
f 147/147/147 146/146/146 145/145/145
f 148/148/148 147/147/147 145/145/145
f 151/151/151 150/150/150 149/149/149
f 152/152/152 151/151/151 149/149/149
f 155/155/155 154/154/154 153/153/153
f 156/156/156 155/155/155 153/153/153
f 159/159/159 158/158/158 157/157/157
f 160/160/160 159/159/159 157/157/157
f 163/163/163 162/162/162 161/161/161
f 164/164/164 163/163/163 161/161/161
f 167/167/167 166/166/166 165/165/165
f 168/168/168 167/167/167 165/165/165
f 171/171/171 170/170/170 169/169/169
f 172/172/172 171/171/171 169/169/169
f 175/175/175 174/174/174 173/173/173
f 176/176/176 175/175/175 173/173/173
f 179/179/179 178/178/178 177/177/177
f 180/180/180 179/179/179 177/177/177
f 183/183/183 182/182/182 181/181/181
f 184/184/184 183/183/183 181/181/181
f 187/187/187 186/186/186 185/185/185
f 188/188/188 187/187/187 185/185/185
f 191/191/191 190/190/190 189/189/189
f 192/192/192 191/191/191 189/189/189
f 195/195/195 194/194/194 193/193/193
f 198/198/198 197/197/197 196/196/196
f 201/201/201 200/200/200 199/199/199
f 204/204/204 203/203/203 202/202/202
f 207/207/207 206/206/206 205/205/205
f 210/210/210 209/209/209 208/208/208
f 213/213/213 212/212/212 211/211/211
f 216/216/216 215/215/215 214/214/214
f 219/219/219 218/218/218 217/217/217
f 222/222/222 221/221/221 220/220/220
f 225/225/225 224/224/224 223/223/223
f 228/228/228 227/227/227 226/226/226
f 231/231/231 230/230/230 229/229/229
f 234/234/234 233/233/233 232/232/232
f 237/237/237 236/236/236 235/235/235
f 240/240/240 239/239/239 238/238/238
f 243/243/243 242/242/242 241/241/241
f 246/246/246 245/245/245 244/244/244
f 249/249/249 248/248/248 247/247/247
f 252/252/252 251/251/251 250/250/250
f 255/255/255 254/254/254 253/253/253
f 258/258/258 257/257/257 256/256/256
f 261/261/261 260/260/260 259/259/259
f 264/264/264 263/263/263 262/262/262
