# Export of Universe
# from Aaro4130 OBJ Exporter v2.0
mtllib 191.mtl
g DropRing
v 1.44957 -0.5 -1.44957
v 0.530579 -0.5 -1.98015
v -0.530579 -0.5 -1.98015
v -1.44957 -0.5 -1.44957
v 1.98015 -0.5 -0.530579
v -1.98015 -0.5 -0.530579
v 1.98015 -0.5 0.530579
v -1.98015 -0.5 0.530579
v 1.44957 -0.5 1.44957
v -1.44957 -0.5 1.44957
v 0.530579 -0.5 1.98015
v -0.530579 -0.5 1.98015
v 1.98919 0.517638 0.533
v 1.98015 -0.5 0.530579
v 1.44957 -0.5 1.44957
v 1.45619 0.517638 1.45619
v 1.98015 -0.5 -0.530579
v 1.98919 0.517638 -0.533
v 1.44957 -0.5 -1.44957
v 1.45619 0.517638 -1.45619
v 1.44957 -0.5 1.44957
v 0.530579 -0.5 1.98015
v 0.533 0.517638 1.98919
v 1.45619 0.517638 1.45619
v -0.533 0.517638 1.98919
v -0.530579 -0.5 1.98015
v -1.44957 -0.5 1.44957
v -1.45619 0.517638 1.45619
v -1.44957 -0.5 1.44957
v -1.98015 -0.5 0.530579
v -1.98919 0.517638 0.533
v -1.45619 0.517638 1.45619
v -1.98919 0.517638 -0.533
v -1.98015 -0.5 -0.530579
v -1.44957 -0.5 -1.44957
v -1.45619 0.517638 -1.45619
v -1.44957 -0.5 -1.44957
v -0.530579 -0.5 -1.98015
v -0.533 0.517638 -1.98919
v -1.45619 0.517638 -1.45619
v 0.533 0.517638 -1.98919
v 0.530579 -0.5 -1.98015
v 1.44957 -0.5 -1.44957
v 1.45619 0.517638 -1.45619
v -1.45619 0.517638 -1.45619
v -0.533 0.517638 -1.98919
v 0.533 0.517638 -1.98919
v 1.45619 0.517638 -1.45619
v -1.98919 0.517638 -0.533
v 1.98919 0.517638 -0.533
v -1.98919 0.517638 0.533
v 1.98919 0.517638 0.533
v -1.45619 0.517638 1.45619
v 1.45619 0.517638 1.45619
v -0.533 0.517638 1.98919
v 0.533 0.517638 1.98919
vn 0 -0.5773503 0
vn 0 -0.5773503 0
vn 0 -0.5773503 0
vn 0 -0.5773503 0
vn 0 -0.5773503 0
vn 0 -0.5773503 0
vn 0 -0.5773503 0
vn 0 -0.5773503 0
vn 0 -0.5773503 0
vn 0 -0.5773503 0
vn 0 -0.5773503 0
vn 0 -0.5773503 0
vn 0.557654 -0.005309856 0.1494227
vn 0.557654 -0.005309856 0.1494229
vn 0.408231 -0.005310241 0.408231
vn 0.408231 -0.00531024 0.408231
vn 0.557654 -0.005309854 -0.1494229
vn 0.557654 -0.005309854 -0.1494227
vn 0.408231 -0.00531023 -0.408231
vn 0.408231 -0.005310229 -0.408231
vn 0.408231 -0.005310241 0.408231
vn 0.1494229 -0.005309864 0.557654
vn 0.1494227 -0.005309863 0.557654
vn 0.408231 -0.00531024 0.408231
vn -0.1494227 -0.005309864 0.557654
vn -0.1494229 -0.005309864 0.557654
vn -0.408231 -0.005310245 0.408231
vn -0.408231 -0.005310244 0.408231
vn -0.408231 -0.005310245 0.408231
vn -0.557654 -0.005309861 0.1494229
vn -0.557654 -0.00530986 0.1494227
vn -0.408231 -0.005310244 0.408231
vn -0.557654 -0.00530986 -0.1494227
vn -0.557654 -0.005309861 -0.1494229
vn -0.408231 -0.005310235 -0.408231
vn -0.408231 -0.005310235 -0.408231
vn -0.408231 -0.005310235 -0.408231
vn -0.1494229 -0.005309855 -0.557654
vn -0.1494227 -0.005309854 -0.557654
vn -0.408231 -0.005310235 -0.408231
vn 0.1494227 -0.005309855 -0.557654
vn 0.1494229 -0.005309856 -0.557654
vn 0.408231 -0.00531023 -0.408231
vn 0.408231 -0.005310229 -0.408231
vn 0 0.5773503 0
vn 0 0.5773503 0
vn 0 0.5773503 0
vn 0 0.5773503 0
vn 0 0.5773503 0
vn 0 0.5773503 0
vn 0 0.5773503 0
vn 0 0.5773503 0
vn 0 0.5773503 0
vn 0 0.5773503 0
vn 0 0.5773503 0
vn 0 0.5773503 0
vt 0.864362 0.864362
vt 0.633366 0.997728
vt 0.366634 0.997728
vt 0.135638 0.864362
vt 0.997728 0.633366
vt 0.0022716 0.633366
vt 0.997728 0.366634
vt 0.0022716 0.366634
vt 0.864362 0.135638
vt 0.135638 0.135638
vt 0.633366 0.0022716
vt 0.366634 0.0022716
vt 0.366026 1
vt 0.366634 0
vt 0.135638 0
vt 0.133974 1
vt 0.633366 0
vt 0.633974 1
vt 0.864362 0
vt 0.866026 1
vt 0.864362 0
vt 0.633366 0
vt 0.633974 1
vt 0.866026 1
vt 0.366026 1
vt 0.366634 0
vt 0.135638 0
vt 0.133974 1
vt 0.135638 0
vt 0.366634 0
vt 0.366026 1
vt 0.133974 1
vt 0.633974 1
vt 0.633366 0
vt 0.864362 0
vt 0.866026 1
vt 0.135638 0
vt 0.366634 0
vt 0.366026 1
vt 0.133974 1
vt 0.633974 1
vt 0.633366 0
vt 0.864362 0
vt 0.866026 1
vt 0.133974 0.866026
vt 0.366026 1
vt 0.633974 1
vt 0.866026 0.866026
vt 0 0.633974
vt 1 0.633974
vt 0 0.366026
vt 1 0.366026
vt 0.133974 0.133974
vt 0.866026 0.133974
vt 0.366026 0
vt 0.633974 0
usemtl baseThingPartMaterial
f 3/3/3 2/2/2 1/1/1
f 1/1/1 4/4/4 3/3/3
f 1/1/1 5/5/5 4/4/4
f 5/5/5 6/6/6 4/4/4
f 5/5/5 7/7/7 6/6/6
f 7/7/7 8/8/8 6/6/6
f 7/7/7 9/9/9 8/8/8
f 9/9/9 10/10/10 8/8/8
f 9/9/9 11/11/11 10/10/10
f 11/11/11 12/12/12 10/10/10
f 15/15/15 14/14/14 13/13/13
f 16/16/16 15/15/15 13/13/13
f 13/13/13 14/14/14 17/17/17
f 18/18/18 13/13/13 17/17/17
f 18/18/18 17/17/17 19/19/19
f 20/20/20 18/18/18 19/19/19
f 23/23/23 22/22/22 21/21/21
f 24/24/24 23/23/23 21/21/21
f 23/23/23 25/25/25 22/22/22
f 25/25/25 26/26/26 22/22/22
f 27/27/27 26/26/26 25/25/25
f 28/28/28 27/27/27 25/25/25
f 31/31/31 30/30/30 29/29/29
f 32/32/32 31/31/31 29/29/29
f 31/31/31 33/33/33 30/30/30
f 33/33/33 34/34/34 30/30/30
f 35/35/35 34/34/34 33/33/33
f 36/36/36 35/35/35 33/33/33
f 39/39/39 38/38/38 37/37/37
f 40/40/40 39/39/39 37/37/37
f 39/39/39 41/41/41 38/38/38
f 41/41/41 42/42/42 38/38/38
f 43/43/43 42/42/42 41/41/41
f 44/44/44 43/43/43 41/41/41
f 47/47/47 46/46/46 45/45/45
f 45/45/45 48/48/48 47/47/47
f 45/45/45 49/49/49 48/48/48
f 49/49/49 50/50/50 48/48/48
f 49/49/49 51/51/51 50/50/50
f 51/51/51 52/52/52 50/50/50
f 51/51/51 53/53/53 52/52/52
f 53/53/53 54/54/54 52/52/52
f 53/53/53 55/55/55 54/54/54
f 55/55/55 56/56/56 54/54/54
