# Export of Universe
# from Aaro4130 OBJ Exporter v2.0
mtllib 195.mtl
g Drop3Jitter
v 1.41536 2.06576 -1.40201
v 1.84047 1.89022 -0.49068
v 1.67578 2.60114 -0.367268
v 1.56366 2.35575 -1.34751
v 1.77639 2.21705 0.488405
v 1.85639 2.03466 0.458543
v 1.31995 1.86338 1.3778
v 1.15011 2.48342 1.01126
v 1.16043 3.43324 -0.0298489
v 0.615561 3.68472 -0.819641
v 0.7262 3.56661 0.425246
v 0.765957 3.50076 0.672489
v 0.552902 4.19746 -0.0608042
v 0.329822 4.13759 -0.264374
v 0.553843 4.1615 0.228692
v 0.225876 3.96218 0.345336
v 0.552902 4.19746 -0.0608042
v 1.6018 -1.51544 1.53448
v 1.80076 -1.3632 0.729174
v 1.93643 -1.86511 0.211292
v 1.50141 -1.71994 1.29478
v 2.15497 -1.32293 -0.455833
v 1.70606 -1.94209 -0.523094
v 1.45264 -1.50613 -1.37857
v 1.3781 -1.94385 -1.39342
v 0.598401 2.43271 -1.77209
v 0.461133 1.99165 -1.88251
v 1.41536 2.06576 -1.40201
v 1.56366 2.35575 -1.34751
v -0.525793 2.54935 -1.89332
v -0.247103 1.74993 -2.0986
v 0.482969 3.30154 -1.06622
v 0.615561 3.68472 -0.819641
v -0.157818 3.35581 -0.954488
v 0.170306 4.06754 -0.525328
v 0.329822 4.13759 -0.264374
v -0.0977851 4.10956 -0.483922
v -0.326325 4.21852 -0.274914
v -0.84227 3.43796 -0.670809
v -1.22087 2.26361 -1.08608
v -0.525793 2.54935 -1.89332
v -1.47408 1.83968 -1.67454
v -1.54259 -1.51331 -1.47415
v -0.759938 -1.29269 -1.76416
v -0.648661 -1.87692 -1.70451
v 0.467211 -2.12158 -1.78459
v 0.847217 -1.5812 -2.12403
v -1.19619 -1.82261 -1.05214
v 0.847217 -1.5812 -2.12403
v 1.45264 -1.50613 -1.37857
v 0.467211 -2.12158 -1.78459
v 1.3781 -1.94385 -1.39342
v -1.66557 2.4343 -0.448384
v -1.77836 1.86278 -0.531414
v -1.47408 1.83968 -1.67454
v -1.22087 2.26361 -1.08608
v -1.70774 2.37274 0.454768
v -1.86054 1.92808 0.478583
v -1.4507 1.87963 1.30793
v -1.19217 2.59897 1.57557
v -1.02504 3.84652 -0.458656
v -0.84227 3.43796 -0.670809
v -1.07702 3.23178 0.537475
v -1.02504 3.84652 -0.458656
v -0.767504 3.49983 0.837103
v -0.601511 4.31061 -0.0897124
v -0.326325 4.21852 -0.274914
v -0.483902 4.17544 0.138412
v -0.601511 4.31061 -0.0897124
v -0.543949 4.16867 0.36898
v -1.43558 -1.57395 1.35659
v -2.21501 -1.54735 0.382311
v -1.75478 -2.05262 0.553858
v -1.28565 -1.8553 1.42894
v -0.45727 2.53183 1.65192
v -0.799674 1.85807 1.94242
v -1.4507 1.87963 1.30793
v -1.19217 2.59897 1.57557
v 0.331651 1.94139 2.21282
v 0.450735 2.44969 1.73799
v 0.363425 3.51253 0.812568
v -0.244275 3.31334 0.986568
v -1.19217 2.59897 1.57557
v -0.767504 3.49983 0.837103
v 1.15011 2.48342 1.01126
v 1.31995 1.86338 1.3778
v 0.331651 1.94139 2.21282
v 0.765957 3.50076 0.672489
v -0.327583 4.17245 0.788065
v -0.543949 4.16867 0.36898
v -0.327583 4.17245 0.788065
v 0.0231331 4.0116 0.404007
v 0.225876 3.96218 0.345336
v 1.6018 -1.51544 1.53448
v 0.473443 -1.48594 1.95202
v -0.799674 1.85807 1.94242
v -0.50202 -1.19135 2.06948
v -0.54424 -1.95593 1.8435
v 0.618829 -1.9074 1.67903
v 1.6018 -1.51544 1.53448
v 1.50141 -1.71994 1.29478
v 1.70606 -1.94209 -0.523094
v 1.3781 -1.94385 -1.39342
v 0.801589 -2.05343 -0.919803
v 1.20532 -2.27306 -0.284469
v 0.240436 -2.1337 -1.09217
v 0.467211 -2.12158 -1.78459
v -0.287991 -2.40653 -1.19849
v -0.648661 -1.87692 -1.70451
v 1.16866 -2.2495 0.286565
v 1.93643 -1.86511 0.211292
v 0.901012 -2.28533 0.842287
v 1.50141 -1.71994 1.29478
v 0.111724 -2.37858 1.22429
v 0.618829 -1.9074 1.67903
v -0.49089 -2.49301 1.15933
v -0.54424 -1.95593 1.8435
v -0.786461 -2.42131 0.888053
v -1.28565 -1.8553 1.42894
v -1.20227 -2.46725 0.39778
v -1.75478 -2.05262 0.553858
v -0.01 -2.48 0
v -0.49089 -2.49301 1.15933
v -0.786461 -2.42131 0.888053
v -1.20227 -2.46725 0.39778
v -1.08765 -2.26074 -0.15956
v -1.94565 -1.77981 -0.425044
v -1.19619 -1.82261 -1.05214
v -0.973027 -2.4071 -0.884181
v -0.648661 -1.87692 -1.70451
v -0.287991 -2.40653 -1.19849
v -1.75478 -2.05262 0.553858
v -0.973027 -2.4071 -0.884181
v -1.54259 -1.51331 -1.47415
v -1.9088 -1.42966 -0.604003
v -1.94565 -1.77981 -0.425044
v -1.19619 -1.82261 -1.05214
v -2.21501 -1.54735 0.382311
v -1.75478 -2.05262 0.553858
v -1.54259 -1.51331 -1.47415
v -1.43558 -1.57395 1.35659
v -0.50202 -1.19135 2.06948
v -0.54424 -1.95593 1.8435
v -1.28565 -1.8553 1.42894
v 0.552902 4.19746 -0.0608042
v 0.553843 4.1615 0.228692
v 0.284942 4.3 0.0763499
v 0.284942 4.3 -0.0763499
v 7.45058E-10 4.35949 0
v 0.208592 4.3 0.208592
v 0.0763499 4.3 0.284942
v -0.0763499 4.3 0.284942
v -0.208592 4.3 0.208592
v -0.327583 4.17245 0.788065
v -0.543949 4.16867 0.36898
v -0.483902 4.17544 0.138412
v -0.284942 4.3 0.0763499
v -0.601511 4.31061 -0.0897124
v -0.284942 4.3 -0.0763499
v -0.208592 4.3 -0.208592
v -0.0763499 4.3 -0.284942
v -0.0977851 4.10956 -0.483922
v 0.170306 4.06754 -0.525328
v 0.0763499 4.3 -0.284942
v 0.208592 4.3 -0.208592
v 0.329822 4.13759 -0.264374
v 0.552902 4.19746 -0.0608042
v -0.326325 4.21852 -0.274914
v -0.601511 4.31061 -0.0897124
v 0.553843 4.1615 0.228692
v 0.225876 3.96218 0.345336
v 0.208592 4.3 0.208592
v 0.284942 4.3 0.0763499
v 0.0231331 4.0116 0.404007
v 0.0763499 4.3 0.284942
v -0.0763499 4.3 0.284942
v -0.327583 4.17245 0.788065
vn 0.4268577 0.02974657 -0.3876093
vn 0.564101 0.03214564 -0.1187012
vn 0.4906006 0.3002944 -0.04967627
vn 0.5001314 0.236455 -0.1651998
vn 0.4777788 0.2645269 0.1873131
vn 0.5549001 0.05128245 0.1509613
vn 0.4150903 0.0547034 0.3975436
vn 0.3672612 0.2953589 0.3334903
vn 0.4597886 0.3491736 -0.002366367
vn 0.4155373 0.3600024 -0.1762394
vn 0.4187075 0.313127 0.2448854
vn 0.3467302 0.3181446 0.3345079
vn 0.3749863 0.3767624 -0.2253191
vn 0.3236541 0.3936461 -0.2713377
vn 0.374927 0.3219112 0.298557
vn 0.1771991 0.3760071 0.40069
vn 0.4457742 0.292805 0.2210971
vn 0.5302746 0.0164654 0.2277522
vn 0.5539843 0.009603473 0.1623035
vn 0.5476745 -0.1725967 0.05996985
vn 0.5254641 -0.1622558 0.1757665
vn 0.5653259 0.001972132 -0.1172009
vn 0.5204948 -0.205768 -0.1416967
vn 0.4317884 -0.008424435 -0.3831724
vn 0.4033453 -0.2543955 -0.3254671
vn 0.1305818 0.2830429 -0.4859716
vn 0.1722666 0.03130034 -0.5501617
vn 0.4268577 0.02974657 -0.3876093
vn 0.2045143 0.2450591 -0.4810959
vn 0.06006597 0.3228379 -0.4748696
vn -0.09966056 0.01293503 -0.5685365
vn 0.1022607 0.3627923 -0.4373303
vn 0.1375647 0.3624126 -0.4278626
vn -0.1396463 0.3744728 -0.4166562
vn 0.007402507 0.3554204 -0.4549229
vn 0.3236541 0.3936461 -0.2713377
vn -0.1238928 0.3282807 -0.4584928
vn -0.1218395 0.3465531 -0.4454093
vn -0.3041987 0.2894276 -0.3962677
vn -0.3558913 0.2944815 -0.3463456
vn -0.3080012 0.3106252 -0.376803
vn -0.4106012 0.03602041 -0.4042802
vn -0.2234539 -0.1029935 -0.5222968
vn -0.1270918 -0.04450357 -0.5614271
vn -0.1942761 -0.259261 -0.4778848
vn -0.1193535 -0.1633718 -0.5407382
vn -0.04955679 -0.03248735 -0.5743013
vn -0.3206404 -0.3898184 -0.2802939
vn 0.357713 -0.0074301 -0.453122
vn 0.4317884 -0.008424435 -0.3831724
vn 0.3318077 -0.2803981 -0.3802814
vn 0.4033453 -0.2543955 -0.3254671
vn -0.5017003 0.2609313 -0.1163828
vn -0.5557431 0.05558078 -0.146266
vn -0.4106012 0.03602041 -0.4042802
vn -0.3558913 0.2944815 -0.3463456
vn -0.5151618 0.236889 0.1087439
vn -0.5607942 0.04956076 0.1280113
vn -0.4387225 0.02598465 0.3744071
vn -0.4799956 0.2660671 0.1792925
vn -0.220839 0.2758361 -0.4565938
vn -0.3041987 0.2894276 -0.3962677
vn -0.4767706 0.3036094 0.1176625
vn -0.4780279 0.295821 0.1315776
vn -0.4653828 0.3166181 0.1284729
vn -0.05102947 0.3429844 -0.4616178
vn -0.1218395 0.3465531 -0.4454093
vn -0.4259022 0.3447648 0.1818733
vn -0.4315614 0.3163048 0.2168854
vn -0.4241084 0.3815933 0.08861111
vn -0.4347187 -0.01921427 0.379452
vn -0.4806197 0.002066155 0.3198965
vn -0.353095 -0.3548685 0.2876207
vn -0.327345 -0.2984311 0.3702937
vn -0.06634822 0.3309229 0.4684243
vn -0.3360399 0.04972826 0.4668379
vn -0.4387225 0.02598465 0.3744071
vn -0.2520676 0.1170372 0.5060608
vn -0.08143263 0.3327073 0.4647665
vn 0.1614224 0.3432539 0.4352618
vn 0.1868986 0.3452315 0.4233408
vn 0.001538821 0.357454 0.4533846
vn -0.004631934 0.3709193 0.4424146
vn -0.1134931 0.3281468 0.4612725
vn 0.3672612 0.2953589 0.3334903
vn 0.4150903 0.0547034 0.3975436
vn 0.1603326 0.01864073 0.5543278
vn 0.3467302 0.3181446 0.3345079
vn -0.2893222 0.2218658 0.4476623
vn -0.2893223 0.2218658 0.4476623
vn 0.2584515 0.2756819 0.4365039
vn 0.2487407 0.3010501 0.4252414
vn 0.1771991 0.3760071 0.40069
vn 0.2943823 0.01072742 0.4965453
vn 0.1631736 -0.03785096 0.552517
vn -0.04326662 -0.01482003 0.575536
vn -0.03309049 -0.03945711 0.5750492
vn -0.03082875 -0.3797468 0.4337917
vn 0.1481834 -0.3928149 0.3963223
vn 0.1965302 -0.335459 0.4268213
vn 0.2419283 -0.442981 0.2803067
vn 0.2005034 -0.5352094 -0.08174732
vn 0.1154848 -0.5607736 -0.07436123
vn 0.1012175 -0.5595719 -0.09983785
vn 0.1624518 -0.5472801 -0.08618144
vn 0.1092578 -0.5532848 -0.1235799
vn 0.06139219 -0.5645612 -0.1040912
vn 0.06262238 -0.5542228 -0.1491605
vn 0.0128147 -0.5254295 -0.2389412
vn 0.2367155 -0.52008 0.08255851
vn 0.2884385 -0.4920295 0.08968584
vn 0.2073655 -0.5108654 0.1713169
vn 0.2419283 -0.442981 0.2803067
vn 0.1106298 -0.5068325 0.2534072
vn 0.1481834 -0.3928149 0.3963223
vn -0.1097834 -0.4581115 0.3337886
vn -0.03082875 -0.3797468 0.4337917
vn -0.2573281 -0.4458335 0.2614347
vn -0.327345 -0.2984311 0.3702937
vn -0.2580776 -0.4530267 0.2479841
vn -0.353095 -0.3548685 0.2876207
vn 0.04712419 -0.5742241 -0.03714046
vn 0.02824787 -0.5766349 0.005246207
vn -0.03467106 -0.5762559 0.007769551
vn -0.1904048 -0.5333675 -0.1122429
vn -0.2538028 -0.5051933 -0.1170348
vn -0.4015957 -0.3880872 -0.1464327
vn -0.3206404 -0.3898184 -0.2802939
vn -0.3254377 -0.3994156 -0.2605586
vn -0.1942761 -0.259261 -0.4778848
vn -0.287829 -0.3607187 -0.3469435
vn -0.3626476 -0.4319614 -0.1234074
vn -0.0644225 -0.5732876 0.02290019
vn -0.2234539 -0.1029935 -0.5222968
vn -0.5563568 -0.009342478 -0.1539904
vn -0.4015957 -0.3880872 -0.1464327
vn -0.3206404 -0.3898184 -0.2802939
vn -0.5672009 0.000709491 -0.1077773
vn -0.3626476 -0.4319614 -0.1234074
vn -0.5474305 0.01286963 -0.1829958
vn -0.4347187 -0.01921427 0.379452
vn -0.3681024 -0.01417141 0.4445595
vn -0.3054375 -0.1018461 0.4792375
vn -0.327345 -0.2984311 0.3702937
vn 0.224684 0.5301254 0.04263263
vn 0.2246839 0.5301254 0.04263263
vn 0.190422 0.5436616 0.03879198
vn 0.221941 0.5200694 -0.1166332
vn 0 0.5773503 0
vn 0.08070444 0.5659566 0.08070444
vn 0.02953989 0.5659566 0.1102443
vn -0.1161725 0.557151 0.09705721
vn -0.1510345 0.5517341 0.07817496
vn -0.1384754 0.5526915 0.09322014
vn -0.4241084 0.3815933 0.08861111
vn -0.4259022 0.3447648 0.1818733
vn -0.1573652 0.5459482 0.1025186
vn -0.09593219 0.5265453 0.2165188
vn -0.08612916 0.5708458 -0.007087077
vn -0.1041481 0.5126296 -0.2443305
vn -0.06107057 0.4710686 -0.3281739
vn -0.1238928 0.3282807 -0.4584928
vn 0.007402507 0.3554204 -0.4549229
vn 0.112889 0.4627596 -0.3262559
vn 0.231472 0.4564643 -0.2671972
vn 0.3236541 0.3936461 -0.2713377
vn 0.3749863 0.3767624 -0.2253191
vn -0.1218395 0.3465531 -0.4454093
vn -0.05102947 0.3429844 -0.4616178
vn 0.374927 0.3219112 0.298557
vn 0.1771991 0.3760071 0.40069
vn 0.1559577 0.2888566 0.4749447
vn 0.1104637 0.341042 0.452572
vn 0.2487407 0.3010501 0.4252414
vn 0.3063178 0.239304 0.4268914
vn 0.3608776 0.272633 0.358848
vn 0.2584515 0.2756819 0.4365039
vt 0.841506 0.769985
vt 0.625 0.769985
vt 0.612072 0.876479
vt 0.806186 0.876479
vt 0.387928 0.876479
vt 0.375 0.769985
vt 0.158494 0.769985
vt 0.193814 0.876479
vt 0.565999 1.11399
vt 0.680312 1.11399
vt 0.434001 1.11399
vt 0.319688 1.11399
vt 0.533494 1.25679
vt 0.591506 1.25679
vt 0.466506 1.25679
vt 0.408494 1.25679
vt 0.533494 1.25679
vt 0.146447 0.00441551
vt 0.37059 0.00441551
vt 0.3825 -0.0824387
vt 0.178984 -0.0824387
vt 0.62941 0.00441551
vt 0.6175 -0.0824387
vt 0.853553 0.00441551
vt 0.821016 -0.0824387
vt 0.612072 0.876479
vt 0.625 0.769985
vt 0.841506 0.769985
vt 0.806186 0.876479
vt 0.387928 0.876479
vt 0.375 0.769985
vt 0.567293 1.11399
vt 0.683848 1.11399
vt 0.432707 1.11399
vt 0.533494 1.25679
vt 0.591506 1.25679
vt 0.466506 1.25679
vt 0.408494 1.25679
vt 0.316152 1.11399
vt 0.193814 0.876479
vt 0.387928 0.876479
vt 0.158494 0.769985
vt 0.146447 0.00441551
vt 0.37059 0.00441551
vt 0.3825 -0.0824387
vt 0.6175 -0.0824387
vt 0.62941 0.00441551
vt 0.178984 -0.0824387
vt 0.62941 0.00441551
vt 0.853553 0.00441551
vt 0.6175 -0.0824387
vt 0.821016 -0.0824387
vt 0.612072 0.876479
vt 0.625 0.769985
vt 0.841506 0.769985
vt 0.806186 0.876479
vt 0.387928 0.876479
vt 0.375 0.769985
vt 0.158494 0.769985
vt 0.193814 0.876479
vt 0.565999 1.11399
vt 0.680312 1.11399
vt 0.434001 1.11399
vt 0.565999 1.11399
vt 0.319688 1.11399
vt 0.533494 1.25679
vt 0.591506 1.25679
vt 0.466506 1.25679
vt 0.533494 1.25679
vt 0.408494 1.25679
vt 0.146447 0.00441551
vt 0.37059 0.00441551
vt 0.3825 -0.0824387
vt 0.178984 -0.0824387
vt 0.387928 0.876479
vt 0.375 0.769985
vt 0.158494 0.769985
vt 0.193814 0.876479
vt 0.625 0.769985
vt 0.612072 0.876479
vt 0.567293 1.11399
vt 0.432707 1.11399
vt 0.193814 0.876479
vt 0.316152 1.11399
vt 0.806186 0.876479
vt 0.841506 0.769985
vt 0.625 0.769985
vt 0.683848 1.11399
vt 0.466506 1.25679
vt 0.408494 1.25679
vt 0.466506 1.25679
vt 0.533494 1.25679
vt 0.591506 1.25679
vt 0.853553 0.00441551
vt 0.62941 0.00441551
vt 0.375 0.769985
vt 0.37059 0.00441551
vt 0.3825 -0.0824387
vt 0.6175 -0.0824387
vt 0.853553 0.00441551
vt 0.821016 -0.0824387
vt 0.938516 0.6175
vt 0.821016 0.821016
vt 0.724695 0.7125
vt 0.802476 0.57778
vt 0.589976 0.79028
vt 0.6175 0.938516
vt 0.434415 0.79028
vt 0.3825 0.938516
vt 0.802476 0.42222
vt 0.938516 0.3825
vt 0.724695 0.2875
vt 0.821016 0.178984
vt 0.589976 0.20972
vt 0.6175 0.061484
vt 0.434415 0.20972
vt 0.3825 0.061484
vt 0.299695 0.2875
vt 0.178984 0.178984
vt 0.221915 0.42222
vt 0.061484 0.3825
vt 0.497561 0.5
vt 0.434415 0.20972
vt 0.299695 0.2875
vt 0.221915 0.42222
vt 0.221915 0.57778
vt 0.061484 0.6175
vt 0.178984 0.821016
vt 0.299695 0.7125
vt 0.3825 0.938516
vt 0.434415 0.79028
vt 0.061484 0.3825
vt 0.299695 0.7125
vt 0.853553 0.00441551
vt 0.62941 0.00441551
vt 0.6175 -0.0824387
vt 0.821016 -0.0824387
vt 0.37059 0.00441551
vt 0.3825 -0.0824387
vt 0.853553 0.00441551
vt 0.146447 0.00441551
vt 0.37059 0.00441551
vt 0.3825 -0.0824387
vt 0.178984 -0.0824387
vt 0.625 0.533494
vt 0.625 0.466506
vt 0.569498 0.481378
vt 0.569498 0.518622
vt 0.5 0.5
vt 0.550876 0.449124
vt 0.518622 0.430502
vt 0.481378 0.430502
vt 0.449124 0.449124
vt 0.466506 0.375
vt 0.408494 0.408494
vt 0.375 0.466506
vt 0.430502 0.481378
vt 0.375 0.533494
vt 0.430502 0.518622
vt 0.449124 0.550876
vt 0.481378 0.569498
vt 0.466506 0.625
vt 0.533494 0.625
vt 0.518622 0.569498
vt 0.550876 0.550876
vt 0.591506 0.591506
vt 0.625 0.533494
vt 0.408494 0.591506
vt 0.375 0.533494
vt 0.625 0.466506
vt 0.591506 0.408494
vt 0.550876 0.449124
vt 0.569498 0.481378
vt 0.533494 0.375
vt 0.518622 0.430502
vt 0.481378 0.430502
vt 0.466506 0.375
usemtl baseThingPartMaterial
f 3/3/3 2/2/2 1/1/1
f 4/4/4 3/3/3 1/1/1
f 3/3/3 5/5/5 2/2/2
f 5/5/5 6/6/6 2/2/2
f 7/7/7 6/6/6 5/5/5
f 8/8/8 7/7/7 5/5/5
f 9/9/9 3/3/3 4/4/4
f 10/10/10 9/9/9 4/4/4
f 8/8/8 5/5/5 11/11/11
f 11/11/11 5/5/5 3/3/3
f 9/9/9 11/11/11 3/3/3
f 12/12/12 8/8/8 11/11/11
f 13/13/13 9/9/9 10/10/10
f 14/14/14 13/13/13 10/10/10
f 12/12/12 11/11/11 15/15/15
f 15/15/15 11/11/11 9/9/9
f 16/16/16 12/12/12 15/15/15
f 17/17/17 15/15/15 9/9/9
f 7/7/7 18/18/18 6/6/6
f 18/18/18 19/19/19 6/6/6
f 20/20/20 19/19/19 18/18/18
f 21/21/21 20/20/20 18/18/18
f 22/22/22 19/19/19 20/20/20
f 23/23/23 22/22/22 20/20/20
f 24/24/24 22/22/22 23/23/23
f 25/25/25 24/24/24 23/23/23
f 2/2/2 22/22/22 24/24/24
f 1/1/1 2/2/2 24/24/24
f 6/6/6 19/19/19 22/22/22
f 2/2/2 6/6/6 22/22/22
f 28/28/28 27/27/27 26/26/26
f 29/29/29 28/28/28 26/26/26
f 26/26/26 27/27/27 30/30/30
f 27/27/27 31/31/31 30/30/30
f 29/29/29 26/26/26 32/32/32
f 33/33/33 29/29/29 32/32/32
f 26/26/26 30/30/30 34/34/34
f 32/32/32 26/26/26 34/34/34
f 33/33/33 32/32/32 35/35/35
f 36/36/36 33/33/33 35/35/35
f 32/32/32 34/34/34 37/37/37
f 35/35/35 32/32/32 37/37/37
f 37/37/37 34/34/34 38/38/38
f 34/34/34 39/39/39 38/38/38
f 39/39/39 34/34/34 40/40/40
f 34/34/34 41/41/41 40/40/40
f 41/41/41 31/31/31 42/42/42
f 40/40/40 41/41/41 42/42/42
f 42/42/42 31/31/31 43/43/43
f 31/31/31 44/44/44 43/43/43
f 43/43/43 44/44/44 45/45/45
f 45/45/45 44/44/44 46/46/46
f 44/44/44 47/47/47 46/46/46
f 48/48/48 43/43/43 45/45/45
f 27/27/27 47/47/47 44/44/44
f 31/31/31 27/27/27 44/44/44
f 50/50/50 49/49/49 27/27/27
f 51/51/51 49/49/49 50/50/50
f 52/52/52 51/51/51 50/50/50
f 28/28/28 50/50/50 27/27/27
f 55/55/55 54/54/54 53/53/53
f 56/56/56 55/55/55 53/53/53
f 53/53/53 54/54/54 57/57/57
f 54/54/54 58/58/58 57/57/57
f 57/57/57 58/58/58 59/59/59
f 60/60/60 57/57/57 59/59/59
f 56/56/56 53/53/53 61/61/61
f 62/62/62 56/56/56 61/61/61
f 53/53/53 57/57/57 63/63/63
f 63/63/63 57/57/57 60/60/60
f 64/64/64 53/53/53 63/63/63
f 65/65/65 63/63/63 60/60/60
f 62/62/62 61/61/61 66/66/66
f 67/67/67 62/62/62 66/66/66
f 64/64/64 63/63/63 68/68/68
f 68/68/68 63/63/63 65/65/65
f 69/69/69 64/64/64 68/68/68
f 70/70/70 68/68/68 65/65/65
f 59/59/59 58/58/58 71/71/71
f 58/58/58 72/72/72 71/71/71
f 71/71/71 72/72/72 73/73/73
f 74/74/74 71/71/71 73/73/73
f 77/77/77 76/76/76 75/75/75
f 78/78/78 77/77/77 75/75/75
f 75/75/75 76/76/76 79/79/79
f 80/80/80 75/75/75 79/79/79
f 75/75/75 80/80/80 81/81/81
f 82/82/82 75/75/75 81/81/81
f 83/83/83 75/75/75 82/82/82
f 84/84/84 83/83/83 82/82/82
f 81/81/81 80/80/80 85/85/85
f 85/85/85 80/80/80 86/86/86
f 80/80/80 87/87/87 86/86/86
f 88/88/88 81/81/81 85/85/85
f 84/84/84 82/82/82 89/89/89
f 90/90/90 84/84/84 89/89/89
f 91/91/91 82/82/82 81/81/81
f 92/92/92 91/91/91 81/81/81
f 81/81/81 88/88/88 93/93/93
f 92/92/92 81/81/81 93/93/93
f 86/86/86 87/87/87 94/94/94
f 87/87/87 95/95/95 94/94/94
f 87/87/87 96/96/96 95/95/95
f 96/96/96 97/97/97 95/95/95
f 95/95/95 97/97/97 98/98/98
f 99/99/99 95/95/95 98/98/98
f 100/100/100 95/95/95 99/99/99
f 101/101/101 100/100/100 99/99/99
f 104/104/104 103/103/103 102/102/102
f 105/105/105 104/104/104 102/102/102
f 104/104/104 106/106/106 103/103/103
f 106/106/106 107/107/107 103/103/103
f 106/106/106 108/108/108 107/107/107
f 108/108/108 109/109/109 107/107/107
f 105/105/105 102/102/102 110/110/110
f 102/102/102 111/111/111 110/110/110
f 110/110/110 111/111/111 112/112/112
f 111/111/111 113/113/113 112/112/112
f 112/112/112 113/113/113 114/114/114
f 113/113/113 115/115/115 114/114/114
f 114/114/114 115/115/115 116/116/116
f 115/115/115 117/117/117 116/116/116
f 116/116/116 117/117/117 118/118/118
f 117/117/117 119/119/119 118/118/118
f 118/118/118 119/119/119 120/120/120
f 119/119/119 121/121/121 120/120/120
f 106/106/106 122/122/122 108/108/108
f 114/114/114 122/122/122 112/112/112
f 112/112/112 122/122/122 110/110/110
f 104/104/104 122/122/122 106/106/106
f 105/105/105 122/122/122 104/104/104
f 110/110/110 122/122/122 105/105/105
f 123/123/123 122/122/122 114/114/114
f 124/124/124 122/122/122 123/123/123
f 125/125/125 122/122/122 124/124/124
f 126/126/126 122/122/122 125/125/125
f 126/126/126 125/125/125 127/127/127
f 126/126/126 127/127/127 128/128/128
f 129/129/129 126/126/126 128/128/128
f 129/129/129 128/128/128 130/130/130
f 131/131/131 129/129/129 130/130/130
f 125/125/125 132/132/132 127/127/127
f 133/133/133 122/122/122 126/126/126
f 108/108/108 122/122/122 133/133/133
f 136/136/136 135/135/135 134/134/134
f 137/137/137 136/136/136 134/134/134
f 138/138/138 135/135/135 136/136/136
f 139/139/139 138/138/138 136/136/136
f 54/54/54 135/135/135 138/138/138
f 58/58/58 54/54/54 138/138/138
f 140/140/140 135/135/135 54/54/54
f 55/55/55 140/140/140 54/54/54
f 143/143/143 142/142/142 141/141/141
f 144/144/144 143/143/143 141/141/141
f 141/141/141 142/142/142 76/76/76
f 77/77/77 141/141/141 76/76/76
f 147/147/147 146/146/146 145/145/145
f 148/148/148 147/147/147 145/145/145
f 148/148/148 149/149/149 147/147/147
f 147/147/147 149/149/149 150/150/150
f 150/150/150 149/149/149 151/151/151
f 151/151/151 149/149/149 152/152/152
f 152/152/152 149/149/149 153/153/153
f 152/152/152 153/153/153 154/154/154
f 153/153/153 155/155/155 154/154/154
f 156/156/156 155/155/155 153/153/153
f 157/157/157 156/156/156 153/153/153
f 153/153/153 149/149/149 157/157/157
f 158/158/158 156/156/156 157/157/157
f 159/159/159 158/158/158 157/157/157
f 157/157/157 149/149/149 159/159/159
f 159/159/159 149/149/149 160/160/160
f 160/160/160 149/149/149 161/161/161
f 161/161/161 162/162/162 160/160/160
f 163/163/163 162/162/162 161/161/161
f 164/164/164 163/163/163 161/161/161
f 161/161/161 149/149/149 164/164/164
f 164/164/164 165/165/165 163/163/163
f 165/165/165 166/166/166 163/163/163
f 167/167/167 166/166/166 165/165/165
f 148/148/148 167/167/167 165/165/165
f 162/162/162 168/168/168 160/160/160
f 164/164/164 149/149/149 165/165/165
f 165/165/165 149/149/149 148/148/148
f 160/160/160 168/168/168 169/169/169
f 159/159/159 160/160/160 169/169/169
f 172/172/172 171/171/171 170/170/170
f 173/173/173 172/172/172 170/170/170
f 174/174/174 171/171/171 172/172/172
f 175/175/175 174/174/174 172/172/172
f 175/175/175 176/176/176 174/174/174
f 176/176/176 177/177/177 174/174/174
