# Export of Universe
# from Aaro4130 OBJ Exporter v2.0
mtllib 213.mtl
g Cube4x3
v -0.5 -0.5 0
v -0.5 -0.5 0.5
v -0.166667 -0.5 0.5
v -0.166667 -0.5 0
v -0.5 -0.5 -0.5
v -0.166667 -0.5 -0.5
v 0.166667 -0.5 0.5
v 0.166667 -0.5 0
v 0.166667 -0.5 -0.5
v 0.5 -0.5 0.5
v 0.5 -0.5 0
v 0.5 -0.5 -0.5
v -0.166667 -0.5 0.5
v -0.5 -0.5 0.5
v -0.5 0.5 0.5
v -0.166667 0.5 0.5
v 0.166667 -0.5 0.5
v 0.166667 0.5 0.5
v 0.5 -0.5 0.5
v 0.5 0.5 0.5
v 0.5 -0.5 0
v 0.5 -0.5 0.5
v 0.5 0.5 0.5
v 0.5 0.5 0
v 0.5 -0.5 -0.5
v 0.5 0.5 -0.5
v 0.166667 0.5 -0.5
v 0.166667 -0.5 -0.5
v 0.5 -0.5 -0.5
v 0.5 0.5 -0.5
v -0.166667 0.5 -0.5
v -0.166667 -0.5 -0.5
v -0.5 0.5 -0.5
v -0.5 -0.5 -0.5
v -0.5 0.5 0
v -0.5 -0.5 0
v -0.5 -0.5 -0.5
v -0.5 0.5 -0.5
v -0.5 0.5 0.5
v -0.5 -0.5 0.5
v -0.166667 0.5 0.5
v -0.5 0.5 0.5
v -0.5 0.5 0
v -0.166667 0.5 0
v -0.5 0.5 -0.5
v -0.166667 0.5 -0.5
v 0.166667 0.5 0.5
v 0.166667 0.5 0
v 0.166667 0.5 -0.5
v 0.5 0.5 0.5
v 0.5 0.5 0
v 0.5 0.5 -0.5
vn 0 -0.5773503 0
vn 0 -0.5773503 0
vn 0 -0.5773503 0
vn 0 -0.5773503 0
vn 0 -0.5773503 0
vn 0 -0.5773503 0
vn 0 -0.5773503 0
vn 0 -0.5773503 0
vn 0 -0.5773503 0
vn 0 -0.5773503 0
vn 0 -0.5773503 0
vn 0 -0.5773503 0
vn 0 0 0.5773503
vn 0 0 0.5773503
vn 0 0 0.5773503
vn 0 0 0.5773503
vn 0 0 0.5773503
vn 0 0 0.5773503
vn 0 0 0.5773503
vn 0 0 0.5773503
vn 0.5773503 0 0
vn 0.5773503 0 0
vn 0.5773503 0 0
vn 0.5773503 0 0
vn 0.5773503 0 0
vn 0.5773503 0 0
vn 0 0 -0.5773503
vn 0 0 -0.5773503
vn 0 0 -0.5773503
vn 0 0 -0.5773503
vn 0 0 -0.5773503
vn 0 0 -0.5773503
vn 0 0 -0.5773503
vn 0 0 -0.5773503
vn -0.5773503 0 0
vn -0.5773503 0 0
vn -0.5773503 0 0
vn -0.5773503 0 0
vn -0.5773503 0 0
vn -0.5773503 0 0
vn 0 0.5773503 0
vn 0 0.5773503 0
vn 0 0.5773503 0
vn 0 0.5773503 0
vn 0 0.5773503 0
vn 0 0.5773503 0
vn 0 0.5773503 0
vn 0 0.5773503 0
vn 0 0.5773503 0
vn 0 0.5773503 0
vn 0 0.5773503 0
vn 0 0.5773503 0
vt 0 0.5
vt 0 0
vt 0.333333 0
vt 0.333333 0.5
vt 0 1
vt 0.333333 1
vt 0.666667 0
vt 0.666667 0.5
vt 0.666667 1
vt 1 0
vt 1 0.5
vt 1 1
vt 0.333333 0
vt 0 0
vt 0 1
vt 0.333333 1
vt 0.666667 0
vt 0.666667 1
vt 1 0
vt 1 1
vt 0.5 0
vt 0 0
vt 0 1
vt 0.5 1
vt 1 0
vt 1 1
vt 0.666667 1
vt 0.666667 0
vt 1 0
vt 1 1
vt 0.333333 1
vt 0.333333 0
vt 0 1
vt 0 0
vt 0.5 1
vt 0.5 0
vt 1 0
vt 1 1
vt 0 1
vt 0 0
vt 0.333333 0
vt 0 0
vt 0 0.5
vt 0.333333 0.5
vt 0 1
vt 0.333333 1
vt 0.666667 0
vt 0.666667 0.5
vt 0.666667 1
vt 1 0
vt 1 0.5
vt 1 1
usemtl baseThingPartMaterial
f 3/3/3 2/2/2 1/1/1
f 4/4/4 3/3/3 1/1/1
f 4/4/4 1/1/1 5/5/5
f 6/6/6 4/4/4 5/5/5
f 7/7/7 3/3/3 4/4/4
f 8/8/8 7/7/7 4/4/4
f 8/8/8 4/4/4 6/6/6
f 9/9/9 8/8/8 6/6/6
f 10/10/10 7/7/7 8/8/8
f 11/11/11 10/10/10 8/8/8
f 11/11/11 8/8/8 9/9/9
f 12/12/12 11/11/11 9/9/9
f 15/15/15 14/14/14 13/13/13
f 16/16/16 15/15/15 13/13/13
f 16/16/16 13/13/13 17/17/17
f 18/18/18 16/16/16 17/17/17
f 18/18/18 17/17/17 19/19/19
f 20/20/20 18/18/18 19/19/19
f 23/23/23 22/22/22 21/21/21
f 24/24/24 23/23/23 21/21/21
f 24/24/24 21/21/21 25/25/25
f 26/26/26 24/24/24 25/25/25
f 29/29/29 28/28/28 27/27/27
f 30/30/30 29/29/29 27/27/27
f 27/27/27 28/28/28 31/31/31
f 28/28/28 32/32/32 31/31/31
f 31/31/31 32/32/32 33/33/33
f 32/32/32 34/34/34 33/33/33
f 37/37/37 36/36/36 35/35/35
f 38/38/38 37/37/37 35/35/35
f 35/35/35 36/36/36 39/39/39
f 36/36/36 40/40/40 39/39/39
f 43/43/43 42/42/42 41/41/41
f 44/44/44 43/43/43 41/41/41
f 45/45/45 43/43/43 44/44/44
f 46/46/46 45/45/45 44/44/44
f 44/44/44 41/41/41 47/47/47
f 48/48/48 44/44/44 47/47/47
f 46/46/46 44/44/44 48/48/48
f 49/49/49 46/46/46 48/48/48
f 48/48/48 47/47/47 50/50/50
f 51/51/51 48/48/48 50/50/50
f 49/49/49 48/48/48 51/51/51
f 52/52/52 49/49/49 51/51/51
