# Export of Universe
# from Aaro4130 OBJ Exporter v2.0
mtllib 36.mtl
g QuarterTorus5
v 0.511225 0.0809017 -0.547555
v 0.490875 0.0809017 -0.340998
v 0.43323 0.1 -0.352465
v 0.452445 0.1 -0.547555
v 0.393666 0.0809017 -0.547555
v 0.375581 0.0809017 -0.363932
v 0.376325 0.1 -0.164872
v 0.430629 0.0809017 -0.142378
v 0.32202 0.0809017 -0.187365
v 0.283915 0.1 0.00801498
v 0.332787 0.0809017 0.040671
v 0.235042 0.0809017 -0.02464
v 0.159552 0.1 0.159552
v 0.201114 0.0809017 0.201114
v 0.117989 0.0809017 0.117989
v 0.00801498 0.1 0.283915
v 0.040671 0.0809017 0.332787
v -0.02464 0.0809017 0.235042
v -0.164872 0.1 0.376325
v -0.142378 0.0809017 0.430629
v -0.187365 0.0809017 0.32202
v -0.352465 0.1 0.43323
v -0.340998 0.0809017 0.490875
v -0.363932 0.0809017 0.375581
v -0.547555 0.1 0.452445
v -0.547555 0.0809017 0.511225
v -0.547555 0.0809017 0.393666
v 0.375581 0.0809017 -0.363932
v 0.339952 0.0309017 -0.371019
v 0.357339 0.0309017 -0.547555
v 0.393666 0.0809017 -0.547555
v 0.357339 -0.0309017 -0.547555
v 0.339952 -0.0309017 -0.371019
v 0.393666 -0.0809017 -0.547555
v 0.375581 -0.0809017 -0.363932
v 0.32202 0.0809017 -0.187365
v 0.288458 0.0309017 -0.201267
v 0.288458 -0.0309017 -0.201267
v 0.32202 -0.0809017 -0.187365
v 0.235042 0.0809017 -0.02464
v 0.204837 0.0309017 -0.0448231
v 0.204837 -0.0309017 -0.0448231
v 0.235042 -0.0809017 -0.02464
v 0.117989 0.0809017 0.117989
v 0.092302 0.0309017 0.092302
v 0.092302 -0.0309017 0.092302
v 0.117989 -0.0809017 0.117989
v 0.375581 -0.0809017 -0.363932
v 0.43323 -0.1 -0.352465
v 0.452445 -0.1 -0.547555
v 0.393666 -0.0809017 -0.547555
v 0.490875 -0.0809017 -0.340998
v 0.511225 -0.0809017 -0.547555
v 0.32202 -0.0809017 -0.187365
v 0.376325 -0.1 -0.164872
v 0.430629 -0.0809017 -0.142378
v 0.235042 -0.0809017 -0.02464
v 0.283915 -0.1 0.00801498
v 0.332787 -0.0809017 0.040671
v 0.117989 -0.0809017 0.117989
v 0.159552 -0.1 0.159552
v 0.201114 -0.0809017 0.201114
v -0.02464 -0.0809017 0.235042
v 0.00801498 -0.1 0.283915
v 0.040671 -0.0809017 0.332787
v -0.187365 -0.0809017 0.32202
v -0.164872 -0.1 0.376325
v -0.142378 -0.0809017 0.430629
v -0.363932 -0.0809017 0.375581
v -0.352465 -0.1 0.43323
v -0.340998 -0.0809017 0.490875
v -0.547555 -0.0809017 0.393666
v -0.547555 -0.1 0.452445
v -0.547555 -0.0809017 0.511225
v 0.511225 -0.0809017 -0.547555
v 0.490875 -0.0809017 -0.340998
v 0.526505 -0.0309017 -0.33391
v 0.547555 -0.0309017 -0.547555
v 0.526505 0.0309017 -0.33391
v 0.547555 0.0309017 -0.547555
v 0.490875 0.0809017 -0.340998
v 0.511225 0.0809017 -0.547555
v 0.464195 -0.0309017 -0.128476
v 0.430629 -0.0809017 -0.142378
v 0.464195 0.0309017 -0.128476
v 0.430629 0.0809017 -0.142378
v 0.362992 -0.0309017 0.0608529
v 0.332787 -0.0809017 0.040671
v 0.362992 0.0309017 0.0608529
v 0.332787 0.0809017 0.040671
v 0.226802 -0.0309017 0.226802
v 0.201114 -0.0809017 0.201114
v 0.226802 0.0309017 0.226802
v 0.201114 0.0809017 0.201114
v -0.02464 0.0809017 0.235042
v -0.0448231 0.0309017 0.204837
v 0.092302 0.0309017 0.092302
v 0.117989 0.0809017 0.117989
v 0.092302 -0.0309017 0.092302
v -0.0448231 -0.0309017 0.204837
v 0.117989 -0.0809017 0.117989
v -0.02464 -0.0809017 0.235042
v -0.187365 0.0809017 0.32202
v -0.201267 0.0309017 0.288458
v -0.201267 -0.0309017 0.288458
v -0.187365 -0.0809017 0.32202
v -0.363932 0.0809017 0.375581
v -0.371019 0.0309017 0.339952
v -0.371019 -0.0309017 0.339952
v -0.363932 -0.0809017 0.375581
v -0.547555 0.0809017 0.393666
v -0.547555 0.0309017 0.357339
v -0.547555 -0.0309017 0.357339
v -0.547555 -0.0809017 0.393666
v 0.201114 -0.0809017 0.201114
v 0.040671 -0.0809017 0.332787
v 0.0608529 -0.0309017 0.362992
v 0.226802 -0.0309017 0.226802
v 0.0608529 0.0309017 0.362992
v 0.226802 0.0309017 0.226802
v 0.040671 0.0809017 0.332787
v 0.201114 0.0809017 0.201114
v -0.128476 -0.0309017 0.464195
v -0.142378 -0.0809017 0.430629
v -0.128476 0.0309017 0.464195
v -0.142378 0.0809017 0.430629
v -0.33391 -0.0309017 0.526505
v -0.340998 -0.0809017 0.490875
v -0.33391 0.0309017 0.526505
v -0.340998 0.0809017 0.490875
v -0.547555 -0.0309017 0.547555
v -0.547555 -0.0809017 0.511225
v -0.547555 0.0309017 0.547555
v -0.547555 0.0809017 0.511225
v 0.511225 -0.0809017 -0.547555
v 0.547555 -0.0309017 -0.547555
v 0.547555 0.0309017 -0.547555
v 0.511225 0.0809017 -0.547555
v 0.452445 -0.1 -0.547555
v 0.452445 0.1 -0.547555
v 0.393666 -0.0809017 -0.547555
v 0.393666 0.0809017 -0.547555
v 0.357339 -0.0309017 -0.547555
v 0.357339 0.0309017 -0.547555
v -0.547555 -0.0809017 0.511225
v -0.547555 -0.1 0.452445
v -0.547555 -0.0809017 0.393666
v -0.547555 -0.0309017 0.547555
v -0.547555 -0.0309017 0.357339
v -0.547555 0.0309017 0.547555
v -0.547555 0.0309017 0.357339
v -0.547555 0.0809017 0.511225
v -0.547555 0.0809017 0.393666
v -0.547555 0.1 0.452445
vn 0.1862152 0.2565457 -0.4825365
vn 0.3326319 0.4672382 0.06616521
vn 0 0.5773503 0
vn 0 0.3090556 -0.4876658
vn -0.1767296 0.2434719 -0.4927691
vn -0.3326361 0.4672351 -0.06616523
vn 0 0.5773503 0
vn 0.3133323 0.4672392 0.1297834
vn -0.3133358 0.4672356 -0.1297877
vn 0 0.5773503 0
vn 0.281992 0.4672373 0.1884228
vn -0.2819946 0.4672358 -0.1884225
vn 0 0.5773503 0
vn 0.2398167 0.4672357 0.2398167
vn -0.2398168 0.4672357 -0.2398168
vn 0 0.5773503 0
vn 0.1884228 0.4672373 0.281992
vn -0.1884225 0.4672358 -0.2819946
vn 0 0.5773503 0
vn 0.1297834 0.4672392 0.3133323
vn -0.1297877 0.4672357 -0.3133357
vn 0 0.5773503 0
vn 0.06616521 0.4672382 0.3326319
vn -0.06616523 0.4672351 -0.3326361
vn -0.2687613 0.5109801 0
vn -0.4825365 0.2565457 0.1862152
vn -0.429161 0.3125457 -0.2268684
vn -0.3326361 0.4672351 -0.06616523
vn -0.5384948 0.1785592 -0.1071132
vn -0.4663217 0.151656 -0.3047588
vn -0.1767296 0.2434719 -0.4927691
vn -0.3603905 -0.1172053 -0.4355628
vn -0.5384948 -0.1785592 -0.1071132
vn -0.1767296 -0.2434719 -0.4927691
vn -0.3326361 -0.4672351 -0.06616523
vn -0.3133358 0.4672356 -0.1297877
vn -0.5072507 0.17856 -0.2101103
vn -0.5072507 -0.17856 -0.2101103
vn -0.3133358 -0.4672357 -0.1297877
vn -0.2819946 0.4672358 -0.1884225
vn -0.4565139 0.1785603 -0.3050321
vn -0.4565139 -0.1785603 -0.3050321
vn -0.2819946 -0.4672358 -0.1884225
vn -0.2398168 0.4672357 -0.2398168
vn -0.3882329 0.1785601 -0.3882329
vn -0.3882329 -0.1785601 -0.3882329
vn -0.2398168 -0.4672357 -0.2398168
vn -0.3326361 -0.4672351 -0.06616523
vn 0 -0.5773503 0
vn 0 -0.3090556 -0.4876658
vn -0.1767296 -0.2434719 -0.4927691
vn 0.3326319 -0.4672382 0.06616521
vn 0.1862152 -0.2565457 -0.4825365
vn -0.3133358 -0.4672357 -0.1297877
vn 0 -0.5773503 0
vn 0.3133323 -0.4672392 0.1297834
vn -0.2819946 -0.4672358 -0.1884225
vn 0 -0.5773503 0
vn 0.281992 -0.4672373 0.1884228
vn -0.2398168 -0.4672357 -0.2398168
vn 0 -0.5773503 0
vn 0.2398167 -0.4672357 0.2398167
vn -0.1884225 -0.4672358 -0.2819946
vn 0 -0.5773503 0
vn 0.1884228 -0.4672373 0.281992
vn -0.1297877 -0.4672357 -0.3133357
vn 0 -0.5773503 0
vn 0.1297834 -0.4672392 0.3133323
vn -0.06616523 -0.4672351 -0.3326361
vn 0 -0.5773503 0
vn 0.06616521 -0.4672382 0.3326319
vn -0.4927691 -0.2434719 -0.1767296
vn -0.2687613 -0.5109801 0
vn -0.4073252 -0.331133 0.2403549
vn 0.1862152 -0.2565457 -0.4825365
vn 0.3326319 -0.4672382 0.06616521
vn 0.5384922 -0.1785669 0.1071135
vn 0.5036275 -0.1637965 -0.2299202
vn 0.5384922 0.1785669 0.1071135
vn 0.3956796 0.1286883 -0.4002628
vn 0.3326319 0.4672382 0.06616521
vn 0.1862152 0.2565457 -0.4825365
vn 0.5072502 -0.1785677 0.210105
vn 0.3133323 -0.4672392 0.1297834
vn 0.5072502 0.1785677 0.210105
vn 0.3133323 0.4672392 0.1297834
vn 0.4565107 -0.1785634 0.3050352
vn 0.281992 -0.4672373 0.1884228
vn 0.4565107 0.1785634 0.3050352
vn 0.281992 0.4672373 0.1884228
vn 0.3882327 -0.1785612 0.3882327
vn 0.2398167 -0.4672357 0.2398167
vn 0.3882327 0.1785612 0.3882327
vn 0.2398167 0.4672357 0.2398167
vn -0.1884225 0.4672358 -0.2819946
vn -0.3050321 0.1785603 -0.4565139
vn -0.3882329 0.1785601 -0.3882329
vn -0.2398168 0.4672357 -0.2398168
vn -0.3882329 -0.1785601 -0.3882329
vn -0.3050321 -0.1785603 -0.4565139
vn -0.2398168 -0.4672357 -0.2398168
vn -0.1884225 -0.4672358 -0.2819946
vn -0.1297877 0.4672357 -0.3133357
vn -0.2101103 0.17856 -0.5072507
vn -0.2101103 -0.17856 -0.5072507
vn -0.1297877 -0.4672357 -0.3133357
vn -0.06616523 0.4672351 -0.3326361
vn -0.1071132 0.1785592 -0.5384948
vn -0.1071132 -0.1785592 -0.5384948
vn -0.06616523 -0.4672351 -0.3326361
vn -0.429161 0.3125457 -0.2268684
vn -0.4958938 0.09144379 -0.2811774
vn -0.4958938 -0.09144379 -0.2811774
vn -0.4927691 -0.2434719 -0.1767296
vn 0.2398167 -0.4672357 0.2398167
vn 0.1884228 -0.4672373 0.281992
vn 0.3050352 -0.1785634 0.4565106
vn 0.3882327 -0.1785612 0.3882327
vn 0.3050352 0.1785634 0.4565106
vn 0.3882327 0.1785612 0.3882327
vn 0.1884228 0.4672373 0.281992
vn 0.2398167 0.4672357 0.2398167
vn 0.2101051 -0.1785677 0.5072502
vn 0.1297834 -0.4672392 0.3133323
vn 0.210105 0.1785677 0.5072502
vn 0.1297834 0.4672392 0.3133323
vn 0.1071135 -0.1785669 0.5384922
vn 0.06616521 -0.4672382 0.3326319
vn 0.1071135 0.1785669 0.5384922
vn 0.06616521 0.4672382 0.3326319
vn -0.4793745 -0.09951802 0.3059894
vn -0.4073252 -0.331133 0.2403549
vn -0.4793745 0.09951802 0.3059894
vn -0.4825365 0.2565457 0.1862152
vn 0.1862152 -0.2565457 -0.4825365
vn 0.5036275 -0.1637965 -0.2299202
vn 0.3956796 0.1286883 -0.4002628
vn 0.1862152 0.2565457 -0.4825365
vn 0 -0.3090556 -0.4876658
vn 0 0.3090556 -0.4876658
vn -0.1767296 -0.2434719 -0.4927691
vn -0.1767296 0.2434719 -0.4927691
vn -0.3603905 -0.1172053 -0.4355628
vn -0.4663217 0.151656 -0.3047588
vn -0.4073252 -0.331133 0.2403549
vn -0.2687613 -0.5109801 0
vn -0.4927691 -0.2434719 -0.1767296
vn -0.4793745 -0.09951802 0.3059894
vn -0.4958938 -0.09144379 -0.2811774
vn -0.4793745 0.09951802 0.3059894
vn -0.4958938 0.09144379 -0.2811774
vn -0.4825365 0.2565457 0.1862152
vn -0.429161 0.3125457 -0.2268684
vn -0.2687613 0.5109801 0
vt 0.966825 1
vt 0.948243 0.811382
vt 0.895604 0.821854
vt 0.91315 1
vt 0.859476 1
vt 0.842962 0.832325
vt 0.843641 0.650553
vt 0.893229 0.630013
vt 0.794053 0.671092
vt 0.759257 0.492681
vt 0.803885 0.462861
vt 0.714629 0.5225
vt 0.645695 0.354305
vt 0.683647 0.316353
vt 0.607742 0.392258
vt 0.507319 0.240743
vt 0.537139 0.196115
vt 0.4775 0.285371
vt 0.349447 0.156359
vt 0.369987 0.106771
vt 0.328908 0.205947
vt 0.178146 0.104396
vt 0.188618 0.0517574
vt 0.167675 0.157038
vt 0 0.0868497
vt 0 0.0331748
vt 0 0.140524
vt 0.832325 0.904508
vt 0.838796 0.654508
vt 1 0.654508
vt 1 0.904508
vt 1 0.345491
vt 0.838796 0.345491
vt 1 0.0954915
vt 0.832325 0.0954915
vt 0.671092 0.904508
vt 0.683787 0.654508
vt 0.683787 0.345491
vt 0.671092 0.0954915
vt 0.5225 0.904508
vt 0.54093 0.654508
vt 0.54093 0.345491
vt 0.5225 0.0954915
vt 0.392258 0.904508
vt 0.415714 0.654508
vt 0.415714 0.345491
vt 0.392258 0.0954915
vt 0.842962 0.832325
vt 0.895604 0.821854
vt 0.91315 1
vt 0.859476 1
vt 0.948243 0.811382
vt 0.966825 1
vt 0.794053 0.671092
vt 0.843641 0.650553
vt 0.893229 0.630013
vt 0.714629 0.5225
vt 0.759257 0.492681
vt 0.803885 0.462861
vt 0.607742 0.392258
vt 0.645695 0.354305
vt 0.683647 0.316353
vt 0.4775 0.285371
vt 0.507319 0.240743
vt 0.537139 0.196115
vt 0.328908 0.205947
vt 0.349447 0.156359
vt 0.369987 0.106771
vt 0.167675 0.157038
vt 0.178146 0.104396
vt 0.188618 0.0517574
vt 0 0.140524
vt 0 0.0868497
vt 0 0.0331748
vt 1 0.0954915
vt 0.811382 0.0954915
vt 0.80491 0.345491
vt 1 0.345491
vt 0.80491 0.654508
vt 1 0.654508
vt 0.811382 0.904508
vt 1 0.904508
vt 0.617318 0.345491
vt 0.630013 0.0954915
vt 0.617318 0.654508
vt 0.630013 0.904508
vt 0.444432 0.345491
vt 0.462861 0.0954915
vt 0.444432 0.654508
vt 0.462861 0.904508
vt 0.292896 0.345491
vt 0.316353 0.0954915
vt 0.292896 0.654508
vt 0.316353 0.904508
vt 0.4775 0.904508
vt 0.45907 0.654508
vt 0.584286 0.654508
vt 0.607742 0.904508
vt 0.584286 0.345491
vt 0.45907 0.345491
vt 0.607742 0.0954915
vt 0.4775 0.0954915
vt 0.328908 0.904508
vt 0.316213 0.654508
vt 0.316213 0.345491
vt 0.328908 0.0954915
vt 0.167675 0.904508
vt 0.161204 0.654508
vt 0.161204 0.345491
vt 0.167675 0.0954915
vt 0 0.904508
vt 0 0.654508
vt 0 0.345491
vt 0 0.0954915
vt 0.683647 0.0954915
vt 0.537139 0.0954915
vt 0.555568 0.345491
vt 0.707104 0.345491
vt 0.555568 0.654508
vt 0.707104 0.654508
vt 0.537139 0.904508
vt 0.683647 0.904508
vt 0.382682 0.345491
vt 0.369987 0.0954915
vt 0.382682 0.654508
vt 0.369987 0.904508
vt 0.19509 0.345491
vt 0.188618 0.0954915
vt 0.19509 0.654508
vt 0.188618 0.904508
vt 0 0.345491
vt 0 0.0954915
vt 0 0.654508
vt 0 0.904508
vt 0.966825 0.0954915
vt 1 0.345491
vt 1 0.654508
vt 0.966825 0.904508
vt 0.91315 0
vt 0.91315 1
vt 0.859476 0.0954915
vt 0.859476 0.904508
vt 0.826304 0.345491
vt 0.826304 0.654508
vt 0.0331748 0.0954915
vt 0.0868497 0
vt 0.140524 0.0954915
vt 0 0.345491
vt 0.173696 0.345491
vt 0 0.654508
vt 0.173696 0.654508
vt 0.0331748 0.904508
vt 0.140524 0.904508
vt 0.0868497 1
usemtl baseThingPartMaterial
f 3/3/3 2/2/2 1/1/1
f 4/4/4 3/3/3 1/1/1
f 4/4/4 5/5/5 3/3/3
f 5/5/5 6/6/6 3/3/3
f 3/3/3 7/7/7 2/2/2
f 3/3/3 6/6/6 7/7/7
f 7/7/7 8/8/8 2/2/2
f 6/6/6 9/9/9 7/7/7
f 7/7/7 10/10/10 8/8/8
f 7/7/7 9/9/9 10/10/10
f 10/10/10 11/11/11 8/8/8
f 9/9/9 12/12/12 10/10/10
f 10/10/10 13/13/13 11/11/11
f 10/10/10 12/12/12 13/13/13
f 13/13/13 14/14/14 11/11/11
f 12/12/12 15/15/15 13/13/13
f 13/13/13 16/16/16 14/14/14
f 13/13/13 15/15/15 16/16/16
f 16/16/16 17/17/17 14/14/14
f 15/15/15 18/18/18 16/16/16
f 16/16/16 19/19/19 17/17/17
f 16/16/16 18/18/18 19/19/19
f 19/19/19 20/20/20 17/17/17
f 18/18/18 21/21/21 19/19/19
f 19/19/19 22/22/22 20/20/20
f 19/19/19 21/21/21 22/22/22
f 22/22/22 23/23/23 20/20/20
f 21/21/21 24/24/24 22/22/22
f 22/22/22 25/25/25 23/23/23
f 22/22/22 24/24/24 25/25/25
f 25/25/25 26/26/26 23/23/23
f 24/24/24 27/27/27 25/25/25
f 30/30/30 29/29/29 28/28/28
f 31/31/31 30/30/30 28/28/28
f 30/30/30 32/32/32 29/29/29
f 32/32/32 33/33/33 29/29/29
f 32/32/32 34/34/34 33/33/33
f 34/34/34 35/35/35 33/33/33
f 28/28/28 29/29/29 36/36/36
f 29/29/29 37/37/37 36/36/36
f 29/29/29 33/33/33 37/37/37
f 33/33/33 38/38/38 37/37/37
f 33/33/33 35/35/35 38/38/38
f 35/35/35 39/39/39 38/38/38
f 36/36/36 37/37/37 40/40/40
f 37/37/37 41/41/41 40/40/40
f 37/37/37 38/38/38 41/41/41
f 38/38/38 42/42/42 41/41/41
f 38/38/38 39/39/39 42/42/42
f 39/39/39 43/43/43 42/42/42
f 40/40/40 41/41/41 44/44/44
f 41/41/41 45/45/45 44/44/44
f 41/41/41 42/42/42 45/45/45
f 42/42/42 46/46/46 45/45/45
f 42/42/42 43/43/43 46/46/46
f 43/43/43 47/47/47 46/46/46
f 50/50/50 49/49/49 48/48/48
f 51/51/51 50/50/50 48/48/48
f 52/52/52 49/49/49 50/50/50
f 53/53/53 52/52/52 50/50/50
f 48/48/48 49/49/49 54/54/54
f 49/49/49 55/55/55 54/54/54
f 56/56/56 55/55/55 49/49/49
f 52/52/52 56/56/56 49/49/49
f 54/54/54 55/55/55 57/57/57
f 55/55/55 58/58/58 57/57/57
f 59/59/59 58/58/58 55/55/55
f 56/56/56 59/59/59 55/55/55
f 57/57/57 58/58/58 60/60/60
f 58/58/58 61/61/61 60/60/60
f 62/62/62 61/61/61 58/58/58
f 59/59/59 62/62/62 58/58/58
f 60/60/60 61/61/61 63/63/63
f 61/61/61 64/64/64 63/63/63
f 65/65/65 64/64/64 61/61/61
f 62/62/62 65/65/65 61/61/61
f 63/63/63 64/64/64 66/66/66
f 64/64/64 67/67/67 66/66/66
f 68/68/68 67/67/67 64/64/64
f 65/65/65 68/68/68 64/64/64
f 66/66/66 67/67/67 69/69/69
f 67/67/67 70/70/70 69/69/69
f 71/71/71 70/70/70 67/67/67
f 68/68/68 71/71/71 67/67/67
f 69/69/69 70/70/70 72/72/72
f 70/70/70 73/73/73 72/72/72
f 74/74/74 73/73/73 70/70/70
f 71/71/71 74/74/74 70/70/70
f 77/77/77 76/76/76 75/75/75
f 78/78/78 77/77/77 75/75/75
f 79/79/79 77/77/77 78/78/78
f 80/80/80 79/79/79 78/78/78
f 81/81/81 79/79/79 80/80/80
f 82/82/82 81/81/81 80/80/80
f 77/77/77 83/83/83 76/76/76
f 83/83/83 84/84/84 76/76/76
f 85/85/85 83/83/83 77/77/77
f 79/79/79 85/85/85 77/77/77
f 86/86/86 85/85/85 79/79/79
f 81/81/81 86/86/86 79/79/79
f 83/83/83 87/87/87 84/84/84
f 87/87/87 88/88/88 84/84/84
f 89/89/89 87/87/87 83/83/83
f 85/85/85 89/89/89 83/83/83
f 90/90/90 89/89/89 85/85/85
f 86/86/86 90/90/90 85/85/85
f 87/87/87 91/91/91 88/88/88
f 91/91/91 92/92/92 88/88/88
f 93/93/93 91/91/91 87/87/87
f 89/89/89 93/93/93 87/87/87
f 94/94/94 93/93/93 89/89/89
f 90/90/90 94/94/94 89/89/89
f 97/97/97 96/96/96 95/95/95
f 98/98/98 97/97/97 95/95/95
f 97/97/97 99/99/99 96/96/96
f 99/99/99 100/100/100 96/96/96
f 99/99/99 101/101/101 100/100/100
f 101/101/101 102/102/102 100/100/100
f 95/95/95 96/96/96 103/103/103
f 96/96/96 104/104/104 103/103/103
f 96/96/96 100/100/100 104/104/104
f 100/100/100 105/105/105 104/104/104
f 100/100/100 102/102/102 105/105/105
f 102/102/102 106/106/106 105/105/105
f 103/103/103 104/104/104 107/107/107
f 104/104/104 108/108/108 107/107/107
f 104/104/104 105/105/105 108/108/108
f 105/105/105 109/109/109 108/108/108
f 105/105/105 106/106/106 109/109/109
f 106/106/106 110/110/110 109/109/109
f 107/107/107 108/108/108 111/111/111
f 108/108/108 112/112/112 111/111/111
f 108/108/108 109/109/109 112/112/112
f 109/109/109 113/113/113 112/112/112
f 109/109/109 110/110/110 113/113/113
f 110/110/110 114/114/114 113/113/113
f 117/117/117 116/116/116 115/115/115
f 118/118/118 117/117/117 115/115/115
f 119/119/119 117/117/117 118/118/118
f 120/120/120 119/119/119 118/118/118
f 121/121/121 119/119/119 120/120/120
f 122/122/122 121/121/121 120/120/120
f 117/117/117 123/123/123 116/116/116
f 123/123/123 124/124/124 116/116/116
f 125/125/125 123/123/123 117/117/117
f 119/119/119 125/125/125 117/117/117
f 126/126/126 125/125/125 119/119/119
f 121/121/121 126/126/126 119/119/119
f 123/123/123 127/127/127 124/124/124
f 127/127/127 128/128/128 124/124/124
f 129/129/129 127/127/127 123/123/123
f 125/125/125 129/129/129 123/123/123
f 130/130/130 129/129/129 125/125/125
f 126/126/126 130/130/130 125/125/125
f 127/127/127 131/131/131 128/128/128
f 131/131/131 132/132/132 128/128/128
f 133/133/133 131/131/131 127/127/127
f 129/129/129 133/133/133 127/127/127
f 134/134/134 133/133/133 129/129/129
f 130/130/130 134/134/134 129/129/129
f 137/137/137 136/136/136 135/135/135
f 135/135/135 138/138/138 137/137/137
f 135/135/135 139/139/139 138/138/138
f 139/139/139 140/140/140 138/138/138
f 139/139/139 141/141/141 140/140/140
f 141/141/141 142/142/142 140/140/140
f 141/141/141 143/143/143 142/142/142
f 143/143/143 144/144/144 142/142/142
f 147/147/147 146/146/146 145/145/145
f 145/145/145 148/148/148 147/147/147
f 148/148/148 149/149/149 147/147/147
f 148/148/148 150/150/150 149/149/149
f 150/150/150 151/151/151 149/149/149
f 150/150/150 152/152/152 151/151/151
f 152/152/152 153/153/153 151/151/151
f 152/152/152 154/154/154 153/153/153
