# Unit-volume cube with the same texture coordinates on each face.
#
# Created by Morgan McGuire and released into the Public Domain on
# July 16, 2011.
#
# http://graphics.cs.williams.edu/data
#
# Added comments - Scott Kuhl
# Corrected face normals - Scott Kuhl
# Renamed texture and material file - Scott Kuhl

mtllib cube.mtl

# Vertices
v -0.5 0.5 -0.5
v -0.5 0.5 0.5
v 0.5 0.5 0.5
v 0.5 0.5 -0.5
v -0.5 -0.5 -0.5
v -0.5 -0.5 0.5
v 0.5 -0.5 0.5
v 0.5 -0.5 -0.5

# Texture coordinates
vt 0 1
vt 0 0
vt 1 0
vt 1 1

# Normals
vn -1 0 0
vn 1 0 0
vn 0 -1 0
vn 0 1 0
vn 0 0 -1
vn 0 0 1


g cube
usemtl default

# Faces (vertex/texcoord/normal)
# -X face
f 6/4/1 2/3/1 1/2/1
f 6/4/1 1/2/1 5/1/1
# +X face
f 8/4/2 4/3/2 3/2/2
f 8/4/2 3/2/2 7/1/2
# -Y face
f 8/4/3 7/3/3 6/2/3
f 8/4/3 6/2/3 5/1/3
# +Y face
f 3/4/4 4/3/4 1/2/4
f 3/4/4 1/2/4 2/1/4
# -Z face
f 5/4/5 1/3/5 4/2/5
f 5/4/5 4/2/5 8/1/5
# +Z face
f 7/4/6 3/3/6 2/2/6
f 7/4/6 2/2/6 6/1/6