# Blender v2.80 (sub 41) OBJ File: ''
# www.blender.org
o Sphere
v 0.000000 0.707107 -0.707107
v 0.191342 0.923880 -0.331414
v 0.353553 0.707107 -0.612372
v 0.461940 0.382683 -0.800103
v 0.500000 -0.000000 -0.866025
v -0.000000 1.000000 -0.000000
v 0.331413 0.923880 -0.191342
v 0.612372 0.707107 -0.353553
v 0.800103 0.382683 -0.461940
v 0.866025 -0.000000 -0.500000
v 0.382683 0.923880 -0.000000
v 0.707107 0.707107 -0.000000
v 0.923879 0.382683 -0.000000
v 1.000000 -0.000000 -0.000000
v 0.331413 0.923880 0.191341
v 0.612372 0.707107 0.353553
v 0.800103 0.382683 0.461940
v 0.866025 -0.000000 0.500000
v 0.191342 0.923880 0.331413
v 0.353553 0.707107 0.612372
v 0.461940 0.382683 0.800103
v 0.500000 -0.000000 0.866025
v -0.000000 0.923880 0.382683
v -0.000000 0.707107 0.707106
v -0.000000 0.382683 0.923879
v -0.000000 -0.000000 1.000000
v -0.191342 0.923880 0.331413
v -0.353553 0.707107 0.612372
v -0.461940 0.382683 0.800103
v -0.500000 -0.000000 0.866025
v -0.331413 0.923880 0.191341
v -0.612372 0.707107 0.353553
v -0.800103 0.382683 0.461940
v -0.866025 -0.000000 0.500000
v -0.382683 0.923880 -0.000000
v -0.707107 0.707107 -0.000000
v -0.923879 0.382683 -0.000000
v -1.000000 -0.000000 -0.000000
v -0.331413 0.923880 -0.191342
v -0.612372 0.707107 -0.353554
v -0.800103 0.382683 -0.461940
v -0.866025 -0.000000 -0.500000
v -0.191342 0.923880 -0.331414
v -0.353553 0.707107 -0.612373
v -0.461940 0.382683 -0.800103
v -0.500000 -0.000000 -0.866025
v 0.000000 0.923880 -0.382683
v 0.000000 0.382683 -0.923880
v 0.000000 -0.000000 -1.000000
v 0.500000 -0.957406 -0.866025
v 0.866025 -0.957406 -0.500000
v 1.000000 -0.957406 -0.000000
v 0.866025 -0.957406 0.500000
v 0.500000 -0.957406 0.866025
v -0.000000 -0.957406 1.000000
v -0.500000 -0.957406 0.866025
v -0.866025 -0.957406 0.500000
v -1.000000 -0.957406 -0.000000
v -0.866025 -0.957406 -0.500000
v -0.500000 -0.957406 -0.866025
v 0.000000 -0.957406 -1.000000
v -0.933013 -1.330888 0.250000
v -0.683013 -1.330888 0.683012
v -0.250000 -1.330888 0.933012
v -0.250000 -1.330888 -0.933013
v -0.683012 -1.330888 -0.683013
v -0.933012 -1.330888 -0.250000
v 0.250000 -1.330888 -0.933013
v 0.683013 -1.330888 -0.683013
v 0.683013 -1.330888 0.683012
v 0.933012 -1.330888 0.250000
v 0.933013 -1.330890 -0.250000
v 0.250000 -1.330888 0.933012
v 0.000000 -0.957406 0.000000
vt 0.750000 0.625000
vt 0.666667 0.750000
vt 0.666667 0.625000
vt 0.750000 0.875000
vt 0.708333 1.000000
vt 0.666667 0.875000
vt 0.666667 0.500000
vt 0.750000 0.500000
vt 0.750000 0.750000
vt 0.583333 0.500000
vt 0.583333 0.750000
vt 0.583333 0.625000
vt 0.625000 1.000000
vt 0.583333 0.875000
vt 0.500000 0.500000
vt 0.500000 0.750000
vt 0.500000 0.625000
vt 0.541667 1.000000
vt 0.500000 0.875000
vt 0.416667 0.625000
vt 0.458333 1.000000
vt 0.416667 0.875000
vt 0.416667 0.500000
vt 0.416667 0.750000
vt 0.333333 0.625000
vt 0.375000 1.000000
vt 0.333333 0.875000
vt 0.333333 0.500000
vt 0.333333 0.750000
vt 0.250000 0.500000
vt 0.250000 0.750000
vt 0.250000 0.625000
vt 0.291667 1.000000
vt 0.250000 0.875000
vt 0.166667 0.875000
vt 0.166667 0.750000
vt 0.166667 0.625000
vt 0.208333 1.000000
vt 0.166667 0.500000
vt 0.083333 0.625000
vt 0.125000 1.000000
vt 0.083333 0.875000
vt 0.083333 0.500000
vt 0.083333 0.750000
vt 0.041667 1.000000
vt 0.000000 0.875000
vt 0.000000 0.500000
vt 0.000000 0.750000
vt 0.000000 0.625000
vt 1.000000 0.625000
vt 0.916667 0.500000
vt 1.000000 0.500000
vt 1.000000 0.750000
vt 0.916667 0.875000
vt 0.916667 0.750000
vt 0.916667 0.625000
vt 1.000000 0.875000
vt 0.958333 1.000000
vt 0.833333 0.625000
vt 0.875000 1.000000
vt 0.833333 0.875000
vt 0.833333 0.500000
vt 0.833333 0.750000
vt 0.791667 1.000000
vt 0.750000 0.500000
vt 0.416667 0.500000
vt 0.583333 0.500000
vt 0.500000 0.500000
vt 0.333333 0.500000
vt 0.166667 0.500000
vt 1.000000 0.500000
vt 0.916667 0.500000
vt 0.083333 0.500000
vt 0.250000 0.500000
vt 0.833333 0.500000
vt 0.666667 0.500000
vt 0.958333 0.500000
vt 0.625000 0.500000
vt 0.000000 0.500000
vt 0.041667 0.500000
vt 0.125000 0.500000
vt 0.208333 0.500000
vt 0.708333 0.500000
vt 0.791667 0.500000
vt 0.875000 0.500000
vt 0.375000 0.500000
vt 0.458333 0.500000
vt 0.541667 0.500000
vt 0.291667 0.500000
vt 0.000000 0.000000
vn 0.2175 0.5423 -0.8116
vn 0.0522 0.9794 -0.1948
vn 0.2542 0.1887 -0.9486
vn 0.1472 0.8224 -0.5495
vn 0.6944 0.1887 -0.6944
vn 0.4023 0.8224 -0.4023
vn 0.5941 0.5423 -0.5941
vn 0.1426 0.9794 -0.1426
vn 0.9486 0.1887 -0.2542
vn 0.5495 0.8224 -0.1472
vn 0.8116 0.5423 -0.2175
vn 0.1948 0.9794 -0.0522
vn 0.8116 0.5423 0.2175
vn 0.1948 0.9794 0.0522
vn 0.9486 0.1887 0.2542
vn 0.5495 0.8224 0.1472
vn 0.5941 0.5423 0.5941
vn 0.1426 0.9794 0.1426
vn 0.6944 0.1887 0.6944
vn 0.4023 0.8224 0.4023
vn 0.2542 0.1887 0.9486
vn 0.1472 0.8224 0.5495
vn 0.2175 0.5423 0.8116
vn 0.0522 0.9794 0.1948
vn -0.1472 0.8224 0.5495
vn -0.2175 0.5423 0.8116
vn -0.0522 0.9794 0.1948
vn -0.2542 0.1887 0.9486
vn -0.5941 0.5423 0.5941
vn -0.1426 0.9794 0.1426
vn -0.6944 0.1887 0.6944
vn -0.4023 0.8224 0.4023
vn -0.1948 0.9794 0.0522
vn -0.9486 0.1887 0.2542
vn -0.5495 0.8224 0.1472
vn -0.8116 0.5423 0.2175
vn -0.9486 0.1887 -0.2542
vn -0.5495 0.8224 -0.1472
vn -0.8116 0.5423 -0.2175
vn -0.1948 0.9794 -0.0522
vn -0.5941 0.5423 -0.5941
vn -0.1426 0.9794 -0.1426
vn -0.6944 0.1887 -0.6944
vn -0.4023 0.8224 -0.4023
vn -0.2175 0.5423 -0.8116
vn -0.0522 0.9794 -0.1948
vn -0.2542 0.1887 -0.9486
vn -0.1472 0.8224 -0.5495
vn 0.2588 0.0000 -0.9659
vn 0.7071 0.0000 0.7071
vn 0.9659 0.0000 -0.2588
vn 0.9659 0.0000 0.2588
vn 0.2588 0.0000 0.9659
vn -0.7071 0.0000 0.7071
vn -0.9659 0.0000 -0.2588
vn -0.7071 0.0000 -0.7071
vn -0.9659 0.0000 0.2588
vn -0.2588 0.0000 0.9659
vn -0.2588 0.0000 -0.9659
vn 0.7071 0.0000 -0.7071
vn 0.0000 -0.5563 0.8310
vn -0.0000 -0.5563 -0.8310
vn -0.4155 -0.5563 0.7197
vn 0.4155 -0.5563 -0.7197
vn -0.7197 -0.5563 0.4155
vn 0.7197 -0.5563 -0.4155
vn -0.8310 -0.5563 -0.0000
vn 0.8310 -0.5563 0.0000
vn -0.7197 -0.5563 -0.4155
vn 0.7197 -0.5563 0.4155
vn -0.4155 -0.5563 -0.7197
vn 0.4155 -0.5563 0.7197
s off
f 48/1/1 3/2/1 4/3/1
f 47/4/2 6/5/2 2/6/2
f 48/1/3 5/7/3 49/8/3
f 47/4/4 3/2/4 1/9/4
f 4/3/5 10/10/5 5/7/5
f 2/6/6 8/11/6 3/2/6
f 3/2/7 9/12/7 4/3/7
f 2/6/8 6/13/8 7/14/8
f 9/12/9 14/15/9 10/10/9
f 7/14/10 12/16/10 8/11/10
f 8/11/11 13/17/11 9/12/11
f 7/14/12 6/18/12 11/19/12
f 12/16/13 17/20/13 13/17/13
f 11/19/14 6/21/14 15/22/14
f 13/17/15 18/23/15 14/15/15
f 11/19/16 16/24/16 12/16/16
f 16/24/17 21/25/17 17/20/17
f 15/22/18 6/26/18 19/27/18
f 17/20/19 22/28/19 18/23/19
f 15/22/20 20/29/20 16/24/20
f 21/25/21 26/30/21 22/28/21
f 19/27/22 24/31/22 20/29/22
f 20/29/23 25/32/23 21/25/23
f 19/27/24 6/33/24 23/34/24
f 24/31/25 27/35/25 28/36/25
f 25/32/26 28/36/26 29/37/26
f 23/34/27 6/38/27 27/35/27
f 25/32/28 30/39/28 26/30/28
f 28/36/29 33/40/29 29/37/29
f 27/35/30 6/41/30 31/42/30
f 29/37/31 34/43/31 30/39/31
f 28/36/32 31/42/32 32/44/32
f 31/42/33 6/45/33 35/46/33
f 33/40/34 38/47/34 34/43/34
f 32/44/35 35/46/35 36/48/35
f 32/44/36 37/49/36 33/40/36
f 37/50/37 42/51/37 38/52/37
f 36/53/38 39/54/38 40/55/38
f 36/53/39 41/56/39 37/50/39
f 35/57/40 6/58/40 39/54/40
f 40/55/41 45/59/41 41/56/41
f 39/54/42 6/60/42 43/61/42
f 41/56/43 46/62/43 42/51/43
f 39/54/44 44/63/44 40/55/44
f 44/63/45 48/1/45 45/59/45
f 43/61/46 6/64/46 47/4/46
f 46/62/47 48/1/47 49/8/47
f 43/61/48 1/9/48 44/63/48
f 5/7/49 61/65/49 49/8/49
f 22/28/50 53/66/50 18/23/50
f 14/15/51 51/67/51 10/10/51
f 18/23/52 52/68/52 14/15/52
f 26/30/53 54/69/53 22/28/53
f 34/43/54 56/70/54 30/39/54
f 42/51/55 58/71/55 38/52/55
f 46/62/56 59/72/56 42/51/56
f 38/47/57 57/73/57 34/43/57
f 30/39/58 55/74/58 26/30/58
f 49/8/59 60/75/59 46/62/59
f 10/10/60 50/76/60 5/7/60
f 58/71/55 59/72/55 67/77/55
f 50/76/60 51/67/60 69/78/60
f 57/73/57 58/79/57 62/80/57
f 57/73/54 63/81/54 56/70/54
f 56/70/58 64/82/58 55/74/58
f 50/76/49 68/83/49 61/65/49
f 61/65/59 65/84/59 60/75/59
f 60/75/56 66/85/56 59/72/56
f 70/86/50 53/66/50 54/69/50
f 53/66/52 71/87/52 52/68/52
f 72/88/51 51/67/51 52/68/51
f 73/89/53 54/69/53 55/74/53
f 52/68/61 74/90/61 72/88/61
f 74/90/62 52/68/62 71/87/62
f 71/87/63 53/66/63 74/90/63
f 70/86/64 74/90/64 53/66/64
f 54/69/65 74/90/65 70/86/65
f 73/89/66 74/90/66 54/69/66
f 55/74/67 74/90/67 73/89/67
f 55/74/68 64/82/68 74/90/68
f 64/82/69 56/70/69 74/90/69
f 56/70/70 63/81/70 74/90/70
f 63/81/71 57/73/71 74/90/71
f 57/73/72 62/80/72 74/90/72
f 62/80/62 58/79/62 74/90/62
f 67/77/61 74/90/61 58/79/61
f 59/72/64 74/90/64 67/77/64
f 66/85/63 74/90/63 59/72/63
f 60/75/66 74/90/66 66/85/66
f 65/84/65 74/90/65 60/75/65
f 61/65/68 74/90/68 65/84/68
f 68/83/67 74/90/67 61/65/67
f 50/76/70 74/90/70 68/83/70
f 69/78/69 74/90/69 50/76/69
f 51/67/72 74/90/72 69/78/72
f 72/88/71 74/90/71 51/67/71
f 48/1/1 1/9/1 3/2/1
f 48/1/3 4/3/3 5/7/3
f 47/4/4 2/6/4 3/2/4
f 4/3/5 9/12/5 10/10/5
f 2/6/6 7/14/6 8/11/6
f 3/2/7 8/11/7 9/12/7
f 9/12/9 13/17/9 14/15/9
f 7/14/10 11/19/10 12/16/10
f 8/11/11 12/16/11 13/17/11
f 12/16/13 16/24/13 17/20/13
f 13/17/15 17/20/15 18/23/15
f 11/19/16 15/22/16 16/24/16
f 16/24/17 20/29/17 21/25/17
f 17/20/19 21/25/19 22/28/19
f 15/22/20 19/27/20 20/29/20
f 21/25/21 25/32/21 26/30/21
f 19/27/22 23/34/22 24/31/22
f 20/29/23 24/31/23 25/32/23
f 24/31/25 23/34/25 27/35/25
f 25/32/26 24/31/26 28/36/26
f 25/32/28 29/37/28 30/39/28
f 28/36/29 32/44/29 33/40/29
f 29/37/31 33/40/31 34/43/31
f 28/36/32 27/35/32 31/42/32
f 33/40/34 37/49/34 38/47/34
f 32/44/35 31/42/35 35/46/35
f 32/44/36 36/48/36 37/49/36
f 37/50/37 41/56/37 42/51/37
f 36/53/38 35/57/38 39/54/38
f 36/53/39 40/55/39 41/56/39
f 40/55/41 44/63/41 45/59/41
f 41/56/43 45/59/43 46/62/43
f 39/54/44 43/61/44 44/63/44
f 44/63/45 1/9/45 48/1/45
f 46/62/47 45/59/47 48/1/47
f 43/61/48 47/4/48 1/9/48
f 5/7/49 50/76/49 61/65/49
f 22/28/50 54/69/50 53/66/50
f 14/15/51 52/68/51 51/67/51
f 18/23/52 53/66/52 52/68/52
f 26/30/53 55/74/53 54/69/53
f 34/43/54 57/73/54 56/70/54
f 42/51/55 59/72/55 58/71/55
f 46/62/56 60/75/56 59/72/56
f 38/47/57 58/79/57 57/73/57
f 30/39/58 56/70/58 55/74/58
f 49/8/59 61/65/59 60/75/59
f 10/10/60 51/67/60 50/76/60
