# Export of Universe
# from Aaro4130 OBJ Exporter v2.0
mtllib 13.mtl
g ChamferCube
v 1.5 -1.5 -0.85873
v 0.85873 -1.5 -1.5
v -0.85873 -1.5 -1.5
v -1.5 -1.5 -0.85873
v 1.5 -1.5 0.85873
v -1.5 -1.5 0.85873
v 0.85873 -1.5 1.5
v -0.85873 -1.5 1.5
v 0.85873 1.5 1.5
v 1.5 0.85873 1.5
v 1.5 -0.85873 1.5
v 0.85873 -1.5 1.5
v -0.85873 1.5 1.5
v -0.85873 -1.5 1.5
v -1.5 0.85873 1.5
v -1.5 -0.85873 1.5
v 1.5 -0.85873 -1.5
v 1.5 -1.5 -0.85873
v 1.5 -1.5 0.85873
v 1.5 -0.85873 1.5
v 1.5 0.85873 -1.5
v 1.5 0.85873 1.5
v 1.5 1.5 -0.85873
v 1.5 1.5 0.85873
v 0.85873 -1.5 -1.5
v 1.5 -0.85873 -1.5
v 1.5 0.85873 -1.5
v 0.85873 1.5 -1.5
v -0.85873 -1.5 -1.5
v -0.85873 1.5 -1.5
v -1.5 -0.85873 -1.5
v -1.5 0.85873 -1.5
v -1.5 -0.85873 1.5
v -1.5 -1.5 0.85873
v -1.5 -1.5 -0.85873
v -1.5 -0.85873 -1.5
v -1.5 0.85873 1.5
v -1.5 0.85873 -1.5
v -1.5 1.5 0.85873
v -1.5 1.5 -0.85873
v -1.5 1.5 -0.85873
v -0.85873 1.5 -1.5
v 0.85873 1.5 -1.5
v 1.5 1.5 -0.85873
v -1.5 1.5 0.85873
v 1.5 1.5 0.85873
v -0.85873 1.5 1.5
v 0.85873 1.5 1.5
v -1.5 -0.85873 1.5
v -0.85873 -1.5 1.5
v -1.5 -1.5 0.85873
v 1.5 -0.85873 1.5
v 1.5 -1.5 0.85873
v 0.85873 -1.5 1.5
v 1.5 -0.85873 -1.5
v 0.85873 -1.5 -1.5
v 1.5 -1.5 -0.85873
v -1.5 -0.85873 -1.5
v -1.5 -1.5 -0.85873
v -0.85873 -1.5 -1.5
v -1.5 1.5 0.85873
v -0.85873 1.5 1.5
v -1.5 0.85873 1.5
v 1.5 1.5 0.85873
v 1.5 0.85873 1.5
v 0.85873 1.5 1.5
v 0.85873 1.5 -1.5
v 1.5 0.85873 -1.5
v 1.5 1.5 -0.85873
v -1.5 1.5 -0.85873
v -1.5 0.85873 -1.5
v -0.85873 1.5 -1.5
vn 0 -0.5773503 0
vn 0 -0.5773503 0
vn 0 -0.5773503 0
vn 0 -0.5773503 0
vn 0 -0.5773503 0
vn 0 -0.5773503 0
vn 0 -0.5773503 0
vn 0 -0.5773503 0
vn 0 0 0.5773503
vn 0 0 0.5773503
vn 0 0 0.5773503
vn 0 0 0.5773503
vn 0 0 0.5773503
vn 0 0 0.5773503
vn 0 0 0.5773503
vn 0 0 0.5773503
vn 0.5773503 0 0
vn 0.5773503 0 0
vn 0.5773503 0 0
vn 0.5773503 0 0
vn 0.5773503 0 0
vn 0.5773503 0 0
vn 0.5773503 0 0
vn 0.5773503 0 0
vn 0 0 -0.5773503
vn 0 0 -0.5773503
vn 0 0 -0.5773503
vn 0 0 -0.5773503
vn 0 0 -0.5773503
vn 0 0 -0.5773503
vn 0 0 -0.5773503
vn 0 0 -0.5773503
vn -0.5773503 0 0
vn -0.5773503 0 0
vn -0.5773503 0 0
vn -0.5773503 0 0
vn -0.5773503 0 0
vn -0.5773503 0 0
vn -0.5773503 0 0
vn -0.5773503 0 0
vn 0 0.5773503 0
vn 0 0.5773503 0
vn 0 0.5773503 0
vn 0 0.5773503 0
vn 0 0.5773503 0
vn 0 0.5773503 0
vn 0 0.5773503 0
vn 0 0.5773503 0
vn -0.3333333 -0.3333333 0.3333333
vn -0.3333333 -0.3333333 0.3333333
vn -0.3333333 -0.3333333 0.3333333
vn 0.3333333 -0.3333333 0.3333333
vn 0.3333333 -0.3333333 0.3333333
vn 0.3333333 -0.3333333 0.3333333
vn 0.3333333 -0.3333333 -0.3333333
vn 0.3333333 -0.3333333 -0.3333333
vn 0.3333333 -0.3333333 -0.3333333
vn -0.3333333 -0.3333333 -0.3333333
vn -0.3333333 -0.3333333 -0.3333333
vn -0.3333333 -0.3333333 -0.3333333
vn -0.3333333 0.3333333 0.3333333
vn -0.3333333 0.3333333 0.3333333
vn -0.3333333 0.3333333 0.3333333
vn 0.3333333 0.3333333 0.3333333
vn 0.3333333 0.3333333 0.3333333
vn 0.3333333 0.3333333 0.3333333
vn 0.3333333 0.3333333 -0.3333333
vn 0.3333333 0.3333333 -0.3333333
vn 0.3333333 0.3333333 -0.3333333
vn -0.3333333 0.3333333 -0.3333333
vn -0.3333333 0.3333333 -0.3333333
vn -0.3333333 0.3333333 -0.3333333
vt 1 0.786243
vt 0.786243 1
vt 0.213757 1
vt 0 0.786243
vt 1 0.213757
vt 0 0.213757
vt 0.786243 0
vt 0.213757 0
vt 0.786243 1
vt 1 0.786243
vt 1 0.213757
vt 0.786243 0
vt 0.213757 1
vt 0.213757 0
vt 0 0.786243
vt 0 0.213757
vt 1 0.213757
vt 0.786243 0
vt 0.213757 0
vt 0 0.213757
vt 1 0.786243
vt 0 0.786243
vt 0.786243 1
vt 0.213757 1
vt 0.786243 0
vt 1 0.213757
vt 1 0.786243
vt 0.786243 1
vt 0.213757 0
vt 0.213757 1
vt 0 0.213757
vt 0 0.786243
vt 0 0.213757
vt 0.213757 0
vt 0.786243 0
vt 1 0.213757
vt 0 0.786243
vt 1 0.786243
vt 0.213757 1
vt 0.786243 1
vt 0 0.786243
vt 0.213757 1
vt 0.786243 1
vt 1 0.786243
vt 0 0.213757
vt 1 0.213757
vt 0.213757 0
vt 0.786243 0
vt 0 0.213757
vt 0.213757 0
vt 0 0
vt 1 0.213757
vt 1 0
vt 0.786243 0
vt 1 0.213757
vt 0.786243 0
vt 1 0
vt 0 0.213757
vt 0 0
vt 0.213757 0
vt 0 1
vt 0.213757 1
vt 0 0.786243
vt 1 1
vt 1 0.786243
vt 0.786243 1
vt 0.786243 1
vt 1 0.786243
vt 1 1
vt 0 1
vt 0 0.786243
vt 0.213757 1
usemtl baseThingPartMaterial
f 3/3/3 2/2/2 1/1/1
f 1/1/1 4/4/4 3/3/3
f 1/1/1 5/5/5 4/4/4
f 5/5/5 6/6/6 4/4/4
f 5/5/5 7/7/7 6/6/6
f 7/7/7 8/8/8 6/6/6
f 11/11/11 10/10/10 9/9/9
f 9/9/9 12/12/12 11/11/11
f 9/9/9 13/13/13 12/12/12
f 13/13/13 14/14/14 12/12/12
f 13/13/13 15/15/15 14/14/14
f 15/15/15 16/16/16 14/14/14
f 19/19/19 18/18/18 17/17/17
f 17/17/17 20/20/20 19/19/19
f 17/17/17 21/21/21 20/20/20
f 21/21/21 22/22/22 20/20/20
f 21/21/21 23/23/23 22/22/22
f 23/23/23 24/24/24 22/22/22
f 27/27/27 26/26/26 25/25/25
f 25/25/25 28/28/28 27/27/27
f 25/25/25 29/29/29 28/28/28
f 29/29/29 30/30/30 28/28/28
f 29/29/29 31/31/31 30/30/30
f 31/31/31 32/32/32 30/30/30
f 35/35/35 34/34/34 33/33/33
f 33/33/33 36/36/36 35/35/35
f 33/33/33 37/37/37 36/36/36
f 37/37/37 38/38/38 36/36/36
f 37/37/37 39/39/39 38/38/38
f 39/39/39 40/40/40 38/38/38
f 43/43/43 42/42/42 41/41/41
f 41/41/41 44/44/44 43/43/43
f 41/41/41 45/45/45 44/44/44
f 45/45/45 46/46/46 44/44/44
f 45/45/45 47/47/47 46/46/46
f 47/47/47 48/48/48 46/46/46
f 51/51/51 50/50/50 49/49/49
f 54/54/54 53/53/53 52/52/52
f 57/57/57 56/56/56 55/55/55
f 60/60/60 59/59/59 58/58/58
f 63/63/63 62/62/62 61/61/61
f 66/66/66 65/65/65 64/64/64
f 69/69/69 68/68/68 67/67/67
f 72/72/72 71/71/71 70/70/70
