# Export of Universe
# from Aaro4130 OBJ Exporter v2.0
mtllib 144.mtl
g Wheel
v -0.69 -1.28855 0.345265
v -0.69 -1.334 0
v -0.69 -1.28855 -0.345265
v -0.69 -1.15528 0.667
v -0.69 -1.15528 -0.667
v -0.69 -0.94328 0.94328
v -0.69 -0.94328 -0.94328
v -0.69 -0.667 1.15528
v -0.69 -0.667 -1.15528
v -0.69 -0.345265 1.28855
v -0.69 -0.345265 -1.28855
v -0.69 -4.16334E-17 1.334
v -0.69 -4.16334E-17 -1.334
v -0.69 0.345265 1.28855
v -0.69 0.345265 -1.28855
v -0.69 0.667 1.15528
v -0.69 0.667 -1.15528
v -0.69 0.94328 0.94328
v -0.69 0.94328 -0.94328
v -0.69 1.15528 0.667
v -0.69 1.15528 -0.667
v -0.69 1.28855 0.345265
v -0.69 1.28855 -0.345265
v -0.69 1.334 0
v 0.69 -1.28855 -0.345265
v 0.69 -1.334 0
v 0.69 -1.28855 0.345265
v 0.69 -1.15528 -0.667
v 0.69 -1.15528 0.667
v 0.69 -0.94328 -0.94328
v 0.69 -0.94328 0.94328
v 0.69 -0.667 -1.15528
v 0.69 -0.667 1.15528
v 0.69 -0.345265 -1.28855
v 0.69 -0.345265 1.28855
v 0.69 4.16334E-17 -1.334
v 0.69 4.16334E-17 1.334
v 0.69 0.345265 -1.28855
v 0.69 0.345265 1.28855
v 0.69 0.667 -1.15528
v 0.69 0.667 1.15528
v 0.69 0.94328 -0.94328
v 0.69 0.94328 0.94328
v 0.69 1.15528 -0.667
v 0.69 1.15528 0.667
v 0.69 1.28855 -0.345265
v 0.69 1.28855 0.345265
v 0.69 1.334 0
v 0.69 -1.334 0
v 0.69 -1.28855 -0.345265
v 0.6 -1.40059 -0.375288
v 0.6 -1.45 0
v 0.69 -1.28855 0.345265
v 0.6 -1.40059 0.375288
v 0.6 -1.25574 -0.725
v 0.69 -1.15528 -0.667
v 0.69 -1.15528 0.667
v 0.6 -1.25574 0.725
v 0.6 -1.0253 -1.0253
v 0.69 -0.94328 -0.94328
v 0.69 -0.94328 0.94328
v 0.6 -1.0253 1.0253
v 0.6 -0.725 -1.25574
v 0.69 -0.667 -1.15528
v 0.69 -0.667 1.15528
v 0.6 -0.725 1.25574
v 0.6 -0.375288 -1.40059
v 0.69 -0.345265 -1.28855
v 0.69 -0.345265 1.28855
v 0.6 -0.375288 1.40059
v 0.6 4.16334E-17 -1.45
v 0.69 4.16334E-17 -1.334
v 0.69 4.16334E-17 1.334
v 0.6 4.16334E-17 1.45
v 0.69 0.345265 -1.28855
v 0.6 0.375288 -1.40059
v 0.6 0.375288 1.40059
v 0.69 0.345265 1.28855
v 0.69 0.667 -1.15528
v 0.6 0.725 -1.25574
v 0.6 0.725 1.25574
v 0.69 0.667 1.15528
v 0.69 0.94328 -0.94328
v 0.6 1.0253 -1.0253
v 0.6 1.0253 1.0253
v 0.69 0.94328 0.94328
v 0.69 1.15528 -0.667
v 0.6 1.25574 -0.725
v 0.6 1.25574 0.725
v 0.69 1.15528 0.667
v 0.69 1.28855 -0.345265
v 0.6 1.40059 -0.375288
v 0.69 1.334 0
v 0.6 1.45 0
v 0.69 1.28855 0.345265
v 0.6 1.40059 0.375288
v 0.6 1.40059 -0.375288
v 0.6 1.45 0
v -0.6 1.45 0
v -0.6 1.40059 -0.375288
v -0.6 1.40059 0.375288
v 0.6 1.40059 0.375288
v 0.6 1.25574 -0.725
v -0.6 1.25574 -0.725
v -0.6 1.25574 0.725
v 0.6 1.25574 0.725
v 0.6 1.0253 -1.0253
v -0.6 1.0253 -1.0253
v -0.6 1.0253 1.0253
v 0.6 1.0253 1.0253
v 0.6 0.725 -1.25574
v -0.6 0.725 -1.25574
v -0.6 0.725 1.25574
v 0.6 0.725 1.25574
v 0.6 0.375288 -1.40059
v -0.6 0.375288 -1.40059
v -0.6 0.375288 1.40059
v 0.6 0.375288 1.40059
v 0.6 4.16334E-17 -1.45
v -0.6 -2.77556E-17 -1.45
v -0.6 -2.77556E-17 1.45
v 0.6 4.16334E-17 1.45
v -0.69 1.334 0
v -0.69 1.28855 -0.345265
v -0.6 1.40059 -0.375288
v -0.6 1.45 0
v -0.69 1.28855 0.345265
v -0.6 1.40059 0.375288
v -0.6 1.25574 -0.725
v -0.69 1.15528 -0.667
v -0.69 1.15528 0.667
v -0.6 1.25574 0.725
v -0.6 1.0253 -1.0253
v -0.69 0.94328 -0.94328
v -0.69 0.94328 0.94328
v -0.6 1.0253 1.0253
v -0.6 0.725 -1.25574
v -0.69 0.667 -1.15528
v -0.69 0.667 1.15528
v -0.6 0.725 1.25574
v -0.6 0.375288 -1.40059
v -0.69 0.345265 -1.28855
v -0.69 0.345265 1.28855
v -0.6 0.375288 1.40059
v -0.6 -2.77556E-17 -1.45
v -0.69 -4.16334E-17 -1.334
v -0.69 -4.16334E-17 1.334
v -0.6 -2.77556E-17 1.45
v -0.6 -0.375288 -1.40059
v -0.69 -0.345265 -1.28855
v -0.69 -0.345265 1.28855
v -0.6 -0.375288 1.40059
v -0.6 -0.725 -1.25574
v -0.69 -0.667 -1.15528
v -0.69 -0.667 1.15528
v -0.6 -0.725 1.25574
v -0.6 -1.0253 -1.0253
v -0.69 -0.94328 -0.94328
v -0.69 -0.94328 0.94328
v -0.6 -1.0253 1.0253
v -0.6 -1.25574 -0.725
v -0.69 -1.15528 -0.667
v -0.69 -1.15528 0.667
v -0.6 -1.25574 0.725
v -0.6 -1.40059 -0.375288
v -0.69 -1.28855 -0.345265
v -0.69 -1.28855 0.345265
v -0.6 -1.40059 0.375288
v -0.6 -1.45 0
v -0.69 -1.334 0
v 0.6 -0.375288 -1.40059
v 0.6 4.16334E-17 -1.45
v -0.6 -2.77556E-17 -1.45
v -0.6 -0.375288 -1.40059
v 0.6 -0.725 -1.25574
v -0.6 -0.725 -1.25574
v 0.6 -1.0253 -1.0253
v -0.6 -1.0253 -1.0253
v 0.6 -1.25574 -0.725
v -0.6 -1.25574 -0.725
v 0.6 -1.40059 -0.375288
v -0.6 -1.40059 -0.375288
v 0.6 -1.45 0
v -0.6 -1.45 0
v 0.6 -1.40059 0.375288
v -0.6 -1.40059 0.375288
v 0.6 -1.25574 0.725
v -0.6 -1.25574 0.725
v 0.6 -1.0253 1.0253
v -0.6 -1.0253 1.0253
v 0.6 -0.725 1.25574
v -0.6 -0.725 1.25574
v 0.6 -0.375288 1.40059
v -0.6 -0.375288 1.40059
v 0.6 4.16334E-17 1.45
v -0.6 -2.77556E-17 1.45
vn -0.5773503 0 0
vn -0.5773503 0 0
vn -0.5773503 0 0
vn -0.5773503 0 0
vn -0.5773503 0 0
vn -0.5773503 0 0
vn -0.5773503 0 0
vn -0.5773503 0 0
vn -0.5773503 0 0
vn -0.5773503 0 0
vn -0.5773503 0 0
vn -0.5773503 0 0
vn -0.5773503 0 0
vn -0.5773503 0 0
vn -0.5773503 0 0
vn -0.5773503 0 0
vn -0.5773503 0 0
vn -0.5773503 0 0
vn -0.5773503 0 0
vn -0.5773503 0 0
vn -0.5773503 0 0
vn -0.5773503 0 0
vn -0.5773503 0 0
vn -0.5773503 0 0
vn 0.5773503 0 0
vn 0.5773503 0 0
vn 0.5773503 0 0
vn 0.5773503 0 0
vn 0.5773503 0 0
vn 0.5773503 0 0
vn 0.5773503 0 0
vn 0.5773503 0 0
vn 0.5773503 0 0
vn 0.5773503 0 0
vn 0.5773503 0 0
vn 0.5773503 0 0
vn 0.5773503 0 0
vn 0.5773503 0 0
vn 0.5773503 0 0
vn 0.5773503 0 0
vn 0.5773503 0 0
vn 0.5773503 0 0
vn 0.5773503 0 0
vn 0.5773503 0 0
vn 0.5773503 0 0
vn 0.5773503 0 0
vn 0.5773503 0 0
vn 0.5773503 0 0
vn 0.4561504 -0.3539211 0
vn 0.456151 -0.3418612 -0.09159969
vn 0.456151 -0.341861 -0.09160059
vn 0.4561504 -0.3539211 0
vn 0.456151 -0.3418612 0.09159969
vn 0.456151 -0.341861 0.09160059
vn 0.456152 -0.3065018 -0.1769614
vn 0.456152 -0.3065016 -0.1769618
vn 0.4561521 -0.3065015 0.1769618
vn 0.456152 -0.3065018 0.1769614
vn 0.4561517 -0.2502589 -0.2502588
vn 0.4561517 -0.2502589 -0.2502589
vn 0.4561517 -0.2502588 0.2502588
vn 0.4561517 -0.2502588 0.2502588
vn 0.4561521 -0.1769614 -0.3065018
vn 0.4561521 -0.1769618 -0.3065016
vn 0.4561521 -0.1769618 0.3065016
vn 0.4561521 -0.1769614 0.3065018
vn 0.456151 -0.09160058 -0.341861
vn 0.456151 -0.09159968 -0.3418612
vn 0.456151 -0.09159969 0.3418612
vn 0.456151 -0.09160059 0.341861
vn 0.4561504 0 -0.3539211
vn 0.4561504 0 -0.3539211
vn 0.4561504 0 0.3539212
vn 0.4561504 0 0.3539212
vn 0.456151 0.09159968 -0.3418612
vn 0.456151 0.09160058 -0.341861
vn 0.456151 0.09160059 0.341861
vn 0.456151 0.09159968 0.3418612
vn 0.4561521 0.1769618 -0.3065016
vn 0.4561521 0.1769614 -0.3065018
vn 0.4561521 0.1769614 0.3065018
vn 0.4561521 0.1769618 0.3065015
vn 0.4561517 0.2502588 -0.2502588
vn 0.4561517 0.2502588 -0.2502589
vn 0.4561517 0.2502588 0.2502588
vn 0.4561517 0.2502588 0.2502588
vn 0.456152 0.3065016 -0.1769618
vn 0.456152 0.3065018 -0.1769614
vn 0.456152 0.3065018 0.1769614
vn 0.456152 0.3065016 0.1769618
vn 0.456151 0.3418612 -0.09159969
vn 0.456151 0.341861 -0.09160058
vn 0.4561504 0.3539211 0
vn 0.4561504 0.3539211 0
vn 0.456151 0.3418612 0.09159969
vn 0.456151 0.341861 0.09160059
vn 0 0.5576782 -0.149427
vn 0 0.5773503 0
vn 0 0.5773503 0
vn 0 0.5576782 -0.149427
vn 0 0.5576782 0.149427
vn 0 0.5576782 0.149427
vn 0 0.4999982 -0.2886782
vn 0 0.4999982 -0.2886782
vn 0 0.4999982 0.2886782
vn 0 0.4999982 0.2886782
vn 0 0.4082483 -0.4082483
vn 0 0.4082483 -0.4082483
vn 0 0.4082483 0.4082483
vn 0 0.4082483 0.4082483
vn 0 0.2886782 -0.4999982
vn 0 0.2886782 -0.4999982
vn 0 0.2886782 0.4999982
vn 0 0.2886782 0.4999982
vn 0 0.149427 -0.5576782
vn 0 0.149427 -0.5576782
vn 0 0.149427 0.5576782
vn 0 0.149427 0.5576782
vn 0 0 -0.5773503
vn 0 0 -0.5773503
vn 0 0 0.5773503
vn 0 0 0.5773503
vn -0.4561504 0.3539211 0
vn -0.456151 0.3418612 -0.09159969
vn -0.456151 0.341861 -0.09160058
vn -0.4561504 0.3539211 0
vn -0.456151 0.3418612 0.09159969
vn -0.456151 0.341861 0.09160059
vn -0.456152 0.3065018 -0.1769614
vn -0.4561521 0.3065015 -0.1769618
vn -0.456152 0.3065016 0.1769618
vn -0.456152 0.3065018 0.1769614
vn -0.4561517 0.2502588 -0.2502589
vn -0.4561517 0.2502588 -0.2502588
vn -0.4561517 0.2502588 0.2502588
vn -0.4561517 0.2502588 0.2502588
vn -0.4561521 0.1769614 -0.3065018
vn -0.4561521 0.1769618 -0.3065016
vn -0.4561521 0.1769618 0.3065015
vn -0.4561521 0.1769613 0.3065018
vn -0.456151 0.09160059 -0.341861
vn -0.456151 0.09159969 -0.3418612
vn -0.456151 0.09159968 0.3418612
vn -0.456151 0.09160058 0.341861
vn -0.4561504 0 -0.3539211
vn -0.4561504 0 -0.3539211
vn -0.4561504 0 0.3539211
vn -0.4561504 0 0.3539211
vn -0.456151 -0.09160058 -0.341861
vn -0.456151 -0.09159968 -0.3418612
vn -0.456151 -0.09159969 0.3418612
vn -0.456151 -0.09160059 0.341861
vn -0.4561521 -0.1769614 -0.3065018
vn -0.4561521 -0.1769618 -0.3065016
vn -0.4561521 -0.1769618 0.3065015
vn -0.4561521 -0.1769614 0.3065018
vn -0.4561517 -0.2502588 -0.2502589
vn -0.4561517 -0.2502588 -0.2502589
vn -0.4561517 -0.2502588 0.2502588
vn -0.4561517 -0.2502588 0.2502588
vn -0.456152 -0.3065018 -0.1769614
vn -0.456152 -0.3065016 -0.1769618
vn -0.4561521 -0.3065016 0.1769618
vn -0.456152 -0.3065018 0.1769614
vn -0.456151 -0.341861 -0.09160059
vn -0.456151 -0.3418612 -0.09159969
vn -0.456151 -0.3418612 0.09159968
vn -0.456151 -0.341861 0.09160059
vn -0.4561504 -0.3539211 0
vn -0.4561504 -0.3539211 0
vn 0 -0.149427 -0.5576782
vn 0 0 -0.5773503
vn 0 0 -0.5773503
vn 0 -0.149427 -0.5576782
vn 0 -0.2886782 -0.4999982
vn 0 -0.2886782 -0.4999982
vn 0 -0.4082483 -0.4082483
vn 0 -0.4082483 -0.4082483
vn 0 -0.4999982 -0.2886782
vn 0 -0.4999982 -0.2886782
vn 0 -0.5576782 -0.149427
vn 0 -0.5576782 -0.149427
vn 0 -0.5773503 0
vn 0 -0.5773503 0
vn 0 -0.5576782 0.149427
vn 0 -0.5576782 0.149427
vn 0 -0.4999982 0.2886782
vn 0 -0.4999982 0.2886782
vn 0 -0.4082483 0.4082483
vn 0 -0.4082483 0.4082483
vn 0 -0.2886782 0.4999982
vn 0 -0.2886782 0.4999982
vn 0 -0.149427 0.5576782
vn 0 -0.149427 0.5576782
vn 0 0 0.5773503
vn 0 0 0.5773503
vt 0.0782456 0.380943
vt 0.0759719 0.5
vt 0.0782456 0.619057
vt 0.0856891 0.27
vt 0.0856891 0.73
vt 0.100514 0.174731
vt 0.100514 0.825269
vt 0.127697 0.101628
vt 0.127697 0.898372
vt 0.176159 0.0556724
vt 0.176159 0.944328
vt 0.25 0.04
vt 0.25 0.96
vt 0.323841 0.0556724
vt 0.323841 0.944328
vt 0.372303 0.101628
vt 0.372303 0.898372
vt 0.399486 0.174731
vt 0.399486 0.825269
vt 0.414311 0.27
vt 0.414311 0.73
vt 0.421754 0.380943
vt 0.421754 0.619057
vt 0.424028 0.5
vt 0.921754 0.619057
vt 0.924028 0.5
vt 0.921754 0.380943
vt 0.914311 0.73
vt 0.914311 0.27
vt 0.899486 0.825269
vt 0.899486 0.174731
vt 0.872303 0.898372
vt 0.872303 0.101628
vt 0.823841 0.944328
vt 0.823841 0.0556724
vt 0.75 0.96
vt 0.75 0.04
vt 0.676159 0.944328
vt 0.676159 0.0556724
vt 0.627697 0.898372
vt 0.627697 0.101628
vt 0.600514 0.825269
vt 0.600514 0.174731
vt 0.585689 0.73
vt 0.585689 0.27
vt 0.578246 0.619057
vt 0.578246 0.380943
vt 0.575972 0.5
vt 0.924028 0.5
vt 0.921754 0.619057
vt 0.935584 0.62941
vt 0.937557 0.5
vt 0.921754 0.380943
vt 0.935584 0.37059
vt 0.929059 0.75
vt 0.914311 0.73
vt 0.914311 0.27
vt 0.929059 0.25
vt 0.915734 0.853552
vt 0.899486 0.825269
vt 0.899486 0.174731
vt 0.915734 0.146448
vt 0.88997 0.933014
vt 0.872303 0.898372
vt 0.872303 0.101628
vt 0.88997 0.0669862
vt 0.838959 0.982962
vt 0.823841 0.944328
vt 0.823841 0.0556724
vt 0.838959 0.017038
vt 0.75 1
vt 0.75 0.96
vt 0.75 0.04
vt 0.75 5.55112E-17
vt 0.676159 0.944328
vt 0.661041 0.982962
vt 0.661041 0.017038
vt 0.676159 0.0556724
vt 0.627697 0.898372
vt 0.61003 0.933014
vt 0.61003 0.0669862
vt 0.627697 0.101628
vt 0.600514 0.825269
vt 0.584266 0.853552
vt 0.584266 0.146448
vt 0.600514 0.174731
vt 0.585689 0.73
vt 0.570941 0.75
vt 0.570941 0.25
vt 0.585689 0.27
vt 0.578246 0.619057
vt 0.564416 0.62941
vt 0.575972 0.5
vt 0.562443 0.5
vt 0.578246 0.380943
vt 0.564416 0.37059
vt 0.564416 0.62941
vt 0.562443 0.5
vt 0.437557 0.5
vt 0.435584 0.62941
vt 0.435584 0.37059
vt 0.564416 0.37059
vt 0.570941 0.75
vt 0.429059 0.75
vt 0.429059 0.25
vt 0.570941 0.25
vt 0.584266 0.853552
vt 0.415733 0.853552
vt 0.415733 0.146448
vt 0.584266 0.146448
vt 0.61003 0.933014
vt 0.38997 0.933014
vt 0.38997 0.0669862
vt 0.61003 0.0669862
vt 0.661041 0.982962
vt 0.338959 0.982962
vt 0.338959 0.017038
vt 0.661041 0.017038
vt 0.75 1
vt 0.25 1
vt 0.25 5.55112E-17
vt 0.75 5.55112E-17
vt 0.424028 0.5
vt 0.421754 0.619057
vt 0.435584 0.62941
vt 0.437557 0.5
vt 0.421754 0.380943
vt 0.435584 0.37059
vt 0.429059 0.75
vt 0.414311 0.73
vt 0.414311 0.27
vt 0.429059 0.25
vt 0.415733 0.853552
vt 0.399486 0.825269
vt 0.399486 0.174731
vt 0.415733 0.146448
vt 0.38997 0.933014
vt 0.372303 0.898372
vt 0.372303 0.101628
vt 0.38997 0.0669862
vt 0.338959 0.982962
vt 0.323841 0.944328
vt 0.323841 0.0556724
vt 0.338959 0.017038
vt 0.25 1
vt 0.25 0.96
vt 0.25 0.04
vt 0.25 5.55112E-17
vt 0.161041 0.982962
vt 0.176159 0.944328
vt 0.176159 0.0556724
vt 0.161041 0.017038
vt 0.11003 0.933014
vt 0.127697 0.898372
vt 0.127697 0.101628
vt 0.11003 0.0669862
vt 0.0842665 0.853552
vt 0.100514 0.825269
vt 0.100514 0.174731
vt 0.0842665 0.146448
vt 0.070941 0.75
vt 0.0856891 0.73
vt 0.0856891 0.27
vt 0.070941 0.25
vt 0.0644163 0.62941
vt 0.0782456 0.619057
vt 0.0782456 0.380943
vt 0.0644163 0.37059
vt 0.0624429 0.5
vt 0.0759719 0.5
vt 0.838959 0.982962
vt 0.75 1
vt 0.25 1
vt 0.161041 0.982962
vt 0.88997 0.933014
vt 0.11003 0.933014
vt 0.915734 0.853552
vt 0.0842665 0.853552
vt 0.929059 0.75
vt 0.070941 0.75
vt 0.935584 0.62941
vt 0.0644163 0.62941
vt 0.937557 0.5
vt 0.0624429 0.5
vt 0.935584 0.37059
vt 0.0644163 0.37059
vt 0.929059 0.25
vt 0.070941 0.25
vt 0.915734 0.146448
vt 0.0842665 0.146448
vt 0.88997 0.0669862
vt 0.11003 0.0669862
vt 0.838959 0.017038
vt 0.161041 0.017038
vt 0.75 5.55112E-17
vt 0.25 5.55112E-17
usemtl baseThingPartMaterial
f 3/3/3 2/2/2 1/1/1
f 1/1/1 4/4/4 3/3/3
f 4/4/4 5/5/5 3/3/3
f 4/4/4 6/6/6 5/5/5
f 6/6/6 7/7/7 5/5/5
f 6/6/6 8/8/8 7/7/7
f 8/8/8 9/9/9 7/7/7
f 8/8/8 10/10/10 9/9/9
f 10/10/10 11/11/11 9/9/9
f 10/10/10 12/12/12 11/11/11
f 12/12/12 13/13/13 11/11/11
f 12/12/12 14/14/14 13/13/13
f 14/14/14 15/15/15 13/13/13
f 14/14/14 16/16/16 15/15/15
f 16/16/16 17/17/17 15/15/15
f 16/16/16 18/18/18 17/17/17
f 18/18/18 19/19/19 17/17/17
f 18/18/18 20/20/20 19/19/19
f 20/20/20 21/21/21 19/19/19
f 20/20/20 22/22/22 21/21/21
f 22/22/22 23/23/23 21/21/21
f 22/22/22 24/24/24 23/23/23
f 27/27/27 26/26/26 25/25/25
f 25/25/25 28/28/28 27/27/27
f 28/28/28 29/29/29 27/27/27
f 28/28/28 30/30/30 29/29/29
f 30/30/30 31/31/31 29/29/29
f 30/30/30 32/32/32 31/31/31
f 32/32/32 33/33/33 31/31/31
f 32/32/32 34/34/34 33/33/33
f 34/34/34 35/35/35 33/33/33
f 34/34/34 36/36/36 35/35/35
f 36/36/36 37/37/37 35/35/35
f 36/36/36 38/38/38 37/37/37
f 38/38/38 39/39/39 37/37/37
f 38/38/38 40/40/40 39/39/39
f 40/40/40 41/41/41 39/39/39
f 40/40/40 42/42/42 41/41/41
f 42/42/42 43/43/43 41/41/41
f 42/42/42 44/44/44 43/43/43
f 44/44/44 45/45/45 43/43/43
f 44/44/44 46/46/46 45/45/45
f 46/46/46 47/47/47 45/45/45
f 46/46/46 48/48/48 47/47/47
f 51/51/51 50/50/50 49/49/49
f 52/52/52 51/51/51 49/49/49
f 52/52/52 49/49/49 53/53/53
f 54/54/54 52/52/52 53/53/53
f 51/51/51 55/55/55 50/50/50
f 55/55/55 56/56/56 50/50/50
f 54/54/54 53/53/53 57/57/57
f 58/58/58 54/54/54 57/57/57
f 55/55/55 59/59/59 56/56/56
f 59/59/59 60/60/60 56/56/56
f 58/58/58 57/57/57 61/61/61
f 62/62/62 58/58/58 61/61/61
f 59/59/59 63/63/63 60/60/60
f 63/63/63 64/64/64 60/60/60
f 62/62/62 61/61/61 65/65/65
f 66/66/66 62/62/62 65/65/65
f 63/63/63 67/67/67 64/64/64
f 67/67/67 68/68/68 64/64/64
f 66/66/66 65/65/65 69/69/69
f 70/70/70 66/66/66 69/69/69
f 67/67/67 71/71/71 68/68/68
f 71/71/71 72/72/72 68/68/68
f 70/70/70 69/69/69 73/73/73
f 74/74/74 70/70/70 73/73/73
f 75/75/75 72/72/72 71/71/71
f 76/76/76 75/75/75 71/71/71
f 74/74/74 73/73/73 77/77/77
f 73/73/73 78/78/78 77/77/77
f 79/79/79 75/75/75 76/76/76
f 80/80/80 79/79/79 76/76/76
f 77/77/77 78/78/78 81/81/81
f 78/78/78 82/82/82 81/81/81
f 83/83/83 79/79/79 80/80/80
f 84/84/84 83/83/83 80/80/80
f 81/81/81 82/82/82 85/85/85
f 82/82/82 86/86/86 85/85/85
f 87/87/87 83/83/83 84/84/84
f 88/88/88 87/87/87 84/84/84
f 85/85/85 86/86/86 89/89/89
f 86/86/86 90/90/90 89/89/89
f 91/91/91 87/87/87 88/88/88
f 92/92/92 91/91/91 88/88/88
f 93/93/93 91/91/91 92/92/92
f 94/94/94 93/93/93 92/92/92
f 95/95/95 93/93/93 94/94/94
f 96/96/96 95/95/95 94/94/94
f 90/90/90 95/95/95 96/96/96
f 89/89/89 90/90/90 96/96/96
f 99/99/99 98/98/98 97/97/97
f 100/100/100 99/99/99 97/97/97
f 99/99/99 101/101/101 98/98/98
f 101/101/101 102/102/102 98/98/98
f 100/100/100 97/97/97 103/103/103
f 104/104/104 100/100/100 103/103/103
f 101/101/101 105/105/105 102/102/102
f 105/105/105 106/106/106 102/102/102
f 104/104/104 103/103/103 107/107/107
f 108/108/108 104/104/104 107/107/107
f 105/105/105 109/109/109 106/106/106
f 109/109/109 110/110/110 106/106/106
f 108/108/108 107/107/107 111/111/111
f 112/112/112 108/108/108 111/111/111
f 109/109/109 113/113/113 110/110/110
f 113/113/113 114/114/114 110/110/110
f 112/112/112 111/111/111 115/115/115
f 116/116/116 112/112/112 115/115/115
f 113/113/113 117/117/117 114/114/114
f 117/117/117 118/118/118 114/114/114
f 116/116/116 115/115/115 119/119/119
f 120/120/120 116/116/116 119/119/119
f 117/117/117 121/121/121 118/118/118
f 121/121/121 122/122/122 118/118/118
f 125/125/125 124/124/124 123/123/123
f 126/126/126 125/125/125 123/123/123
f 126/126/126 123/123/123 127/127/127
f 128/128/128 126/126/126 127/127/127
f 125/125/125 129/129/129 124/124/124
f 129/129/129 130/130/130 124/124/124
f 128/128/128 127/127/127 131/131/131
f 132/132/132 128/128/128 131/131/131
f 129/129/129 133/133/133 130/130/130
f 133/133/133 134/134/134 130/130/130
f 132/132/132 131/131/131 135/135/135
f 136/136/136 132/132/132 135/135/135
f 133/133/133 137/137/137 134/134/134
f 137/137/137 138/138/138 134/134/134
f 136/136/136 135/135/135 139/139/139
f 140/140/140 136/136/136 139/139/139
f 137/137/137 141/141/141 138/138/138
f 141/141/141 142/142/142 138/138/138
f 140/140/140 139/139/139 143/143/143
f 144/144/144 140/140/140 143/143/143
f 141/141/141 145/145/145 142/142/142
f 145/145/145 146/146/146 142/142/142
f 144/144/144 143/143/143 147/147/147
f 148/148/148 144/144/144 147/147/147
f 145/145/145 149/149/149 146/146/146
f 149/149/149 150/150/150 146/146/146
f 148/148/148 147/147/147 151/151/151
f 152/152/152 148/148/148 151/151/151
f 149/149/149 153/153/153 150/150/150
f 153/153/153 154/154/154 150/150/150
f 152/152/152 151/151/151 155/155/155
f 156/156/156 152/152/152 155/155/155
f 153/153/153 157/157/157 154/154/154
f 157/157/157 158/158/158 154/154/154
f 156/156/156 155/155/155 159/159/159
f 160/160/160 156/156/156 159/159/159
f 157/157/157 161/161/161 158/158/158
f 161/161/161 162/162/162 158/158/158
f 160/160/160 159/159/159 163/163/163
f 164/164/164 160/160/160 163/163/163
f 161/161/161 165/165/165 162/162/162
f 165/165/165 166/166/166 162/162/162
f 164/164/164 163/163/163 167/167/167
f 168/168/168 164/164/164 167/167/167
f 165/165/165 169/169/169 166/166/166
f 169/169/169 170/170/170 166/166/166
f 168/168/168 167/167/167 170/170/170
f 169/169/169 168/168/168 170/170/170
f 173/173/173 172/172/172 171/171/171
f 174/174/174 173/173/173 171/171/171
f 174/174/174 171/171/171 175/175/175
f 176/176/176 174/174/174 175/175/175
f 176/176/176 175/175/175 177/177/177
f 178/178/178 176/176/176 177/177/177
f 178/178/178 177/177/177 179/179/179
f 180/180/180 178/178/178 179/179/179
f 180/180/180 179/179/179 181/181/181
f 182/182/182 180/180/180 181/181/181
f 182/182/182 181/181/181 183/183/183
f 184/184/184 182/182/182 183/183/183
f 184/184/184 183/183/183 185/185/185
f 186/186/186 184/184/184 185/185/185
f 186/186/186 185/185/185 187/187/187
f 188/188/188 186/186/186 187/187/187
f 188/188/188 187/187/187 189/189/189
f 190/190/190 188/188/188 189/189/189
f 190/190/190 189/189/189 191/191/191
f 192/192/192 190/190/190 191/191/191
f 192/192/192 191/191/191 193/193/193
f 194/194/194 192/192/192 193/193/193
f 194/194/194 193/193/193 195/195/195
f 196/196/196 194/194/194 195/195/195
