# Export of Universe
# from Aaro4130 OBJ Exporter v2.0
mtllib 147.mtl
g Wheel4
v -0.60917 -1.09526 0.293475
v -0.60917 -1.1339 0
v -0.60917 -1.09526 -0.293475
v -0.60917 -0.981986 0.56695
v -0.60917 -0.981986 -0.56695
v -0.60917 -0.801788 0.801788
v -0.60917 -0.801788 -0.801788
v -0.60917 -0.56695 0.981986
v -0.60917 -0.56695 -0.981986
v -0.60917 -0.293475 1.09526
v -0.60917 -0.293475 -1.09526
v -0.60917 -3.53884E-17 1.1339
v -0.60917 -3.53884E-17 -1.1339
v -0.60917 0.293475 1.09526
v -0.60917 0.293475 -1.09526
v -0.60917 0.56695 0.981986
v -0.60917 0.56695 -0.981986
v -0.60917 0.801788 0.801788
v -0.60917 0.801788 -0.801788
v -0.60917 0.981986 0.56695
v -0.60917 0.981986 -0.56695
v -0.60917 1.09526 0.293475
v -0.60917 1.09526 -0.293475
v -0.60917 1.1339 0
v -0.342 1.40059 -0.375288
v -0.342 1.45 -6.39761E-10
v 0.342 1.40059 -0.375288
v 0.342 1.45 -6.39761E-10
v 0.56383 1.1339 0
v 0.56383 1.09526 -0.293475
v 0.56383 1.09526 0.293475
v 0.56383 0.981986 0.56695
v 0.56383 0.981986 -0.56695
v 0.56383 0.801788 0.801788
v 0.56383 0.801788 -0.801788
v 0.56383 0.56695 0.981986
v 0.56383 0.56695 -0.981986
v 0.56383 0.293475 1.09526
v 0.56383 0.293475 -1.09526
v 0.56383 3.53884E-17 1.1339
v 0.56383 3.53884E-17 -1.1339
v 0.56383 -0.293475 1.09526
v 0.56383 -0.293475 -1.09526
v 0.56383 -0.56695 0.981986
v 0.56383 -0.56695 -0.981986
v 0.56383 -0.801788 0.801788
v 0.56383 -0.801788 -0.801788
v 0.56383 -0.981986 0.56695
v 0.56383 -0.981986 -0.56695
v 0.56383 -1.09526 0.293475
v 0.56383 -1.09526 -0.293475
v 0.56383 -1.1339 0
v 0.342 -1.40059 -0.375288
v 0.342 -1.45 -6.39761E-10
v 0.342 -1.40059 0.375288
v 0.342 -1.25574 -0.725
v 0.342 -1.25574 0.725
v 0.342 -1.0253 -1.0253
v 0.342 -1.0253 1.0253
v 0.342 -0.725 -1.25574
v 0.342 -0.375288 -1.40059
v 0.342 -0.725 1.25574
v 0.342 -0.375288 1.40059
v 0.342 4.16334E-17 1.45
v 0.342 0.375288 1.40059
v 0.342 0.725 1.25574
v 0.342 1.0253 1.0253
v 0.342 1.25574 0.725
v 0.342 1.40059 0.375288
v -0.342 1.40059 0.375288
v -0.342 1.25574 0.725
v -0.342 1.0253 1.0253
v -0.342 0.725 1.25574
v -0.342 0.375288 1.40059
v -0.342 -2.77556E-17 1.45
v -0.342 -0.375288 1.40059
v -0.342 -0.725 1.25574
v -0.342 -1.0253 1.0253
v -0.342 -1.25574 0.725
v -0.342 -1.40059 0.375288
v -0.342 -1.45 -6.39761E-10
v -0.342 -1.40059 -0.375288
v -0.342 -1.25574 -0.725
v -0.342 -1.0253 -1.0253
v -0.342 -0.725 -1.25574
v -0.342 -0.375288 -1.40059
v -0.342 -2.77556E-17 -1.45
v -0.342 0.375288 -1.40059
v -0.342 0.725 -1.25574
v -0.342 1.0253 -1.0253
v -0.342 1.25574 -0.725
v 0.342 1.25574 -0.725
v 0.342 1.0253 -1.0253
v 0.342 0.725 -1.25574
v 0.342 0.375288 -1.40059
v 0.342 4.16334E-17 -1.45
v 0.342 -0.375288 -1.40059
v 0.342 4.16334E-17 -1.45
v -0.342 -2.77556E-17 -1.45
v -0.342 -0.375288 -1.40059
v 0.342 -0.725 -1.25574
v -0.342 -0.725 -1.25574
v 0.342 -1.0253 -1.0253
v -0.342 -1.0253 -1.0253
v 0.342 -1.25574 -0.725
v -0.342 -1.25574 -0.725
v 0.342 -1.40059 -0.375288
v -0.342 -1.40059 -0.375288
v 0.342 -1.45 -6.39761E-10
v -0.342 -1.45 -6.39761E-10
v 0.342 -1.40059 0.375288
v -0.342 -1.40059 0.375288
v 0.342 -1.25574 0.725
v -0.342 -1.25574 0.725
v 0.342 -1.0253 1.0253
v -0.342 -1.0253 1.0253
v 0.342 -0.725 1.25574
v -0.342 -0.725 1.25574
v 0.342 -0.375288 1.40059
v -0.342 -0.375288 1.40059
v 0.342 4.16334E-17 1.45
v -0.342 -2.77556E-17 1.45
vn -0.4798162 -0.3101658 0.08310798
vn -0.4566408 -0.3532881 0
vn -0.5023934 -0.2747958 -0.07363069
vn -0.5208832 -0.2156626 0.1245134
vn -0.5346279 -0.1887582 -0.10898
vn -0.5443514 -0.136042 0.136042
vn -0.5510773 -0.1217522 -0.1217521
vn -0.5556787 -0.07834964 0.1357049
vn -0.5587867 -0.07261363 -0.1257699
vn -0.5608232 -0.03549722 0.1324785
vn -0.562054 -0.03416838 -0.1275192
vn -0.5626335 0 0.1295258
vn -0.5626335 0 -0.1295258
vn -0.562054 0.03416838 0.1275192
vn -0.5608232 0.03549723 -0.1324785
vn -0.5587867 0.07261363 0.1257699
vn -0.5556787 0.07834964 -0.1357049
vn -0.5510773 0.1217522 0.1217521
vn -0.5443514 0.1360421 -0.136042
vn -0.5346279 0.1887581 0.10898
vn -0.5208832 0.2156627 -0.1245134
vn -0.5023934 0.2747958 0.0736307
vn -0.4798162 0.3101658 -0.08310797
vn -0.4566408 0.3532881 0
vn -0.1612218 0.5354936 -0.1434831
vn -0.1612208 0.5543836 0
vn 0.1670675 0.5338192 -0.1430344
vn 0.1670662 0.5526502 0
vn 0.4857101 0.3121201 0
vn 0.5223475 0.2375598 -0.06365344
vn 0.5045667 0.2710552 0.07262843
vn 0.5364823 0.1847702 0.1066776
vn 0.5467441 0.1606333 -0.09274206
vn 0.5538793 0.1152195 0.1152195
vn 0.5587552 0.1027764 -0.1027764
vn 0.5620633 0.06598926 0.1142963
vn 0.564285 0.06106528 -0.1057677
vn 0.5657353 0.02982216 0.1112987
vn 0.5666099 0.02868859 -0.1070682
vn 0.567021 0 0.1087224
vn 0.567021 0 -0.1087224
vn 0.5666099 -0.02868859 0.1070682
vn 0.5657353 -0.02982216 -0.1112988
vn 0.564285 -0.06106528 0.1057677
vn 0.5620633 -0.06598926 -0.1142963
vn 0.5587552 -0.1027764 0.1027764
vn 0.5538793 -0.1152195 -0.1152195
vn 0.5467441 -0.1606333 0.09274208
vn 0.5364823 -0.1847702 -0.1066776
vn 0.5223475 -0.2375598 0.06365345
vn 0.5045667 -0.2710552 -0.07262843
vn 0.4857101 -0.3121201 0
vn 0.1670675 -0.5338192 -0.1430344
vn 0.1670663 -0.5526502 0
vn 0.1670675 -0.5338192 0.1430344
vn 0.1670655 -0.4786078 -0.2763276
vn 0.1670655 -0.4786078 0.2763276
vn 0.1670666 -0.3907826 -0.3907826
vn 0.1670666 -0.3907826 0.3907826
vn 0.1670655 -0.2763276 -0.4786078
vn 0.1670675 -0.1430344 -0.5338192
vn 0.1670655 -0.2763276 0.4786078
vn 0.1670675 -0.1430344 0.5338192
vn 0.1670663 0 0.5526502
vn 0.1670675 0.1430344 0.5338192
vn 0.1670655 0.2763276 0.4786078
vn 0.1670666 0.3907826 0.3907826
vn 0.1670655 0.4786078 0.2763276
vn 0.1670675 0.5338192 0.1430344
vn -0.1612218 0.5354937 0.1434831
vn -0.1612201 0.4801091 0.2771942
vn -0.1612209 0.3920083 0.3920084
vn -0.1612201 0.2771942 0.4801091
vn -0.1612218 0.1434831 0.5354936
vn -0.1612208 0 0.5543836
vn -0.1612218 -0.1434831 0.5354936
vn -0.1612201 -0.2771942 0.4801091
vn -0.1612209 -0.3920084 0.3920083
vn -0.1612201 -0.4801091 0.2771942
vn -0.1612218 -0.5354936 0.1434831
vn -0.1612208 -0.5543836 0
vn -0.1612218 -0.5354936 -0.1434831
vn -0.1612201 -0.4801091 -0.2771942
vn -0.1612209 -0.3920084 -0.3920084
vn -0.1612201 -0.2771942 -0.4801091
vn -0.1612218 -0.1434831 -0.5354936
vn -0.1612208 0 -0.5543836
vn -0.1612218 0.1434831 -0.5354936
vn -0.1612201 0.2771942 -0.4801091
vn -0.1612209 0.3920084 -0.3920083
vn -0.1612201 0.4801091 -0.2771942
vn 0.1670655 0.4786078 -0.2763276
vn 0.1670666 0.3907826 -0.3907826
vn 0.1670655 0.2763276 -0.4786078
vn 0.1670675 0.1430344 -0.5338192
vn 0.1670662 0 -0.5526502
vn 0.1670675 -0.1430344 -0.5338192
vn 0.1670662 0 -0.5526502
vn -0.1612208 0 -0.5543836
vn -0.1612218 -0.1434831 -0.5354936
vn 0.1670655 -0.2763276 -0.4786078
vn -0.1612201 -0.2771942 -0.4801091
vn 0.1670666 -0.3907826 -0.3907826
vn -0.1612209 -0.3920084 -0.3920084
vn 0.1670655 -0.4786078 -0.2763276
vn -0.1612201 -0.4801091 -0.2771942
vn 0.1670675 -0.5338192 -0.1430344
vn -0.1612218 -0.5354936 -0.1434831
vn 0.1670663 -0.5526502 0
vn -0.1612208 -0.5543836 0
vn 0.1670675 -0.5338192 0.1430344
vn -0.1612218 -0.5354936 0.1434831
vn 0.1670655 -0.4786078 0.2763276
vn -0.1612201 -0.4801091 0.2771942
vn 0.1670666 -0.3907826 0.3907826
vn -0.1612209 -0.3920084 0.3920083
vn 0.1670655 -0.2763276 0.4786078
vn -0.1612201 -0.2771942 0.4801091
vn 0.1670675 -0.1430344 0.5338192
vn -0.1612218 -0.1434831 0.5354936
vn 0.1670663 0 0.5526502
vn -0.1612208 0 0.5543836
vt 0.078246 0.398802
vt 0.0759719 0.5
vt 0.078246 0.601198
vt 0.0856893 0.3045
vt 0.0856893 0.6955
vt 0.100514 0.223521
vt 0.100514 0.776479
vt 0.127697 0.161384
vt 0.127697 0.838616
vt 0.176159 0.122324
vt 0.176159 0.877676
vt 0.25 0.109
vt 0.25 0.891
vt 0.323841 0.122324
vt 0.323841 0.877676
vt 0.372303 0.161384
vt 0.372303 0.838616
vt 0.399486 0.223521
vt 0.399486 0.776479
vt 0.414311 0.3045
vt 0.414311 0.6955
vt 0.421754 0.398802
vt 0.421754 0.601198
vt 0.424028 0.5
vt 0.464323 0.62941
vt 0.4655 0.5
vt 0.540539 0.62941
vt 0.539214 0.5
vt 0.575972 0.5
vt 0.578246 0.601198
vt 0.578246 0.398802
vt 0.585689 0.3045
vt 0.585689 0.6955
vt 0.600514 0.223521
vt 0.600514 0.776479
vt 0.627697 0.161384
vt 0.627697 0.838616
vt 0.676159 0.122324
vt 0.676159 0.877676
vt 0.75 0.109
vt 0.75 0.891
vt 0.823841 0.122324
vt 0.823841 0.877676
vt 0.872303 0.161384
vt 0.872303 0.838616
vt 0.899486 0.223521
vt 0.899486 0.776479
vt 0.914311 0.3045
vt 0.914311 0.6955
vt 0.921754 0.398802
vt 0.921754 0.601198
vt 0.924028 0.5
vt 0.959461 0.62941
vt 0.960786 0.5
vt 0.959461 0.37059
vt 0.955018 0.75
vt 0.955018 0.25
vt 0.945614 0.853552
vt 0.945614 0.146448
vt 0.925828 0.933014
vt 0.877284 0.982962
vt 0.925828 0.0669862
vt 0.877284 0.017038
vt 0.75 5.55112E-17
vt 0.622716 0.017038
vt 0.574172 0.0669862
vt 0.554386 0.146448
vt 0.544982 0.25
vt 0.540539 0.37059
vt 0.464323 0.37059
vt 0.460368 0.25
vt 0.451947 0.146448
vt 0.433969 0.0669862
vt 0.387794 0.017038
vt 0.25 5.55112E-17
vt 0.112206 0.017038
vt 0.0660315 0.0669862
vt 0.0480534 0.146448
vt 0.0396325 0.25
vt 0.035677 0.37059
vt 0.0344996 0.5
vt 0.035677 0.62941
vt 0.0396325 0.75
vt 0.0480534 0.853552
vt 0.0660315 0.933014
vt 0.112206 0.982962
vt 0.25 1
vt 0.387794 0.982962
vt 0.433969 0.933014
vt 0.451947 0.853552
vt 0.460368 0.75
vt 0.544982 0.75
vt 0.554386 0.853552
vt 0.574172 0.933014
vt 0.622716 0.982962
vt 0.75 1
vt 0.877284 0.982962
vt 0.75 1
vt 0.25 1
vt 0.112206 0.982962
vt 0.925828 0.933014
vt 0.0660315 0.933014
vt 0.945614 0.853552
vt 0.0480534 0.853552
vt 0.955018 0.75
vt 0.0396325 0.75
vt 0.959461 0.62941
vt 0.035677 0.62941
vt 0.960786 0.5
vt 0.0344996 0.5
vt 0.959461 0.37059
vt 0.035677 0.37059
vt 0.955018 0.25
vt 0.0396325 0.25
vt 0.945614 0.146448
vt 0.0480534 0.146448
vt 0.925828 0.0669862
vt 0.0660315 0.0669862
vt 0.877284 0.017038
vt 0.112206 0.017038
vt 0.75 5.55112E-17
vt 0.25 5.55112E-17
usemtl baseThingPartMaterial
f 3/3/3 2/2/2 1/1/1
f 1/1/1 4/4/4 3/3/3
f 4/4/4 5/5/5 3/3/3
f 4/4/4 6/6/6 5/5/5
f 6/6/6 7/7/7 5/5/5
f 6/6/6 8/8/8 7/7/7
f 8/8/8 9/9/9 7/7/7
f 8/8/8 10/10/10 9/9/9
f 10/10/10 11/11/11 9/9/9
f 10/10/10 12/12/12 11/11/11
f 12/12/12 13/13/13 11/11/11
f 12/12/12 14/14/14 13/13/13
f 14/14/14 15/15/15 13/13/13
f 14/14/14 16/16/16 15/15/15
f 16/16/16 17/17/17 15/15/15
f 16/16/16 18/18/18 17/17/17
f 18/18/18 19/19/19 17/17/17
f 18/18/18 20/20/20 19/19/19
f 20/20/20 21/21/21 19/19/19
f 20/20/20 22/22/22 21/21/21
f 22/22/22 23/23/23 21/21/21
f 22/22/22 24/24/24 23/23/23
f 25/25/25 23/23/23 24/24/24
f 26/26/26 25/25/25 24/24/24
f 26/26/26 24/24/24 22/22/22
f 25/25/25 26/26/26 27/27/27
f 26/26/26 28/28/28 27/27/27
f 28/28/28 29/29/29 27/27/27
f 29/29/29 30/30/30 27/27/27
f 30/30/30 29/29/29 31/31/31
f 31/31/31 29/29/29 28/28/28
f 30/30/30 31/31/31 32/32/32
f 33/33/33 30/30/30 32/32/32
f 33/33/33 32/32/32 34/34/34
f 35/35/35 33/33/33 34/34/34
f 35/35/35 34/34/34 36/36/36
f 37/37/37 35/35/35 36/36/36
f 37/37/37 36/36/36 38/38/38
f 39/39/39 37/37/37 38/38/38
f 39/39/39 38/38/38 40/40/40
f 41/41/41 39/39/39 40/40/40
f 41/41/41 40/40/40 42/42/42
f 43/43/43 41/41/41 42/42/42
f 43/43/43 42/42/42 44/44/44
f 45/45/45 43/43/43 44/44/44
f 45/45/45 44/44/44 46/46/46
f 47/47/47 45/45/45 46/46/46
f 47/47/47 46/46/46 48/48/48
f 49/49/49 47/47/47 48/48/48
f 49/49/49 48/48/48 50/50/50
f 51/51/51 49/49/49 50/50/50
f 50/50/50 52/52/52 51/51/51
f 53/53/53 51/51/51 52/52/52
f 54/54/54 53/53/53 52/52/52
f 54/54/54 52/52/52 50/50/50
f 55/55/55 54/54/54 50/50/50
f 55/55/55 50/50/50 48/48/48
f 56/56/56 49/49/49 51/51/51
f 53/53/53 56/56/56 51/51/51
f 57/57/57 55/55/55 48/48/48
f 57/57/57 48/48/48 46/46/46
f 58/58/58 47/47/47 49/49/49
f 56/56/56 58/58/58 49/49/49
f 59/59/59 57/57/57 46/46/46
f 59/59/59 46/46/46 44/44/44
f 60/60/60 45/45/45 47/47/47
f 58/58/58 60/60/60 47/47/47
f 60/60/60 61/61/61 45/45/45
f 62/62/62 59/59/59 44/44/44
f 62/62/62 44/44/44 42/42/42
f 63/63/63 62/62/62 42/42/42
f 63/63/63 42/42/42 40/40/40
f 64/64/64 63/63/63 40/40/40
f 64/64/64 40/40/40 65/65/65
f 40/40/40 38/38/38 65/65/65
f 65/65/65 38/38/38 66/66/66
f 38/38/38 36/36/36 66/66/66
f 66/66/66 36/36/36 67/67/67
f 36/36/36 34/34/34 67/67/67
f 67/67/67 34/34/34 68/68/68
f 34/34/34 32/32/32 68/68/68
f 68/68/68 32/32/32 69/69/69
f 32/32/32 31/31/31 69/69/69
f 69/69/69 31/31/31 28/28/28
f 70/70/70 69/69/69 28/28/28
f 26/26/26 70/70/70 28/28/28
f 70/70/70 26/26/26 22/22/22
f 71/71/71 68/68/68 69/69/69
f 70/70/70 71/71/71 69/69/69
f 70/70/70 22/22/22 20/20/20
f 71/71/71 70/70/70 20/20/20
f 72/72/72 67/67/67 68/68/68
f 71/71/71 72/72/72 68/68/68
f 71/71/71 20/20/20 18/18/18
f 72/72/72 71/71/71 18/18/18
f 73/73/73 66/66/66 67/67/67
f 72/72/72 73/73/73 67/67/67
f 72/72/72 18/18/18 16/16/16
f 73/73/73 72/72/72 16/16/16
f 73/73/73 16/16/16 14/14/14
f 74/74/74 73/73/73 14/14/14
f 73/73/73 74/74/74 66/66/66
f 74/74/74 65/65/65 66/66/66
f 74/74/74 75/75/75 65/65/65
f 75/75/75 64/64/64 65/65/65
f 74/74/74 14/14/14 12/12/12
f 75/75/75 74/74/74 12/12/12
f 75/75/75 12/12/12 10/10/10
f 76/76/76 75/75/75 10/10/10
f 76/76/76 10/10/10 8/8/8
f 77/77/77 76/76/76 8/8/8
f 77/77/77 8/8/8 6/6/6
f 78/78/78 77/77/77 6/6/6
f 78/78/78 6/6/6 4/4/4
f 79/79/79 78/78/78 4/4/4
f 79/79/79 4/4/4 1/1/1
f 80/80/80 79/79/79 1/1/1
f 80/80/80 1/1/1 2/2/2
f 81/81/81 80/80/80 2/2/2
f 81/81/81 2/2/2 3/3/3
f 82/82/82 81/81/81 3/3/3
f 82/82/82 3/3/3 5/5/5
f 83/83/83 82/82/82 5/5/5
f 83/83/83 5/5/5 7/7/7
f 84/84/84 83/83/83 7/7/7
f 84/84/84 7/7/7 9/9/9
f 85/85/85 84/84/84 9/9/9
f 85/85/85 9/9/9 11/11/11
f 86/86/86 85/85/85 11/11/11
f 86/86/86 11/11/11 13/13/13
f 87/87/87 86/86/86 13/13/13
f 87/87/87 13/13/13 15/15/15
f 88/88/88 87/87/87 15/15/15
f 88/88/88 15/15/15 17/17/17
f 89/89/89 88/88/88 17/17/17
f 89/89/89 17/17/17 19/19/19
f 90/90/90 89/89/89 19/19/19
f 90/90/90 19/19/19 21/21/21
f 91/91/91 90/90/90 21/21/21
f 91/91/91 21/21/21 23/23/23
f 25/25/25 91/91/91 23/23/23
f 91/91/91 25/25/25 92/92/92
f 25/25/25 27/27/27 92/92/92
f 27/27/27 30/30/30 92/92/92
f 30/30/30 33/33/33 92/92/92
f 92/92/92 33/33/33 93/93/93
f 91/91/91 92/92/92 93/93/93
f 90/90/90 91/91/91 93/93/93
f 33/33/33 35/35/35 93/93/93
f 93/93/93 35/35/35 94/94/94
f 90/90/90 93/93/93 94/94/94
f 89/89/89 90/90/90 94/94/94
f 35/35/35 37/37/37 94/94/94
f 94/94/94 37/37/37 95/95/95
f 89/89/89 94/94/94 95/95/95
f 37/37/37 39/39/39 95/95/95
f 95/95/95 39/39/39 96/96/96
f 39/39/39 41/41/41 96/96/96
f 96/96/96 41/41/41 43/43/43
f 61/61/61 96/96/96 43/43/43
f 61/61/61 43/43/43 45/45/45
f 88/88/88 95/95/95 96/96/96
f 88/88/88 89/89/89 95/95/95
f 87/87/87 88/88/88 96/96/96
f 99/99/99 98/98/98 97/97/97
f 100/100/100 99/99/99 97/97/97
f 100/100/100 97/97/97 101/101/101
f 102/102/102 100/100/100 101/101/101
f 102/102/102 101/101/101 103/103/103
f 104/104/104 102/102/102 103/103/103
f 104/104/104 103/103/103 105/105/105
f 106/106/106 104/104/104 105/105/105
f 106/106/106 105/105/105 107/107/107
f 108/108/108 106/106/106 107/107/107
f 108/108/108 107/107/107 109/109/109
f 110/110/110 108/108/108 109/109/109
f 110/110/110 109/109/109 111/111/111
f 112/112/112 110/110/110 111/111/111
f 112/112/112 111/111/111 113/113/113
f 114/114/114 112/112/112 113/113/113
f 114/114/114 113/113/113 115/115/115
f 116/116/116 114/114/114 115/115/115
f 116/116/116 115/115/115 117/117/117
f 118/118/118 116/116/116 117/117/117
f 118/118/118 117/117/117 119/119/119
f 120/120/120 118/118/118 119/119/119
f 120/120/120 119/119/119 121/121/121
f 122/122/122 120/120/120 121/121/121
