# Export of Universe
# from Aaro4130 OBJ Exporter v2.0
mtllib 15.mtl
g LowPolyCylinder
v -1.385558 0 0.03379637
v -1.387487 0 -0.3652094
v -1 1 -0.3652094
v -0.9986101 0.9986101 0.03379637
v -1.38363 0 0.4328025
v -0.9972202 0.9972202 0.4328025
v 0 1.329332 0.03379637
v 0 1.331182 -0.3652094
v 1 1 -0.3652094
v 0.9986101 0.9986101 0.03379637
v 0 1.327481 0.4328025
v 0.9972202 0.9972202 0.4328025
v 1.385558 0 0.03379637
v 1.387487 0 -0.3652094
v 1 -1 -0.3652094
v 0.9986101 -0.9986101 0.03379637
v 1.38363 0 0.4328025
v 0.9972202 -0.9972202 0.4328025
v -1 -1 -0.3652094
v -0.9986101 -0.9986101 0.03379637
v 0 -1.329332 0.03379637
v 0 -1.331182 -0.3652094
v 0 -1.327481 0.4328025
v -0.9972202 -0.9972202 0.4328025
v 0 0 -0.3652094
v 1.387487 0 -0.3652094
v 1 1 -0.3652094
v 0 1.331182 -0.3652094
v 0 -1.331182 -0.3652094
v 1 -1 -0.3652094
v -1 -1 -0.3652094
v -1.387487 0 -0.3652094
v -1 1 -0.3652094
v 0 0 0.4328025
v -1.38363 0 0.4328025
v -0.9972202 0.9972202 0.4328025
v 0 1.327481 0.4328025
v 0 -1.327481 0.4328025
v -0.9972202 -0.9972202 0.4328025
v 0.9972202 -0.9972202 0.4328025
v 1.38363 0 0.4328025
v 0.9972202 0.9972202 0.4328025
v -1.387487 0 -0.3652094
v -1.385558 0 0.03379637
v -0.9986101 -0.9986101 0.03379637
v -1 -1 -0.3652094
v -0.9972202 -0.9972202 0.4328025
v -1.38363 0 0.4328025
v -0.9986101 0.9986101 0.03379637
v -1 1 -0.3652094
v 0 1.331182 -0.3652094
v 0 1.329332 0.03379637
v -0.9972202 0.9972202 0.4328025
v 0 1.327481 0.4328025
v 0.9986101 0.9986101 0.03379637
v 1 1 -0.3652094
v 1.387487 0 -0.3652094
v 1.385558 0 0.03379637
v 0.9972202 0.9972202 0.4328025
v 1.38363 0 0.4328025
v 0.9986101 -0.9986101 0.03379637
v 1 -1 -0.3652094
v 0 -1.331182 -0.3652094
v 0 -1.329332 0.03379637
v 0.9972202 -0.9972202 0.4328025
v 0 -1.327481 0.4328025
vn -0.5383422 0.2086005 0.002602258
vn -0.5383422 0.2086005 0.002602258
vn -0.5383422 0.2086005 0.002602258
vn -0.5383422 0.2086005 0.002602258
vn -0.5383422 0.2086004 0.002601638
vn -0.5383422 0.2086004 0.002601638
vn 0.1815109 0.5480699 0.002541244
vn 0.1815109 0.5480699 0.002541244
vn 0.1815109 0.5480699 0.002541244
vn 0.1815109 0.5480699 0.002541244
vn 0.1815108 0.54807 0.002541933
vn 0.1815108 0.54807 0.002541933
vn 0.5383422 -0.2086005 0.002602258
vn 0.5383422 -0.2086005 0.002602258
vn 0.5383422 -0.2086005 0.002602258
vn 0.5383422 -0.2086005 0.002602258
vn 0.5383422 -0.2086004 0.002601638
vn 0.5383422 -0.2086004 0.002601638
vn -0.1815109 -0.5480699 0.002541244
vn -0.1815109 -0.5480699 0.002541244
vn -0.1815109 -0.5480699 0.002541244
vn -0.1815109 -0.5480699 0.002541244
vn -0.1815108 -0.54807 0.002541933
vn -0.1815108 -0.54807 0.002541933
vn 0 0 -0.5773503
vn 0 0 -0.5773503
vn 0 0 -0.5773503
vn 0 0 -0.5773503
vn 0 0 -0.5773503
vn 0 0 -0.5773503
vn 0 0 -0.5773503
vn 0 0 -0.5773503
vn 0 0 -0.5773503
vn 0 0 0.5773503
vn 0 0 0.5773503
vn 0 0 0.5773503
vn 0 0 0.5773503
vn 0 0 0.5773503
vn 0 0 0.5773503
vn 0 0 0.5773503
vn 0 0 0.5773503
vn 0 0 0.5773503
vn -0.5383422 -0.2086005 0.002602258
vn -0.5383422 -0.2086005 0.002602258
vn -0.5383422 -0.2086005 0.002602258
vn -0.5383422 -0.2086005 0.002602258
vn -0.5383422 -0.2086004 0.002601638
vn -0.5383422 -0.2086004 0.002601638
vn -0.1815109 0.5480699 0.002541244
vn -0.1815109 0.5480699 0.002541244
vn -0.1815109 0.5480699 0.002541244
vn -0.1815109 0.5480699 0.002541244
vn -0.1815108 0.54807 0.002541933
vn -0.1815108 0.54807 0.002541933
vn 0.5383422 0.2086005 0.002602258
vn 0.5383422 0.2086005 0.002602258
vn 0.5383422 0.2086005 0.002602258
vn 0.5383422 0.2086005 0.002602258
vn 0.5383422 0.2086004 0.002601638
vn 0.5383422 0.2086004 0.002601638
vn 0.1815109 -0.5480699 0.002541244
vn 0.1815109 -0.5480699 0.002541244
vn 0.1815109 -0.5480699 0.002541244
vn 0.1815109 -0.5480699 0.002541244
vn 0.1815108 -0.54807 0.002541933
vn 0.1815108 -0.54807 0.002541933
vt 0.5 0.5
vt 0.5 1
vt 1 1
vt 1 0.5
vt 0.5 0
vt 1 0
vt 0.5 0.5
vt 0.5 1
vt 1 1
vt 1 0.5
vt 0.5 0
vt 1 0
vt 0.5 0.5
vt 0.5 1
vt 1 1
vt 1 0.5
vt 0.5 0
vt 1 0
vt 1 1
vt 1 0.5
vt 0.5 0.5
vt 0.5 1
vt 0.5 0
vt 1 0
vt 0.5 0.5
vt 1 0.5
vt 0.8603638 0.8756061
vt 0.5 1
vt 0.5 0
vt 0.8603638 0.1243939
vt 0.1396362 0.1243939
vt 0 0.5
vt 0.1396362 0.8756061
vt 0.5 0.5
vt 0.001389682 0.5
vt 0.1406378 0.8745618
vt 0.5 0.9986102
vt 0.5 0.001389682
vt 0.1406378 0.125438
vt 0.8593621 0.125438
vt 0.9986101 0.5
vt 0.8593621 0.8745618
vt 0.5 1
vt 0.5 0.5
vt 0 0.5
vt 0 1
vt 0 0
vt 0.5 0
vt 0 0.5
vt 0 1
vt 0.5 1
vt 0.5 0.5
vt 0 0
vt 0.5 0
vt 0 0.5
vt 0 1
vt 0.5 1
vt 0.5 0.5
vt 0 0
vt 0.5 0
vt 0 0.5
vt 0 1
vt 0.5 1
vt 0.5 0.5
vt 0 0
vt 0.5 0
usemtl baseThingPartMaterial
f 3/3/3 2/2/2 1/1/1
f 4/4/4 3/3/3 1/1/1
f 4/4/4 1/1/1 5/5/5
f 6/6/6 4/4/4 5/5/5
f 9/9/9 8/8/8 7/7/7
f 10/10/10 9/9/9 7/7/7
f 10/10/10 7/7/7 11/11/11
f 12/12/12 10/10/10 11/11/11
f 15/15/15 14/14/14 13/13/13
f 16/16/16 15/15/15 13/13/13
f 16/16/16 13/13/13 17/17/17
f 18/18/18 16/16/16 17/17/17
f 21/21/21 20/20/20 19/19/19
f 22/22/22 21/21/21 19/19/19
f 20/20/20 21/21/21 23/23/23
f 24/24/24 20/20/20 23/23/23
f 27/27/27 26/26/26 25/25/25
f 28/28/28 27/27/27 25/25/25
f 25/25/25 26/26/26 29/29/29
f 26/26/26 30/30/30 29/29/29
f 25/25/25 29/29/29 31/31/31
f 32/32/32 25/25/25 31/31/31
f 28/28/28 25/25/25 32/32/32
f 33/33/33 28/28/28 32/32/32
f 36/36/36 35/35/35 34/34/34
f 37/37/37 36/36/36 34/34/34
f 34/34/34 35/35/35 38/38/38
f 35/35/35 39/39/39 38/38/38
f 34/34/34 38/38/38 40/40/40
f 41/41/41 34/34/34 40/40/40
f 37/37/37 34/34/34 41/41/41
f 42/42/42 37/37/37 41/41/41
f 45/45/45 44/44/44 43/43/43
f 46/46/46 45/45/45 43/43/43
f 44/44/44 45/45/45 47/47/47
f 48/48/48 44/44/44 47/47/47
f 51/51/51 50/50/50 49/49/49
f 52/52/52 51/51/51 49/49/49
f 52/52/52 49/49/49 53/53/53
f 54/54/54 52/52/52 53/53/53
f 57/57/57 56/56/56 55/55/55
f 58/58/58 57/57/57 55/55/55
f 58/58/58 55/55/55 59/59/59
f 60/60/60 58/58/58 59/59/59
f 63/63/63 62/62/62 61/61/61
f 64/64/64 63/63/63 61/61/61
f 64/64/64 61/61/61 65/65/65
f 66/66/66 64/64/64 65/65/65
