# Export of Universe
# from Aaro4130 OBJ Exporter v2.0
mtllib 154.mtl
g JitterCone
v 0.423196 -0.00300179 1.53376
v 0.850773 -0.00495272 1.43454
v 0 0.00200646 1.4428
v -0.735877 0.00255721 1.22908
v 1.22071 -0.00513626 1.1894
v -1.0182 0.00320512 0.980325
v -1.51296 -0.00503433 0.851702
v 1.25158 0.00267784 0.695903
v 1.56714 -0.00166033 0.407581
v -1.41095 0.0020467 0.364373
v -1.37321 0.0038825 0
v 1.66543 -0.00253486 0
v -1.4939 7.80703E-05 -0.387319
v 1.55392 -0.00134656 -0.403924
v -1.29305 0.00145446 -0.720617
v 1.37228 -0.000883368 -0.767846
v 1.07974 0.000670318 -1.04386
v -1.09469 5.46392E-05 -1.05929
v -0.700951 0.00484007 -1.16662
v 0.734824 0.00262602 -1.22719
v 0.356243 0.00612268 -1.27578
v -0.388685 0.00170136 -1.40079
v 0 0.000703472 -1.47995
v -0.424382 -0.0031634 1.53833
v 1.55392 -0.00134656 -0.403924
v 1.66543 -0.00253486 0
v 9.17549E-18 2.64296 3.82312E-19
v 1.37228 -0.000883368 -0.767846
v 1.55392 -0.00134656 -0.403924
v 9.17549E-18 2.64296 3.82312E-19
v 1.07974 0.000670318 -1.04386
v 1.37228 -0.000883368 -0.767846
v 9.17549E-18 2.64296 3.82312E-19
v 0.734824 0.00262602 -1.22719
v 1.07974 0.000670318 -1.04386
v 9.17549E-18 2.64296 3.82312E-19
v 0 0.000703472 -1.47995
v 0.356243 0.00612268 -1.27578
v 0.356243 0.00612268 -1.27578
v 0.734824 0.00262602 -1.22719
v 9.17549E-18 2.64296 3.82312E-19
v 9.17549E-18 2.64296 3.82312E-19
v -0.388685 0.00170136 -1.40079
v 0 0.000703472 -1.47995
v 9.17549E-18 2.64296 3.82312E-19
v -0.700951 0.00484007 -1.16662
v -0.388685 0.00170136 -1.40079
v 9.17549E-18 2.64296 3.82312E-19
v -1.09469 5.46392E-05 -1.05929
v -0.700951 0.00484007 -1.16662
v 9.17549E-18 2.64296 3.82312E-19
v -1.29305 0.00145446 -0.720617
v -1.09469 5.46392E-05 -1.05929
v -1.4939 7.80703E-05 -0.387319
v 9.17549E-18 2.64296 3.82312E-19
v -1.37321 0.0038825 0
v -1.4939 7.80703E-05 -0.387319
v 9.17549E-18 2.64296 3.82312E-19
v -1.41095 0.0020467 0.364373
v -1.37321 0.0038825 0
v 9.17549E-18 2.64296 3.82312E-19
v -1.51296 -0.00503433 0.851702
v -1.41095 0.0020467 0.364373
v 9.17549E-18 2.64296 3.82312E-19
v -1.0182 0.00320512 0.980325
v -1.51296 -0.00503433 0.851702
v 9.17549E-18 2.64296 3.82312E-19
v -0.735877 0.00255721 1.22908
v -1.0182 0.00320512 0.980325
v 9.17549E-18 2.64296 3.82312E-19
v -0.424382 -0.0031634 1.53833
v -0.735877 0.00255721 1.22908
v 9.17549E-18 2.64296 3.82312E-19
v 0 0.00200646 1.4428
v -0.424382 -0.0031634 1.53833
v 0.423196 -0.00300179 1.53376
v 0 0.00200646 1.4428
v 9.17549E-18 2.64296 3.82312E-19
v 0.850773 -0.00495272 1.43454
v 0.423196 -0.00300179 1.53376
v 9.17549E-18 2.64296 3.82312E-19
v 1.22071 -0.00513626 1.1894
v 0.850773 -0.00495272 1.43454
v 9.17549E-18 2.64296 3.82312E-19
v 1.25158 0.00267784 0.695903
v 1.22071 -0.00513626 1.1894
v 9.17549E-18 2.64296 3.82312E-19
v 1.56714 -0.00166033 0.407581
v 1.25158 0.00267784 0.695903
v 9.17549E-18 2.64296 3.82312E-19
v 1.66543 -0.00253486 0
v 1.56714 -0.00166033 0.407581
v 9.17549E-18 2.64296 3.82312E-19
vn -0.005678925 -0.5773223 -0.0001307097
vn -0.005678925 -0.5773223 -0.0001307097
vn -0.005678925 -0.5773223 -0.0001307097
vn -0.005678925 -0.5773223 -0.0001307097
vn -0.005678925 -0.5773223 -0.0001307097
vn -0.005678925 -0.5773223 -0.0001307097
vn -0.005678925 -0.5773223 -0.0001307097
vn -0.005678925 -0.5773223 -0.0001307097
vn -0.005678925 -0.5773223 -0.0001307097
vn -0.005678925 -0.5773223 -0.0001307097
vn -0.005678925 -0.5773223 -0.0001307097
vn -0.005678925 -0.5773223 -0.0001307097
vn -0.005678925 -0.5773223 -0.0001307097
vn -0.005678925 -0.5773223 -0.0001307097
vn -0.005678925 -0.5773223 -0.0001307097
vn -0.005678925 -0.5773223 -0.0001307097
vn -0.005678925 -0.5773223 -0.0001307097
vn -0.005678925 -0.5773223 -0.0001307097
vn -0.005678925 -0.5773223 -0.0001307097
vn -0.005678925 -0.5773223 -0.0001307097
vn -0.005678925 -0.5773223 -0.0001307097
vn -0.005678925 -0.5773223 -0.0001307097
vn -0.005678925 -0.5773223 -0.0001307097
vn -0.005678925 -0.5773223 -0.0001307097
vn 0.4759473 0.2996251 -0.1305077
vn 0.4759473 0.2996251 -0.1305077
vn 0.4759473 0.2996251 -0.1305077
vn 0.4442648 0.2948863 -0.2213688
vn 0.4442648 0.2948863 -0.2213688
vn 0.4442648 0.2948863 -0.2213688
vn 0.3453445 0.2850859 -0.3644127
vn 0.3453445 0.2850859 -0.3644127
vn 0.3453445 0.2850859 -0.3644127
vn 0.239538 0.2747633 -0.4477276
vn 0.239538 0.2747633 -0.4477276
vn 0.239538 0.2747633 -0.4477276
vn 0.2551242 0.2530965 -0.4518707
vn 0.2551242 0.2530965 -0.4518707
vn 0.06813601 0.2571293 -0.512421
vn 0.06813601 0.2571293 -0.512421
vn 0.06813601 0.2571293 -0.512421
vn -0.1003158 0.2778452 -0.4960565
vn -0.1003158 0.2778452 -0.4960565
vn -0.1003158 0.2778452 -0.4960565
vn -0.3064409 0.2636944 -0.4121803
vn -0.3064409 0.2636944 -0.4121803
vn -0.3064409 0.2636944 -0.4121803
vn -0.1388602 0.2570964 -0.4979484
vn -0.1388602 0.2570964 -0.4979484
vn -0.1388602 0.2570964 -0.4979484
vn -0.4341206 0.2821886 -0.2554255
vn -0.4341206 0.2821886 -0.2554255
vn -0.4341206 0.2821886 -0.2554255
vn -0.4319509 0.2821378 -0.2591332
vn -0.4942228 0.2571622 0.1514753
vn -0.4942228 0.2571622 0.1514753
vn -0.4942228 0.2571622 0.1514753
vn -0.5101225 0.2654351 -0.05150243
vn -0.5101225 0.2654351 -0.05150243
vn -0.5101225 0.2654351 -0.05150243
vn -0.5069096 0.2566987 -0.1023804
vn -0.5069096 0.2566987 -0.1023804
vn -0.5069096 0.2566987 -0.1023804
vn -0.1357963 0.2406403 0.5069368
vn -0.1357963 0.2406403 0.5069368
vn -0.1357963 0.2406403 0.5069368
vn -0.3363844 0.271798 0.382498
vn -0.3363844 0.271798 0.382498
vn -0.3363844 0.271798 0.382498
vn -0.3572725 0.2694027 0.364845
vn -0.3572725 0.2694027 0.364845
vn -0.3572725 0.2694027 0.364845
vn 0.1086989 0.2718528 0.4976082
vn 0.1086989 0.2718528 0.4976082
vn 0.1086989 0.2718528 0.4976082
vn -0.1038988 0.2722842 0.4983971
vn -0.1038988 0.2722842 0.4983971
vn -0.1038988 0.2722842 0.4983971
vn 0.1131549 0.2973631 0.4817722
vn 0.1131549 0.2973631 0.4817722
vn 0.1131549 0.2973631 0.4817722
vn 0.2700521 0.3074274 0.4073004
vn 0.2700521 0.3074274 0.4073004
vn 0.2700521 0.3074274 0.4073004
vn 0.5168971 0.2546133 0.03637013
vn 0.5168971 0.2546133 0.03637013
vn 0.5168971 0.2546133 0.03637013
vn 0.3481677 0.2644311 0.3770792
vn 0.3481677 0.2644311 0.3770792
vn 0.3481677 0.2644311 0.3770792
vn 0.4788341 0.3014421 0.1148211
vn 0.4788341 0.3014421 0.1148211
vn 0.4788341 0.3014421 0.1148211
vt 0.609163 0.00151411
vt 0.743689 0.0343871
vt 0.476015 0.0316505
vt 0.24449 0.102459
vt 0.86008 0.115606
vt 0.155664 0.184875
vt 0 0.22749
vt 0.869793 0.279108
vt 0.969076 0.374634
vt 0.0320949 0.388949
vt 0.0439688 0.509671
vt 1 0.509671
vt 0.00599675 0.637995
vt 0.964916 0.643497
vt 0.0691891 0.748422
vt 0.907768 0.76407
vt 0.815727 0.855517
vt 0.131598 0.860629
vt 0.255478 0.896189
vt 0.707208 0.916257
vt 0.588097 0.932356
vt 0.353725 0.973773
vt 0.476015 1
vt 0.342494 5.55112E-17
vt 0.643497 0.0014311
vt 0.509671 0.000982366
vt 0.509671 1
vt 0.76407 0.00160602
vt 0.643497 0.0014311
vt 0.509671 1
vt 0.815727 0.00219274
vt 0.907768 0.00160602
vt 0.476015 1
vt 0.707208 0.00293127
vt 0.815727 0.00219274
vt 0.476015 1
vt 0.476015 0.00220526
vt 0.588097 0.00425171
vt 0.588097 0.00425171
vt 0.707208 0.00293127
vt 0.476015 1
vt 0.476015 1
vt 0.353725 0.00258209
vt 0.476015 0.00220526
vt 0.476015 1
vt 0.255478 0.00376736
vt 0.353725 0.00258209
vt 0.476015 1
vt 0.131598 0.00196024
vt 0.255478 0.00376736
vt 0.509671 1
vt 0.748422 0.00248885
vt 0.860629 0.00196024
vt 0.637995 0.00196909
vt 0.509671 1
vt 0.509671 0.00340575
vt 0.637995 0.00196909
vt 0.509671 1
vt 0.388949 0.0027125
vt 0.509671 0.00340575
vt 0.509671 1
vt 0.22749 3.84918E-05
vt 0.388949 0.0027125
vt 0.476015 1
vt 0.155664 0.00314995
vt 0 3.84918E-05
vt 0.476015 1
vt 0.24449 0.00290528
vt 0.155664 0.00314995
vt 0.476015 1
vt 0.342494 0.000745011
vt 0.24449 0.00290528
vt 0.476015 1
vt 0.476015 0.0026973
vt 0.342494 0.000745011
vt 0.609163 0.000806039
vt 0.476015 0.0026973
vt 0.476015 1
vt 0.743689 6.93101E-05
vt 0.609163 0.000806039
vt 0.476015 1
vt 0.86008 0
vt 0.743689 6.93101E-05
vt 0.476015 1
vt 0.279108 0.00295084
vt 0.115606 0
vt 0.509671 1
vt 0.969076 0.00131261
vt 0.869793 0.00295084
vt 0.476015 1
vt 0.509671 0.000982366
vt 0.374634 0.00131261
vt 0.509671 1
usemtl baseThingPartMaterial
f 3/3/3 2/2/2 1/1/1
f 2/2/2 3/3/3 4/4/4
f 5/5/5 2/2/2 4/4/4
f 5/5/5 4/4/4 6/6/6
f 5/5/5 6/6/6 7/7/7
f 8/8/8 5/5/5 7/7/7
f 9/9/9 8/8/8 7/7/7
f 9/9/9 7/7/7 10/10/10
f 9/9/9 10/10/10 11/11/11
f 12/12/12 9/9/9 11/11/11
f 12/12/12 11/11/11 13/13/13
f 14/14/14 12/12/12 13/13/13
f 14/14/14 13/13/13 15/15/15
f 16/16/16 14/14/14 15/15/15
f 17/17/17 16/16/16 15/15/15
f 17/17/17 15/15/15 18/18/18
f 17/17/17 18/18/18 19/19/19
f 20/20/20 17/17/17 19/19/19
f 21/21/21 20/20/20 19/19/19
f 21/21/21 19/19/19 22/22/22
f 22/22/22 23/23/23 21/21/21
f 3/3/3 24/24/24 4/4/4
f 27/27/27 26/26/26 25/25/25
f 30/30/30 29/29/29 28/28/28
f 33/33/33 32/32/32 31/31/31
f 36/36/36 35/35/35 34/34/34
f 36/36/36 38/38/38 37/37/37
f 41/41/41 40/40/40 39/39/39
f 44/44/44 43/43/43 42/42/42
f 47/47/47 46/46/46 45/45/45
f 50/50/50 49/49/49 48/48/48
f 53/53/53 52/52/52 51/51/51
f 52/52/52 54/54/54 51/51/51
f 57/57/57 56/56/56 55/55/55
f 60/60/60 59/59/59 58/58/58
f 63/63/63 62/62/62 61/61/61
f 66/66/66 65/65/65 64/64/64
f 69/69/69 68/68/68 67/67/67
f 72/72/72 71/71/71 70/70/70
f 75/75/75 74/74/74 73/73/73
f 78/78/78 77/77/77 76/76/76
f 81/81/81 80/80/80 79/79/79
f 84/84/84 83/83/83 82/82/82
f 87/87/87 86/86/86 85/85/85
f 90/90/90 89/89/89 88/88/88
f 93/93/93 92/92/92 91/91/91
