# Export of Universe
# from Aaro4130 OBJ Exporter v2.0
mtllib 157.mtl
g JitterHalfConeSoft
v 0.220062 -0.503002 0.751543
v 0.442402 -0.504953 0.702924
v 0 -0.497994 0.706973
v -0.382656 -0.497443 0.602247
v 0.634769 -0.505136 0.582805
v -0.529466 -0.496795 0.480359
v -0.786739 -0.505034 0.417334
v 0.650823 -0.497322 0.340992
v 0.814914 -0.50166 0.199715
v -0.733693 -0.497953 0.178543
v -0.714067 -0.496118 0
v 0.866022 -0.502535 0
v -0.776826 -0.499922 -0.189786
v 0.808039 -0.501347 -0.197923
v -0.672384 -0.498546 -0.353103
v 0.713585 -0.500883 -0.376244
v 0.561466 -0.49933 -0.511491
v -0.569238 -0.499945 -0.519052
v -0.364494 -0.49516 -0.571643
v 0.382108 -0.497374 -0.601325
v 0.185246 -0.493877 -0.625131
v -0.202116 -0.498299 -0.686385
v 0 -0.499297 -0.725174
v 1.53793 -0.4 2.92692E-20
v 1.4356 -0.4 -0.373168
v 1.26801 -0.4 -0.709503
v 0.998288 -0.4 -0.965112
v 0.679893 -0.4 -1.13546
v 0.33005 -0.4 -1.18197
v 6.92077E-19 -0.4 -1.36832
v -0.359504 -0.4 -1.29562
v -0.649097 -0.4 -1.08032
v -1.01187 -0.4 -0.979151
v -1.19586 -0.4 -0.666453
v -1.38089 -0.4 -0.35802
v -1.27116 -0.4 2.84107E-20
v -1.30519 -0.4 0.33706
v -1.39581 -0.4 0.785755
v -0.942297 -0.4 0.907241
v -0.68085 -0.4 1.13717
v -0.391799 -0.4 1.42022
v -0.220678 -0.503163 0.753782
v 6.87891E-19 -0.4 1.33463
v 0.390728 -0.4 1.41609
v 0.784921 -0.4 1.3235
v 1.12615 -0.4 1.09726
v 1.15805 -0.4 0.643894
v 1.44764 -0.4 0.376502
v 9.17549E-18 0.842958 3.82312E-19
v 0.789187 0.7 -0.20514
v 0.845438 0.7 1.88235E-19
v 0.795807 0.7 0.206973
v 0.697058 0.7 -0.390033
v 0.636608 0.7 0.353966
v 0.619072 0.7 0.603193
v 0.548785 0.7 -0.530547
v 0.431492 0.7 0.727564
v 0.373755 0.7 -0.62419
v 0.214793 0.7 0.778461
v 0.181437 0.7 -0.649762
v 4.51193E-18 0.7 -0.752201
v 4.50963E-18 0.7 0.733684
v -0.197629 0.7 -0.712235
v -0.215382 0.7 0.780732
v -0.356826 0.7 -0.593878
v -0.374281 0.7 0.625131
v -0.556252 0.7 -0.538265
v -0.518005 0.7 0.498734
v -0.657393 0.7 -0.366367
v -0.759111 0.7 -0.196813
v -0.69879 0.7 1.87763E-19
v -0.717497 0.7 0.185291
v -0.767314 0.7 0.43195
v 0.789187 0.7 -0.20514
v 1.4356 -0.4 -0.373168
v 1.53793 -0.4 2.92692E-20
v 0.845438 0.7 1.88235E-19
v 1.44764 -0.4 0.376502
v 0.795807 0.7 0.206973
v 0.697058 0.7 -0.390033
v 1.26801 -0.4 -0.709503
v 0.795807 0.7 0.206973
v 1.44764 -0.4 0.376502
v 1.15805 -0.4 0.643894
v 0.636608 0.7 0.353966
v 0.636608 0.7 0.353966
v 1.15805 -0.4 0.643894
v 1.12615 -0.4 1.09726
v 0.619072 0.7 0.603193
v 0.548785 0.7 -0.530547
v 0.998288 -0.4 -0.965112
v 1.26801 -0.4 -0.709503
v 0.697058 0.7 -0.390033
v 0.373755 0.7 -0.62419
v 0.679893 -0.4 -1.13546
v 0.181437 0.7 -0.649762
v 0.33005 -0.4 -1.18197
v 4.51193E-18 0.7 -0.752201
v 6.92077E-19 -0.4 -1.36832
v -0.197629 0.7 -0.712235
v -0.359504 -0.4 -1.29562
v -0.356826 0.7 -0.593878
v -0.649097 -0.4 -1.08032
v -0.556252 0.7 -0.538265
v -1.01187 -0.4 -0.979151
v 0.619072 0.7 0.603193
v 1.12615 -0.4 1.09726
v 0.784921 -0.4 1.3235
v 0.431492 0.7 0.727564
v 0.390728 -0.4 1.41609
v 0.214793 0.7 0.778461
v 6.87891E-19 -0.4 1.33463
v 4.50963E-18 0.7 0.733684
v -0.391799 -0.4 1.42022
v -0.215382 0.7 0.780732
v -0.68085 -0.4 1.13717
v -0.374281 0.7 0.625131
v -0.942297 -0.4 0.907241
v -0.518005 0.7 0.498734
v -1.39581 -0.4 0.785755
v -0.767314 0.7 0.43195
v -0.657393 0.7 -0.366367
v -1.19586 -0.4 -0.666453
v -1.01187 -0.4 -0.979151
v -0.556252 0.7 -0.538265
v -0.759111 0.7 -0.196813
v -1.38089 -0.4 -0.35802
v -0.69879 0.7 1.87763E-19
v -1.27116 -0.4 2.84107E-20
v -0.717497 0.7 0.185291
v -1.30519 -0.4 0.33706
v -0.767314 0.7 0.43195
v -1.39581 -0.4 0.785755
vn -0.004695094 -0.5710649 0.08483001
vn 0.02548364 -0.5731002 0.06511582
vn -0.0004796825 -0.5714137 0.08258007
vn -0.05087312 -0.5727599 0.05187833
vn 0.06006204 -0.5738099 0.02163489
vn -0.0386034 -0.5690295 0.08971347
vn -0.05134672 -0.5742463 0.03062738
vn 0.04345635 -0.5753607 0.02012218
vn 0.04881461 -0.5741624 0.03588886
vn -0.05052916 -0.5749093 -0.01610492
vn -0.04536048 -0.5755219 0.007095751
vn 0.05450528 -0.5747706 -0.001126453
vn -0.06131511 -0.5740786 -0.00273599
vn 0.04950892 -0.5748288 -0.02130773
vn -0.0472847 -0.5746446 -0.02968183
vn 0.04628612 -0.5742628 -0.03759164
vn 0.03547755 -0.5735671 -0.05563629
vn -0.03771432 -0.5734345 -0.05553241
vn -0.0334785 -0.5711338 -0.07758013
vn 0.01993282 -0.5716345 -0.07854947
vn 0.02774369 -0.5702948 -0.0856002
vn -0.03508838 -0.5718807 -0.07109572
vn 0.01796153 -0.5713438 -0.08109839
vn 0.08625501 -0.5708693 -0.001269352
vn 0.08322383 -0.5703883 -0.0326248
vn 0.0712599 -0.570426 -0.05356809
vn 0.05230974 -0.57011 -0.07464287
vn 0.02784458 -0.5698595 -0.08841991
vn 0.03245882 -0.5693073 -0.09038228
vn 0.01139055 -0.5706795 -0.08676641
vn -0.03523201 -0.5703276 -0.0825737
vn -0.0396458 -0.5693477 -0.08720489
vn -0.05413718 -0.5705755 -0.06961385
vn -0.07945588 -0.5698236 -0.04817856
vn -0.08825237 -0.5703756 -0.01471491
vn -0.1003829 -0.5683911 0.01371519
vn -0.1068475 -0.5668831 -0.02367342
vn -0.06734059 -0.5717981 0.04296005
vn -0.03769447 -0.5678687 0.09714705
vn -0.06761368 -0.5693174 0.06811311
vn -0.02163215 -0.5713449 0.08018982
vn -0.02171994 -0.5721889 0.07390173
vn 0.0006270785 -0.5700014 0.09182199
vn 0.001822572 -0.5706313 0.08780581
vn 0.03324659 -0.571101 0.07792127
vn 0.06892779 -0.5711704 0.04844169
vn 0.09196992 -0.5687622 0.03720745
vn 0.07881002 -0.5703048 0.04329757
vn -3.45533E-05 0.5773503 0
vn 0.4192885 0.3627984 -0.160959
vn 0.4481224 0.363951 -0.007698013
vn 0.3923902 0.3468763 0.2429816
vn 0.3653548 0.3537669 -0.2733097
vn 0.4075834 0.3646937 0.1849528
vn 0.4089123 0.3497228 0.2093274
vn 0.2694832 0.3443734 -0.3769868
vn 0.174968 0.3661207 0.4107009
vn 0.1418145 0.3292081 -0.4525969
vn -0.0003375723 0.3484783 0.4603217
vn 0.1507462 0.3372075 -0.4437342
vn 0.08336741 0.330237 -0.4661832
vn 0.002266538 0.3574277 0.4534023
vn -0.1945361 0.3338833 -0.428965
vn -0.1299594 0.3429456 0.445906
vn -0.2046492 0.3422917 -0.4174787
vn -0.3167607 0.341706 0.3409295
vn -0.2783642 0.3355235 -0.3785112
vn -0.2128499 0.3429262 0.4128315
vn -0.3936342 0.3517132 -0.2338445
vn -0.4664203 0.337112 -0.04626992
vn -0.4606026 0.3448171 0.04774692
vn -0.4649052 0.3348378 -0.07127526
vn -0.3859078 0.3493046 0.2497894
vn 0.4192885 0.3627984 -0.160959
vn 0.4625854 0.2984236 -0.1740444
vn 0.4885562 0.3075639 -0.00711338
vn 0.4481224 0.363951 -0.007698013
vn 0.4348907 0.2946293 0.2395765
vn 0.3923902 0.3468763 0.2429816
vn 0.3653548 0.3537669 -0.2733097
vn 0.4020889 0.293603 -0.292327
vn 0.3923902 0.3468763 0.2429816
vn 0.4348907 0.2946293 0.2395765
vn 0.465198 0.2743247 0.2041327
vn 0.4075834 0.3646937 0.1849528
vn 0.4075834 0.3646937 0.1849528
vn 0.465198 0.2743247 0.2041327
vn 0.4177443 0.3068102 0.2543433
vn 0.4089123 0.3497228 0.2093274
vn 0.2694832 0.3443734 -0.3769868
vn 0.2985794 0.2822507 -0.4056085
vn 0.4020889 0.293603 -0.292327
vn 0.3653548 0.3537669 -0.2733097
vn 0.1418145 0.3292081 -0.4525969
vn 0.1637786 0.2701812 -0.4832308
vn 0.1507462 0.3372075 -0.4437342
vn 0.1685039 0.2587865 -0.4878209
vn 0.08336741 0.330237 -0.4661832
vn 0.0724455 0.2799067 -0.4997371
vn -0.1945361 0.3338833 -0.428965
vn -0.2006118 0.2764003 -0.465501
vn -0.2046492 0.3422917 -0.4174787
vn -0.2221497 0.2637872 -0.4630326
vn -0.2783642 0.3355235 -0.3785112
vn -0.3105238 0.2863667 -0.3935764
vn 0.4089123 0.3497228 0.2093274
vn 0.4177443 0.3068102 0.2543433
vn 0.1983373 0.3061652 0.4475025
vn 0.174968 0.3661207 0.4107009
vn 0.01679109 0.2914257 0.4981189
vn -0.0003375723 0.3484783 0.4603217
vn 0.002819752 0.2767986 0.5066634
vn 0.002266538 0.3574277 0.4534023
vn -0.1367403 0.2981456 0.4751258
vn -0.1299594 0.3429456 0.445906
vn -0.3483404 0.2705136 0.3725784
vn -0.3167607 0.341706 0.3409295
vn -0.2188568 0.2581311 0.4677643
vn -0.2128499 0.3429262 0.4128315
vn -0.4111069 0.3163975 0.2534109
vn -0.3859078 0.3493046 0.2497894
vn -0.3936342 0.3517132 -0.2338445
vn -0.433033 0.2821659 -0.2572901
vn -0.3105238 0.2863667 -0.3935764
vn -0.2783642 0.3355235 -0.3785112
vn -0.4664203 0.337112 -0.04626992
vn -0.4951004 0.2895471 -0.06611647
vn -0.4606026 0.3448171 0.04774692
vn -0.5095484 0.2651367 0.05827808
vn -0.4649052 0.3348378 -0.07127526
vn -0.5085742 0.2601746 -0.08363481
vn -0.3859078 0.3493046 0.2497894
vn -0.4111069 0.3163975 0.2534109
vt 0.550789 0.239795
vt 0.626576 0.25723
vt 0.475778 0.255778
vt 0.345346 0.293334
vt 0.692147 0.300306
vt 0.295304 0.337044
vt 0.207609 0.359646
vt 0.697619 0.387023
vt 0.753551 0.437686
vt 0.22569 0.445279
vt 0.23238 0.509306
vt 0.770972 0.509306
vt 0.210988 0.577365
vt 0.751208 0.580283
vt 0.246588 0.635932
vt 0.719012 0.644231
vt 0.667161 0.692732
vt 0.281747 0.695444
vt 0.351536 0.714303
vt 0.606024 0.724947
vt 0.538922 0.733485
vt 0.406885 0.755451
vt 0.475778 0.769361
vt 1 0.509306
vt 0.96512 0.643128
vt 0.907995 0.763741
vt 0.816057 0.855405
vt 0.707528 0.916494
vt 0.58828 0.933173
vt 0.475778 1
vt 0.353237 0.973929
vt 0.254526 0.89672
vt 0.13087 0.86044
vt 0.0681553 0.748303
vt 0.00508566 0.637696
vt 0.0424884 0.509306
vt 0.0308889 0.388433
vt 0 0.227526
vt 0.154585 0.18396
vt 0.243703 0.101505
vt 0.342229 0
vt 0.400558 0.238992
vt 0.475778 0.0306935
vt 0.608963 0.00148106
vt 0.743328 0.0346848
vt 0.85964 0.115817
vt 0.870513 0.278399
vt 0.969224 0.374288
vt 0.475778 0.509306
vt 0.744782 0.582871
vt 0.763956 0.509306
vt 0.747039 0.435083
vt 0.713379 0.649176
vt 0.692774 0.38237
vt 0.686796 0.292995
vt 0.662838 0.699566
vt 0.622858 0.248394
vt 0.603177 0.733147
vt 0.548993 0.230142
vt 0.537623 0.742317
vt 0.475778 0.779053
vt 0.475778 0.246199
vt 0.408414 0.764721
vt 0.402363 0.229327
vt 0.35415 0.722277
vt 0.3482 0.285127
vt 0.286173 0.702334
vt 0.29921 0.330455
vt 0.251698 0.640689
vt 0.217026 0.579885
vt 0.237588 0.509306
vt 0.231211 0.442859
vt 0.21423 0.354404
vt 0.582871 0.893955
vt 0.643128 0.0779886
vt 0.509306 0.0779886
vt 0.509306 0.893955
vt 0.374288 0.0779886
vt 0.435083 0.893955
vt 0.649176 0.893955
vt 0.763741 0.0779886
vt 0.747039 0.893955
vt 0.969224 0.0779886
vt 0.870513 0.0779886
vt 0.692774 0.893955
vt 0.38237 0.893955
vt 0.278399 0.0779886
vt 0.115817 0.0779886
vt 0.292995 0.893955
vt 0.662838 0.893955
vt 0.816057 0.0779886
vt 0.907995 0.0779886
vt 0.713379 0.893955
vt 0.603177 0.893955
vt 0.707528 0.0779886
vt 0.537623 0.893955
vt 0.58828 0.0779886
vt 0.475778 0.893955
vt 0.475778 0.0779886
vt 0.408414 0.893955
vt 0.353237 0.0779886
vt 0.35415 0.893955
vt 0.254526 0.0779886
vt 0.286173 0.893955
vt 0.13087 0.0779886
vt 0.686796 0.893955
vt 0.85964 0.0779886
vt 0.743328 0.0779886
vt 0.622858 0.893955
vt 0.608963 0.0779886
vt 0.548993 0.893955
vt 0.475778 0.0779886
vt 0.475778 0.893955
vt 0.342229 0.0779886
vt 0.402363 0.893955
vt 0.243703 0.0779886
vt 0.3482 0.893955
vt 0.154585 0.0779886
vt 0.29921 0.893955
vt 0 0.0779886
vt 0.21423 0.893955
vt 0.640689 0.893955
vt 0.748303 0.0779886
vt 0.86044 0.0779886
vt 0.702334 0.893955
vt 0.579885 0.893955
vt 0.637696 0.0779886
vt 0.509306 0.893955
vt 0.509306 0.0779886
vt 0.442859 0.893955
vt 0.388433 0.0779886
vt 0.354404 0.893955
vt 0.227526 0.0779886
usemtl baseThingPartMaterial
f 3/3/3 2/2/2 1/1/1
f 2/2/2 3/3/3 4/4/4
f 5/5/5 2/2/2 4/4/4
f 5/5/5 4/4/4 6/6/6
f 5/5/5 6/6/6 7/7/7
f 8/8/8 5/5/5 7/7/7
f 9/9/9 8/8/8 7/7/7
f 9/9/9 7/7/7 10/10/10
f 9/9/9 10/10/10 11/11/11
f 12/12/12 9/9/9 11/11/11
f 12/12/12 11/11/11 13/13/13
f 14/14/14 12/12/12 13/13/13
f 14/14/14 13/13/13 15/15/15
f 16/16/16 14/14/14 15/15/15
f 17/17/17 16/16/16 15/15/15
f 17/17/17 15/15/15 18/18/18
f 17/17/17 18/18/18 19/19/19
f 20/20/20 17/17/17 19/19/19
f 21/21/21 20/20/20 19/19/19
f 21/21/21 19/19/19 22/22/22
f 22/22/22 23/23/23 21/21/21
f 24/24/24 12/12/12 14/14/14
f 9/9/9 12/12/12 24/24/24
f 25/25/25 24/24/24 14/14/14
f 25/25/25 14/14/14 16/16/16
f 26/26/26 25/25/25 16/16/16
f 26/26/26 16/16/16 17/17/17
f 27/27/27 26/26/26 17/17/17
f 27/27/27 17/17/17 20/20/20
f 28/28/28 27/27/27 20/20/20
f 28/28/28 20/20/20 21/21/21
f 29/29/29 28/28/28 21/21/21
f 21/21/21 23/23/23 30/30/30
f 29/29/29 21/21/21 30/30/30
f 30/30/30 23/23/23 22/22/22
f 31/31/31 30/30/30 22/22/22
f 31/31/31 22/22/22 19/19/19
f 32/32/32 31/31/31 19/19/19
f 19/19/19 18/18/18 33/33/33
f 32/32/32 19/19/19 33/33/33
f 33/33/33 18/18/18 15/15/15
f 34/34/34 33/33/33 15/15/15
f 34/34/34 15/15/15 35/35/35
f 15/15/15 13/13/13 35/35/35
f 35/35/35 13/13/13 11/11/11
f 36/36/36 35/35/35 11/11/11
f 36/36/36 11/11/11 37/37/37
f 11/11/11 10/10/10 37/37/37
f 37/37/37 10/10/10 38/38/38
f 10/10/10 7/7/7 38/38/38
f 38/38/38 7/7/7 6/6/6
f 39/39/39 38/38/38 6/6/6
f 39/39/39 6/6/6 40/40/40
f 6/6/6 4/4/4 40/40/40
f 40/40/40 4/4/4 41/41/41
f 4/4/4 42/42/42 41/41/41
f 3/3/3 42/42/42 4/4/4
f 41/41/41 42/42/42 3/3/3
f 43/43/43 41/41/41 3/3/3
f 43/43/43 3/3/3 44/44/44
f 3/3/3 1/1/1 44/44/44
f 44/44/44 1/1/1 45/45/45
f 1/1/1 2/2/2 45/45/45
f 45/45/45 2/2/2 46/46/46
f 2/2/2 5/5/5 46/46/46
f 46/46/46 5/5/5 8/8/8
f 47/47/47 46/46/46 8/8/8
f 47/47/47 8/8/8 48/48/48
f 8/8/8 9/9/9 48/48/48
f 48/48/48 9/9/9 24/24/24
f 51/51/51 50/50/50 49/49/49
f 52/52/52 51/51/51 49/49/49
f 50/50/50 53/53/53 49/49/49
f 54/54/54 52/52/52 49/49/49
f 55/55/55 54/54/54 49/49/49
f 53/53/53 56/56/56 49/49/49
f 57/57/57 55/55/55 49/49/49
f 56/56/56 58/58/58 49/49/49
f 59/59/59 57/57/57 49/49/49
f 58/58/58 60/60/60 49/49/49
f 60/60/60 61/61/61 49/49/49
f 62/62/62 59/59/59 49/49/49
f 61/61/61 63/63/63 49/49/49
f 64/64/64 62/62/62 49/49/49
f 63/63/63 65/65/65 49/49/49
f 66/66/66 64/64/64 49/49/49
f 65/65/65 67/67/67 49/49/49
f 68/68/68 66/66/66 49/49/49
f 67/67/67 69/69/69 49/49/49
f 69/69/69 70/70/70 49/49/49
f 70/70/70 71/71/71 49/49/49
f 71/71/71 72/72/72 49/49/49
f 72/72/72 73/73/73 49/49/49
f 73/73/73 68/68/68 49/49/49
f 76/76/76 75/75/75 74/74/74
f 77/77/77 76/76/76 74/74/74
f 78/78/78 76/76/76 77/77/77
f 79/79/79 78/78/78 77/77/77
f 74/74/74 75/75/75 80/80/80
f 75/75/75 81/81/81 80/80/80
f 84/84/84 83/83/83 82/82/82
f 85/85/85 84/84/84 82/82/82
f 88/88/88 87/87/87 86/86/86
f 89/89/89 88/88/88 86/86/86
f 92/92/92 91/91/91 90/90/90
f 93/93/93 92/92/92 90/90/90
f 90/90/90 91/91/91 94/94/94
f 91/91/91 95/95/95 94/94/94
f 94/94/94 95/95/95 96/96/96
f 95/95/95 97/97/97 96/96/96
f 96/96/96 97/97/97 98/98/98
f 97/97/97 99/99/99 98/98/98
f 98/98/98 99/99/99 100/100/100
f 99/99/99 101/101/101 100/100/100
f 100/100/100 101/101/101 102/102/102
f 101/101/101 103/103/103 102/102/102
f 102/102/102 103/103/103 104/104/104
f 103/103/103 105/105/105 104/104/104
f 108/108/108 107/107/107 106/106/106
f 109/109/109 108/108/108 106/106/106
f 110/110/110 108/108/108 109/109/109
f 111/111/111 110/110/110 109/109/109
f 112/112/112 110/110/110 111/111/111
f 113/113/113 112/112/112 111/111/111
f 114/114/114 112/112/112 113/113/113
f 115/115/115 114/114/114 113/113/113
f 116/116/116 114/114/114 115/115/115
f 117/117/117 116/116/116 115/115/115
f 118/118/118 116/116/116 117/117/117
f 119/119/119 118/118/118 117/117/117
f 120/120/120 118/118/118 119/119/119
f 121/121/121 120/120/120 119/119/119
f 124/124/124 123/123/123 122/122/122
f 125/125/125 124/124/124 122/122/122
f 122/122/122 123/123/123 126/126/126
f 123/123/123 127/127/127 126/126/126
f 126/126/126 127/127/127 128/128/128
f 127/127/127 129/129/129 128/128/128
f 128/128/128 129/129/129 130/130/130
f 129/129/129 131/131/131 130/130/130
f 130/130/130 131/131/131 132/132/132
f 131/131/131 133/133/133 132/132/132
