# Export of Universe
# from Aaro4130 OBJ Exporter v2.0
mtllib 159.mtl
g JitterChamferCylinderSoft
v 0.209643 -1 -0.7824
v 0 -1 -0.81
v -0.209643 -1 -0.7824
v 0.405 -1 -0.701481
v -0.405 -1 -0.701481
v 0.572756 -1 -0.572756
v -0.572756 -1 -0.572756
v 0.701481 -1 -0.405
v -0.701481 -1 -0.405
v 0.7824 -1 -0.209643
v -0.7824 -1 -0.209643
v 0.81 -1 0
v -0.81 -1 0
v 0.7824 -1 0.209643
v -0.7824 -1 0.209643
v 0.701481 -1 0.405
v -0.701481 -1 0.405
v 0.572756 -1 0.572756
v -0.572756 -1 0.572756
v 0.405 -1 0.701481
v -0.405 -1 0.701481
v 0.209643 -1 0.7824
v -0.209643 -1 0.7824
v 0 -1 0.81
v 1.06833 -0.827346 9.96128E-12
v 0.905271 -0.774869 -0.242566
v 0.983975 -0.807479 0.263655
v 0.917443 -0.823761 0.529686
v 0.2609 -0.803218 0.973693
v 0.486464 -0.789165 0.84258
v -0.262308 -0.805394 0.978945
v 1.09397E-12 -0.796997 0.992496
v -0.737492 -0.817198 0.737492
v -0.453927 -0.763121 0.786224
v -0.924137 -0.826855 0.533551
v -0.209643 1 -0.7824
v 0 1 -0.81
v 0.209643 1 -0.7824
v -0.405 1 -0.701481
v 0.405 1 -0.701481
v -0.572756 1 -0.572756
v 0.572756 1 -0.572756
v -0.701481 1 -0.405
v 0.701481 1 -0.405
v -0.7824 1 -0.209643
v 0.7824 1 -0.209643
v -0.81 1 0
v 0.81 1 0
v -0.7824 1 0.209643
v 0.7824 1 0.209643
v -0.701481 1 0.405
v 0.701481 1 0.405
v -0.572756 1 0.572756
v 0.572756 1 0.572756
v -0.405 1 0.701481
v 0.405 1 0.701481
v -0.209643 1 0.7824
v 0.209643 1 0.7824
v 0 1 0.81
v 0.871656 0.802602 -0.503251
v 0.878662 0.763844 -0.235437
v 0.945289 0.83663 0.545763
v 0.69224 0.791585 0.69224
v 0.49064 0.792508 0.849813
v -0.907823 0.819316 0.524132
v -0.674982 0.781818 0.674982
v -0.99115 0.810451 0.265578
v 0.762048 0.831096 -0.762048
v 0.488797 0.791033 -0.846621
v 0.282423 0.8365 -1.05402
v 0.81 1 0
v 0.7824 1 -0.209643
v 0.878662 0.763844 -0.235437
v 0.909866 0.763927 1.31404E-11
v 0.7824 1 0.209643
v 0.912142 0.777716 0.244408
v 0.701481 1 0.405
v 0.945289 0.83663 0.545763
v 0.905271 -0.774869 -0.242566
v 1.06833 -0.827346 9.96128E-12
v 0.983975 -0.807479 0.263655
v 0.929319 -0.82925 -0.536543
v 0.871656 0.802602 -0.503251
v 0.701481 -1 -0.405
v 0.7824 -1 -0.209643
v 0.917443 -0.823761 0.529686
v 0.70901 -0.801077 -0.70901
v 0.762048 0.831096 -0.762048
v 0.209643 1 0.7824
v 0.405 1 0.701481
v 0.49064 0.792508 0.849813
v 0.258072 0.798845 0.963137
v 0 1 0.81
v 0 0.778689 0.94675
v -0.235134 0.763376 0.877533
v -0.209643 1 0.7824
v -0.467992 0.77438 0.810586
v -0.405 1 0.701481
v -0.674982 0.781818 0.674982
v -0.572756 1 0.572756
v 0.486464 -0.789165 0.84258
v 0.650377 -0.767891 0.650377
v 0.69224 0.791585 0.69224
v 0.917443 -0.823761 0.529686
v 0.945289 0.83663 0.545763
v 0.572756 -1 0.572756
v 0.405 -1 0.701481
v 0.2609 -0.803218 0.973693
v 1.09397E-12 -0.796997 0.992496
v 0.209643 -1 0.7824
v 0 -1 0.81
v -0.453927 -0.763121 0.786224
v -0.737492 -0.817198 0.737492
v -0.907823 0.819316 0.524132
v -0.924137 -0.826855 0.533551
v -0.262308 -0.805394 0.978945
v -0.209643 -1 0.7824
v -0.405 -1 0.701481
v 0.209643 1 -0.7824
v 0 1 -0.81
v 0 0.778285 -0.945741
v 0.282423 0.8365 -1.05402
v -0.209643 1 -0.7824
v -0.262869 0.806263 -0.981042
v -3.13921E-12 -0.791382 -0.978467
v 0.238838 -0.769103 -0.891354
v 0.488797 0.791033 -0.846621
v 0.509738 -0.807795 -0.882892
v 0.762048 0.831096 -0.762048
v 0.70901 -0.801077 -0.70901
v 0 -1 -0.81
v 0.209643 -1 -0.7824
v -0.248625 -0.784238 -0.927883
v -0.209643 -1 -0.7824
v -0.501881 -0.801506 -0.869283
v -0.486498 0.789192 -0.842639
v -0.405 -1 -0.701481
v -0.405 1 -0.701481
v -0.572756 1 -0.572756
v -0.656631 0.771432 -0.656631
v -0.838588 0.78732 -0.484159
v -0.794242 -0.766827 -0.458556
v -0.748481 -0.823417 -0.748481
v -0.262869 0.806263 -0.981042
v -0.486498 0.789192 -0.842639
v -0.656631 0.771432 -0.656631
v -0.572756 1 -0.572756
v -0.701481 1 -0.405
v -0.838588 0.78732 -0.484159
v -0.7824 1 -0.209643
v -0.886991 0.767295 -0.237668
v -0.81 1 0
v -0.942411 0.776952 8.39569E-12
v -0.7824 1 0.209643
v -0.99115 0.810451 0.265578
v -0.9118 -0.777574 -0.244316
v -0.794242 -0.766827 -0.458556
v -0.7824 -1 -0.209643
v -0.701481 -1 -0.405
v -0.909002 -0.776415 0.243566
v -0.996086 -0.798433 5.70679E-13
v -0.7824 -1 0.209643
v -0.81 -1 0
v -0.924137 -0.826855 0.533551
v -0.907823 0.819316 0.524132
v -0.701481 -1 0.405
v 0.929319 -0.82925 -0.536543
v 0.70901 -0.801077 -0.70901
v 0.509738 -0.807795 -0.882892
v 0.238838 -0.769103 -0.891354
v 0.701481 -1 0.405
v 0.572756 -1 0.572756
v 0.650377 -0.767891 0.650377
v 0.917443 -0.823761 0.529686
v -0.486498 0.789192 -0.842639
v -0.748481 -0.823417 -0.748481
v -0.501881 -0.801506 -0.869283
v -0.501881 -0.801506 -0.869283
v -0.748481 -0.823417 -0.748481
v -0.794242 -0.766827 -0.458556
vn 0.08498038 -0.4000202 -0.4075482
vn 0.02434041 -0.3620829 -0.4490399
vn -0.07761599 -0.4615909 -0.3379984
vn 0.1107646 -0.5037785 -0.2593682
vn -0.08726097 -0.5264751 -0.2203244
vn 0.128125 -0.5423424 -0.1509373
vn -0.142251 -0.5490187 -0.1080575
vn 0.1421541 -0.5559925 -0.06322881
vn -0.1668821 -0.5489365 -0.06443921
vn 0.1470453 -0.556993 -0.03833821
vn -0.1496118 -0.5545824 -0.05820622
vn 0.1271644 -0.5629256 -0.01665353
vn -0.1473873 -0.5582203 0.0006235629
vn 0.1238893 -0.5628101 0.03506548
vn -0.1550042 -0.5555775 0.02531222
vn 0.1154083 -0.5579777 0.09314032
vn -0.1442106 -0.5564005 0.05436133
vn 0.1304067 -0.5375133 0.16555
vn -0.1043907 -0.5406054 0.1737289
vn 0.1604526 -0.5127944 0.2112586
vn -0.1467948 -0.4833535 0.2795604
vn 0.09205002 -0.4801096 0.3071724
vn -0.1439153 -0.4338723 0.3526706
vn 0.003204025 -0.4201492 0.3959769
vn 0.5739363 -0.02666769 -0.05673854
vn 0.5679705 -0.02918568 -0.09945357
vn 0.5717728 -0.04158192 0.0684112
vn 0.4843974 -0.05893263 0.3085766
vn 0.1419692 -0.04769963 0.5575866
vn 0.3347587 -0.04973329 0.4677569
vn -0.1965107 -0.03184006 0.5419438
vn -0.04103243 -0.03779701 0.5746486
vn -0.3027658 -0.04313373 0.4896995
vn -0.252566 -0.03087242 0.5182573
vn -0.5032858 -0.05559725 0.2773907
vn -0.08159093 0.4412366 -0.3632995
vn -0.04383895 0.4077176 -0.4064207
vn 0.05840546 0.5045297 -0.2745395
vn -0.1831037 0.4912624 -0.2418005
vn 0.1161358 0.5319318 -0.1920791
vn -0.1743646 0.5227787 -0.1721414
vn 0.1106461 0.5534402 -0.1216335
vn -0.1683912 0.5441934 -0.09397431
vn 0.1540605 0.554701 -0.04365178
vn -0.1682619 0.5509208 -0.03882614
vn 0.1666299 0.552333 -0.02227325
vn -0.1544189 0.5558334 -0.02317999
vn 0.1674742 0.5524725 -0.007735902
vn -0.1373365 0.5606078 0.01381719
vn 0.1646376 0.5533751 0.0019482
vn -0.1179958 0.5584093 0.08711698
vn 0.1354678 0.5570645 0.06827057
vn -0.1205888 0.539584 0.166255
vn 0.1233236 0.5373837 0.1712991
vn -0.1299394 0.4978733 0.2618612
vn 0.151942 0.4988424 0.2477967
vn -0.1103682 0.4117044 0.3894248
vn 0.08018018 0.4321507 0.3743664
vn -0.05708355 0.3401997 0.4629676
vn 0.5430856 0.05885663 -0.1868884
vn 0.5681288 0.05286858 -0.08813564
vn 0.4801645 0.05261099 0.3162395
vn 0.326051 0.04039491 0.474755
vn 0.3324601 0.04422247 0.4699446
vn -0.5053011 0.05974063 0.2728282
vn -0.3019964 0.05693327 0.4887638
vn -0.5724175 0.04672333 0.05906265
vn 0.3776967 0.05547859 -0.4331289
vn 0.2597338 0.0475755 -0.513428
vn 0.1142821 0.03691737 -0.5647212
vn 0.1674742 0.5524725 -0.007735902
vn 0.1666299 0.552333 -0.02227325
vn 0.5681288 0.05286858 -0.08813564
vn 0.5709341 0.06388143 -0.05733039
vn 0.1646376 0.5533751 0.0019482
vn 0.571565 0.06242458 0.05243982
vn 0.1354678 0.5570645 0.06827057
vn 0.4801645 0.05261099 0.3162395
vn 0.5679705 -0.02918568 -0.09945357
vn 0.5739363 -0.02666769 -0.05673854
vn 0.5717728 -0.04158192 0.0684112
vn 0.5437857 -0.04945017 -0.1875771
vn 0.5430856 0.05885663 -0.1868884
vn 0.1421541 -0.5559925 -0.06322881
vn 0.1470453 -0.556993 -0.03833821
vn 0.4843974 -0.05893263 0.3085766
vn 0.3761583 -0.06158365 -0.4336424
vn 0.3776967 0.05547859 -0.4331289
vn 0.08018018 0.4321507 0.3743664
vn 0.151942 0.4988424 0.2477967
vn 0.3324601 0.04422247 0.4699446
vn 0.1411237 0.05291408 0.5573307
vn -0.05708355 0.3401997 0.4629676
vn -0.04647872 0.05510397 0.572832
vn -0.1943433 0.0506181 0.5412964
vn -0.1103682 0.4117044 0.3894248
vn -0.2503517 0.0450177 0.5182961
vn -0.1299394 0.4978733 0.2618612
vn -0.3019964 0.05693327 0.4887638
vn -0.1205888 0.539584 0.166255
vn 0.3347587 -0.04973329 0.4677569
vn 0.3289106 -0.05196907 0.4716465
vn 0.326051 0.04039491 0.474755
vn 0.4843974 -0.05893263 0.3085766
vn 0.4801645 0.05261099 0.3162395
vn 0.1304067 -0.5375133 0.16555
vn 0.1604526 -0.5127944 0.2112586
vn 0.1419692 -0.04769963 0.5575866
vn -0.04103243 -0.03779701 0.5746486
vn 0.09205002 -0.4801096 0.3071724
vn 0.003204025 -0.4201492 0.3959769
vn -0.252566 -0.03087242 0.5182573
vn -0.3027658 -0.04313373 0.4896995
vn -0.5053011 0.05974063 0.2728282
vn -0.5032858 -0.05559725 0.2773907
vn -0.1965107 -0.03184006 0.5419438
vn -0.1439153 -0.4338723 0.3526706
vn -0.1467948 -0.4833535 0.2795604
vn 0.05840546 0.5045297 -0.2745395
vn -0.04383895 0.4077176 -0.4064207
vn -0.02309166 0.03883444 -0.5755796
vn 0.1142821 0.03691737 -0.5647212
vn -0.08159093 0.4412366 -0.3632995
vn -0.1232845 0.04634463 -0.5621267
vn -0.01367139 -0.05366088 -0.5746885
vn 0.1125543 -0.06115511 -0.5629609
vn 0.2597338 0.0475755 -0.513428
vn 0.2539834 -0.06043112 -0.5149503
vn 0.3776967 0.05547859 -0.4331289
vn 0.3761583 -0.06158365 -0.4336424
vn 0.02434041 -0.3620829 -0.4490399
vn 0.08498038 -0.4000202 -0.4075482
vn -0.1229076 -0.05017248 -0.5618806
vn -0.07761599 -0.4615909 -0.3379984
vn -0.2798132 -0.04413719 -0.5030804
vn -0.2873719 0.05567906 -0.497645
vn -0.08726097 -0.5264751 -0.2203244
vn -0.1831037 0.4912624 -0.2418005
vn -0.1743646 0.5227787 -0.1721414
vn -0.4365644 0.05761289 -0.3733974
vn -0.5263528 0.04332231 -0.233258
vn -0.5299591 -0.0362344 -0.2261939
vn -0.4382166 -0.03642923 -0.3741289
vn -0.1232845 0.04634463 -0.5621267
vn -0.2873719 0.05567906 -0.497645
vn -0.4365644 0.05761289 -0.3733974
vn -0.1743646 0.5227787 -0.1721414
vn -0.1683912 0.5441934 -0.09397431
vn -0.5263528 0.04332231 -0.233258
vn -0.1682619 0.5509208 -0.03882614
vn -0.5495411 0.03991234 -0.1724674
vn -0.1544189 0.5558334 -0.02317999
vn -0.572827 0.04523934 -0.0561782
vn -0.1373365 0.5606078 0.01381719
vn -0.5724175 0.04672333 0.05906265
vn -0.5472683 -0.03578063 -0.1804177
vn -0.5299591 -0.0362344 -0.2261939
vn -0.1496118 -0.5545824 -0.05820622
vn -0.1668821 -0.5489365 -0.06443921
vn -0.5715602 -0.05393464 0.06118268
vn -0.573515 -0.04209876 -0.05139607
vn -0.1550042 -0.5555775 0.02531222
vn -0.1473873 -0.5582203 0.0006235629
vn -0.5032858 -0.05559725 0.2773907
vn -0.5053011 0.05974063 0.2728282
vn -0.1442106 -0.5564005 0.05436133
vn 0.5437857 -0.04945017 -0.1875771
vn 0.3761583 -0.06158365 -0.4336424
vn 0.2539834 -0.06043112 -0.5149503
vn 0.1125543 -0.06115511 -0.5629609
vn 0.1154083 -0.5579777 0.09314032
vn 0.1304067 -0.5375133 0.16555
vn 0.3289106 -0.05196907 0.4716465
vn 0.4843974 -0.05893263 0.3085766
vn -0.2873719 0.05567906 -0.497645
vn -0.4382166 -0.03642923 -0.3741289
vn -0.2798132 -0.04413719 -0.5030804
vn -0.2798132 -0.04413719 -0.5030804
vn -0.4382166 -0.03642923 -0.3741289
vn -0.5299591 -0.0362344 -0.2261939
vt 0.584053 0.867277
vt 0.482503 0.880763
vt 0.380952 0.867277
vt 0.678684 0.827737
vt 0.286321 0.827737
vt 0.759945 0.764837
vt 0.20506 0.764837
vt 0.822299 0.682866
vt 0.142706 0.682866
vt 0.861496 0.587408
vt 0.103509 0.587408
vt 0.874865 0.484969
vt 0.0901398 0.484969
vt 0.861496 0.38253
vt 0.103509 0.38253
vt 0.822299 0.287071
vt 0.142706 0.287071
vt 0.759945 0.2051
vt 0.20506 0.2051
vt 0.678684 0.1422
vt 0.286321 0.1422
vt 0.584053 0.10266
vt 0.380952 0.10266
vt 0.482503 0.089174
vt 1 0.484969
vt 0.921014 0.603495
vt 0.959139 0.356137
vt 0.926911 0.226145
vt 0.608882 0.00918781
vt 0.718145 0.0732542
vt 0.355441 0.0066215
vt 0.482503 0
vt 0.125263 0.124604
vt 0.262621 0.100792
vt 0.034852 0.224257
vt 0.380952 0.867277
vt 0.482503 0.880763
vt 0.584053 0.867277
vt 0.286321 0.827737
vt 0.678684 0.827737
vt 0.20506 0.764837
vt 0.759945 0.764837
vt 0.142706 0.682866
vt 0.822299 0.682866
vt 0.103509 0.587408
vt 0.861496 0.587408
vt 0.0901398 0.484969
vt 0.874865 0.484969
vt 0.103509 0.38253
vt 0.861496 0.38253
vt 0.142706 0.287071
vt 0.822299 0.287071
vt 0.20506 0.2051
vt 0.759945 0.2051
vt 0.286321 0.1422
vt 0.678684 0.1422
vt 0.380952 0.10266
vt 0.584053 0.10266
vt 0.482503 0.089174
vt 0.904731 0.730875
vt 0.908125 0.600011
vt 0.940399 0.21829
vt 0.817823 0.146716
vt 0.720168 0.06972
vt 0.0427545 0.228859
vt 0.155542 0.155149
vt 0.00239098 0.355198
vt 0.851637 0.857332
vt 0.719275 0.898658
vt 0.619308 1
vt 0.484969 1
vt 0.587408 1
vt 0.600011 0.881922
vt 0.484969 0.881963
vt 0.38253 1
vt 0.365542 0.888858
vt 0.287071 1
vt 0.21829 0.918315
vt 0.603495 0.112565
vt 0.484969 0.086327
vt 0.356137 0.0962605
vt 0.747142 0.085375
vt 0.730875 0.901301
vt 0.682866 0
vt 0.587408 0
vt 0.226145 0.0881195
vt 0.831416 0.0994615
vt 0.857332 0.915548
vt 0.584053 1
vt 0.678684 1
vt 0.720168 0.896254
vt 0.607512 0.899423
vt 0.482503 1
vt 0.482503 0.889345
vt 0.368604 0.881688
vt 0.380952 1
vt 0.255808 0.88719
vt 0.286321 1
vt 0.155542 0.890909
vt 0.20506 1
vt 0.718145 0.105417
vt 0.797544 0.116055
vt 0.817823 0.895792
vt 0.926911 0.0881195
vt 0.940399 0.918315
vt 0.759945 0
vt 0.678684 0
vt 0.608882 0.098391
vt 0.482503 0.101501
vt 0.584053 0
vt 0.482503 0
vt 0.262621 0.118439
vt 0.125263 0.091401
vt 0.0427545 0.909658
vt 0.034852 0.0865725
vt 0.355441 0.097303
vt 0.380952 0
vt 0.286321 0
vt 0.584053 1
vt 0.482503 1
vt 0.482503 0.889143
vt 0.619308 0.91825
vt 0.380952 1
vt 0.355169 0.903131
vt 0.482503 0.104309
vt 0.598195 0.115449
vt 0.719275 0.895517
vt 0.729419 0.0961025
vt 0.851637 0.915548
vt 0.825946 0.0994615
vt 0.482503 0
vt 0.584053 0
vt 0.362069 0.107881
vt 0.380952 0
vt 0.239392 0.099247
vt 0.246844 0.894596
vt 0.286321 0
vt 0.286321 1
vt 0.20506 1
vt 0.164431 0.885716
vt 0.0762918 0.89366
vt 0.0977729 0.116587
vt 0.119939 0.0882915
vt 0.355169 0.96434
vt 0.246844 0.896712
vt 0.805822 0.885716
vt 0.764837 1
vt 0.682866 1
vt 0.721546 0.89366
vt 0.587408 1
vt 0.601102 0.883648
vt 0.484969 1
vt 0.484969 0.888476
vt 0.38253 1
vt 0.355198 0.905226
vt 0.60435 0.111213
vt 0.709035 0.116587
vt 0.587408 0
vt 0.682866 0
vt 0.365954 0.111793
vt 0.484969 0.100783
vt 0.38253 0
vt 0.484969 0
vt 0.224257 0.0865725
vt 0.228859 0.909658
vt 0.287071 0
vt 0.932663 0.747142
vt 0.825946 0.831416
vt 0.729419 0.916381
vt 0.598195 0.920516
vt 0.287071 0
vt 0.2051 0
vt 0.167171 0.116055
vt 0.226145 0.0881195
vt 0.896712 0.894596
vt 0.850703 0.0882915
vt 0.909731 0.099247
vt 0.239392 0.909731
vt 0.119939 0.850703
vt 0.0977729 0.709035
usemtl baseThingPartMaterial
f 3/3/3 2/2/2 1/1/1
f 1/1/1 4/4/4 3/3/3
f 4/4/4 5/5/5 3/3/3
f 4/4/4 6/6/6 5/5/5
f 6/6/6 7/7/7 5/5/5
f 6/6/6 8/8/8 7/7/7
f 8/8/8 9/9/9 7/7/7
f 8/8/8 10/10/10 9/9/9
f 10/10/10 11/11/11 9/9/9
f 10/10/10 12/12/12 11/11/11
f 12/12/12 13/13/13 11/11/11
f 12/12/12 14/14/14 13/13/13
f 14/14/14 15/15/15 13/13/13
f 14/14/14 16/16/16 15/15/15
f 16/16/16 17/17/17 15/15/15
f 16/16/16 18/18/18 17/17/17
f 18/18/18 19/19/19 17/17/17
f 18/18/18 20/20/20 19/19/19
f 20/20/20 21/21/21 19/19/19
f 20/20/20 22/22/22 21/21/21
f 22/22/22 23/23/23 21/21/21
f 22/22/22 24/24/24 23/23/23
f 25/25/25 12/12/12 10/10/10
f 26/26/26 25/25/25 10/10/10
f 27/27/27 14/14/14 12/12/12
f 25/25/25 27/27/27 12/12/12
f 28/28/28 16/16/16 14/14/14
f 27/27/27 28/28/28 14/14/14
f 29/29/29 22/22/22 20/20/20
f 30/30/30 29/29/29 20/20/20
f 31/31/31 23/23/23 24/24/24
f 32/32/32 31/31/31 24/24/24
f 33/33/33 19/19/19 21/21/21
f 34/34/34 33/33/33 21/21/21
f 33/33/33 35/35/35 19/19/19
f 35/35/35 17/17/17 19/19/19
f 38/38/38 37/37/37 36/36/36
f 36/36/36 39/39/39 38/38/38
f 39/39/39 40/40/40 38/38/38
f 39/39/39 41/41/41 40/40/40
f 41/41/41 42/42/42 40/40/40
f 41/41/41 43/43/43 42/42/42
f 43/43/43 44/44/44 42/42/42
f 43/43/43 45/45/45 44/44/44
f 45/45/45 46/46/46 44/44/44
f 45/45/45 47/47/47 46/46/46
f 47/47/47 48/48/48 46/46/46
f 47/47/47 49/49/49 48/48/48
f 49/49/49 50/50/50 48/48/48
f 49/49/49 51/51/51 50/50/50
f 51/51/51 52/52/52 50/50/50
f 51/51/51 53/53/53 52/52/52
f 53/53/53 54/54/54 52/52/52
f 53/53/53 55/55/55 54/54/54
f 55/55/55 56/56/56 54/54/54
f 55/55/55 57/57/57 56/56/56
f 57/57/57 58/58/58 56/56/56
f 57/57/57 59/59/59 58/58/58
f 60/60/60 44/44/44 46/46/46
f 61/61/61 60/60/60 46/46/46
f 62/62/62 52/52/52 54/54/54
f 63/63/63 62/62/62 54/54/54
f 63/63/63 54/54/54 56/56/56
f 64/64/64 63/63/63 56/56/56
f 53/53/53 51/51/51 65/65/65
f 66/66/66 53/53/53 65/65/65
f 65/65/65 51/51/51 67/67/67
f 51/51/51 49/49/49 67/67/67
f 60/60/60 68/68/68 44/44/44
f 68/68/68 42/42/42 44/44/44
f 68/68/68 69/69/69 42/42/42
f 69/69/69 40/40/40 42/42/42
f 69/69/69 70/70/70 40/40/40
f 70/70/70 38/38/38 40/40/40
f 73/73/73 72/72/72 71/71/71
f 74/74/74 73/73/73 71/71/71
f 74/74/74 71/71/71 75/75/75
f 76/76/76 74/74/74 75/75/75
f 76/76/76 75/75/75 77/77/77
f 78/78/78 76/76/76 77/77/77
f 79/79/79 73/73/73 74/74/74
f 80/80/80 79/79/79 74/74/74
f 80/80/80 74/74/74 76/76/76
f 81/81/81 80/80/80 76/76/76
f 81/81/81 76/76/76 78/78/78
f 79/79/79 82/82/82 73/73/73
f 82/82/82 83/83/83 73/73/73
f 82/82/82 79/79/79 84/84/84
f 79/79/79 85/85/85 84/84/84
f 86/86/86 81/81/81 78/78/78
f 82/82/82 87/87/87 83/83/83
f 87/87/87 88/88/88 83/83/83
f 91/91/91 90/90/90 89/89/89
f 92/92/92 91/91/91 89/89/89
f 92/92/92 89/89/89 93/93/93
f 94/94/94 92/92/92 93/93/93
f 94/94/94 93/93/93 95/95/95
f 93/93/93 96/96/96 95/95/95
f 95/95/95 96/96/96 97/97/97
f 96/96/96 98/98/98 97/97/97
f 97/97/97 98/98/98 99/99/99
f 98/98/98 100/100/100 99/99/99
f 101/101/101 91/91/91 92/92/92
f 101/101/101 102/102/102 91/91/91
f 102/102/102 103/103/103 91/91/91
f 102/102/102 104/104/104 103/103/103
f 104/104/104 105/105/105 103/103/103
f 102/102/102 101/101/101 106/106/106
f 101/101/101 107/107/107 106/106/106
f 108/108/108 101/101/101 92/92/92
f 108/108/108 92/92/92 94/94/94
f 109/109/109 108/108/108 94/94/94
f 108/108/108 109/109/109 110/110/110
f 109/109/109 111/111/111 110/110/110
f 112/112/112 97/97/97 99/99/99
f 113/113/113 112/112/112 99/99/99
f 113/113/113 99/99/99 114/114/114
f 115/115/115 113/113/113 114/114/114
f 109/109/109 94/94/94 95/95/95
f 116/116/116 109/109/109 95/95/95
f 116/116/116 95/95/95 97/97/97
f 112/112/112 116/116/116 97/97/97
f 116/116/116 112/112/112 117/117/117
f 112/112/112 118/118/118 117/117/117
f 121/121/121 120/120/120 119/119/119
f 122/122/122 121/121/121 119/119/119
f 123/123/123 120/120/120 121/121/121
f 124/124/124 123/123/123 121/121/121
f 125/125/125 121/121/121 122/122/122
f 126/126/126 125/125/125 122/122/122
f 126/126/126 122/122/122 127/127/127
f 128/128/128 126/126/126 127/127/127
f 128/128/128 127/127/127 129/129/129
f 130/130/130 128/128/128 129/129/129
f 125/125/125 126/126/126 131/131/131
f 126/126/126 132/132/132 131/131/131
f 133/133/133 124/124/124 121/121/121
f 125/125/125 133/133/133 121/121/121
f 125/125/125 131/131/131 134/134/134
f 133/133/133 125/125/125 134/134/134
f 133/133/133 135/135/135 124/124/124
f 135/135/135 136/136/136 124/124/124
f 133/133/133 134/134/134 137/137/137
f 135/135/135 133/133/133 137/137/137
f 139/139/139 138/138/138 136/136/136
f 140/140/140 139/139/139 136/136/136
f 142/142/142 141/141/141 140/140/140
f 143/143/143 142/142/142 140/140/140
f 39/39/39 36/36/36 144/144/144
f 145/145/145 39/39/39 144/144/144
f 148/148/148 147/147/147 146/146/146
f 149/149/149 148/148/148 146/146/146
f 150/150/150 148/148/148 149/149/149
f 151/151/151 150/150/150 149/149/149
f 152/152/152 150/150/150 151/151/151
f 153/153/153 152/152/152 151/151/151
f 154/154/154 152/152/152 153/153/153
f 155/155/155 154/154/154 153/153/153
f 156/156/156 151/151/151 149/149/149
f 157/157/157 156/156/156 149/149/149
f 156/156/156 157/157/157 158/158/158
f 157/157/157 159/159/159 158/158/158
f 160/160/160 155/155/155 153/153/153
f 161/161/161 160/160/160 153/153/153
f 161/161/161 153/153/153 151/151/151
f 156/156/156 161/161/161 151/151/151
f 160/160/160 161/161/161 162/162/162
f 161/161/161 163/163/163 162/162/162
f 156/156/156 158/158/158 163/163/163
f 161/161/161 156/156/156 163/163/163
f 160/160/160 164/164/164 155/155/155
f 164/164/164 165/165/165 155/155/155
f 160/160/160 162/162/162 166/166/166
f 164/164/164 160/160/160 166/166/166
f 167/167/167 8/8/8 6/6/6
f 168/168/168 167/167/167 6/6/6
f 168/168/168 6/6/6 4/4/4
f 169/169/169 168/168/168 4/4/4
f 169/169/169 4/4/4 1/1/1
f 170/170/170 169/169/169 1/1/1
f 173/173/173 172/172/172 171/171/171
f 174/174/174 173/173/173 171/171/171
f 176/176/176 146/146/146 175/175/175
f 177/177/177 176/176/176 175/175/175
f 178/178/178 5/5/5 7/7/7
f 179/179/179 178/178/178 7/7/7
f 179/179/179 7/7/7 9/9/9
f 180/180/180 179/179/179 9/9/9
