# Export of Universe
# from Aaro4130 OBJ Exporter v2.0
mtllib 164.mtl
g GearVariantSoft
v -0.20989 1.07979 1.01375
v -0.236838 0.971549 1.01375
v -0.236838 0.971549 -1.01375
v -0.20989 1.07979 -1.01375
v 0.219304 1.07792 -1.01375
v 0.219304 1.07792 1.01375
v -0.20989 1.07979 1.01375
v -0.20989 1.07979 -1.01375
v 0.245307 0.969445 -1.01375
v 0.245307 0.969445 1.01375
v 0.219304 1.07792 1.01375
v 0.219304 1.07792 -1.01375
v 0.519519 0.854459 -1.01375
v 0.519519 0.854459 1.01375
v 0.245307 0.969445 1.01375
v 0.245307 0.969445 -1.01375
v 0.615112 0.911941 1.01375
v 0.615112 0.911941 -1.01375
v 0.917277 0.607131 -1.01375
v 0.917277 0.607131 1.01375
v 0.615112 0.911941 1.01375
v 0.615112 0.911941 -1.01375
v 0.85896 0.512043 -1.01375
v 0.85896 0.512043 1.01375
v 0.971549 0.236838 -1.01375
v 0.971549 0.236838 1.01375
v 1.07979 0.20989 -1.01375
v 1.07979 0.20989 1.01375
v 0.971549 0.236838 1.01375
v 0.971549 0.236838 -1.01375
v 1.07792 -0.219304 -1.01375
v 1.07792 -0.219304 1.01375
v 1.07979 0.20989 1.01375
v 1.07979 0.20989 -1.01375
v 0.969445 -0.245307 -1.01375
v 0.969445 -0.245307 1.01375
v 1.07792 -0.219304 1.01375
v 1.07792 -0.219304 -1.01375
v 0.854459 -0.519519 -1.01375
v 0.854459 -0.519519 1.01375
v 0.969445 -0.245307 1.01375
v 0.969445 -0.245307 -1.01375
v 0.911941 -0.615112 -1.01375
v 0.911941 -0.615112 1.01375
v 0.607131 -0.917277 -1.01375
v 0.607131 -0.917277 1.01375
v 0.911941 -0.615112 1.01375
v 0.911941 -0.615112 -1.01375
v 0.512043 -0.85896 1.01375
v 0.512043 -0.85896 -1.01375
v 0.236838 -0.971549 -1.01375
v 0.236838 -0.971549 1.01375
v 0.20989 -1.07979 -1.01375
v 0.20989 -1.07979 1.01375
v 0.236838 -0.971549 1.01375
v 0.236838 -0.971549 -1.01375
v -0.219304 -1.07792 1.01375
v 0.20989 -1.07979 1.01375
v 0.20989 -1.07979 -1.01375
v -0.219304 -1.07792 -1.01375
v -0.245307 -0.969445 1.01375
v -0.219304 -1.07792 1.01375
v -0.219304 -1.07792 -1.01375
v -0.245307 -0.969445 -1.01375
v -0.519519 -0.854459 1.01375
v -0.245307 -0.969445 1.01375
v -0.245307 -0.969445 -1.01375
v -0.519519 -0.854459 -1.01375
v -0.615112 -0.911941 -1.01375
v -0.615112 -0.911941 1.01375
v -0.917277 -0.607131 1.01375
v -0.615112 -0.911941 1.01375
v -0.615112 -0.911941 -1.01375
v -0.917277 -0.607131 -1.01375
v -0.85896 -0.512043 1.01375
v -0.85896 -0.512043 -1.01375
v -0.971549 -0.236838 1.01375
v -0.971549 -0.236838 -1.01375
v -1.07979 -0.20989 1.01375
v -0.971549 -0.236838 1.01375
v -0.971549 -0.236838 -1.01375
v -1.07979 -0.20989 -1.01375
v -1.07792 0.219304 1.01375
v -1.07979 -0.20989 1.01375
v -1.07979 -0.20989 -1.01375
v -1.07792 0.219304 -1.01375
v -0.969445 0.245307 1.01375
v -1.07792 0.219304 1.01375
v -1.07792 0.219304 -1.01375
v -0.969445 0.245307 -1.01375
v -0.854459 0.519519 1.01375
v -0.969445 0.245307 1.01375
v -0.969445 0.245307 -1.01375
v -0.854459 0.519519 -1.01375
v -0.911941 0.615112 1.01375
v -0.911941 0.615112 -1.01375
v -0.607131 0.917277 1.01375
v -0.911941 0.615112 1.01375
v -0.911941 0.615112 -1.01375
v -0.607131 0.917277 -1.01375
v -0.512043 0.85896 -1.01375
v -0.512043 0.85896 1.01375
v -0.236838 0.971549 1.01375
v -0.236838 0.971549 -1.01375
v 0.615112 0.911941 1.01375
v 0.917277 0.607131 1.01375
v 0.85896 0.512043 1.01375
v 0.854459 -0.519519 1.01375
v 0.969445 -0.245307 1.01375
v 0.971549 0.236838 1.01375
v 1.07792 -0.219304 1.01375
v 1.07979 0.20989 1.01375
v 0.607131 -0.917277 1.01375
v 0.911941 -0.615112 1.01375
v 0.519519 0.854459 1.01375
v 0.512043 -0.85896 1.01375
v 0.245307 0.969445 1.01375
v 0.236838 -0.971549 1.01375
v 0.219304 1.07792 1.01375
v 0.20989 -1.07979 1.01375
v -0.20989 1.07979 1.01375
v -0.219304 -1.07792 1.01375
v -0.236838 0.971549 1.01375
v -0.245307 -0.969445 1.01375
v -0.512043 0.85896 1.01375
v -0.519519 -0.854459 1.01375
v -0.607131 0.917277 1.01375
v -0.615112 -0.911941 1.01375
v -0.854459 0.519519 1.01375
v -0.911941 0.615112 1.01375
v -0.85896 -0.512043 1.01375
v -0.969445 0.245307 1.01375
v -0.971549 -0.236838 1.01375
v -1.07792 0.219304 1.01375
v -1.07979 -0.20989 1.01375
v -0.917277 -0.607131 1.01375
v 1.07792 -0.219304 -1.01375
v 1.07979 0.20989 -1.01375
v 0.971549 0.236838 -1.01375
v 0.969445 -0.245307 -1.01375
v 0.85896 0.512043 -1.01375
v 0.854459 -0.519519 -1.01375
v 0.615112 0.911941 -1.01375
v 0.607131 -0.917277 -1.01375
v 0.911941 -0.615112 -1.01375
v 0.519519 0.854459 -1.01375
v 0.512043 -0.85896 -1.01375
v 0.245307 0.969445 -1.01375
v 0.236838 -0.971549 -1.01375
v 0.219304 1.07792 -1.01375
v 0.20989 -1.07979 -1.01375
v -0.20989 1.07979 -1.01375
v -0.219304 -1.07792 -1.01375
v -0.236838 0.971549 -1.01375
v -0.245307 -0.969445 -1.01375
v -0.512043 0.85896 -1.01375
v -0.519519 -0.854459 -1.01375
v -0.607131 0.917277 -1.01375
v -0.615112 -0.911941 -1.01375
v -0.854459 0.519519 -1.01375
v -0.911941 0.615112 -1.01375
v -0.85896 -0.512043 -1.01375
v -0.917277 -0.607131 -1.01375
v -0.969445 0.245307 -1.01375
v -0.971549 -0.236838 -1.01375
v -1.07792 0.219304 -1.01375
v -1.07979 -0.20989 -1.01375
v 0.917277 0.607131 -1.01375
vn -0.117641 0.5044702 0.2549583
vn -0.3232191 0.442248 0.1824265
vn -0.3232191 0.442248 -0.1824265
vn -0.117641 0.5044702 -0.2549583
vn 0.1220573 0.5035127 -0.2547749
vn 0.1220573 0.5035127 0.254775
vn -0.117641 0.5044702 0.2549583
vn -0.117641 0.5044702 -0.2549583
vn 0.3302727 0.4437142 -0.1654418
vn 0.3302727 0.4437142 0.1654418
vn 0.1220573 0.5035127 0.254775
vn 0.1220573 0.5035127 -0.2547749
vn 0.07798184 0.5014969 -0.2752326
vn 0.07798184 0.5014969 0.2752326
vn 0.3302727 0.4437142 0.1654418
vn 0.3302727 0.4437142 -0.1654418
vn 0.3026387 0.4867098 0.06968974
vn 0.3026387 0.4867098 -0.06968974
vn 0.492739 0.3004601 -0.01628776
vn 0.492739 0.3004601 0.01628776
vn 0.3026387 0.4867098 0.06968974
vn 0.3026387 0.4867098 -0.06968974
vn 0.5456945 0.07997975 -0.1707456
vn 0.5456945 0.07997975 0.1707456
vn 0.4642604 0.339307 -0.05163707
vn 0.4642604 0.339307 0.05163707
vn 0.5620406 0.1310662 -0.01628762
vn 0.5620406 0.1310662 0.01628763
vn 0.4642604 0.339307 0.05163707
vn 0.4642604 0.339307 -0.05163707
vn 0.5608257 -0.1359506 -0.01803665
vn 0.5608257 -0.1359506 0.01803665
vn 0.5620406 0.1310662 0.01628763
vn 0.5620406 0.1310662 -0.01628762
vn 0.4572752 -0.3403666 -0.09155975
vn 0.4572752 -0.3403666 0.09155975
vn 0.5608257 -0.1359506 0.01803665
vn 0.5608257 -0.1359506 -0.01803665
vn 0.5072245 -0.07887249 -0.2642644
vn 0.5072245 -0.07887249 0.2642644
vn 0.4572752 -0.3403666 0.09155975
vn 0.4572752 -0.3403666 -0.09155975
vn 0.4900996 -0.3047465 -0.01628759
vn 0.4900996 -0.3047465 0.01628759
vn 0.2975496 -0.4879659 -0.08177259
vn 0.2975496 -0.4879659 0.08177259
vn 0.4900996 -0.3047465 0.01628759
vn 0.4900996 -0.3047465 -0.01628759
vn 0.07241413 -0.4940749 0.2897921
vn 0.07241413 -0.4940749 -0.2897921
vn 0.3232191 -0.442248 -0.1824265
vn 0.3232191 -0.442248 0.1824265
vn 0.117641 -0.5044702 -0.2549583
vn 0.117641 -0.5044702 0.2549583
vn 0.3232191 -0.442248 0.1824265
vn 0.3232191 -0.442248 -0.1824265
vn -0.1220573 -0.5035127 0.2547749
vn 0.117641 -0.5044702 0.2549583
vn 0.117641 -0.5044702 -0.2549583
vn -0.1220573 -0.5035127 -0.2547749
vn -0.3302727 -0.4437142 0.1654418
vn -0.1220573 -0.5035127 0.2547749
vn -0.1220573 -0.5035127 -0.2547749
vn -0.3302727 -0.4437142 -0.1654418
vn -0.07798186 -0.5014969 0.2752326
vn -0.3302727 -0.4437142 0.1654418
vn -0.3302727 -0.4437142 -0.1654418
vn -0.07798184 -0.5014969 -0.2752326
vn -0.3026387 -0.4867098 -0.06968974
vn -0.3026387 -0.4867098 0.06968975
vn -0.492739 -0.3004601 0.01628776
vn -0.3026387 -0.4867098 0.06968975
vn -0.3026387 -0.4867098 -0.06968974
vn -0.492739 -0.3004601 -0.01628776
vn -0.5456945 -0.07997975 0.1707457
vn -0.5456945 -0.07997975 -0.1707456
vn -0.4642604 -0.339307 0.05163707
vn -0.4642604 -0.339307 -0.05163707
vn -0.5620406 -0.1310662 0.01628763
vn -0.4642604 -0.339307 0.05163707
vn -0.4642604 -0.339307 -0.05163707
vn -0.5620406 -0.1310662 -0.01628762
vn -0.5608257 0.1359506 0.01803665
vn -0.5620406 -0.1310662 0.01628763
vn -0.5620406 -0.1310662 -0.01628762
vn -0.5608257 0.1359506 -0.01803665
vn -0.4572752 0.3403666 0.09155975
vn -0.5608257 0.1359506 0.01803665
vn -0.5608257 0.1359506 -0.01803665
vn -0.4572752 0.3403666 -0.09155975
vn -0.5072245 0.07887249 0.2642645
vn -0.4572752 0.3403666 0.09155975
vn -0.4572752 0.3403666 -0.09155975
vn -0.5072245 0.07887249 -0.2642644
vn -0.4900996 0.3047465 0.01628759
vn -0.4900996 0.3047465 -0.01628759
vn -0.2975496 0.4879659 0.08177259
vn -0.4900996 0.3047465 0.01628759
vn -0.4900996 0.3047465 -0.01628759
vn -0.2975496 0.4879659 -0.0817726
vn -0.07241413 0.4940749 -0.2897921
vn -0.07241413 0.4940749 0.2897921
vn -0.3232191 0.442248 0.1824265
vn -0.3232191 0.442248 -0.1824265
vn 0.3026387 0.4867098 0.06968974
vn 0.492739 0.3004601 0.01628776
vn 0.5456945 0.07997975 0.1707456
vn 0.5072245 -0.07887249 0.2642644
vn 0.4572752 -0.3403666 0.09155975
vn 0.4642604 0.339307 0.05163707
vn 0.5608257 -0.1359506 0.01803665
vn 0.5620406 0.1310662 0.01628763
vn 0.2975496 -0.4879659 0.08177259
vn 0.4900996 -0.3047465 0.01628759
vn 0.07798184 0.5014969 0.2752326
vn 0.07241413 -0.4940749 0.2897921
vn 0.3302727 0.4437142 0.1654418
vn 0.3232191 -0.442248 0.1824265
vn 0.1220573 0.5035127 0.254775
vn 0.117641 -0.5044702 0.2549583
vn -0.117641 0.5044702 0.2549583
vn -0.1220573 -0.5035127 0.2547749
vn -0.3232191 0.442248 0.1824265
vn -0.3302727 -0.4437142 0.1654418
vn -0.07241413 0.4940749 0.2897921
vn -0.07798186 -0.5014969 0.2752326
vn -0.2975496 0.4879659 0.08177259
vn -0.3026387 -0.4867098 0.06968975
vn -0.5072245 0.07887249 0.2642645
vn -0.4900996 0.3047465 0.01628759
vn -0.5456945 -0.07997975 0.1707457
vn -0.4572752 0.3403666 0.09155975
vn -0.4642604 -0.339307 0.05163707
vn -0.5608257 0.1359506 0.01803665
vn -0.5620406 -0.1310662 0.01628763
vn -0.492739 -0.3004601 0.01628776
vn 0.5608257 -0.1359506 -0.01803665
vn 0.5620406 0.1310662 -0.01628762
vn 0.4642604 0.339307 -0.05163707
vn 0.4572752 -0.3403666 -0.09155975
vn 0.5456945 0.07997975 -0.1707456
vn 0.5072245 -0.07887249 -0.2642644
vn 0.3026387 0.4867098 -0.06968974
vn 0.2975496 -0.4879659 -0.08177259
vn 0.4900996 -0.3047465 -0.01628759
vn 0.07798184 0.5014969 -0.2752326
vn 0.07241413 -0.4940749 -0.2897921
vn 0.3302727 0.4437142 -0.1654418
vn 0.3232191 -0.442248 -0.1824265
vn 0.1220573 0.5035127 -0.2547749
vn 0.117641 -0.5044702 -0.2549583
vn -0.117641 0.5044702 -0.2549583
vn -0.1220573 -0.5035127 -0.2547749
vn -0.3232191 0.442248 -0.1824265
vn -0.3302727 -0.4437142 -0.1654418
vn -0.07241413 0.4940749 -0.2897921
vn -0.07798184 -0.5014969 -0.2752326
vn -0.2975496 0.4879659 -0.0817726
vn -0.3026387 -0.4867098 -0.06968974
vn -0.5072245 0.07887249 -0.2642644
vn -0.4900996 0.3047465 -0.01628759
vn -0.5456945 -0.07997975 -0.1707456
vn -0.492739 -0.3004601 -0.01628776
vn -0.4572752 0.3403666 -0.09155975
vn -0.4642604 -0.339307 -0.05163707
vn -0.5608257 0.1359506 -0.01803665
vn -0.5620406 -0.1310662 -0.01628762
vn 0.492739 0.3004601 -0.01628776
vt 0 1
vt 0 0.949879
vt 1 0.949879
vt 1 1
vt 0.601549 1
vt 0.601549 0
vt 0.40281 0
vt 0.40281 1
vt 1 0.948904
vt 0 0.948904
vt 0 0.999134
vt 1 0.999134
vt 0.740565 1
vt 0.740565 0
vt 0.61359 0
vt 0.61359 1
vt 0.784829 0
vt 0.784829 1
vt 1 0.781134
vt 0 0.781134
vt 0 0.922277
vt 1 0.922277
vt 1 0.737103
vt 0 0.737103
vt 1 0.609669
vt 0 0.609669
vt 1 1
vt 1 0
vt 0.949879 0
vt 0.949879 1
vt 1 0.398451
vt 0 0.398451
vt 0 0.59719
vt 1 0.59719
vt 0.948904 1
vt 0.948904 0
vt 0.999134 0
vt 0.999134 1
vt 1 0.259435
vt 0 0.259435
vt 0 0.38641
vt 1 0.38641
vt 1 0.215171
vt 0 0.215171
vt 0.781134 1
vt 0.781134 0
vt 0.922277 0
vt 0.922277 1
vt 0.737103 0
vt 0.737103 1
vt 0.609669 1
vt 0.609669 0
vt 1 0
vt 0 0
vt 0 0.0501213
vt 1 0.0501213
vt 0.398451 0
vt 0.59719 0
vt 0.59719 1
vt 0.398451 1
vt 0 0.0510956
vt 0 0.000865926
vt 1 0.000865926
vt 1 0.0510956
vt 0.259435 0
vt 0.38641 0
vt 0.38641 1
vt 0.259435 1
vt 0.215171 1
vt 0.215171 0
vt 0 0.218866
vt 0 0.077723
vt 1 0.077723
vt 1 0.218866
vt 0 0.262897
vt 1 0.262897
vt 0 0.390331
vt 1 0.390331
vt 0 0
vt 0.0501213 0
vt 0.0501213 1
vt 0 1
vt 0 0.601549
vt 0 0.40281
vt 1 0.40281
vt 1 0.601549
vt 0.0510956 0
vt 0.000865926 0
vt 0.000865926 1
vt 0.0510956 1
vt 0 0.740565
vt 0 0.61359
vt 1 0.61359
vt 1 0.740565
vt 0 0.784829
vt 1 0.784829
vt 0.218866 0
vt 0.077723 0
vt 0.077723 1
vt 0.218866 1
vt 0.262897 1
vt 0.262897 0
vt 0.390331 0
vt 0.390331 1
vt 0.784829 0.922277
vt 0.924748 0.781134
vt 0.897744 0.737103
vt 0.89566 0.259435
vt 0.948904 0.38641
vt 0.949879 0.609669
vt 0.999134 0.398451
vt 1 0.59719
vt 0.781134 0.0752521
vt 0.922277 0.215171
vt 0.740565 0.89566
vt 0.737103 0.102256
vt 0.61359 0.948904
vt 0.609669 0.0501213
vt 0.601549 0.999134
vt 0.59719 0
vt 0.40281 1
vt 0.398451 0.000865926
vt 0.390331 0.949879
vt 0.38641 0.0510956
vt 0.262897 0.897744
vt 0.259435 0.10434
vt 0.218866 0.924748
vt 0.215171 0.077723
vt 0.10434 0.740565
vt 0.077723 0.784829
vt 0.102256 0.262897
vt 0.0510956 0.61359
vt 0.0501213 0.390331
vt 0.000865926 0.601549
vt 0 0.40281
vt 0.0752521 0.218866
vt 0.999134 0.398451
vt 1 0.59719
vt 0.949879 0.609669
vt 0.948904 0.38641
vt 0.897744 0.737103
vt 0.89566 0.259435
vt 0.784829 0.922277
vt 0.781134 0.0752521
vt 0.922277 0.215171
vt 0.740565 0.89566
vt 0.737103 0.102256
vt 0.61359 0.948904
vt 0.609669 0.0501213
vt 0.601549 0.999134
vt 0.59719 0
vt 0.40281 1
vt 0.398451 0.000865926
vt 0.390331 0.949879
vt 0.38641 0.0510956
vt 0.262897 0.897744
vt 0.259435 0.10434
vt 0.218866 0.924748
vt 0.215171 0.077723
vt 0.10434 0.740565
vt 0.077723 0.784829
vt 0.102256 0.262897
vt 0.0752521 0.218866
vt 0.0510956 0.61359
vt 0.0501213 0.390331
vt 0.000865926 0.601549
vt 0 0.40281
vt 0.924748 0.781134
usemtl baseThingPartMaterial
f 3/3/3 2/2/2 1/1/1
f 4/4/4 3/3/3 1/1/1
f 7/7/7 6/6/6 5/5/5
f 8/8/8 7/7/7 5/5/5
f 11/11/11 10/10/10 9/9/9
f 12/12/12 11/11/11 9/9/9
f 15/15/15 14/14/14 13/13/13
f 16/16/16 15/15/15 13/13/13
f 13/13/13 14/14/14 17/17/17
f 18/18/18 13/13/13 17/17/17
f 21/21/21 20/20/20 19/19/19
f 22/22/22 21/21/21 19/19/19
f 19/19/19 20/20/20 23/23/23
f 20/20/20 24/24/24 23/23/23
f 23/23/23 24/24/24 25/25/25
f 24/24/24 26/26/26 25/25/25
f 29/29/29 28/28/28 27/27/27
f 30/30/30 29/29/29 27/27/27
f 33/33/33 32/32/32 31/31/31
f 34/34/34 33/33/33 31/31/31
f 37/37/37 36/36/36 35/35/35
f 38/38/38 37/37/37 35/35/35
f 41/41/41 40/40/40 39/39/39
f 42/42/42 41/41/41 39/39/39
f 39/39/39 40/40/40 43/43/43
f 40/40/40 44/44/44 43/43/43
f 47/47/47 46/46/46 45/45/45
f 48/48/48 47/47/47 45/45/45
f 45/45/45 46/46/46 49/49/49
f 50/50/50 45/45/45 49/49/49
f 50/50/50 49/49/49 51/51/51
f 49/49/49 52/52/52 51/51/51
f 55/55/55 54/54/54 53/53/53
f 56/56/56 55/55/55 53/53/53
f 59/59/59 58/58/58 57/57/57
f 60/60/60 59/59/59 57/57/57
f 63/63/63 62/62/62 61/61/61
f 64/64/64 63/63/63 61/61/61
f 67/67/67 66/66/66 65/65/65
f 68/68/68 67/67/67 65/65/65
f 68/68/68 65/65/65 69/69/69
f 65/65/65 70/70/70 69/69/69
f 73/73/73 72/72/72 71/71/71
f 74/74/74 73/73/73 71/71/71
f 74/74/74 71/71/71 75/75/75
f 76/76/76 74/74/74 75/75/75
f 76/76/76 75/75/75 77/77/77
f 78/78/78 76/76/76 77/77/77
f 81/81/81 80/80/80 79/79/79
f 82/82/82 81/81/81 79/79/79
f 85/85/85 84/84/84 83/83/83
f 86/86/86 85/85/85 83/83/83
f 89/89/89 88/88/88 87/87/87
f 90/90/90 89/89/89 87/87/87
f 93/93/93 92/92/92 91/91/91
f 94/94/94 93/93/93 91/91/91
f 94/94/94 91/91/91 95/95/95
f 96/96/96 94/94/94 95/95/95
f 99/99/99 98/98/98 97/97/97
f 100/100/100 99/99/99 97/97/97
f 100/100/100 97/97/97 101/101/101
f 97/97/97 102/102/102 101/101/101
f 101/101/101 102/102/102 103/103/103
f 104/104/104 101/101/101 103/103/103
f 107/107/107 106/106/106 105/105/105
f 105/105/105 108/108/108 107/107/107
f 107/107/107 108/108/108 109/109/109
f 110/110/110 107/107/107 109/109/109
f 110/110/110 109/109/109 111/111/111
f 111/111/111 112/112/112 110/110/110
f 108/108/108 105/105/105 113/113/113
f 113/113/113 114/114/114 108/108/108
f 105/105/105 115/115/115 113/113/113
f 115/115/115 116/116/116 113/113/113
f 115/115/115 117/117/117 116/116/116
f 117/117/117 118/118/118 116/116/116
f 117/117/117 119/119/119 118/118/118
f 119/119/119 120/120/120 118/118/118
f 119/119/119 121/121/121 120/120/120
f 121/121/121 122/122/122 120/120/120
f 121/121/121 123/123/123 122/122/122
f 123/123/123 124/124/124 122/122/122
f 123/123/123 125/125/125 124/124/124
f 125/125/125 126/126/126 124/124/124
f 125/125/125 127/127/127 126/126/126
f 127/127/127 128/128/128 126/126/126
f 127/127/127 129/129/129 128/128/128
f 127/127/127 130/130/130 129/129/129
f 128/128/128 129/129/129 131/131/131
f 131/131/131 129/129/129 132/132/132
f 132/132/132 133/133/133 131/131/131
f 132/132/132 134/134/134 133/133/133
f 134/134/134 135/135/135 133/133/133
f 131/131/131 136/136/136 128/128/128
f 139/139/139 138/138/138 137/137/137
f 137/137/137 140/140/140 139/139/139
f 140/140/140 141/141/141 139/139/139
f 140/140/140 142/142/142 141/141/141
f 141/141/141 142/142/142 143/143/143
f 144/144/144 143/143/143 142/142/142
f 142/142/142 145/145/145 144/144/144
f 144/144/144 146/146/146 143/143/143
f 144/144/144 147/147/147 146/146/146
f 147/147/147 148/148/148 146/146/146
f 147/147/147 149/149/149 148/148/148
f 149/149/149 150/150/150 148/148/148
f 149/149/149 151/151/151 150/150/150
f 151/151/151 152/152/152 150/150/150
f 151/151/151 153/153/153 152/152/152
f 153/153/153 154/154/154 152/152/152
f 153/153/153 155/155/155 154/154/154
f 155/155/155 156/156/156 154/154/154
f 155/155/155 157/157/157 156/156/156
f 157/157/157 158/158/158 156/156/156
f 157/157/157 159/159/159 158/158/158
f 159/159/159 160/160/160 158/158/158
f 160/160/160 161/161/161 158/158/158
f 162/162/162 160/160/160 159/159/159
f 159/159/159 163/163/163 162/162/162
f 164/164/164 160/160/160 162/162/162
f 162/162/162 165/165/165 164/164/164
f 165/165/165 166/166/166 164/164/164
f 165/165/165 167/167/167 166/166/166
f 143/143/143 168/168/168 141/141/141
