# Export of Universe
# from Aaro4130 OBJ Exporter v2.0
mtllib 165.mtl
g GearVariant2Soft
v -0.419559 1.01845 0.98625
v -0.467692 0.886359 0.98625
v -0.467692 0.886359 -0.98625
v -0.419559 1.01845 -0.98625
v 0.422312 1.0111 -0.98625
v 0.422312 1.0111 0.98625
v -0.419559 1.01845 0.98625
v -0.419559 1.01845 -0.98625
v 0.468132 0.878192 -0.98625
v 0.468132 0.878192 0.98625
v 0.422312 1.0111 0.98625
v 0.422312 1.0111 -0.98625
v 0.880323 0.458743 -0.98625
v 0.880323 0.458743 0.98625
v 1.01241 0.410611 -0.98625
v 1.01241 0.410611 0.98625
v 0.880323 0.458743 0.98625
v 0.880323 0.458743 -0.98625
v 1.00506 -0.431261 -0.98625
v 1.00506 -0.431261 0.98625
v 1.01241 0.410611 0.98625
v 1.01241 0.410611 -0.98625
v 0.872156 -0.477081 0.98625
v 1.00506 -0.431261 0.98625
v 1.00506 -0.431261 -0.98625
v 0.872156 -0.477081 -0.98625
v 0.452708 -0.889272 -0.98625
v 0.452708 -0.889272 0.98625
v 0.404575 -1.02136 -0.98625
v 0.404575 -1.02136 0.98625
v 0.452708 -0.889272 0.98625
v 0.452708 -0.889272 -0.98625
v -0.437296 -1.01401 0.98625
v 0.404575 -1.02136 0.98625
v 0.404575 -1.02136 -0.98625
v -0.437296 -1.01401 -0.98625
v -0.483116 -0.881105 0.98625
v -0.437296 -1.01401 0.98625
v -0.437296 -1.01401 -0.98625
v -0.483116 -0.881105 -0.98625
v -0.895307 -0.461656 0.98625
v -0.895307 -0.461656 -0.98625
v -1.02739 -0.413524 0.98625
v -0.895307 -0.461656 0.98625
v -0.895307 -0.461656 -0.98625
v -1.02739 -0.413524 -0.98625
v -1.02005 0.428348 0.98625
v -1.02739 -0.413524 0.98625
v -1.02739 -0.413524 -0.98625
v -1.02005 0.428348 -0.98625
v -0.887141 0.474168 -0.98625
v -0.887141 0.474168 0.98625
v -1.02005 0.428348 0.98625
v -1.02005 0.428348 -0.98625
v -0.467692 0.886359 0.98625
v -0.467692 0.886359 -0.98625
v 0.880323 0.458743 0.98625
v 1.01241 0.410611 0.98625
v 1.00506 -0.431261 0.98625
v 0.872156 -0.477081 0.98625
v 0.468132 0.878192 0.98625
v 0.452708 -0.889272 0.98625
v 0.422312 1.0111 0.98625
v 0.404575 -1.02136 0.98625
v -0.419559 1.01845 0.98625
v -0.437296 -1.01401 0.98625
v -0.467692 0.886359 0.98625
v -0.483116 -0.881105 0.98625
v -0.887141 0.474168 0.98625
v -0.895307 -0.461656 0.98625
v -1.02005 0.428348 0.98625
v -1.02739 -0.413524 0.98625
v 1.00506 -0.431261 -0.98625
v 1.01241 0.410611 -0.98625
v 0.880323 0.458743 -0.98625
v 0.872156 -0.477081 -0.98625
v 0.468132 0.878192 -0.98625
v 0.452708 -0.889272 -0.98625
v 0.422312 1.0111 -0.98625
v 0.404575 -1.02136 -0.98625
v -0.419559 1.01845 -0.98625
v -0.437296 -1.01401 -0.98625
v -0.467692 0.886359 -0.98625
v -0.483116 -0.881105 -0.98625
v -0.887141 0.474168 -0.98625
v -0.895307 -0.461656 -0.98625
v -1.02005 0.428348 -0.98625
v -1.02739 -0.413524 -0.98625
vn -0.5424581 0.1976677 0
vn -0.4379375 0.3762234 0
vn -0.4379375 0.3762234 0
vn -0.5424581 0.1976677 0
vn 0.005040375 0.5773283 0
vn 0.005040375 0.5773283 0
vn 0.005040375 0.5773283 0
vn 0.005040375 0.5773283 0
vn 0.4444363 0.3685237 0
vn 0.4444363 0.3685237 0
vn 0.5458244 0.1881728 0
vn 0.5458244 0.1881728 0
vn 0.3762246 0.4379365 0
vn 0.3762246 0.4379365 0
vn 0.1976694 0.5424575 0
vn 0.1976694 0.5424575 0
vn 0.3762246 0.4379365 0
vn 0.3762246 0.4379365 0
vn 0.5773283 -0.00504045 0
vn 0.5773283 -0.00504045 0
vn 0.5773283 -0.00504045 0
vn 0.5773283 -0.00504045 0
vn 0.3685258 -0.4444346 0
vn 0.188178 -0.5458226 0
vn 0.188178 -0.5458226 0
vn 0.3685258 -0.4444346 0
vn 0.4379368 -0.3762242 0
vn 0.4379368 -0.3762242 0
vn 0.5424566 -0.1976717 0
vn 0.5424566 -0.1976717 0
vn 0.4379368 -0.3762242 0
vn 0.4379368 -0.3762242 0
vn -0.005040456 -0.5773283 0
vn -0.005040456 -0.5773283 0
vn -0.005040456 -0.5773283 0
vn -0.005040456 -0.5773283 0
vn -0.4444352 -0.368525 0
vn -0.5458231 -0.1881767 0
vn -0.5458231 -0.1881767 0
vn -0.4444352 -0.368525 0
vn -0.3762262 -0.4379351 0
vn -0.3762262 -0.4379351 0
vn -0.1976747 -0.5424556 0
vn -0.3762262 -0.4379351 0
vn -0.3762262 -0.4379351 0
vn -0.1976747 -0.5424556 0
vn -0.5773283 0.005033501 0
vn -0.5773283 0.005033501 0
vn -0.5773283 0.005033501 0
vn -0.5773283 0.005033501 0
vn -0.3685233 0.4444366 0
vn -0.3685233 0.4444366 0
vn -0.1881715 0.5458249 0
vn -0.1881715 0.5458249 0
vn -0.4379375 0.3762234 0
vn -0.4379375 0.3762234 0
vn 0 0 0.5773503
vn 0 0 0.5773503
vn 0 0 0.5773503
vn 0 0 0.5773503
vn 0 0 0.5773503
vn 0 0 0.5773503
vn 0 0 0.5773503
vn 0 0 0.5773503
vn 0 0 0.5773503
vn 0 0 0.5773503
vn 0 0 0.5773503
vn 0 0 0.5773503
vn 0 0 0.5773503
vn 0 0 0.5773503
vn 0 0 0.5773503
vn 0 0 0.5773503
vn 0 0 -0.5773503
vn 0 0 -0.5773503
vn 0 0 -0.5773503
vn 0 0 -0.5773503
vn 0 0 -0.5773503
vn 0 0 -0.5773503
vn 0 0 -0.5773503
vn 0 0 -0.5773503
vn 0 0 -0.5773503
vn 0 0 -0.5773503
vn 0 0 -0.5773503
vn 0 0 -0.5773503
vn 0 0 -0.5773503
vn 0 0 -0.5773503
vn 0 0 -0.5773503
vn 0 0 -0.5773503
vt 0 1
vt 0 0.935243
vt 1 0.935243
vt 1 1
vt 0.710708 1
vt 0.710708 0
vt 0.297986 0
vt 0.297986 1
vt 1 0.93124
vt 0 0.93124
vt 0 0.996397
vt 1 0.996397
vt 1 0.725608
vt 0 0.725608
vt 1 1
vt 1 0
vt 0.935245 0
vt 0.935245 1
vt 1 0.289291
vt 0 0.289291
vt 0 0.702012
vt 1 0.702012
vt 0.931241 0
vt 0.996397 0
vt 0.996397 1
vt 0.931241 1
vt 0.725609 1
vt 0.725609 0
vt 1 0
vt 0 0
vt 0 0.0647551
vt 1 0.0647551
vt 0.28929 0
vt 0.702012 0
vt 0.702012 1
vt 0.28929 1
vt 0 0.0687589
vt 0 0.00360332
vt 1 0.00360332
vt 1 0.0687589
vt 0 0.27439
vt 1 0.27439
vt 0 0
vt 0.0647529 0
vt 0.0647529 1
vt 0 1
vt 0 0.710707
vt 0 0.297987
vt 1 0.297987
vt 1 0.710707
vt 0.0687563 1
vt 0.0687563 0
vt 0.00359837 0
vt 0.00359837 1
vt 0.274389 0
vt 0.274389 1
vt 0.935245 0.725608
vt 1 0.702012
vt 0.996397 0.289291
vt 0.931241 0.266828
vt 0.733171 0.93124
vt 0.725609 0.0647551
vt 0.710708 0.996397
vt 0.702012 0
vt 0.297986 1
vt 0.28929 0.00360332
vt 0.274389 0.935243
vt 0.266827 0.0687589
vt 0.0687563 0.73317
vt 0.0647529 0.27439
vt 0.00359837 0.710707
vt 0 0.297987
vt 0.996397 0.289291
vt 1 0.702012
vt 0.935245 0.725608
vt 0.931241 0.266828
vt 0.733171 0.93124
vt 0.725609 0.0647551
vt 0.710708 0.996397
vt 0.702012 0
vt 0.297986 1
vt 0.28929 0.00360332
vt 0.274389 0.935243
vt 0.266827 0.0687589
vt 0.0687563 0.73317
vt 0.0647529 0.27439
vt 0.00359837 0.710707
vt 0 0.297987
usemtl baseThingPartMaterial
f 3/3/3 2/2/2 1/1/1
f 4/4/4 3/3/3 1/1/1
f 7/7/7 6/6/6 5/5/5
f 8/8/8 7/7/7 5/5/5
f 11/11/11 10/10/10 9/9/9
f 12/12/12 11/11/11 9/9/9
f 9/9/9 10/10/10 13/13/13
f 10/10/10 14/14/14 13/13/13
f 17/17/17 16/16/16 15/15/15
f 18/18/18 17/17/17 15/15/15
f 21/21/21 20/20/20 19/19/19
f 22/22/22 21/21/21 19/19/19
f 25/25/25 24/24/24 23/23/23
f 26/26/26 25/25/25 23/23/23
f 26/26/26 23/23/23 27/27/27
f 23/23/23 28/28/28 27/27/27
f 31/31/31 30/30/30 29/29/29
f 32/32/32 31/31/31 29/29/29
f 35/35/35 34/34/34 33/33/33
f 36/36/36 35/35/35 33/33/33
f 39/39/39 38/38/38 37/37/37
f 40/40/40 39/39/39 37/37/37
f 40/40/40 37/37/37 41/41/41
f 42/42/42 40/40/40 41/41/41
f 45/45/45 44/44/44 43/43/43
f 46/46/46 45/45/45 43/43/43
f 49/49/49 48/48/48 47/47/47
f 50/50/50 49/49/49 47/47/47
f 53/53/53 52/52/52 51/51/51
f 54/54/54 53/53/53 51/51/51
f 51/51/51 52/52/52 55/55/55
f 56/56/56 51/51/51 55/55/55
f 59/59/59 58/58/58 57/57/57
f 57/57/57 60/60/60 59/59/59
f 57/57/57 61/61/61 60/60/60
f 61/61/61 62/62/62 60/60/60
f 61/61/61 63/63/63 62/62/62
f 63/63/63 64/64/64 62/62/62
f 63/63/63 65/65/65 64/64/64
f 65/65/65 66/66/66 64/64/64
f 65/65/65 67/67/67 66/66/66
f 67/67/67 68/68/68 66/66/66
f 67/67/67 69/69/69 68/68/68
f 69/69/69 70/70/70 68/68/68
f 69/69/69 71/71/71 70/70/70
f 71/71/71 72/72/72 70/70/70
f 75/75/75 74/74/74 73/73/73
f 73/73/73 76/76/76 75/75/75
f 76/76/76 77/77/77 75/75/75
f 76/76/76 78/78/78 77/77/77
f 78/78/78 79/79/79 77/77/77
f 78/78/78 80/80/80 79/79/79
f 80/80/80 81/81/81 79/79/79
f 80/80/80 82/82/82 81/81/81
f 82/82/82 83/83/83 81/81/81
f 82/82/82 84/84/84 83/83/83
f 84/84/84 85/85/85 83/83/83
f 84/84/84 86/86/86 85/85/85
f 86/86/86 87/87/87 85/85/85
f 86/86/86 88/88/88 87/87/87
