# Export of Universe
# from Aaro4130 OBJ Exporter v2.0
mtllib 178.mtl
g WavyWallVariantSoft
v -2.26875 0.2 2
v -3.025 0 2
v -3.025 0.5 2
v -2.26875 0.7 2
v -1.5125 0.2 2
v -1.5125 0.7 2
v -0.75625 0 2
v -0.75625 0.5 2
v 0 0 2
v 0 0.5 2
v 0.75625 0 2
v 0.75625 0.5 2
v 1.5125 -0.25 2
v 1.5125 0.25 2
v 2.26875 -0.25 2
v 2.26875 0.25 2
v 3.025 0 2
v 3.025 0.5 2
v 2.26875 0.25 -2
v 2.26875 -0.25 -2
v 3.025 0 -2
v 3.025 0.5 -2
v 1.5125 0.25 -2
v 1.5125 -0.25 -2
v 0.75625 0.5 -2
v 0.75625 0 -2
v 0 0.5 -2
v 0 0 -2
v -0.75625 0.5 -2
v -0.75625 0 -2
v -1.5125 0.7 -2
v -1.5125 0.2 -2
v -2.26875 0.7 -2
v -2.26875 0.2 -2
v -3.025 0.5 -2
v -3.025 0 -2
v 3.025 0 -2
v 3.025 0 2
v 3.025 0.5 2
v 3.025 0.5 -2
v -3.025 0 2
v -3.025 0 -2
v -3.025 0.5 -2
v -3.025 0.5 2
v -2.26875 0.2 -2
v -2.26875 0.2 2
v -1.5125 0.2 2
v -1.5125 0.2 -2
v -0.75625 0 2
v -0.75625 0 -2
v 0 0 2
v 0 0 -2
v 0.75625 0 2
v 0.75625 0 -2
v 1.5125 -0.25 2
v 1.5125 -0.25 -2
v 2.26875 -0.25 2
v 2.26875 -0.25 -2
v 3.025 0 2
v 3.025 0 -2
v -3.025 0 -2
v -3.025 0 2
v -1.5125 0.7 2
v -2.26875 0.7 2
v -2.26875 0.7 -2
v -1.5125 0.7 -2
v -0.75625 0.5 2
v -0.75625 0.5 -2
v 0 0.5 2
v 0 0.5 -2
v 0.75625 0.5 2
v 0.75625 0.5 -2
v 1.5125 0.25 2
v 1.5125 0.25 -2
v 2.26875 0.25 2
v 2.26875 0.25 -2
v 3.025 0.5 2
v 3.025 0.5 -2
v -3.025 0.5 2
v -3.025 0.5 -2
vn 0 0 0.5773503
vn 0 0 0.5773503
vn 0 0 0.5773503
vn 0 0 0.5773503
vn 0 0 0.5773503
vn 0 0 0.5773503
vn 0 0 0.5773503
vn 0 0 0.5773503
vn 0 0 0.5773503
vn 0 0 0.5773503
vn 0 0 0.5773503
vn 0 0 0.5773503
vn 0 0 0.5773503
vn 0 0 0.5773503
vn 0 0 0.5773503
vn 0 0 0.5773503
vn 0 0 0.5773503
vn 0 0 0.5773503
vn 0 0 -0.5773503
vn 0 0 -0.5773503
vn 0 0 -0.5773503
vn 0 0 -0.5773503
vn 0 0 -0.5773503
vn 0 0 -0.5773503
vn 0 0 -0.5773503
vn 0 0 -0.5773503
vn 0 0 -0.5773503
vn 0 0 -0.5773503
vn 0 0 -0.5773503
vn 0 0 -0.5773503
vn 0 0 -0.5773503
vn 0 0 -0.5773503
vn 0 0 -0.5773503
vn 0 0 -0.5773503
vn 0 0 -0.5773503
vn 0 0 -0.5773503
vn 0.5773503 0 0
vn 0.5773503 0 0
vn 0.5773503 0 0
vn 0.5773503 0 0
vn -0.5773503 0 0
vn -0.5773503 0 0
vn -0.5773503 0 0
vn -0.5773503 0 0
vn 0.07568502 -0.572368 0
vn 0.07568502 -0.572368 0
vn -0.07568502 -0.572368 0
vn -0.07568502 -0.572368 0
vn -0.07568502 -0.572368 0
vn -0.07568502 -0.572368 0
vn 0 -0.5773503 0
vn 0 -0.5773503 0
vn -0.09415231 -0.5696215 0
vn -0.09415231 -0.5696215 0
vn -0.09415232 -0.5696215 0
vn -0.09415232 -0.5696215 0
vn 0.09415232 -0.5696215 0
vn 0.09415232 -0.5696215 0
vn 0.1812145 -0.5481739 0
vn 0.1812145 -0.5481739 0
vn 0.1476128 -0.5581611 0
vn 0.1476128 -0.5581611 0
vn 0.07568502 0.572368 0
vn -0.07568502 0.572368 0
vn -0.07568502 0.572368 0
vn 0.07568502 0.572368 0
vn 0.07568501 0.572368 0
vn 0.07568501 0.572368 0
vn 0 0.5773503 0
vn 0 0.5773503 0
vn 0.09415231 0.5696215 0
vn 0.09415231 0.5696215 0
vn 0.09415232 0.5696215 0
vn 0.09415232 0.5696215 0
vn -0.09415232 0.5696215 0
vn -0.09415232 0.5696215 0
vn -0.1812145 0.5481739 0
vn -0.1812145 0.5481739 0
vn -0.1476128 0.5581611 0
vn -0.1476128 0.5581611 0
vt 0.125 0.473684
vt 0 0.263158
vt 0 0.789474
vt 0.125 1
vt 0.25 0.473684
vt 0.25 1
vt 0.375 0.263158
vt 0.375 0.789474
vt 0.5 0.263158
vt 0.5 0.789474
vt 0.625 0.263158
vt 0.625 0.789474
vt 0.75 0
vt 0.75 0.526316
vt 0.875 0
vt 0.875 0.526316
vt 1 0.263158
vt 1 0.789474
vt 0.875 0.526316
vt 0.875 0
vt 1 0.263158
vt 1 0.789474
vt 0.75 0.526316
vt 0.75 0
vt 0.625 0.789474
vt 0.625 0.263158
vt 0.5 0.789474
vt 0.5 0.263158
vt 0.375 0.789474
vt 0.375 0.263158
vt 0.25 1
vt 0.25 0.473684
vt 0.125 1
vt 0.125 0.473684
vt 0 0.789474
vt 0 0.263158
vt 1 0.263158
vt 0 0.263158
vt 0 0.789474
vt 1 0.789474
vt 0 0.263158
vt 1 0.263158
vt 1 0.789474
vt 0 0.789474
vt 0.125 1
vt 0.125 0
vt 0.25 0
vt 0.25 1
vt 0.375 0
vt 0.375 1
vt 0.5 0
vt 0.5 1
vt 0.625 0
vt 0.625 1
vt 0.75 0
vt 0.75 1
vt 0.875 0
vt 0.875 1
vt 1 0
vt 1 1
vt 0 1
vt 0 0
vt 0.25 0
vt 0.125 0
vt 0.125 1
vt 0.25 1
vt 0.375 0
vt 0.375 1
vt 0.5 0
vt 0.5 1
vt 0.625 0
vt 0.625 1
vt 0.75 0
vt 0.75 1
vt 0.875 0
vt 0.875 1
vt 1 0
vt 1 1
vt 0 0
vt 0 1
usemtl baseThingPartMaterial
f 3/3/3 2/2/2 1/1/1
f 4/4/4 3/3/3 1/1/1
f 4/4/4 1/1/1 5/5/5
f 6/6/6 4/4/4 5/5/5
f 6/6/6 5/5/5 7/7/7
f 8/8/8 6/6/6 7/7/7
f 8/8/8 7/7/7 9/9/9
f 10/10/10 8/8/8 9/9/9
f 10/10/10 9/9/9 11/11/11
f 12/12/12 10/10/10 11/11/11
f 12/12/12 11/11/11 13/13/13
f 14/14/14 12/12/12 13/13/13
f 14/14/14 13/13/13 15/15/15
f 16/16/16 14/14/14 15/15/15
f 16/16/16 15/15/15 17/17/17
f 18/18/18 16/16/16 17/17/17
f 21/21/21 20/20/20 19/19/19
f 22/22/22 21/21/21 19/19/19
f 19/19/19 20/20/20 23/23/23
f 20/20/20 24/24/24 23/23/23
f 23/23/23 24/24/24 25/25/25
f 24/24/24 26/26/26 25/25/25
f 25/25/25 26/26/26 27/27/27
f 26/26/26 28/28/28 27/27/27
f 27/27/27 28/28/28 29/29/29
f 28/28/28 30/30/30 29/29/29
f 29/29/29 30/30/30 31/31/31
f 30/30/30 32/32/32 31/31/31
f 31/31/31 32/32/32 33/33/33
f 32/32/32 34/34/34 33/33/33
f 33/33/33 34/34/34 35/35/35
f 34/34/34 36/36/36 35/35/35
f 39/39/39 38/38/38 37/37/37
f 40/40/40 39/39/39 37/37/37
f 43/43/43 42/42/42 41/41/41
f 44/44/44 43/43/43 41/41/41
f 47/47/47 46/46/46 45/45/45
f 48/48/48 47/47/47 45/45/45
f 49/49/49 47/47/47 48/48/48
f 50/50/50 49/49/49 48/48/48
f 51/51/51 49/49/49 50/50/50
f 52/52/52 51/51/51 50/50/50
f 53/53/53 51/51/51 52/52/52
f 54/54/54 53/53/53 52/52/52
f 55/55/55 53/53/53 54/54/54
f 56/56/56 55/55/55 54/54/54
f 57/57/57 55/55/55 56/56/56
f 58/58/58 57/57/57 56/56/56
f 59/59/59 57/57/57 58/58/58
f 60/60/60 59/59/59 58/58/58
f 45/45/45 46/46/46 61/61/61
f 46/46/46 62/62/62 61/61/61
f 65/65/65 64/64/64 63/63/63
f 66/66/66 65/65/65 63/63/63
f 66/66/66 63/63/63 67/67/67
f 68/68/68 66/66/66 67/67/67
f 68/68/68 67/67/67 69/69/69
f 70/70/70 68/68/68 69/69/69
f 70/70/70 69/69/69 71/71/71
f 72/72/72 70/70/70 71/71/71
f 72/72/72 71/71/71 73/73/73
f 74/74/74 72/72/72 73/73/73
f 74/74/74 73/73/73 75/75/75
f 76/76/76 74/74/74 75/75/75
f 76/76/76 75/75/75 77/77/77
f 78/78/78 76/76/76 77/77/77
f 64/64/64 65/65/65 79/79/79
f 65/65/65 80/80/80 79/79/79
