# Export of Universe
# from Aaro4130 OBJ Exporter v2.0
mtllib 181.mtl
g Drop
v 1.40018 0.517638 -1.40018
v 1.91268 0.517638 -0.5125
v 1.71486 1 -0.459495
v 1.25536 1 -1.25536
v 1.71486 1 0.459495
v 1.91268 0.517638 0.5125
v 1.40018 0.517638 1.40018
v 1.25536 1 1.25536
v 1.02968 2.07582 -0.270595
v 0.753776 2.07582 -0.73928
v 1.02968 2.07582 0.270595
v 0.753776 2.07582 0.73928
v 0.5125 2.72263 -0.137324
v 0.375176 2.72263 -0.375176
v 0.5125 2.72263 0.137324
v 0.375176 2.72263 0.375176
v 1.44957 -3.57628E-08 1.44957
v 1.98015 -3.57628E-08 0.530579
v 1.79792 -0.393405 0.48175
v 1.31617 -0.393405 1.31617
v 1.98015 -3.57628E-08 -0.530579
v 1.79792 -0.393405 -0.48175
v 1.44957 -3.57628E-08 -1.44957
v 1.31617 -0.393405 -1.31617
v 0.459495 1 -1.71486
v 0.5125 0.517638 -1.91268
v 1.40018 0.517638 -1.40018
v 1.25536 1 -1.25536
v -0.459495 1 -1.71486
v -0.5125 0.517638 -1.91268
v -1.40018 0.517638 -1.40018
v -1.25536 1 -1.25536
v 0.275901 2.07582 -1.00988
v 0.753776 2.07582 -0.73928
v -0.275901 2.07582 -1.00988
v -0.753776 2.07582 -0.73928
v 0.137324 2.72263 -0.5125
v 0.375176 2.72263 -0.375176
v -0.137324 2.72263 -0.5125
v -0.375176 2.72263 -0.375176
v -1.44957 -3.57628E-08 -1.44957
v -0.530579 -3.57628E-08 -1.98015
v -0.48175 -0.393405 -1.79792
v 0.48175 -0.393405 -1.79792
v 0.530579 -3.57628E-08 -1.98015
v 1.44957 -3.57628E-08 -1.44957
v 1.31617 -0.393405 -1.31617
v -1.31617 -0.393405 -1.31617
v -1.71486 1 -0.459495
v -1.91268 0.517638 -0.5125
v -1.40018 0.517638 -1.40018
v -1.25536 1 -1.25536
v -1.71486 1 0.459495
v -1.91268 0.517638 0.5125
v -1.40018 0.517638 1.40018
v -1.25536 1 1.25536
v -1.02968 2.07582 -0.270595
v -0.753776 2.07582 -0.73928
v -1.02968 2.07582 0.270595
v -0.753776 2.07582 0.73928
v -0.5125 2.72263 -0.137324
v -0.375176 2.72263 -0.375176
v -0.5125 2.72263 0.137324
v -0.375176 2.72263 0.375176
v -1.44957 -3.57628E-08 1.44957
v -1.98015 -3.57628E-08 0.530579
v -1.79792 -0.393405 0.48175
v -1.79792 -0.393405 -0.48175
v -1.98015 -3.57628E-08 -0.530579
v -1.44957 -3.57628E-08 -1.44957
v -1.31617 -0.393405 -1.31617
v -1.31617 -0.393405 1.31617
v -0.459495 1 1.71486
v -0.5125 0.517638 1.91268
v -1.40018 0.517638 1.40018
v -1.25536 1 1.25536
v 0.5125 0.517638 1.91268
v 0.459495 1 1.71486
v 1.40018 0.517638 1.40018
v 1.25536 1 1.25536
v -0.275901 2.07582 1.00988
v -0.753776 2.07582 0.73928
v 0.275901 2.07582 1.00988
v 0.753776 2.07582 0.73928
v -0.137324 2.72263 0.5125
v -0.375176 2.72263 0.375176
v 0.137324 2.72263 0.5125
v 0.375176 2.72263 0.375176
v 1.44957 -3.57628E-08 1.44957
v 0.530579 -3.57628E-08 1.98015
v 0.48175 -0.393405 1.79792
v -0.48175 -0.393405 1.79792
v -0.530579 -3.57628E-08 1.98015
v -1.44957 -3.57628E-08 1.44957
v -1.31617 -0.393405 1.31617
v 1.31617 -0.393405 1.31617
v 1.79792 -0.393405 -0.48175
v 1.31617 -0.393405 -1.31617
v 0.92125 -0.824802 -0.87125
v 1.24015 -0.824802 -0.3189
v 0.3689 -0.824802 -1.19015
v 0.48175 -0.393405 -1.79792
v -0.2689 -0.824802 -1.19015
v -0.48175 -0.393405 -1.79792
v -0.82125 -0.824802 -0.87125
v -1.31617 -0.393405 -1.31617
v -1.14015 -0.824802 -0.3189
v -1.79792 -0.393405 -0.48175
v -1.14015 -0.824802 0.3189
v -1.79792 -0.393405 0.48175
v -1.31617 -0.393405 1.31617
v -0.82125 -0.824802 0.87125
v -0.48175 -0.393405 1.79792
v -0.2689 -0.824802 1.19015
v 0.48175 -0.393405 1.79792
v 0.3689 -0.824802 1.19015
v 1.31617 -0.393405 1.31617
v 0.92125 -0.824802 0.87125
v 1.79792 -0.393405 0.48175
v 1.24015 -0.824802 0.3189
v -0.01 -0.98 0
v 0.5125 2.72263 -0.137324
v 0.5125 2.72263 0.137324
v 0.284942 2.85 0.0763499
v 0.284942 2.85 -0.0763499
v 0.208592 2.85 -0.208592
v 0.375176 2.72263 -0.375176
v 0.208592 2.85 0.208592
v 0.375176 2.72263 0.375176
v 0.137324 2.72263 -0.5125
v 0.0763499 2.85 -0.284942
v 0.137324 2.72263 0.5125
v 0.0763499 2.85 0.284942
v -0.0763499 2.85 -0.284942
v -0.137324 2.72263 -0.5125
v -0.0763499 2.85 0.284942
v -0.137324 2.72263 0.5125
v -0.208592 2.85 -0.208592
v -0.375176 2.72263 -0.375176
v -0.208592 2.85 0.208592
v -0.375176 2.72263 0.375176
v -0.5125 2.72263 0.137324
v -0.284942 2.85 0.0763499
v -0.5125 2.72263 -0.137324
v -0.284942 2.85 -0.0763499
v -2.51053E-16 2.90949 0
vn 0.394802 0.1469558 -0.394802
vn 0.5393097 0.1469553 -0.1445078
vn 0.4854756 0.2837625 -0.1308649
vn 0.3538345 0.2853594 -0.3559557
vn 0.4854756 0.2837625 0.1308649
vn 0.5393097 0.1469553 0.1445078
vn 0.394802 0.1469558 0.394802
vn 0.3538345 0.2853594 0.3559557
vn 0.4573134 0.330141 -0.1233072
vn 0.3334199 0.3310467 -0.3355183
vn 0.4573135 0.3301409 0.1233072
vn 0.3334199 0.3310467 0.3355183
vn 0.4140894 0.3862217 -0.112677
vn 0.3029071 0.3833459 -0.3076143
vn 0.4140894 0.3862218 0.112677
vn 0.3029071 0.3833459 0.3076143
vn 0.4054276 -0.06775118 0.4054276
vn 0.5538244 -0.06775113 0.1483968
vn 0.4274634 -0.3705921 0.115195
vn 0.3099389 -0.3737838 0.3123409
vn 0.5538244 -0.06775112 -0.1483968
vn 0.4274634 -0.3705921 -0.1151951
vn 0.4054276 -0.06775115 -0.4054276
vn 0.3099389 -0.3737838 -0.3123409
vn 0.1289497 0.2869322 -0.4841231
vn 0.1445078 0.1469553 -0.5393097
vn 0.394802 0.1469558 -0.394802
vn 0.3538345 0.2853594 -0.3559557
vn -0.1289497 0.2869322 -0.4841231
vn -0.1445078 0.1469553 -0.5393097
vn -0.394802 0.1469558 -0.394802
vn -0.3538345 0.2853594 -0.3559557
vn 0.1215495 0.3319327 -0.4564863
vn 0.3334199 0.3310467 -0.3355183
vn -0.1215495 0.3319327 -0.4564863
vn -0.3334199 0.3310467 -0.3355183
vn 0.1107826 0.3804765 -0.4198788
vn 0.3029071 0.3833459 -0.3076143
vn -0.1107826 0.3804765 -0.4198788
vn -0.3029071 0.3833459 -0.3076143
vn -0.4054276 -0.06775117 -0.4054276
vn -0.1483968 -0.06775112 -0.5538244
vn -0.113438 -0.3849975 -0.4150206
vn 0.1105309 -0.3791203 -0.4211698
vn 0.1483968 -0.06775112 -0.5538244
vn 0.4054276 -0.06775115 -0.4054276
vn 0.3099389 -0.3737838 -0.3123409
vn -0.3021978 -0.3898574 -0.3000351
vn -0.4854756 0.2837625 -0.1308649
vn -0.5393097 0.1469553 -0.1445078
vn -0.394802 0.1469558 -0.394802
vn -0.3538345 0.2853594 -0.3559557
vn -0.4854756 0.2837625 0.1308649
vn -0.5393097 0.1469553 0.1445078
vn -0.394802 0.1469558 0.394802
vn -0.3538345 0.2853594 0.3559557
vn -0.4573134 0.330141 -0.1233072
vn -0.3334199 0.3310467 -0.3355183
vn -0.4573135 0.3301409 0.1233072
vn -0.3334199 0.3310467 0.3355184
vn -0.4140893 0.3862218 -0.112677
vn -0.3029071 0.3833459 -0.3076143
vn -0.4140894 0.3862217 0.112677
vn -0.3029071 0.3833459 0.3076143
vn -0.4054276 -0.06775118 0.4054276
vn -0.5538244 -0.06775112 0.1483968
vn -0.4090611 -0.3925722 0.1090384
vn -0.4090611 -0.3925722 -0.1090384
vn -0.5538244 -0.06775111 -0.1483969
vn -0.4054276 -0.06775117 -0.4054276
vn -0.3021978 -0.3898574 -0.3000351
vn -0.3021978 -0.3898574 0.300035
vn -0.1289497 0.2869322 0.4841231
vn -0.1445078 0.1469553 0.5393097
vn -0.394802 0.1469558 0.394802
vn -0.3538345 0.2853594 0.3559557
vn 0.1445078 0.1469553 0.5393097
vn 0.1289497 0.2869322 0.4841231
vn 0.394802 0.1469558 0.394802
vn 0.3538345 0.2853594 0.3559557
vn -0.1215495 0.3319327 0.4564863
vn -0.3334199 0.3310467 0.3355184
vn 0.1215495 0.3319327 0.4564863
vn 0.3334199 0.3310467 0.3355183
vn -0.1107826 0.3804765 0.4198788
vn -0.3029071 0.3833459 0.3076143
vn 0.1107826 0.3804765 0.4198788
vn 0.3029071 0.3833459 0.3076143
vn 0.4054276 -0.06775118 0.4054276
vn 0.1483968 -0.06775112 0.5538244
vn 0.1105308 -0.3791203 0.4211698
vn -0.1134379 -0.3849975 0.4150206
vn -0.1483968 -0.06775112 0.5538244
vn -0.4054276 -0.06775118 0.4054276
vn -0.3021978 -0.3898574 0.300035
vn 0.3099389 -0.3737838 0.3123409
vn 0.4274634 -0.3705921 -0.1151951
vn 0.3099389 -0.3737838 -0.3123409
vn 0.1818178 -0.5178272 -0.1792501
vn 0.2484391 -0.5169844 -0.06586729
vn 0.06763482 -0.5192666 -0.2431481
vn 0.1105309 -0.3791203 -0.4211698
vn -0.06221186 -0.5208935 -0.2411078
vn -0.113438 -0.3849975 -0.4150206
vn -0.1728598 -0.5222691 -0.1751794
vn -0.3021978 -0.3898574 -0.3000351
vn -0.2359632 -0.5230483 -0.0638369
vn -0.4090611 -0.3925722 -0.1090384
vn -0.2359632 -0.5230483 0.06383693
vn -0.4090611 -0.3925722 0.1090384
vn -0.3021978 -0.3898574 0.300035
vn -0.1728598 -0.5222691 0.1751794
vn -0.1134379 -0.3849975 0.4150206
vn -0.06221185 -0.5208935 0.2411078
vn 0.1105308 -0.3791203 0.4211698
vn 0.06763481 -0.5192667 0.2431481
vn 0.3099389 -0.3737838 0.3123409
vn 0.1818178 -0.5178272 0.17925
vn 0.4274634 -0.3705921 0.115195
vn 0.2484391 -0.5169843 0.06586728
vn -0.001785304 -0.5773475 0
vn 0.4140894 0.3862217 -0.112677
vn 0.4140894 0.3862218 0.112677
vn 0.2318821 0.5250748 0.06213263
vn 0.2318821 0.5250748 -0.06213263
vn 0.1697495 0.5250748 -0.1697495
vn 0.3029071 0.3833459 -0.3076143
vn 0.1697495 0.5250748 0.1697495
vn 0.3029071 0.3833459 0.3076143
vn 0.1107826 0.3804765 -0.4198788
vn 0.06213263 0.5250748 -0.2318821
vn 0.1107826 0.3804765 0.4198788
vn 0.06213263 0.5250748 0.2318821
vn -0.06213263 0.5250748 -0.2318821
vn -0.1107826 0.3804765 -0.4198788
vn -0.06213263 0.5250748 0.2318821
vn -0.1107826 0.3804765 0.4198788
vn -0.1697495 0.5250748 -0.1697495
vn -0.3029071 0.3833459 -0.3076143
vn -0.1697495 0.5250748 0.1697495
vn -0.3029071 0.3833459 0.3076143
vn -0.4140894 0.3862217 0.112677
vn -0.2318821 0.5250748 0.06213263
vn -0.4140893 0.3862218 -0.112677
vn -0.2318821 0.5250748 -0.06213263
vn 0 0.5773503 0
vt 0.853554 0.385047
vt 0.629409 0.385047
vt 0.616025 0.509064
vt 0.816986 0.509064
vt 0.383975 0.509064
vt 0.370591 0.385047
vt 0.146446 0.385047
vt 0.183014 0.509064
vt 0.568327 0.785661
vt 0.686673 0.785661
vt 0.431673 0.785661
vt 0.313327 0.785661
vt 0.534675 0.951958
vt 0.594734 0.951958
vt 0.465325 0.951958
vt 0.405266 0.951958
vt 0.133975 0.251961
vt 0.366026 0.251961
vt 0.378355 0.150815
vt 0.167659 0.150815
vt 0.633974 0.251961
vt 0.621645 0.150815
vt 0.866025 0.251961
vt 0.832341 0.150815
vt 0.616025 0.509064
vt 0.629409 0.385047
vt 0.853554 0.385047
vt 0.816986 0.509064
vt 0.383975 0.509064
vt 0.370591 0.385047
vt 0.146446 0.385047
vt 0.183014 0.509064
vt 0.569667 0.785661
vt 0.690333 0.785661
vt 0.430333 0.785661
vt 0.309667 0.785661
vt 0.534675 0.951958
vt 0.594734 0.951958
vt 0.465325 0.951958
vt 0.405266 0.951958
vt 0.133975 0.251961
vt 0.366026 0.251961
vt 0.378355 0.150815
vt 0.621645 0.150815
vt 0.633974 0.251961
vt 0.866025 0.251961
vt 0.832341 0.150815
vt 0.167659 0.150815
vt 0.616025 0.509064
vt 0.629409 0.385047
vt 0.853554 0.385047
vt 0.816986 0.509064
vt 0.383975 0.509064
vt 0.370591 0.385047
vt 0.146446 0.385047
vt 0.183014 0.509064
vt 0.568327 0.785661
vt 0.686673 0.785661
vt 0.431673 0.785661
vt 0.313327 0.785661
vt 0.534675 0.951958
vt 0.594734 0.951958
vt 0.465325 0.951958
vt 0.405266 0.951958
vt 0.133975 0.251961
vt 0.366026 0.251961
vt 0.378355 0.150815
vt 0.621645 0.150815
vt 0.633974 0.251961
vt 0.866025 0.251961
vt 0.832341 0.150815
vt 0.167659 0.150815
vt 0.383975 0.509064
vt 0.370591 0.385047
vt 0.146446 0.385047
vt 0.183014 0.509064
vt 0.629409 0.385047
vt 0.616025 0.509064
vt 0.853554 0.385047
vt 0.816986 0.509064
vt 0.430333 0.785661
vt 0.309667 0.785661
vt 0.569667 0.785661
vt 0.690333 0.785661
vt 0.465325 0.951958
vt 0.405266 0.951958
vt 0.534675 0.951958
vt 0.594734 0.951958
vt 0.866025 0.251961
vt 0.633974 0.251961
vt 0.621645 0.150815
vt 0.378355 0.150815
vt 0.366026 0.251961
vt 0.133975 0.251961
vt 0.167659 0.150815
vt 0.832341 0.150815
vt 0.953986 0.621645
vt 0.832341 0.832341
vt 0.732621 0.719996
vt 0.813145 0.580524
vt 0.593149 0.80052
vt 0.621645 0.953986
vt 0.432101 0.80052
vt 0.378355 0.953986
vt 0.292629 0.719996
vt 0.167659 0.832341
vt 0.212105 0.580524
vt 0.0460142 0.621645
vt 0.212105 0.419476
vt 0.0460142 0.378355
vt 0.167659 0.167659
vt 0.292629 0.280004
vt 0.378355 0.0460142
vt 0.432101 0.19948
vt 0.621645 0.0460142
vt 0.593149 0.19948
vt 0.832341 0.167659
vt 0.732621 0.280004
vt 0.953986 0.378355
vt 0.813145 0.419476
vt 0.497475 0.5
vt 0.629409 0.534675
vt 0.629409 0.465325
vt 0.57195 0.480721
vt 0.57195 0.519279
vt 0.552671 0.552671
vt 0.594734 0.594734
vt 0.552671 0.447329
vt 0.594734 0.405266
vt 0.534675 0.629409
vt 0.519279 0.57195
vt 0.534675 0.370591
vt 0.519279 0.42805
vt 0.480721 0.57195
vt 0.465325 0.629409
vt 0.480721 0.42805
vt 0.465325 0.370591
vt 0.447329 0.552671
vt 0.405266 0.594734
vt 0.447329 0.447329
vt 0.405266 0.405266
vt 0.370591 0.465325
vt 0.42805 0.480721
vt 0.370591 0.534675
vt 0.42805 0.519279
vt 0.5 0.5
usemtl baseThingPartMaterial
f 3/3/3 2/2/2 1/1/1
f 4/4/4 3/3/3 1/1/1
f 3/3/3 5/5/5 2/2/2
f 5/5/5 6/6/6 2/2/2
f 7/7/7 6/6/6 5/5/5
f 8/8/8 7/7/7 5/5/5
f 9/9/9 3/3/3 4/4/4
f 10/10/10 9/9/9 4/4/4
f 8/8/8 5/5/5 11/11/11
f 11/11/11 5/5/5 3/3/3
f 9/9/9 11/11/11 3/3/3
f 12/12/12 8/8/8 11/11/11
f 13/13/13 9/9/9 10/10/10
f 14/14/14 13/13/13 10/10/10
f 12/12/12 11/11/11 15/15/15
f 15/15/15 11/11/11 9/9/9
f 13/13/13 15/15/15 9/9/9
f 16/16/16 12/12/12 15/15/15
f 7/7/7 17/17/17 6/6/6
f 17/17/17 18/18/18 6/6/6
f 19/19/19 18/18/18 17/17/17
f 20/20/20 19/19/19 17/17/17
f 21/21/21 18/18/18 19/19/19
f 6/6/6 18/18/18 21/21/21
f 22/22/22 21/21/21 19/19/19
f 23/23/23 21/21/21 22/22/22
f 24/24/24 23/23/23 22/22/22
f 2/2/2 21/21/21 23/23/23
f 1/1/1 2/2/2 23/23/23
f 2/2/2 6/6/6 21/21/21
f 27/27/27 26/26/26 25/25/25
f 28/28/28 27/27/27 25/25/25
f 25/25/25 26/26/26 29/29/29
f 26/26/26 30/30/30 29/29/29
f 29/29/29 30/30/30 31/31/31
f 32/32/32 29/29/29 31/31/31
f 28/28/28 25/25/25 33/33/33
f 34/34/34 28/28/28 33/33/33
f 25/25/25 29/29/29 35/35/35
f 33/33/33 25/25/25 35/35/35
f 35/35/35 29/29/29 32/32/32
f 36/36/36 35/35/35 32/32/32
f 34/34/34 33/33/33 37/37/37
f 38/38/38 34/34/34 37/37/37
f 33/33/33 35/35/35 39/39/39
f 37/37/37 33/33/33 39/39/39
f 35/35/35 36/36/36 40/40/40
f 39/39/39 35/35/35 40/40/40
f 31/31/31 30/30/30 41/41/41
f 30/30/30 42/42/42 41/41/41
f 41/41/41 42/42/42 43/43/43
f 43/43/43 42/42/42 44/44/44
f 42/42/42 45/45/45 44/44/44
f 44/44/44 45/45/45 46/46/46
f 47/47/47 44/44/44 46/46/46
f 48/48/48 41/41/41 43/43/43
f 26/26/26 45/45/45 42/42/42
f 46/46/46 45/45/45 26/26/26
f 30/30/30 26/26/26 42/42/42
f 27/27/27 46/46/46 26/26/26
f 51/51/51 50/50/50 49/49/49
f 52/52/52 51/51/51 49/49/49
f 49/49/49 50/50/50 53/53/53
f 50/50/50 54/54/54 53/53/53
f 53/53/53 54/54/54 55/55/55
f 56/56/56 53/53/53 55/55/55
f 52/52/52 49/49/49 57/57/57
f 58/58/58 52/52/52 57/57/57
f 49/49/49 53/53/53 59/59/59
f 57/57/57 49/49/49 59/59/59
f 59/59/59 53/53/53 56/56/56
f 60/60/60 59/59/59 56/56/56
f 58/58/58 57/57/57 61/61/61
f 62/62/62 58/58/58 61/61/61
f 57/57/57 59/59/59 63/63/63
f 61/61/61 57/57/57 63/63/63
f 63/63/63 59/59/59 60/60/60
f 64/64/64 63/63/63 60/60/60
f 55/55/55 54/54/54 65/65/65
f 54/54/54 66/66/66 65/65/65
f 65/65/65 66/66/66 67/67/67
f 67/67/67 66/66/66 68/68/68
f 66/66/66 69/69/69 68/68/68
f 68/68/68 69/69/69 70/70/70
f 71/71/71 68/68/68 70/70/70
f 72/72/72 65/65/65 67/67/67
f 50/50/50 69/69/69 66/66/66
f 70/70/70 69/69/69 50/50/50
f 54/54/54 50/50/50 66/66/66
f 51/51/51 70/70/70 50/50/50
f 75/75/75 74/74/74 73/73/73
f 76/76/76 75/75/75 73/73/73
f 73/73/73 74/74/74 77/77/77
f 78/78/78 73/73/73 77/77/77
f 78/78/78 77/77/77 79/79/79
f 80/80/80 78/78/78 79/79/79
f 76/76/76 73/73/73 81/81/81
f 82/82/82 76/76/76 81/81/81
f 73/73/73 78/78/78 83/83/83
f 81/81/81 73/73/73 83/83/83
f 83/83/83 78/78/78 80/80/80
f 84/84/84 83/83/83 80/80/80
f 82/82/82 81/81/81 85/85/85
f 85/85/85 81/81/81 83/83/83
f 86/86/86 82/82/82 85/85/85
f 87/87/87 85/85/85 83/83/83
f 83/83/83 84/84/84 88/88/88
f 87/87/87 83/83/83 88/88/88
f 79/79/79 77/77/77 89/89/89
f 77/77/77 90/90/90 89/89/89
f 89/89/89 90/90/90 91/91/91
f 91/91/91 90/90/90 92/92/92
f 90/90/90 93/93/93 92/92/92
f 92/92/92 93/93/93 94/94/94
f 95/95/95 92/92/92 94/94/94
f 96/96/96 89/89/89 91/91/91
f 74/74/74 93/93/93 90/90/90
f 94/94/94 93/93/93 74/74/74
f 77/77/77 74/74/74 90/90/90
f 75/75/75 94/94/94 74/74/74
f 99/99/99 98/98/98 97/97/97
f 100/100/100 99/99/99 97/97/97
f 99/99/99 101/101/101 98/98/98
f 101/101/101 102/102/102 98/98/98
f 101/101/101 103/103/103 102/102/102
f 103/103/103 104/104/104 102/102/102
f 103/103/103 105/105/105 104/104/104
f 105/105/105 106/106/106 104/104/104
f 105/105/105 107/107/107 106/106/106
f 107/107/107 108/108/108 106/106/106
f 107/107/107 109/109/109 108/108/108
f 109/109/109 110/110/110 108/108/108
f 111/111/111 110/110/110 109/109/109
f 112/112/112 111/111/111 109/109/109
f 113/113/113 111/111/111 112/112/112
f 114/114/114 113/113/113 112/112/112
f 115/115/115 113/113/113 114/114/114
f 116/116/116 115/115/115 114/114/114
f 117/117/117 115/115/115 116/116/116
f 118/118/118 117/117/117 116/116/116
f 119/119/119 117/117/117 118/118/118
f 120/120/120 119/119/119 118/118/118
f 97/97/97 119/119/119 120/120/120
f 100/100/100 97/97/97 120/120/120
f 107/107/107 121/121/121 109/109/109
f 109/109/109 121/121/121 112/112/112
f 112/112/112 121/121/121 114/114/114
f 114/114/114 121/121/121 116/116/116
f 116/116/116 121/121/121 118/118/118
f 118/118/118 121/121/121 120/120/120
f 120/120/120 121/121/121 100/100/100
f 100/100/100 121/121/121 99/99/99
f 99/99/99 121/121/121 101/101/101
f 101/101/101 121/121/121 103/103/103
f 103/103/103 121/121/121 105/105/105
f 105/105/105 121/121/121 107/107/107
f 124/124/124 123/123/123 122/122/122
f 125/125/125 124/124/124 122/122/122
f 125/125/125 122/122/122 126/126/126
f 122/122/122 127/127/127 126/126/126
f 124/124/124 128/128/128 123/123/123
f 128/128/128 129/129/129 123/123/123
f 126/126/126 127/127/127 130/130/130
f 131/131/131 126/126/126 130/130/130
f 132/132/132 129/129/129 128/128/128
f 133/133/133 132/132/132 128/128/128
f 131/131/131 130/130/130 134/134/134
f 130/130/130 135/135/135 134/134/134
f 133/133/133 136/136/136 132/132/132
f 136/136/136 137/137/137 132/132/132
f 134/134/134 135/135/135 138/138/138
f 135/135/135 139/139/139 138/138/138
f 136/136/136 140/140/140 137/137/137
f 140/140/140 141/141/141 137/137/137
f 142/142/142 141/141/141 140/140/140
f 143/143/143 142/142/142 140/140/140
f 144/144/144 142/142/142 143/143/143
f 138/138/138 139/139/139 144/144/144
f 145/145/145 144/144/144 143/143/143
f 145/145/145 138/138/138 144/144/144
f 134/134/134 146/146/146 131/131/131
f 133/133/133 146/146/146 136/136/136
f 138/138/138 146/146/146 134/134/134
f 136/136/136 146/146/146 140/140/140
f 143/143/143 146/146/146 145/145/145
f 145/145/145 146/146/146 138/138/138
f 140/140/140 146/146/146 143/143/143
f 131/131/131 146/146/146 126/126/126
f 128/128/128 146/146/146 133/133/133
f 124/124/124 146/146/146 128/128/128
f 126/126/126 146/146/146 125/125/125
f 125/125/125 146/146/146 124/124/124
