# Export of Universe
# from Aaro4130 OBJ Exporter v2.0
mtllib 192.mtl
g DropRingFlat
v 1.44957 -0.5 -1.44957
v 0.530579 -0.5 -1.98015
v -0.530579 -0.5 -1.98015
v -1.44957 -0.5 -1.44957
v 1.98015 -0.5 -0.530579
v -1.98015 -0.5 -0.530579
v 1.98015 -0.5 0.530579
v -1.98015 -0.5 0.530579
v 1.44957 -0.5 1.44957
v -1.44957 -0.5 1.44957
v 0.530579 -0.5 1.98015
v -0.530579 -0.5 1.98015
v 1.98919 0.517638 0.533
v 1.98015 -0.5 0.530579
v 1.44957 -0.5 1.44957
v 1.45619 0.517638 1.45619
v 1.44957 -0.5 1.44957
v 0.530579 -0.5 1.98015
v 0.533 0.517638 1.98919
v 1.45619 0.517638 1.45619
v 0.530579 -0.5 1.98015
v -0.530579 -0.5 1.98015
v -0.533 0.517638 1.98919
v 0.533 0.517638 1.98919
v -0.533 0.517638 1.98919
v -0.530579 -0.5 1.98015
v -1.44957 -0.5 1.44957
v -1.45619 0.517638 1.45619
v -1.44957 -0.5 1.44957
v -1.98015 -0.5 0.530579
v -1.98919 0.517638 0.533
v -1.45619 0.517638 1.45619
v -1.98015 -0.5 0.530579
v -1.98015 -0.5 -0.530579
v -1.98919 0.517638 -0.533
v -1.98919 0.517638 0.533
v -1.98919 0.517638 -0.533
v -1.98015 -0.5 -0.530579
v -1.44957 -0.5 -1.44957
v -1.45619 0.517638 -1.45619
v -1.44957 -0.5 -1.44957
v -0.530579 -0.5 -1.98015
v -0.533 0.517638 -1.98919
v -1.45619 0.517638 -1.45619
v -0.530579 -0.5 -1.98015
v 0.530579 -0.5 -1.98015
v 0.533 0.517638 -1.98919
v -0.533 0.517638 -1.98919
v 0.533 0.517638 -1.98919
v 0.530579 -0.5 -1.98015
v 1.44957 -0.5 -1.44957
v 1.45619 0.517638 -1.45619
v 1.44957 -0.5 -1.44957
v 1.98015 -0.5 -0.530579
v 1.98919 0.517638 -0.533
v 1.45619 0.517638 -1.45619
v 1.98015 -0.5 -0.530579
v 1.98015 -0.5 0.530579
v 1.98919 0.517638 0.533
v 1.98919 0.517638 -0.533
v -1.45619 0.517638 -1.45619
v -0.533 0.517638 -1.98919
v 0.533 0.517638 -1.98919
v 1.45619 0.517638 -1.45619
v -1.98919 0.517638 -0.533
v 1.98919 0.517638 -0.533
v -1.98919 0.517638 0.533
v 1.98919 0.517638 0.533
v -1.45619 0.517638 1.45619
v 1.45619 0.517638 1.45619
v -0.533 0.517638 1.98919
v 0.533 0.517638 1.98919
vn 0.2619374 -0.2426689 -0.4536892
vn 0 -0.242669 -0.5238751
vn -0.2619374 -0.2426689 -0.4536892
vn -0.4536892 -0.2426689 -0.2619374
vn 0.5238751 -0.242669 0
vn -0.5238751 -0.242669 0
vn 0.5238751 -0.242669 0
vn -0.4536892 -0.2426689 0.2619374
vn 0.4536892 -0.2426689 0.2619374
vn -0.2619374 -0.2426689 0.4536892
vn 0.2619374 -0.2426689 0.4536892
vn 0 -0.242669 0.5238751
vn 0.4958059 0.07462367 0.2862537
vn 0.4958059 0.07462367 0.2862537
vn 0.4958059 0.07462367 0.2862537
vn 0.4958059 0.07462367 0.2862537
vn 0.2862537 0.07462367 0.4958059
vn 0.2862537 0.07462367 0.4958059
vn 0.2862537 0.07462367 0.4958059
vn 0.2862537 0.07462367 0.4958059
vn 0 0.07462365 0.5725073
vn 0 0.07462365 0.5725073
vn 0 0.07462365 0.5725073
vn 0 0.07462365 0.5725073
vn -0.2862537 0.07462367 0.4958059
vn -0.2862537 0.07462367 0.4958059
vn -0.2862537 0.07462367 0.4958059
vn -0.2862537 0.07462367 0.4958059
vn -0.4958059 0.07462367 0.2862537
vn -0.4958059 0.07462367 0.2862537
vn -0.4958059 0.07462367 0.2862537
vn -0.4958059 0.07462367 0.2862537
vn -0.5725073 0.07462365 0
vn -0.5725073 0.07462365 0
vn -0.5725073 0.07462365 0
vn -0.5725073 0.07462365 0
vn -0.4958059 0.07462367 -0.2862537
vn -0.4958059 0.07462367 -0.2862537
vn -0.4958059 0.07462367 -0.2862537
vn -0.4958059 0.07462367 -0.2862537
vn -0.2862537 0.07462367 -0.4958059
vn -0.2862537 0.07462367 -0.4958059
vn -0.2862537 0.07462367 -0.4958059
vn -0.2862537 0.07462367 -0.4958059
vn 0 0.07462365 -0.5725073
vn 0 0.07462365 -0.5725073
vn 0 0.07462365 -0.5725073
vn 0 0.07462365 -0.5725073
vn 0.2862537 0.07462367 -0.4958059
vn 0.2862537 0.07462367 -0.4958059
vn 0.2862537 0.07462367 -0.4958059
vn 0.2862537 0.07462367 -0.4958059
vn 0.4958059 0.07462367 -0.2862537
vn 0.4958059 0.07462367 -0.2862537
vn 0.4958059 0.07462367 -0.2862537
vn 0.4958059 0.07462367 -0.2862537
vn 0.5725073 0.07462365 0
vn 0.5725073 0.07462365 0
vn 0.5725073 0.07462365 0
vn 0.5725073 0.07462365 0
vn -0.4626095 0.2190664 -0.2670875
vn -0.2670875 0.2190664 -0.4626095
vn 0.2670875 0.2190664 -0.4626095
vn 0.4626095 0.2190664 -0.2670875
vn -0.4626095 0.2190664 -0.2670875
vn 0.4626095 0.2190664 -0.2670875
vn -0.5341753 0.2190663 0
vn 0.4626095 0.2190664 0.2670875
vn -0.4626095 0.2190664 0.2670875
vn 0.2670875 0.2190664 0.4626095
vn -0.2670875 0.2190664 0.4626095
vn 0 0.2190663 0.5341753
vt 0.864362 0.864362
vt 0.633366 0.997728
vt 0.366634 0.997728
vt 0.135638 0.864362
vt 0.997728 0.633366
vt 0.0022716 0.633366
vt 0.997728 0.366634
vt 0.0022716 0.366634
vt 0.864362 0.135638
vt 0.135638 0.135638
vt 0.633366 0.0022716
vt 0.366634 0.0022716
vt 0.366026 1
vt 0.366634 0
vt 0.135638 0
vt 0.133974 1
vt 0.864362 0
vt 0.633366 0
vt 0.633974 1
vt 0.866026 1
vt 0.633366 0
vt 0.366634 0
vt 0.366026 1
vt 0.633974 1
vt 0.366026 1
vt 0.366634 0
vt 0.135638 0
vt 0.133974 1
vt 0.135638 0
vt 0.366634 0
vt 0.366026 1
vt 0.133974 1
vt 0.366634 0
vt 0.633366 0
vt 0.633974 1
vt 0.366026 1
vt 0.633974 1
vt 0.633366 0
vt 0.864362 0
vt 0.866026 1
vt 0.135638 0
vt 0.366634 0
vt 0.366026 1
vt 0.133974 1
vt 0.366634 0
vt 0.633366 0
vt 0.633974 1
vt 0.366026 1
vt 0.633974 1
vt 0.633366 0
vt 0.864362 0
vt 0.866026 1
vt 0.864362 0
vt 0.633366 0
vt 0.633974 1
vt 0.866026 1
vt 0.633366 0
vt 0.366634 0
vt 0.366026 1
vt 0.633974 1
vt 0.133974 0.866026
vt 0.366026 1
vt 0.633974 1
vt 0.866026 0.866026
vt 0 0.633974
vt 1 0.633974
vt 0 0.366026
vt 1 0.366026
vt 0.133974 0.133974
vt 0.866026 0.133974
vt 0.366026 0
vt 0.633974 0
usemtl baseThingPartMaterial
f 3/3/3 2/2/2 1/1/1
f 1/1/1 4/4/4 3/3/3
f 1/1/1 5/5/5 4/4/4
f 5/5/5 6/6/6 4/4/4
f 5/5/5 7/7/7 6/6/6
f 7/7/7 8/8/8 6/6/6
f 7/7/7 9/9/9 8/8/8
f 9/9/9 10/10/10 8/8/8
f 9/9/9 11/11/11 10/10/10
f 11/11/11 12/12/12 10/10/10
f 15/15/15 14/14/14 13/13/13
f 16/16/16 15/15/15 13/13/13
f 19/19/19 18/18/18 17/17/17
f 20/20/20 19/19/19 17/17/17
f 23/23/23 22/22/22 21/21/21
f 24/24/24 23/23/23 21/21/21
f 27/27/27 26/26/26 25/25/25
f 28/28/28 27/27/27 25/25/25
f 31/31/31 30/30/30 29/29/29
f 32/32/32 31/31/31 29/29/29
f 35/35/35 34/34/34 33/33/33
f 36/36/36 35/35/35 33/33/33
f 39/39/39 38/38/38 37/37/37
f 40/40/40 39/39/39 37/37/37
f 43/43/43 42/42/42 41/41/41
f 44/44/44 43/43/43 41/41/41
f 47/47/47 46/46/46 45/45/45
f 48/48/48 47/47/47 45/45/45
f 51/51/51 50/50/50 49/49/49
f 52/52/52 51/51/51 49/49/49
f 55/55/55 54/54/54 53/53/53
f 56/56/56 55/55/55 53/53/53
f 59/59/59 58/58/58 57/57/57
f 60/60/60 59/59/59 57/57/57
f 63/63/63 62/62/62 61/61/61
f 61/61/61 64/64/64 63/63/63
f 61/61/61 65/65/65 64/64/64
f 65/65/65 66/66/66 64/64/64
f 65/65/65 67/67/67 66/66/66
f 67/67/67 68/68/68 66/66/66
f 67/67/67 69/69/69 68/68/68
f 69/69/69 70/70/70 68/68/68
f 69/69/69 71/71/71 70/70/70
f 71/71/71 72/72/72 70/70/70
