# Export of Universe
# from Aaro4130 OBJ Exporter v2.0
mtllib 193.mtl
g DropPear
v 1.77106 0.512358 -2.35808
v 2.41931 0.512358 -0.863115
v 1.71486 1 -0.459495
v 1.25536 1 -1.25536
v 0.459495 1 -1.71486
v 0.648251 0.512358 -3.22119
v -0.459495 1 -1.71486
v -0.648251 0.512358 -3.22119
v -1.77106 0.512358 -2.35808
v -1.25536 1 -1.25536
v -1.71486 1 -0.459495
v -2.41931 0.512358 -0.863115
v -1.71486 1 0.459495
v -2.41931 0.512358 0.863115
v -1.77106 0.512358 2.35808
v -1.25536 1 1.25536
v -0.459495 1 1.71486
v -0.648251 0.512358 3.22119
v 0.648251 0.512358 3.22119
v 0.459495 1 1.71486
v 1.77106 0.512358 2.35808
v 1.25536 1 1.25536
v 1.71486 1 0.459495
v 2.41931 0.512358 0.863115
v 1.25536 1 -1.25536
v 1.71486 1 -0.459495
v 1.02968 2.07582 -0.270595
v 0.753776 2.07582 -0.73928
v 1.02968 2.07582 0.270595
v 1.71486 1 0.459495
v 1.25536 1 1.25536
v 0.753776 2.07582 0.73928
v 0.5125 2.72263 -0.137324
v 0.375176 2.72263 -0.375176
v 0.5125 2.72263 0.137324
v 0.375176 2.72263 0.375176
v 0.275901 2.07582 -1.00988
v 0.459495 1 -1.71486
v 1.25536 1 -1.25536
v 0.753776 2.07582 -0.73928
v -0.275901 2.07582 -1.00988
v -0.459495 1 -1.71486
v -1.25536 1 -1.25536
v -0.753776 2.07582 -0.73928
v 0.137324 2.72263 -0.5125
v 0.375176 2.72263 -0.375176
v -0.137324 2.72263 -0.5125
v -0.375176 2.72263 -0.375176
v -1.02968 2.07582 -0.270595
v -1.71486 1 -0.459495
v -1.25536 1 -1.25536
v -0.753776 2.07582 -0.73928
v -1.02968 2.07582 0.270595
v -1.71486 1 0.459495
v -1.25536 1 1.25536
v -0.753776 2.07582 0.73928
v -0.5125 2.72263 -0.137324
v -0.375176 2.72263 -0.375176
v -0.5125 2.72263 0.137324
v -0.375176 2.72263 0.375176
v -0.275901 2.07582 1.00988
v -0.459495 1 1.71486
v -1.25536 1 1.25536
v -0.753776 2.07582 0.73928
v 0.275901 2.07582 1.00988
v 0.459495 1 1.71486
v 1.25536 1 1.25536
v 0.753776 2.07582 0.73928
v -0.137324 2.72263 0.5125
v -0.375176 2.72263 0.375176
v 0.137324 2.72263 0.5125
v 0.375176 2.72263 0.375176
v 2.27415 -0.389392 -0.811328
v 1.66479 -0.389392 -2.2166
v 0.92125 -0.824802 -0.87125
v 1.24015 -0.824802 -0.3189
v 0.3689 -0.824802 -1.19015
v 0.609355 -0.389392 -3.02792
v -0.2689 -0.824802 -1.19015
v -0.609355 -0.389392 -3.02792
v -0.82125 -0.824802 -0.87125
v -1.66479 -0.389392 -2.2166
v -1.14015 -0.824802 -0.3189
v -2.27415 -0.389392 -0.811328
v -1.14015 -0.824802 0.3189
v -2.27415 -0.389392 0.811328
v -1.66479 -0.389392 2.2166
v -0.82125 -0.824802 0.87125
v -0.609355 -0.389392 3.02792
v -0.2689 -0.824802 1.19015
v 0.609355 -0.389392 3.02792
v 0.3689 -0.824802 1.19015
v 1.66479 -0.389392 2.2166
v 0.92125 -0.824802 0.87125
v 2.27415 -0.389392 0.811328
v 1.24015 -0.824802 0.3189
v -0.01 -0.98 0
v 2.27415 -0.389392 -0.811328
v 2.50465 -3.46455E-08 -0.893562
v 1.83353 -3.46455E-08 -2.44126
v 1.66479 -0.389392 -2.2166
v 2.27415 -0.389392 0.811328
v 2.50465 -3.46455E-08 0.893562
v 1.83353 -3.46455E-08 2.44126
v 1.66479 -0.389392 2.2166
v 2.41931 0.512358 0.863115
v 1.77106 0.512358 2.35808
v 2.41931 0.512358 -0.863115
v 1.77106 0.512358 -2.35808
v 1.83353 -3.46455E-08 -2.44126
v 0.671118 -3.46455E-08 -3.33482
v 0.609355 -0.389392 -3.02792
v 1.66479 -0.389392 -2.2166
v -0.671118 -3.46455E-08 -3.33482
v -0.609355 -0.389392 -3.02792
v -1.83353 -3.46455E-08 -2.44126
v -1.66479 -0.389392 -2.2166
v -0.648251 0.512358 -3.22119
v -1.77106 0.512358 -2.35808
v 0.648251 0.512358 -3.22119
v 1.77106 0.512358 -2.35808
v -1.83353 -3.46455E-08 -2.44126
v -2.50465 -3.46455E-08 -0.893562
v -2.27415 -0.389392 -0.811328
v -1.66479 -0.389392 -2.2166
v -2.50465 -3.46455E-08 0.893562
v -2.27415 -0.389392 0.811328
v -1.83353 -3.46455E-08 2.44126
v -1.66479 -0.389392 2.2166
v -2.41931 0.512358 0.863115
v -1.77106 0.512358 2.35808
v -2.41931 0.512358 -0.863115
v -1.77106 0.512358 -2.35808
v -1.83353 -3.46455E-08 2.44126
v -0.671118 -3.46455E-08 3.33482
v -0.609355 -0.389392 3.02792
v -1.66479 -0.389392 2.2166
v 0.671118 -3.46455E-08 3.33482
v 0.609355 -0.389392 3.02792
v 1.83353 -3.46455E-08 2.44126
v 1.66479 -0.389392 2.2166
v 0.648251 0.512358 3.22119
v 1.77106 0.512358 2.35808
v -0.648251 0.512358 3.22119
v -1.77106 0.512358 2.35808
v 0.5125 2.72263 -0.137324
v 0.5125 2.72263 0.137324
v 0.284942 2.85 0.0763499
v 0.284942 2.85 -0.0763499
v 0.208592 2.85 -0.208592
v 0.375176 2.72263 -0.375176
v 0.208592 2.85 0.208592
v 0.375176 2.72263 0.375176
v 0.137324 2.72263 -0.5125
v 0.0763499 2.85 -0.284942
v 0.137324 2.72263 0.5125
v 0.0763499 2.85 0.284942
v -0.0763499 2.85 -0.284942
v -0.137324 2.72263 -0.5125
v -0.0763499 2.85 0.284942
v -0.137324 2.72263 0.5125
v -0.208592 2.85 -0.208592
v -0.375176 2.72263 -0.375176
v -0.208592 2.85 0.208592
v -0.375176 2.72263 0.375176
v -0.5125 2.72263 0.137324
v -0.284942 2.85 0.0763499
v -0.5125 2.72263 -0.137324
v -0.284942 2.85 -0.0763499
v -2.51053E-16 2.90949 0
vn 0.3095784 0.4143591 -0.2565171
vn 0.4485005 0.3491648 -0.101314
vn 0.367949 0.4366271 -0.08546107
vn 0.2497397 0.4718224 -0.2198794
vn 0.08281936 0.5013084 -0.2741609
vn 0.1105888 0.4544613 -0.3384795
vn -0.08281937 0.5013084 -0.2741609
vn -0.1105888 0.4544613 -0.3384795
vn -0.3095784 0.4143591 -0.2565171
vn -0.2497397 0.4718224 -0.2198794
vn -0.367949 0.4366271 -0.08546109
vn -0.4485005 0.3491648 -0.101314
vn -0.367949 0.4366271 0.08546108
vn -0.4485005 0.3491648 0.101314
vn -0.3095784 0.4143591 0.2565171
vn -0.2497397 0.4718224 0.2198794
vn -0.08281936 0.5013084 0.2741609
vn -0.1105888 0.4544613 0.3384795
vn 0.1105888 0.4544613 0.3384795
vn 0.08281936 0.5013084 0.2741609
vn 0.3095784 0.4143591 0.2565171
vn 0.2497397 0.4718224 0.2198794
vn 0.367949 0.4366271 0.08546109
vn 0.4485005 0.3491648 0.101314
vn 0.2497397 0.4718224 -0.2198794
vn 0.367949 0.4366271 -0.08546107
vn 0.4573134 0.330141 -0.1233072
vn 0.3334199 0.3310467 -0.3355183
vn 0.4573135 0.3301409 0.1233072
vn 0.367949 0.4366271 0.08546109
vn 0.2497397 0.4718224 0.2198794
vn 0.3334199 0.3310467 0.3355183
vn 0.4140894 0.3862217 -0.112677
vn 0.3029071 0.3833459 -0.3076143
vn 0.4140894 0.3862218 0.112677
vn 0.3029071 0.3833459 0.3076143
vn 0.1215495 0.3319327 -0.4564863
vn 0.08281936 0.5013084 -0.2741609
vn 0.2497397 0.4718224 -0.2198794
vn 0.3334199 0.3310467 -0.3355183
vn -0.1215495 0.3319327 -0.4564863
vn -0.08281937 0.5013084 -0.2741609
vn -0.2497397 0.4718224 -0.2198794
vn -0.3334199 0.3310467 -0.3355183
vn 0.1107826 0.3804765 -0.4198788
vn 0.3029071 0.3833459 -0.3076143
vn -0.1107826 0.3804765 -0.4198788
vn -0.3029071 0.3833459 -0.3076143
vn -0.4573134 0.330141 -0.1233072
vn -0.367949 0.4366271 -0.08546109
vn -0.2497397 0.4718224 -0.2198794
vn -0.3334199 0.3310467 -0.3355183
vn -0.4573135 0.3301409 0.1233072
vn -0.367949 0.4366271 0.08546108
vn -0.2497397 0.4718224 0.2198794
vn -0.3334199 0.3310467 0.3355184
vn -0.4140893 0.3862218 -0.112677
vn -0.3029071 0.3833459 -0.3076143
vn -0.4140894 0.3862217 0.112677
vn -0.3029071 0.3833459 0.3076143
vn -0.1215495 0.3319327 0.4564863
vn -0.08281936 0.5013084 0.2741609
vn -0.2497397 0.4718224 0.2198794
vn -0.3334199 0.3310467 0.3355184
vn 0.1215495 0.3319327 0.4564863
vn 0.08281936 0.5013084 0.2741609
vn 0.2497397 0.4718224 0.2198794
vn 0.3334199 0.3310467 0.3355183
vn -0.1107826 0.3804765 0.4198788
vn -0.3029071 0.3833459 0.3076143
vn 0.1107826 0.3804765 0.4198788
vn 0.3029071 0.3833459 0.3076143
vn 0.3294066 -0.4687369 -0.0714869
vn 0.2291151 -0.4972641 -0.1832157
vn 0.1229928 -0.5560125 -0.09516431
vn 0.1792996 -0.5475988 -0.03633812
vn 0.04167976 -0.5630269 -0.1208177
vn 0.08212274 -0.5168449 -0.2438453
vn -0.03997417 -0.5634051 -0.1196247
vn -0.08264297 -0.5177987 -0.2416361
vn -0.1178639 -0.557538 -0.09269742
vn -0.2243356 -0.5013225 -0.1779959
vn -0.1708238 -0.5503681 -0.03531988
vn -0.3170708 -0.4776511 -0.06818285
vn -0.1708238 -0.5503681 0.03531988
vn -0.3170708 -0.4776511 0.06818285
vn -0.2243356 -0.5013225 0.1779959
vn -0.1178639 -0.557538 0.09269741
vn -0.08264297 -0.5177987 0.2416361
vn -0.03997416 -0.5634051 0.1196247
vn 0.08212274 -0.5168449 0.2438453
vn 0.04167975 -0.5630269 0.1208177
vn 0.2291151 -0.4972641 0.1832158
vn 0.1229928 -0.5560125 0.09516428
vn 0.3294066 -0.4687369 0.0714869
vn 0.1792996 -0.5475989 0.03633812
vn -0.001785304 -0.5773475 0
vn 0.3294066 -0.4687369 -0.0714869
vn 0.5587071 -0.08790813 -0.1159822
vn 0.44962 -0.09607127 -0.3492069
vn 0.2291151 -0.4972641 -0.1832157
vn 0.3294066 -0.4687369 0.0714869
vn 0.5587071 -0.08790813 0.1159822
vn 0.44962 -0.09607131 0.3492069
vn 0.2291151 -0.4972641 0.1832158
vn 0.4485005 0.3491648 0.101314
vn 0.3095784 0.4143591 0.2565171
vn 0.4485005 0.3491648 -0.101314
vn 0.3095784 0.4143591 -0.2565171
vn 0.44962 -0.09607127 -0.3492069
vn 0.1845819 -0.1058623 -0.5367085
vn 0.08212274 -0.5168449 -0.2438453
vn 0.2291151 -0.4972641 -0.1832157
vn -0.1845819 -0.1058623 -0.5367085
vn -0.08264297 -0.5177987 -0.2416361
vn -0.44962 -0.0960713 -0.3492069
vn -0.2243356 -0.5013225 -0.1779959
vn -0.1105888 0.4544613 -0.3384795
vn -0.3095784 0.4143591 -0.2565171
vn 0.1105888 0.4544613 -0.3384795
vn 0.3095784 0.4143591 -0.2565171
vn -0.44962 -0.0960713 -0.3492069
vn -0.5587071 -0.08790815 -0.1159822
vn -0.3170708 -0.4776511 -0.06818285
vn -0.2243356 -0.5013225 -0.1779959
vn -0.5587071 -0.08790813 0.1159822
vn -0.3170708 -0.4776511 0.06818285
vn -0.44962 -0.09607128 0.3492069
vn -0.2243356 -0.5013225 0.1779959
vn -0.4485005 0.3491648 0.101314
vn -0.3095784 0.4143591 0.2565171
vn -0.4485005 0.3491648 -0.101314
vn -0.3095784 0.4143591 -0.2565171
vn -0.44962 -0.09607128 0.3492069
vn -0.1845819 -0.1058623 0.5367085
vn -0.08264297 -0.5177987 0.2416361
vn -0.2243356 -0.5013225 0.1779959
vn 0.1845819 -0.1058623 0.5367085
vn 0.08212274 -0.5168449 0.2438453
vn 0.44962 -0.09607131 0.3492069
vn 0.2291151 -0.4972641 0.1832158
vn 0.1105888 0.4544613 0.3384795
vn 0.3095784 0.4143591 0.2565171
vn -0.1105888 0.4544613 0.3384795
vn -0.3095784 0.4143591 0.2565171
vn 0.4140894 0.3862217 -0.112677
vn 0.4140894 0.3862218 0.112677
vn 0.2318821 0.5250748 0.06213263
vn 0.2318821 0.5250748 -0.06213263
vn 0.1697495 0.5250748 -0.1697495
vn 0.3029071 0.3833459 -0.3076143
vn 0.1697495 0.5250748 0.1697495
vn 0.3029071 0.3833459 0.3076143
vn 0.1107826 0.3804765 -0.4198788
vn 0.06213263 0.5250748 -0.2318821
vn 0.1107826 0.3804765 0.4198788
vn 0.06213263 0.5250748 0.2318821
vn -0.06213263 0.5250748 -0.2318821
vn -0.1107826 0.3804765 -0.4198788
vn -0.06213263 0.5250748 0.2318821
vn -0.1107826 0.3804765 0.4198788
vn -0.1697495 0.5250748 -0.1697495
vn -0.3029071 0.3833459 -0.3076143
vn -0.1697495 0.5250748 0.1697495
vn -0.3029071 0.3833459 0.3076143
vn -0.4140894 0.3862217 0.112677
vn -0.2318821 0.5250748 0.06213263
vn -0.4140893 0.3862218 -0.112677
vn -0.2318821 0.5250748 -0.06213263
vn 0 0.5773503 0
vt 0.864161 0.853554
vt 0.997452 0.62941
vt 0.852605 0.568894
vt 0.758124 0.68822
vt 0.59448 0.757114
vt 0.633292 0.982963
vt 0.40552 0.757114
vt 0.366708 0.982963
vt 0.135839 0.853554
vt 0.241876 0.68822
vt 0.147395 0.568894
vt 0.00254822 0.62941
vt 0.147395 0.431106
vt 0.00254822 0.37059
vt 0.135839 0.146446
vt 0.241876 0.31178
vt 0.40552 0.242886
vt 0.366708 0.0170369
vt 0.633292 0.0170369
vt 0.59448 0.242886
vt 0.864161 0.146446
vt 0.758124 0.31178
vt 0.852605 0.431106
vt 0.997452 0.37059
vt 0.68822 0.509064
vt 0.568894 0.509064
vt 0.540571 0.785661
vt 0.610843 0.785661
vt 0.459429 0.785661
vt 0.431106 0.509064
vt 0.31178 0.509064
vt 0.389157 0.785661
vt 0.520589 0.951958
vt 0.556251 0.951958
vt 0.479411 0.951958
vt 0.443749 0.951958
vt 0.55673 0.785661
vt 0.59448 0.509064
vt 0.758124 0.509064
vt 0.654989 0.785661
vt 0.44327 0.785661
vt 0.40552 0.509064
vt 0.241876 0.509064
vt 0.345011 0.785661
vt 0.528236 0.951958
vt 0.577143 0.951958
vt 0.471764 0.951958
vt 0.422857 0.951958
vt 0.540571 0.785661
vt 0.568894 0.509064
vt 0.68822 0.509064
vt 0.610843 0.785661
vt 0.459429 0.785661
vt 0.431106 0.509064
vt 0.31178 0.509064
vt 0.389157 0.785661
vt 0.520589 0.951958
vt 0.556251 0.951958
vt 0.479411 0.951958
vt 0.443749 0.951958
vt 0.44327 0.785661
vt 0.40552 0.509064
vt 0.241876 0.509064
vt 0.345011 0.785661
vt 0.55673 0.785661
vt 0.59448 0.509064
vt 0.758124 0.509064
vt 0.654989 0.785661
vt 0.471764 0.951958
vt 0.422857 0.951958
vt 0.528236 0.951958
vt 0.577143 0.951958
vt 0.967605 0.621645
vt 0.84231 0.832342
vt 0.689425 0.630629
vt 0.754996 0.547814
vt 0.575852 0.678443
vt 0.625294 0.953986
vt 0.444709 0.678443
vt 0.374706 0.953986
vt 0.331137 0.630629
vt 0.15769 0.832342
vt 0.265565 0.547814
vt 0.0323949 0.621645
vt 0.265565 0.452186
vt 0.0323949 0.378355
vt 0.15769 0.167658
vt 0.331137 0.369371
vt 0.374706 0.0460145
vt 0.444709 0.321557
vt 0.625294 0.0460145
vt 0.575852 0.321557
vt 0.84231 0.167658
vt 0.689425 0.369371
vt 0.967605 0.378355
vt 0.754996 0.452186
vt 0.497944 0.5
vt 0.621645 0.151847
vt 0.633975 0.251961
vt 0.866026 0.251961
vt 0.832342 0.151847
vt 0.378355 0.151847
vt 0.366025 0.251961
vt 0.133974 0.251961
vt 0.167658 0.151847
vt 0.37059 0.38369
vt 0.146446 0.38369
vt 0.62941 0.38369
vt 0.853554 0.38369
vt 0.877006 0.251961
vt 0.637994 0.251961
vt 0.625294 0.151847
vt 0.84231 0.151847
vt 0.362006 0.251961
vt 0.374706 0.151847
vt 0.122994 0.251961
vt 0.15769 0.151847
vt 0.366708 0.38369
vt 0.135839 0.38369
vt 0.633292 0.38369
vt 0.864161 0.38369
vt 0.866026 0.251961
vt 0.633975 0.251961
vt 0.621645 0.151847
vt 0.832342 0.151847
vt 0.366025 0.251961
vt 0.378355 0.151847
vt 0.133974 0.251961
vt 0.167658 0.151847
vt 0.37059 0.38369
vt 0.146446 0.38369
vt 0.62941 0.38369
vt 0.853554 0.38369
vt 0.122994 0.251961
vt 0.362006 0.251961
vt 0.374706 0.151847
vt 0.15769 0.151847
vt 0.637994 0.251961
vt 0.625294 0.151847
vt 0.877006 0.251961
vt 0.84231 0.151847
vt 0.633292 0.38369
vt 0.864161 0.38369
vt 0.366708 0.38369
vt 0.135839 0.38369
vt 0.605379 0.520589
vt 0.605379 0.479411
vt 0.558589 0.488553
vt 0.558589 0.511447
vt 0.54289 0.531275
vt 0.577143 0.556251
vt 0.54289 0.468725
vt 0.577143 0.443749
vt 0.528236 0.576841
vt 0.515699 0.542722
vt 0.528236 0.423159
vt 0.515699 0.457278
vt 0.484301 0.542722
vt 0.471764 0.576841
vt 0.484301 0.457278
vt 0.471764 0.423159
vt 0.45711 0.531275
vt 0.422857 0.556251
vt 0.45711 0.468725
vt 0.422857 0.443749
vt 0.394621 0.479411
vt 0.441411 0.488553
vt 0.394621 0.520589
vt 0.441411 0.511447
vt 0.5 0.5
usemtl baseThingPartMaterial
f 3/3/3 2/2/2 1/1/1
f 4/4/4 3/3/3 1/1/1
f 4/4/4 1/1/1 5/5/5
f 1/1/1 6/6/6 5/5/5
f 5/5/5 6/6/6 7/7/7
f 6/6/6 8/8/8 7/7/7
f 7/7/7 8/8/8 9/9/9
f 10/10/10 7/7/7 9/9/9
f 10/10/10 9/9/9 11/11/11
f 9/9/9 12/12/12 11/11/11
f 11/11/11 12/12/12 13/13/13
f 12/12/12 14/14/14 13/13/13
f 13/13/13 14/14/14 15/15/15
f 16/16/16 13/13/13 15/15/15
f 16/16/16 15/15/15 17/17/17
f 15/15/15 18/18/18 17/17/17
f 17/17/17 18/18/18 19/19/19
f 20/20/20 17/17/17 19/19/19
f 20/20/20 19/19/19 21/21/21
f 22/22/22 20/20/20 21/21/21
f 22/22/22 21/21/21 23/23/23
f 21/21/21 24/24/24 23/23/23
f 23/23/23 24/24/24 2/2/2
f 3/3/3 23/23/23 2/2/2
f 27/27/27 26/26/26 25/25/25
f 28/28/28 27/27/27 25/25/25
f 27/27/27 29/29/29 26/26/26
f 29/29/29 30/30/30 26/26/26
f 31/31/31 30/30/30 29/29/29
f 32/32/32 31/31/31 29/29/29
f 33/33/33 27/27/27 28/28/28
f 34/34/34 33/33/33 28/28/28
f 32/32/32 29/29/29 35/35/35
f 35/35/35 29/29/29 27/27/27
f 33/33/33 35/35/35 27/27/27
f 36/36/36 32/32/32 35/35/35
f 39/39/39 38/38/38 37/37/37
f 40/40/40 39/39/39 37/37/37
f 37/37/37 38/38/38 41/41/41
f 38/38/38 42/42/42 41/41/41
f 41/41/41 42/42/42 43/43/43
f 44/44/44 41/41/41 43/43/43
f 40/40/40 37/37/37 45/45/45
f 46/46/46 40/40/40 45/45/45
f 37/37/37 41/41/41 47/47/47
f 45/45/45 37/37/37 47/47/47
f 41/41/41 44/44/44 48/48/48
f 47/47/47 41/41/41 48/48/48
f 51/51/51 50/50/50 49/49/49
f 52/52/52 51/51/51 49/49/49
f 49/49/49 50/50/50 53/53/53
f 50/50/50 54/54/54 53/53/53
f 53/53/53 54/54/54 55/55/55
f 56/56/56 53/53/53 55/55/55
f 52/52/52 49/49/49 57/57/57
f 58/58/58 52/52/52 57/57/57
f 49/49/49 53/53/53 59/59/59
f 57/57/57 49/49/49 59/59/59
f 59/59/59 53/53/53 56/56/56
f 60/60/60 59/59/59 56/56/56
f 63/63/63 62/62/62 61/61/61
f 64/64/64 63/63/63 61/61/61
f 61/61/61 62/62/62 65/65/65
f 62/62/62 66/66/66 65/65/65
f 65/65/65 66/66/66 67/67/67
f 68/68/68 65/65/65 67/67/67
f 64/64/64 61/61/61 69/69/69
f 69/69/69 61/61/61 65/65/65
f 70/70/70 64/64/64 69/69/69
f 71/71/71 69/69/69 65/65/65
f 65/65/65 68/68/68 72/72/72
f 71/71/71 65/65/65 72/72/72
f 75/75/75 74/74/74 73/73/73
f 76/76/76 75/75/75 73/73/73
f 75/75/75 77/77/77 74/74/74
f 77/77/77 78/78/78 74/74/74
f 77/77/77 79/79/79 78/78/78
f 79/79/79 80/80/80 78/78/78
f 79/79/79 81/81/81 80/80/80
f 81/81/81 82/82/82 80/80/80
f 81/81/81 83/83/83 82/82/82
f 83/83/83 84/84/84 82/82/82
f 83/83/83 85/85/85 84/84/84
f 85/85/85 86/86/86 84/84/84
f 87/87/87 86/86/86 85/85/85
f 88/88/88 87/87/87 85/85/85
f 89/89/89 87/87/87 88/88/88
f 90/90/90 89/89/89 88/88/88
f 91/91/91 89/89/89 90/90/90
f 92/92/92 91/91/91 90/90/90
f 93/93/93 91/91/91 92/92/92
f 94/94/94 93/93/93 92/92/92
f 95/95/95 93/93/93 94/94/94
f 96/96/96 95/95/95 94/94/94
f 73/73/73 95/95/95 96/96/96
f 76/76/76 73/73/73 96/96/96
f 83/83/83 97/97/97 85/85/85
f 85/85/85 97/97/97 88/88/88
f 88/88/88 97/97/97 90/90/90
f 90/90/90 97/97/97 92/92/92
f 92/92/92 97/97/97 94/94/94
f 94/94/94 97/97/97 96/96/96
f 96/96/96 97/97/97 76/76/76
f 76/76/76 97/97/97 75/75/75
f 75/75/75 97/97/97 77/77/77
f 77/77/77 97/97/97 79/79/79
f 79/79/79 97/97/97 81/81/81
f 81/81/81 97/97/97 83/83/83
f 100/100/100 99/99/99 98/98/98
f 101/101/101 100/100/100 98/98/98
f 98/98/98 99/99/99 102/102/102
f 99/99/99 103/103/103 102/102/102
f 102/102/102 103/103/103 104/104/104
f 105/105/105 102/102/102 104/104/104
f 104/104/104 103/103/103 106/106/106
f 106/106/106 103/103/103 99/99/99
f 107/107/107 104/104/104 106/106/106
f 108/108/108 99/99/99 100/100/100
f 108/108/108 106/106/106 99/99/99
f 109/109/109 108/108/108 100/100/100
f 112/112/112 111/111/111 110/110/110
f 113/113/113 112/112/112 110/110/110
f 114/114/114 111/111/111 112/112/112
f 115/115/115 114/114/114 112/112/112
f 116/116/116 114/114/114 115/115/115
f 117/117/117 116/116/116 115/115/115
f 118/118/118 114/114/114 116/116/116
f 119/119/119 118/118/118 116/116/116
f 120/120/120 111/111/111 114/114/114
f 118/118/118 120/120/120 114/114/114
f 110/110/110 111/111/111 120/120/120
f 121/121/121 110/110/110 120/120/120
f 124/124/124 123/123/123 122/122/122
f 125/125/125 124/124/124 122/122/122
f 126/126/126 123/123/123 124/124/124
f 127/127/127 126/126/126 124/124/124
f 128/128/128 126/126/126 127/127/127
f 129/129/129 128/128/128 127/127/127
f 130/130/130 126/126/126 128/128/128
f 131/131/131 130/130/130 128/128/128
f 132/132/132 123/123/123 126/126/126
f 130/130/130 132/132/132 126/126/126
f 122/122/122 123/123/123 132/132/132
f 133/133/133 122/122/122 132/132/132
f 136/136/136 135/135/135 134/134/134
f 137/137/137 136/136/136 134/134/134
f 138/138/138 135/135/135 136/136/136
f 139/139/139 138/138/138 136/136/136
f 140/140/140 138/138/138 139/139/139
f 141/141/141 140/140/140 139/139/139
f 142/142/142 138/138/138 140/140/140
f 143/143/143 142/142/142 140/140/140
f 144/144/144 135/135/135 138/138/138
f 142/142/142 144/144/144 138/138/138
f 134/134/134 135/135/135 144/144/144
f 145/145/145 134/134/134 144/144/144
f 148/148/148 147/147/147 146/146/146
f 149/149/149 148/148/148 146/146/146
f 149/149/149 146/146/146 150/150/150
f 146/146/146 151/151/151 150/150/150
f 148/148/148 152/152/152 147/147/147
f 152/152/152 153/153/153 147/147/147
f 150/150/150 151/151/151 154/154/154
f 155/155/155 150/150/150 154/154/154
f 156/156/156 153/153/153 152/152/152
f 157/157/157 156/156/156 152/152/152
f 155/155/155 154/154/154 158/158/158
f 154/154/154 159/159/159 158/158/158
f 157/157/157 160/160/160 156/156/156
f 160/160/160 161/161/161 156/156/156
f 158/158/158 159/159/159 162/162/162
f 159/159/159 163/163/163 162/162/162
f 160/160/160 164/164/164 161/161/161
f 164/164/164 165/165/165 161/161/161
f 166/166/166 165/165/165 164/164/164
f 167/167/167 166/166/166 164/164/164
f 168/168/168 166/166/166 167/167/167
f 162/162/162 163/163/163 168/168/168
f 169/169/169 168/168/168 167/167/167
f 169/169/169 162/162/162 168/168/168
f 158/158/158 170/170/170 155/155/155
f 157/157/157 170/170/170 160/160/160
f 162/162/162 170/170/170 158/158/158
f 160/160/160 170/170/170 164/164/164
f 167/167/167 170/170/170 169/169/169
f 169/169/169 170/170/170 162/162/162
f 164/164/164 170/170/170 167/167/167
f 155/155/155 170/170/170 150/150/150
f 152/152/152 170/170/170 157/157/157
f 148/148/148 170/170/170 152/152/152
f 150/150/150 170/170/170 149/149/149
f 149/149/149 170/170/170 148/148/148
