# Export of Universe
# from Aaro4130 OBJ Exporter v2.0
mtllib 2.mtl
g Pyramid
v -1.059236 0.9994933 -0.4636532
v 0.01159554 -0.00383538 0.8871915
v -1.059236 -1.000507 -0.4636532
v 0.01159554 -0.00383538 0.8871915
v -1.059236 0.9994933 -0.4636532
v 0.9407636 0.9994933 -0.4636532
v 0.01159554 -0.00383538 0.8871915
v 0.9407636 0.9994933 -0.4636532
v 0.9407636 -1.000507 -0.4636532
v -1.059236 -1.000507 -0.4636532
v 0.01159554 -0.00383538 0.8871915
v 0.9407636 -1.000507 -0.4636532
v -1.059236 -1.000507 -0.4636532
v 0.9407636 -1.000507 -0.4636532
v 0.9407636 0.9994933 -0.4636532
v -1.059236 0.9994933 -0.4636532
vn -0.4524387 0 0.3586538
vn -0.4524387 0 0.3586538
vn -0.4524387 0 0.3586538
vn 0 0.46349 0.3442533
vn 0 0.46349 0.3442533
vn 0 0.46349 0.3442533
vn 0.4756848 0 0.3271961
vn 0.4756848 0 0.3271961
vn 0.4756848 0 0.3271961
vn 0 -0.4645836 0.342776
vn 0 -0.4645836 0.342776
vn 0 -0.4645836 0.342776
vn 0 0 -0.5773503
vn 0 0 -0.5773503
vn 0 0 -0.5773503
vn 0 0 -0.5773503
vt 0.008482694 1
vt 0.4999852 0.5000016
vt 0.002616345 0.007579505
vt 0.4999852 0.5000016
vt 0.008482694 1
vt 1.004188 0.9964305
vt 0.4999852 0.5000016
vt 1.004188 0.9964305
vt 0.9915173 0
vt 0.002616345 0.007579505
vt 0.4999852 0.5000016
vt 0.9915173 0
vt -0.002616345 0.000903147
vt 1 0
vt 0.9958122 0.995087
vt 0 1
usemtl baseThingPartMaterial
f 3/3/3 2/2/2 1/1/1
f 6/6/6 5/5/5 4/4/4
f 9/9/9 8/8/8 7/7/7
f 12/12/12 11/11/11 10/10/10
f 15/15/15 14/14/14 13/13/13
f 16/16/16 15/15/15 13/13/13
