# Export of Universe
# from Aaro4130 OBJ Exporter v2.0
mtllib 201.mtl
g Pipe2
v 1.84776 -1 -0.765367
v 2 -1 0
v 2 1 0
v 1.84776 1 -0.765367
v 1.41421 -1 -1.41421
v 1.41421 1 -1.41421
v 0.765367 -1 -1.84776
v 0.765367 1 -1.84776
v 0 -1 -2
v 0 1 -2
v -0.765367 1 -1.84776
v -0.765367 -1 -1.84776
v -1.41421 1 -1.41421
v -1.41421 -1 -1.41421
v -1.84776 1 -0.765367
v -1.84776 -1 -0.765367
v -2 1 0
v -2 -1 0
v -1.84776 1 0.765367
v -1.84776 -1 0.765367
v -2 -1 0
v -2 1 0
v -1.41421 1 1.41421
v -1.41421 -1 1.41421
v -1.84776 -1 0.765367
v -1.84776 1 0.765367
v -0.765367 1 1.84776
v -0.765367 -1 1.84776
v 0 1 2
v 0 -1 2
v 0.765367 -1 1.84776
v 0.765367 1 1.84776
v 1.41421 -1 1.41421
v 1.41421 1 1.41421
v 1.84776 -1 0.765367
v 1.84776 1 0.765367
v 2 -1 0
v 1.84776 -1 0.765367
v 1.84776 1 0.765367
v 2 1 0
v 1.11022E-16 -1 -1.0032
v -1.41421 -1 -1.41421
v -1.84776 -1 -0.765367
v -0.389725 -1 -0.926836
v -0.720118 -1 -0.709369
v -2 -1 0
v -0.940879 -1 -0.383908
v -1.0184 -1 0
v 1.84776 -1 -0.765367
v 1.41421 -1 -1.41421
v -0.765367 -1 -1.84776
v 0.765367 -1 -1.84776
v 0 -1 -2
v 0.389725 -1 -0.926836
v 0.720118 -1 -0.709369
v 2 -1 0
v 0.940879 -1 -0.383908
v 1.0184 -1 -3.33067E-16
v 1.0184 -1 -3.33067E-16
v 0.940879 -1 0.383908
v 2 -1 0
v 1.84776 -1 0.765367
v 0.940879 -1 0.383908
v 0.720118 -1 0.709369
v 1.84776 -1 0.765367
v 0.389725 -1 0.926836
v 1.41421 -1 1.41421
v 3.33067E-16 -1 1.0032
v -1.41421 -1 1.41421
v -0.389725 -1 0.926836
v -1.84776 -1 0.765367
v -0.720118 -1 0.709369
v -0.940879 -1 0.383908
v 0.765367 -1 1.84776
v -0.765367 -1 1.84776
v 0 -1 2
v -0.940879 -1 0.383908
v -1.0184 -1 0
v -2 -1 0
v -1.84776 -1 0.765367
v -0.765367 1 -1.84776
v 0 1 -2
v 0.765367 1 -1.84776
v -1.41421 1 -1.41421
v 1.41421 1 -1.41421
v -1.84776 1 -0.765367
v 3.33067E-16 1 -1.0032
v -0.389725 1 -0.926836
v -0.720118 1 -0.709369
v -2 1 0
v -0.940879 1 -0.383908
v -1.0184 1 0
v -1.84776 1 0.765367
v -0.940879 1 0.383908
v -0.720118 1 0.709369
v -0.389725 1 0.926836
v -1.41421 1 1.41421
v 1.11022E-16 1 1.0032
v 1.84776 1 -0.765367
v 0.389725 1 -0.926836
v 0.720118 1 -0.709369
v 2 1 0
v 0.940879 1 -0.383908
v 1.0184 1 3.33067E-16
v 1.84776 1 0.765367
v 0.940879 1 0.383908
v 0.720118 1 0.709369
v 0.389725 1 0.926836
v 1.41421 1 1.41421
v -0.765367 1 1.84776
v 0.765367 1 1.84776
v 0 1 2
v 1.0184 1 0
v 1.0184 -1 0
v 0.940879 -1 -0.383908
v 0.940879 1 -0.383908
v 0.720118 -1 -0.709369
v 0.720118 1 -0.709369
v 0.389725 -1 -0.926836
v 0.389725 1 -0.926836
v 0 -1 -1.0032
v 0 1 -1.0032
v -0.389725 -1 -0.926836
v -0.389725 1 -0.926836
v -0.720118 -1 -0.709369
v -0.720118 1 -0.709369
v -0.940879 -1 -0.383908
v -0.940879 1 -0.383908
v -1.0184 -1 0
v -1.0184 1 0
v -1.0184 1 0
v -1.0184 -1 0
v -0.940879 -1 0.383908
v -0.940879 1 0.383908
v -0.940879 1 0.383908
v -0.940879 -1 0.383908
v -0.720118 -1 0.709369
v -0.720118 1 0.709369
v -0.389725 -1 0.926836
v -0.389725 1 0.926836
v 0 -1 1.0032
v 0 1 1.0032
v 0.389725 -1 0.926836
v 0.389725 1 0.926836
v 0.720118 -1 0.709369
v 0.720118 1 0.709369
v 0.940879 -1 0.383908
v 0.940879 1 0.383908
v 0.940879 1 0.383908
v 0.940879 -1 0.383908
v 1.0184 -1 0
v 1.0184 1 0
vn 0.5334014 0 -0.220944
vn 0.5773503 0 0
vn 0.5773503 0 0
vn 0.5334014 0 -0.220944
vn 0.4082483 0 -0.4082483
vn 0.4082483 0 -0.4082483
vn 0.220944 0 -0.5334014
vn 0.220944 0 -0.5334014
vn 0 0 -0.5773503
vn 0 0 -0.5773503
vn -0.220944 0 -0.5334014
vn -0.220944 0 -0.5334014
vn -0.4082483 0 -0.4082483
vn -0.4082483 0 -0.4082483
vn -0.5334014 0 -0.220944
vn -0.5334014 0 -0.220944
vn -0.5773503 0 0
vn -0.5773503 0 0
vn -0.5334014 0 0.220944
vn -0.5334014 0 0.220944
vn -0.5773503 0 0
vn -0.5773503 0 0
vn -0.4082483 0 0.4082483
vn -0.4082483 0 0.4082483
vn -0.5334014 0 0.220944
vn -0.5334014 0 0.220944
vn -0.220944 0 0.5334014
vn -0.220944 0 0.5334014
vn 0 0 0.5773503
vn 0 0 0.5773503
vn 0.220944 0 0.5334014
vn 0.220944 0 0.5334014
vn 0.4082483 0 0.4082483
vn 0.4082483 0 0.4082483
vn 0.5334014 0 0.220944
vn 0.5334014 0 0.220944
vn 0.5773503 0 0
vn 0.5334014 0 0.220944
vn 0.5334014 0 0.220944
vn 0.5773503 0 0
vn 0 -0.5773503 0
vn 0 -0.5773503 0
vn 0 -0.5773503 0
vn 0 -0.5773503 0
vn 0 -0.5773503 0
vn 0 -0.5773503 0
vn 0 -0.5773503 0
vn 0 -0.5773503 0
vn 0 -0.5773503 0
vn 0 -0.5773503 0
vn 0 -0.5773503 0
vn 0 -0.5773503 0
vn 0 -0.5773503 0
vn 0 -0.5773503 0
vn 0 -0.5773503 0
vn 0 -0.5773503 0
vn 0 -0.5773503 0
vn 0 -0.5773503 0
vn 0 -0.5773503 0
vn 0 -0.5773503 0
vn 0 -0.5773503 0
vn 0 -0.5773503 0
vn 0 -0.5773503 0
vn 0 -0.5773503 0
vn 0 -0.5773503 0
vn 0 -0.5773503 0
vn 0 -0.5773503 0
vn 0 -0.5773503 0
vn 0 -0.5773503 0
vn 0 -0.5773503 0
vn 0 -0.5773503 0
vn 0 -0.5773503 0
vn 0 -0.5773503 0
vn 0 -0.5773503 0
vn 0 -0.5773503 0
vn 0 -0.5773503 0
vn 0 -0.5773503 0
vn 0 -0.5773503 0
vn 0 -0.5773503 0
vn 0 -0.5773503 0
vn 0 0.5773503 0
vn 0 0.5773503 0
vn 0 0.5773503 0
vn 0 0.5773503 0
vn 0 0.5773503 0
vn 0 0.5773503 0
vn 0 0.5773503 0
vn 0 0.5773503 0
vn 0 0.5773503 0
vn 0 0.5773503 0
vn 0 0.5773503 0
vn 0 0.5773503 0
vn 0 0.5773503 0
vn 0 0.5773503 0
vn 0 0.5773503 0
vn 0 0.5773503 0
vn 0 0.5773503 0
vn 0 0.5773503 0
vn 0 0.5773503 0
vn 0 0.5773503 0
vn 0 0.5773503 0
vn 0 0.5773503 0
vn 0 0.5773503 0
vn 0 0.5773503 0
vn 0 0.5773503 0
vn 0 0.5773503 0
vn 0 0.5773503 0
vn 0 0.5773503 0
vn 0 0.5773503 0
vn 0 0.5773503 0
vn 0 0.5773503 0
vn 0 0.5773503 0
vn -0.5773503 0 0
vn -0.5773503 0 0
vn -0.5322136 0 0.22379
vn -0.5322136 0 0.22379
vn -0.4051673 0 0.4113062
vn -0.4051673 0 0.4113062
vn -0.2181187 0 0.5345629
vn -0.2181187 0 0.5345629
vn 0 0 0.5773503
vn 0 0 0.5773503
vn 0.2181187 0 0.5345629
vn 0.2181187 0 0.5345629
vn 0.4051673 0 0.4113062
vn 0.4051673 0 0.4113062
vn 0.5322136 0 0.22379
vn 0.5322136 0 0.22379
vn 0.5773503 0 0
vn 0.5773503 0 0
vn 0.5773503 0 0
vn 0.5773503 0 0
vn 0.5322136 0 -0.22379
vn 0.5322136 0 -0.22379
vn 0.5322136 0 -0.22379
vn 0.5322136 0 -0.22379
vn 0.4051673 0 -0.4113062
vn 0.4051673 0 -0.4113062
vn 0.2181187 0 -0.5345629
vn 0.2181187 0 -0.5345629
vn 0 0 -0.5773503
vn 0 0 -0.5773503
vn -0.2181187 0 -0.5345629
vn -0.2181187 0 -0.5345629
vn -0.4051673 0 -0.4113062
vn -0.4051673 0 -0.4113062
vn -0.5322136 0 -0.22379
vn -0.5322136 0 -0.22379
vn -0.5322136 0 -0.22379
vn -0.5322136 0 -0.22379
vn -0.5773503 0 0
vn -0.5773503 0 0
vt 0.10397 0.96194
vt 0 1
vt 0.5 1
vt 0.39603 0.96194
vt 0.152043 0.853553
vt 0.347957 0.853553
vt 0.17105 0.691342
vt 0.32895 0.691342
vt 0.176208 0.5
vt 0.323792 0.5
vt 0.32895 0.308658
vt 0.17105 0.308658
vt 0.347957 0.146447
vt 0.152043 0.146447
vt 0.39603 0.0380602
vt 0.10397 0.0380602
vt 0.5 0
vt 0 0
vt 0.60397 0.0380602
vt 0.89603 0.0380602
vt 0 0
vt 0.5 0
vt 0.652043 0.146447
vt 0.847957 0.146447
vt 0.89603 0.0380602
vt 0.60397 0.0380602
vt 0.67105 0.308658
vt 0.82895 0.308658
vt 0.676208 0.5
vt 0.823792 0.5
vt 0.82895 0.691342
vt 0.67105 0.691342
vt 0.847957 0.853553
vt 0.652043 0.853553
vt 0.89603 0.96194
vt 0.60397 0.96194
vt 0 1
vt 0.89603 0.96194
vt 0.60397 0.96194
vt 0.5 1
vt 0.125254 0.5
vt 0.152043 0.146447
vt 0.10397 0.0380602
vt 0.11896 0.402569
vt 0.0981965 0.319971
vt 0 0
vt 0.0583394 0.26478
vt 0 0.2454
vt 0.10397 0.96194
vt 0.152043 0.853553
vt 0.17105 0.308658
vt 0.17105 0.691342
vt 0.176208 0.5
vt 0.11896 0.597431
vt 0.0981965 0.680029
vt 0 1
vt 0.0583394 0.73522
vt 0 0.7546
vt 0 0.7546
vt 0.941661 0.73522
vt 0 1
vt 0.89603 0.96194
vt 0.941661 0.73522
vt 0.901804 0.680029
vt 0.89603 0.96194
vt 0.88104 0.597431
vt 0.847957 0.853553
vt 0.874746 0.5
vt 0.847957 0.146447
vt 0.88104 0.402569
vt 0.89603 0.0380602
vt 0.901804 0.319971
vt 0.941661 0.26478
vt 0.82895 0.691342
vt 0.82895 0.308658
vt 0.823792 0.5
vt 0.941661 0.26478
vt 0 0.2454
vt 0 0
vt 0.89603 0.0380602
vt 0.32895 0.308658
vt 0.323792 0.5
vt 0.32895 0.691342
vt 0.347957 0.146447
vt 0.347957 0.853553
vt 0.39603 0.0380602
vt 0.374746 0.5
vt 0.38104 0.402569
vt 0.401804 0.319971
vt 0.5 0
vt 0.441661 0.26478
vt 0.5 0.2454
vt 0.60397 0.0380602
vt 0.558339 0.26478
vt 0.598196 0.319971
vt 0.61896 0.402569
vt 0.652043 0.146447
vt 0.625254 0.5
vt 0.39603 0.96194
vt 0.38104 0.597431
vt 0.401804 0.680029
vt 0.5 1
vt 0.441661 0.73522
vt 0.5 0.7546
vt 0.60397 0.96194
vt 0.558339 0.73522
vt 0.598196 0.680029
vt 0.61896 0.597431
vt 0.652043 0.853553
vt 0.67105 0.308658
vt 0.67105 0.691342
vt 0.676208 0.5
vt 0.5 0.7546
vt 0 0.7546
vt 0.0583394 0.73522
vt 0.441661 0.73522
vt 0.0981965 0.680029
vt 0.401804 0.680029
vt 0.11896 0.597431
vt 0.38104 0.597431
vt 0.125254 0.5
vt 0.374746 0.5
vt 0.11896 0.402569
vt 0.38104 0.402569
vt 0.0981965 0.319971
vt 0.401804 0.319971
vt 0.0583394 0.26478
vt 0.441661 0.26478
vt 0 0.2454
vt 0.5 0.2454
vt 0.5 0.2454
vt 0 0.2454
vt 0.941661 0.26478
vt 0.558339 0.26478
vt 0.558339 0.26478
vt 0.941661 0.26478
vt 0.901804 0.319971
vt 0.598196 0.319971
vt 0.88104 0.402569
vt 0.61896 0.402569
vt 0.874746 0.5
vt 0.625254 0.5
vt 0.88104 0.597431
vt 0.61896 0.597431
vt 0.901804 0.680029
vt 0.598196 0.680029
vt 0.941661 0.73522
vt 0.558339 0.73522
vt 0.558339 0.73522
vt 0.941661 0.73522
vt 0 0.7546
vt 0.5 0.7546
usemtl baseThingPartMaterial
f 3/3/3 2/2/2 1/1/1
f 4/4/4 3/3/3 1/1/1
f 4/4/4 1/1/1 5/5/5
f 6/6/6 4/4/4 5/5/5
f 6/6/6 5/5/5 7/7/7
f 8/8/8 6/6/6 7/7/7
f 8/8/8 7/7/7 9/9/9
f 10/10/10 8/8/8 9/9/9
f 10/10/10 9/9/9 11/11/11
f 9/9/9 12/12/12 11/11/11
f 11/11/11 12/12/12 13/13/13
f 12/12/12 14/14/14 13/13/13
f 13/13/13 14/14/14 15/15/15
f 14/14/14 16/16/16 15/15/15
f 15/15/15 16/16/16 17/17/17
f 16/16/16 18/18/18 17/17/17
f 21/21/21 20/20/20 19/19/19
f 22/22/22 21/21/21 19/19/19
f 25/25/25 24/24/24 23/23/23
f 26/26/26 25/25/25 23/23/23
f 23/23/23 24/24/24 27/27/27
f 24/24/24 28/28/28 27/27/27
f 27/27/27 28/28/28 29/29/29
f 28/28/28 30/30/30 29/29/29
f 29/29/29 30/30/30 31/31/31
f 32/32/32 29/29/29 31/31/31
f 32/32/32 31/31/31 33/33/33
f 34/34/34 32/32/32 33/33/33
f 34/34/34 33/33/33 35/35/35
f 36/36/36 34/34/34 35/35/35
f 39/39/39 38/38/38 37/37/37
f 40/40/40 39/39/39 37/37/37
f 43/43/43 42/42/42 41/41/41
f 41/41/41 44/44/44 43/43/43
f 44/44/44 45/45/45 43/43/43
f 45/45/45 46/46/46 43/43/43
f 45/45/45 47/47/47 46/46/46
f 47/47/47 48/48/48 46/46/46
f 49/49/49 41/41/41 42/42/42
f 50/50/50 49/49/49 42/42/42
f 50/50/50 42/42/42 51/51/51
f 52/52/52 50/50/50 51/51/51
f 51/51/51 53/53/53 52/52/52
f 49/49/49 54/54/54 41/41/41
f 49/49/49 55/55/55 54/54/54
f 49/49/49 56/56/56 55/55/55
f 56/56/56 57/57/57 55/55/55
f 56/56/56 58/58/58 57/57/57
f 61/61/61 60/60/60 59/59/59
f 61/61/61 62/62/62 60/60/60
f 65/65/65 64/64/64 63/63/63
f 65/65/65 66/66/66 64/64/64
f 65/65/65 67/67/67 66/66/66
f 67/67/67 68/68/68 66/66/66
f 68/68/68 67/67/67 69/69/69
f 70/70/70 68/68/68 69/69/69
f 70/70/70 69/69/69 71/71/71
f 72/72/72 70/70/70 71/71/71
f 73/73/73 72/72/72 71/71/71
f 67/67/67 74/74/74 69/69/69
f 74/74/74 75/75/75 69/69/69
f 74/74/74 76/76/76 75/75/75
f 79/79/79 78/78/78 77/77/77
f 77/77/77 80/80/80 79/79/79
f 83/83/83 82/82/82 81/81/81
f 81/81/81 84/84/84 83/83/83
f 84/84/84 85/85/85 83/83/83
f 84/84/84 86/86/86 85/85/85
f 86/86/86 87/87/87 85/85/85
f 86/86/86 88/88/88 87/87/87
f 86/86/86 89/89/89 88/88/88
f 86/86/86 90/90/90 89/89/89
f 90/90/90 91/91/91 89/89/89
f 90/90/90 92/92/92 91/91/91
f 92/92/92 90/90/90 93/93/93
f 93/93/93 94/94/94 92/92/92
f 93/93/93 95/95/95 94/94/94
f 93/93/93 96/96/96 95/95/95
f 93/93/93 97/97/97 96/96/96
f 97/97/97 98/98/98 96/96/96
f 99/99/99 85/85/85 87/87/87
f 87/87/87 100/100/100 99/99/99
f 100/100/100 101/101/101 99/99/99
f 101/101/101 102/102/102 99/99/99
f 101/101/101 103/103/103 102/102/102
f 103/103/103 104/104/104 102/102/102
f 104/104/104 105/105/105 102/102/102
f 104/104/104 106/106/106 105/105/105
f 106/106/106 107/107/107 105/105/105
f 107/107/107 108/108/108 105/105/105
f 108/108/108 109/109/109 105/105/105
f 108/108/108 98/98/98 109/109/109
f 98/98/98 97/97/97 109/109/109
f 97/97/97 110/110/110 109/109/109
f 110/110/110 111/111/111 109/109/109
f 110/110/110 112/112/112 111/111/111
f 115/115/115 114/114/114 113/113/113
f 116/116/116 115/115/115 113/113/113
f 117/117/117 115/115/115 116/116/116
f 118/118/118 117/117/117 116/116/116
f 119/119/119 117/117/117 118/118/118
f 120/120/120 119/119/119 118/118/118
f 121/121/121 119/119/119 120/120/120
f 122/122/122 121/121/121 120/120/120
f 123/123/123 121/121/121 122/122/122
f 124/124/124 123/123/123 122/122/122
f 125/125/125 123/123/123 124/124/124
f 126/126/126 125/125/125 124/124/124
f 127/127/127 125/125/125 126/126/126
f 128/128/128 127/127/127 126/126/126
f 129/129/129 127/127/127 128/128/128
f 130/130/130 129/129/129 128/128/128
f 133/133/133 132/132/132 131/131/131
f 134/134/134 133/133/133 131/131/131
f 137/137/137 136/136/136 135/135/135
f 138/138/138 137/137/137 135/135/135
f 139/139/139 137/137/137 138/138/138
f 140/140/140 139/139/139 138/138/138
f 141/141/141 139/139/139 140/140/140
f 142/142/142 141/141/141 140/140/140
f 143/143/143 141/141/141 142/142/142
f 144/144/144 143/143/143 142/142/142
f 145/145/145 143/143/143 144/144/144
f 146/146/146 145/145/145 144/144/144
f 147/147/147 145/145/145 146/146/146
f 148/148/148 147/147/147 146/146/146
f 151/151/151 150/150/150 149/149/149
f 152/152/152 151/151/151 149/149/149
