# Export of Universe
# from Aaro4130 OBJ Exporter v2.0
mtllib 202.mtl
g Pipe3
v 1.84776 -1 -0.765367
v 2 -1 0
v 2 1 0
v 1.84776 1 -0.765367
v 1.41421 -1 -1.41421
v 1.41421 1 -1.41421
v 0.765367 -1 -1.84776
v 0.765367 1 -1.84776
v 0 -1 -2
v 0 1 -2
v -0.765367 1 -1.84776
v -0.765367 -1 -1.84776
v -1.41421 1 -1.41421
v -1.41421 -1 -1.41421
v -1.84776 1 -0.765367
v -1.84776 -1 -0.765367
v -2 1 0
v -2 -1 0
v -1.84776 1 0.765367
v -1.84776 -1 0.765367
v -2 -1 0
v -2 1 0
v -1.41421 1 1.41421
v -1.41421 -1 1.41421
v -1.84776 -1 0.765367
v -1.84776 1 0.765367
v -0.765367 1 1.84776
v -0.765367 -1 1.84776
v 0 1 2
v 0 -1 2
v 0.765367 -1 1.84776
v 0.765367 1 1.84776
v 1.41421 -1 1.41421
v 1.41421 1 1.41421
v 1.84776 -1 0.765367
v 1.84776 1 0.765367
v 2 -1 0
v 1.84776 -1 0.765367
v 1.84776 1 0.765367
v 2 1 0
v 0.765367 -1 -1.84776
v 0 -1 -2
v -0.006 -1 -1.78
v 0.667523 -1 -1.64451
v 1.41421 -1 -1.41421
v 1.23851 -1 -1.25865
v 1.84776 -1 -0.765367
v 1.62003 -1 -0.681176
v 2 -1 0
v 1.754 -1 3.88578E-16
v -0.765367 -1 -1.84776
v -0.679523 -1 -1.64451
v -1.41421 -1 -1.41421
v -1.25051 -1 -1.25865
v -1.84776 -1 -0.765367
v -1.63203 -1 -0.681176
v -2 -1 0
v -1.766 -1 0
v 1.754 -1 3.88578E-16
v 1.84776 -1 0.765367
v 2 -1 0
v 1.62003 -1 0.681176
v 1.62003 -1 0.681176
v 1.23851 -1 1.25865
v 1.84776 -1 0.765367
v 1.41421 -1 1.41421
v 0.667523 -1 1.64451
v 0.765367 -1 1.84776
v -0.006 -1 1.78
v -0.765367 -1 1.84776
v -0.679523 -1 1.64451
v -1.41421 -1 1.41421
v -1.25051 -1 1.25865
v -1.84776 -1 0.765367
v -1.63203 -1 0.681176
v 0 -1 2
v -2 -1 0
v -1.63203 -1 0.681176
v -1.766 -1 0
v -1.84776 -1 0.765367
v -0.765367 1 -1.84776
v 0 1 -2
v -0.006 1 -1.78
v -0.679523 1 -1.64451
v -1.41421 1 -1.41421
v -1.25051 1 -1.25865
v -1.84776 1 -0.765367
v -1.63203 1 -0.681176
v -2 1 0
v -1.766 1 0
v -1.84776 1 0.765367
v -1.63203 1 0.681176
v -1.25051 1 1.25865
v -1.41421 1 1.41421
v -0.679523 1 1.64451
v -0.765367 1 1.84776
v -0.006 1 1.78
v 0.765367 1 -1.84776
v 0.667523 1 -1.64451
v 1.41421 1 -1.41421
v 1.23851 1 -1.25865
v 1.84776 1 -0.765367
v 1.62003 1 -0.681176
v 2 1 0
v 1.754 1 -3.88578E-16
v 1.62003 1 0.681176
v 1.84776 1 0.765367
v 1.23851 1 1.25865
v 1.41421 1 1.41421
v 0.667523 1 1.64451
v 0.765367 1 1.84776
v 0 1 2
v 1.754 1 0
v 1.754 -1 0
v 1.62003 -1 -0.681176
v 1.62003 1 -0.681176
v 1.23851 -1 -1.25865
v 1.23851 1 -1.25865
v 0.667523 -1 -1.64451
v 0.667523 1 -1.64451
v -0.006 -1 -1.78
v -0.006 1 -1.78
v -0.679523 -1 -1.64451
v -0.679523 1 -1.64451
v -1.25051 -1 -1.25865
v -1.25051 1 -1.25865
v -1.63203 -1 -0.681176
v -1.63203 1 -0.681176
v -1.766 -1 0
v -1.766 1 0
v -1.766 1 0
v -1.766 -1 0
v -1.63203 -1 0.681176
v -1.63203 1 0.681176
v -1.63203 1 0.681176
v -1.63203 -1 0.681176
v -1.25051 -1 1.25865
v -1.25051 1 1.25865
v -0.679523 -1 1.64451
v -0.679523 1 1.64451
v -0.006 -1 1.78
v -0.006 1 1.78
v 0.667523 -1 1.64451
v 0.667523 1 1.64451
v 1.23851 -1 1.25865
v 1.23851 1 1.25865
v 1.62003 -1 0.681176
v 1.62003 1 0.681176
v 1.62003 1 0.681176
v 1.62003 -1 0.681176
v 1.754 -1 0
v 1.754 1 0
vn 0.5334014 0 -0.220944
vn 0.5773503 0 0
vn 0.5773503 0 0
vn 0.5334014 0 -0.220944
vn 0.4082483 0 -0.4082483
vn 0.4082483 0 -0.4082483
vn 0.220944 0 -0.5334014
vn 0.220944 0 -0.5334014
vn 0 0 -0.5773503
vn 0 0 -0.5773503
vn -0.220944 0 -0.5334014
vn -0.220944 0 -0.5334014
vn -0.4082483 0 -0.4082483
vn -0.4082483 0 -0.4082483
vn -0.5334014 0 -0.220944
vn -0.5334014 0 -0.220944
vn -0.5773503 0 0
vn -0.5773503 0 0
vn -0.5334014 0 0.220944
vn -0.5334014 0 0.220944
vn -0.5773503 0 0
vn -0.5773503 0 0
vn -0.4082483 0 0.4082483
vn -0.4082483 0 0.4082483
vn -0.5334014 0 0.220944
vn -0.5334014 0 0.220944
vn -0.220944 0 0.5334014
vn -0.220944 0 0.5334014
vn 0 0 0.5773503
vn 0 0 0.5773503
vn 0.220944 0 0.5334014
vn 0.220944 0 0.5334014
vn 0.4082483 0 0.4082483
vn 0.4082483 0 0.4082483
vn 0.5334014 0 0.220944
vn 0.5334014 0 0.220944
vn 0.5773503 0 0
vn 0.5334014 0 0.220944
vn 0.5334014 0 0.220944
vn 0.5773503 0 0
vn 0 -0.5773503 0
vn 0 -0.5773503 0
vn 0 -0.5773503 0
vn 0 -0.5773503 0
vn 0 -0.5773503 0
vn 0 -0.5773503 0
vn 0 -0.5773503 0
vn 0 -0.5773503 0
vn 0 -0.5773503 0
vn 0 -0.5773503 0
vn 0 -0.5773503 0
vn 0 -0.5773503 0
vn 0 -0.5773503 0
vn 0 -0.5773503 0
vn 0 -0.5773503 0
vn 0 -0.5773503 0
vn 0 -0.5773503 0
vn 0 -0.5773503 0
vn 0 -0.5773503 0
vn 0 -0.5773503 0
vn 0 -0.5773503 0
vn 0 -0.5773503 0
vn 0 -0.5773503 0
vn 0 -0.5773503 0
vn 0 -0.5773503 0
vn 0 -0.5773503 0
vn 0 -0.5773503 0
vn 0 -0.5773503 0
vn 0 -0.5773503 0
vn 0 -0.5773503 0
vn 0 -0.5773503 0
vn 0 -0.5773503 0
vn 0 -0.5773503 0
vn 0 -0.5773503 0
vn 0 -0.5773503 0
vn 0 -0.5773503 0
vn 0 -0.5773503 0
vn 0 -0.5773503 0
vn 0 -0.5773503 0
vn 0 -0.5773503 0
vn 0 0.5773503 0
vn 0 0.5773503 0
vn 0 0.5773503 0
vn 0 0.5773503 0
vn 0 0.5773503 0
vn 0 0.5773503 0
vn 0 0.5773503 0
vn 0 0.5773503 0
vn 0 0.5773503 0
vn 0 0.5773503 0
vn 0 0.5773503 0
vn 0 0.5773503 0
vn 0 0.5773503 0
vn 0 0.5773503 0
vn 0 0.5773503 0
vn 0 0.5773503 0
vn 0 0.5773503 0
vn 0 0.5773503 0
vn 0 0.5773503 0
vn 0 0.5773503 0
vn 0 0.5773503 0
vn 0 0.5773503 0
vn 0 0.5773503 0
vn 0 0.5773503 0
vn 0 0.5773503 0
vn 0 0.5773503 0
vn 0 0.5773503 0
vn 0 0.5773503 0
vn 0 0.5773503 0
vn 0 0.5773503 0
vn 0 0.5773503 0
vn 0 0.5773503 0
vn -0.5773503 0 0
vn -0.5773503 0 0
vn -0.5342773 0 0.2188174
vn -0.5342773 0 0.2188174
vn -0.4105488 0 0.4059347
vn -0.4105488 0 0.4059347
vn -0.2230798 0 0.5325118
vn -0.2230798 0 0.5325118
vn 0 0 0.5773503
vn 0 0 0.5773503
vn 0.2230798 0 0.5325118
vn 0.2230798 0 0.5325118
vn 0.4105488 0 0.4059347
vn 0.4105488 0 0.4059347
vn 0.5342773 0 0.2188175
vn 0.5342773 0 0.2188175
vn 0.5773503 0 0
vn 0.5773503 0 0
vn 0.5773503 0 0
vn 0.5773503 0 0
vn 0.5342773 0 -0.2188175
vn 0.5342773 0 -0.2188175
vn 0.5342773 0 -0.2188175
vn 0.5342773 0 -0.2188175
vn 0.4105488 0 -0.4059347
vn 0.4105488 0 -0.4059347
vn 0.2230798 0 -0.5325118
vn 0.2230798 0 -0.5325118
vn 0 0 -0.5773503
vn 0 0 -0.5773503
vn -0.2230798 0 -0.5325118
vn -0.2230798 0 -0.5325118
vn -0.4105488 0 -0.4059347
vn -0.4105488 0 -0.4059347
vn -0.5342773 0 -0.2188174
vn -0.5342773 0 -0.2188174
vn -0.5342773 0 -0.2188174
vn -0.5342773 0 -0.2188174
vn -0.5773503 0 0
vn -0.5773503 0 0
vt 0.10397 0.96194
vt 0 1
vt 0.5 1
vt 0.39603 0.96194
vt 0.152043 0.853553
vt 0.347957 0.853553
vt 0.17105 0.691342
vt 0.32895 0.691342
vt 0.176208 0.5
vt 0.323792 0.5
vt 0.32895 0.308658
vt 0.17105 0.308658
vt 0.347957 0.146447
vt 0.152043 0.146447
vt 0.39603 0.0380602
vt 0.10397 0.0380602
vt 0.5 0
vt 0 0
vt 0.60397 0.0380602
vt 0.89603 0.0380602
vt 0 0
vt 0.5 0
vt 0.652043 0.146447
vt 0.847957 0.146447
vt 0.89603 0.0380602
vt 0.60397 0.0380602
vt 0.67105 0.308658
vt 0.82895 0.308658
vt 0.676208 0.5
vt 0.823792 0.5
vt 0.82895 0.691342
vt 0.67105 0.691342
vt 0.847957 0.853553
vt 0.652043 0.853553
vt 0.89603 0.96194
vt 0.60397 0.96194
vt 0 1
vt 0.89603 0.96194
vt 0.60397 0.96194
vt 0.5 1
vt 0.17105 0.691342
vt 0.176208 0.5
vt 0.168536 0.4985
vt 0.163047 0.666881
vt 0.152043 0.853553
vt 0.143147 0.809627
vt 0.10397 0.96194
vt 0.0951716 0.905007
vt 0 1
vt 0 0.9385
vt 0.17105 0.308658
vt 0.163047 0.330119
vt 0.152043 0.146447
vt 0.143147 0.187373
vt 0.10397 0.0380602
vt 0.0951716 0.091993
vt 0 0
vt 0 0.0585
vt 0 0.9385
vt 0.89603 0.96194
vt 0 1
vt 0.904828 0.905007
vt 0.904828 0.905007
vt 0.856853 0.809627
vt 0.89603 0.96194
vt 0.847957 0.853553
vt 0.836953 0.666881
vt 0.82895 0.691342
vt 0.831464 0.4985
vt 0.82895 0.308658
vt 0.836953 0.330119
vt 0.847957 0.146447
vt 0.856853 0.187373
vt 0.89603 0.0380602
vt 0.904828 0.091993
vt 0.823792 0.5
vt 0 0
vt 0.904828 0.091993
vt 0 0.0585
vt 0.89603 0.0380602
vt 0.32895 0.308658
vt 0.323792 0.5
vt 0.331464 0.4985
vt 0.336953 0.330119
vt 0.347957 0.146447
vt 0.356853 0.187373
vt 0.39603 0.0380602
vt 0.404828 0.091993
vt 0.5 0
vt 0.5 0.0585
vt 0.60397 0.0380602
vt 0.595172 0.091993
vt 0.643147 0.187373
vt 0.652043 0.146447
vt 0.663047 0.330119
vt 0.67105 0.308658
vt 0.668536 0.4985
vt 0.32895 0.691342
vt 0.336953 0.666881
vt 0.347957 0.853553
vt 0.356853 0.809627
vt 0.39603 0.96194
vt 0.404828 0.905007
vt 0.5 1
vt 0.5 0.9385
vt 0.595172 0.905007
vt 0.60397 0.96194
vt 0.643147 0.809627
vt 0.652043 0.853553
vt 0.663047 0.666881
vt 0.67105 0.691342
vt 0.676208 0.5
vt 0.5 0.9385
vt 0 0.9385
vt 0.0951716 0.905007
vt 0.404828 0.905007
vt 0.143147 0.809627
vt 0.356853 0.809627
vt 0.163047 0.666881
vt 0.336953 0.666881
vt 0.168536 0.4985
vt 0.331464 0.4985
vt 0.163047 0.330119
vt 0.336953 0.330119
vt 0.143147 0.187373
vt 0.356853 0.187373
vt 0.0951716 0.091993
vt 0.404828 0.091993
vt 0 0.0585
vt 0.5 0.0585
vt 0.5 0.0585
vt 0 0.0585
vt 0.904828 0.091993
vt 0.595172 0.091993
vt 0.595172 0.091993
vt 0.904828 0.091993
vt 0.856853 0.187373
vt 0.643147 0.187373
vt 0.836953 0.330119
vt 0.663047 0.330119
vt 0.831464 0.4985
vt 0.668536 0.4985
vt 0.836953 0.666881
vt 0.663047 0.666881
vt 0.856853 0.809627
vt 0.643147 0.809627
vt 0.904828 0.905007
vt 0.595172 0.905007
vt 0.595172 0.905007
vt 0.904828 0.905007
vt 0 0.9385
vt 0.5 0.9385
usemtl baseThingPartMaterial
f 3/3/3 2/2/2 1/1/1
f 4/4/4 3/3/3 1/1/1
f 4/4/4 1/1/1 5/5/5
f 6/6/6 4/4/4 5/5/5
f 6/6/6 5/5/5 7/7/7
f 8/8/8 6/6/6 7/7/7
f 8/8/8 7/7/7 9/9/9
f 10/10/10 8/8/8 9/9/9
f 10/10/10 9/9/9 11/11/11
f 9/9/9 12/12/12 11/11/11
f 11/11/11 12/12/12 13/13/13
f 12/12/12 14/14/14 13/13/13
f 13/13/13 14/14/14 15/15/15
f 14/14/14 16/16/16 15/15/15
f 15/15/15 16/16/16 17/17/17
f 16/16/16 18/18/18 17/17/17
f 21/21/21 20/20/20 19/19/19
f 22/22/22 21/21/21 19/19/19
f 25/25/25 24/24/24 23/23/23
f 26/26/26 25/25/25 23/23/23
f 23/23/23 24/24/24 27/27/27
f 24/24/24 28/28/28 27/27/27
f 27/27/27 28/28/28 29/29/29
f 28/28/28 30/30/30 29/29/29
f 29/29/29 30/30/30 31/31/31
f 32/32/32 29/29/29 31/31/31
f 32/32/32 31/31/31 33/33/33
f 34/34/34 32/32/32 33/33/33
f 34/34/34 33/33/33 35/35/35
f 36/36/36 34/34/34 35/35/35
f 39/39/39 38/38/38 37/37/37
f 40/40/40 39/39/39 37/37/37
f 43/43/43 42/42/42 41/41/41
f 41/41/41 44/44/44 43/43/43
f 41/41/41 45/45/45 44/44/44
f 45/45/45 46/46/46 44/44/44
f 45/45/45 47/47/47 46/46/46
f 47/47/47 48/48/48 46/46/46
f 47/47/47 49/49/49 48/48/48
f 49/49/49 50/50/50 48/48/48
f 51/51/51 42/42/42 43/43/43
f 43/43/43 52/52/52 51/51/51
f 52/52/52 53/53/53 51/51/51
f 52/52/52 54/54/54 53/53/53
f 54/54/54 55/55/55 53/53/53
f 54/54/54 56/56/56 55/55/55
f 56/56/56 57/57/57 55/55/55
f 56/56/56 58/58/58 57/57/57
f 61/61/61 60/60/60 59/59/59
f 60/60/60 62/62/62 59/59/59
f 65/65/65 64/64/64 63/63/63
f 65/65/65 66/66/66 64/64/64
f 66/66/66 67/67/67 64/64/64
f 66/66/66 68/68/68 67/67/67
f 68/68/68 69/69/69 67/67/67
f 69/69/69 68/68/68 70/70/70
f 71/71/71 69/69/69 70/70/70
f 71/71/71 70/70/70 72/72/72
f 73/73/73 71/71/71 72/72/72
f 73/73/73 72/72/72 74/74/74
f 75/75/75 73/73/73 74/74/74
f 68/68/68 76/76/76 70/70/70
f 79/79/79 78/78/78 77/77/77
f 78/78/78 80/80/80 77/77/77
f 83/83/83 82/82/82 81/81/81
f 81/81/81 84/84/84 83/83/83
f 81/81/81 85/85/85 84/84/84
f 85/85/85 86/86/86 84/84/84
f 85/85/85 87/87/87 86/86/86
f 87/87/87 88/88/88 86/86/86
f 87/87/87 89/89/89 88/88/88
f 89/89/89 90/90/90 88/88/88
f 89/89/89 91/91/91 90/90/90
f 91/91/91 92/92/92 90/90/90
f 91/91/91 93/93/93 92/92/92
f 91/91/91 94/94/94 93/93/93
f 94/94/94 95/95/95 93/93/93
f 94/94/94 96/96/96 95/95/95
f 96/96/96 97/97/97 95/95/95
f 98/98/98 82/82/82 83/83/83
f 83/83/83 99/99/99 98/98/98
f 99/99/99 100/100/100 98/98/98
f 99/99/99 101/101/101 100/100/100
f 101/101/101 102/102/102 100/100/100
f 101/101/101 103/103/103 102/102/102
f 103/103/103 104/104/104 102/102/102
f 103/103/103 105/105/105 104/104/104
f 105/105/105 106/106/106 104/104/104
f 106/106/106 107/107/107 104/104/104
f 106/106/106 108/108/108 107/107/107
f 108/108/108 109/109/109 107/107/107
f 108/108/108 110/110/110 109/109/109
f 110/110/110 111/111/111 109/109/109
f 110/110/110 97/97/97 111/111/111
f 97/97/97 96/96/96 111/111/111
f 96/96/96 112/112/112 111/111/111
f 115/115/115 114/114/114 113/113/113
f 116/116/116 115/115/115 113/113/113
f 117/117/117 115/115/115 116/116/116
f 118/118/118 117/117/117 116/116/116
f 119/119/119 117/117/117 118/118/118
f 120/120/120 119/119/119 118/118/118
f 121/121/121 119/119/119 120/120/120
f 122/122/122 121/121/121 120/120/120
f 123/123/123 121/121/121 122/122/122
f 124/124/124 123/123/123 122/122/122
f 125/125/125 123/123/123 124/124/124
f 126/126/126 125/125/125 124/124/124
f 127/127/127 125/125/125 126/126/126
f 128/128/128 127/127/127 126/126/126
f 129/129/129 127/127/127 128/128/128
f 130/130/130 129/129/129 128/128/128
f 133/133/133 132/132/132 131/131/131
f 134/134/134 133/133/133 131/131/131
f 137/137/137 136/136/136 135/135/135
f 138/138/138 137/137/137 135/135/135
f 139/139/139 137/137/137 138/138/138
f 140/140/140 139/139/139 138/138/138
f 141/141/141 139/139/139 140/140/140
f 142/142/142 141/141/141 140/140/140
f 143/143/143 141/141/141 142/142/142
f 144/144/144 143/143/143 142/142/142
f 145/145/145 143/143/143 144/144/144
f 146/146/146 145/145/145 144/144/144
f 147/147/147 145/145/145 146/146/146
f 148/148/148 147/147/147 146/146/146
f 151/151/151 150/150/150 149/149/149
f 152/152/152 151/151/151 149/149/149
