# Export of Universe
# from Aaro4130 OBJ Exporter v2.0
mtllib 208.mtl
g Cube4x2
v -0.5 -0.5 -0.5
v -0.5 -0.5 0.5
v -0.166667 -0.5 0.5
v -0.166667 -0.5 -0.5
v 0.166667 -0.5 0.5
v 0.166667 -0.5 -0.5
v 0.5 -0.5 0.5
v 0.5 -0.5 -0.5
v -0.166667 -0.5 0.5
v -0.5 -0.5 0.5
v -0.5 0.5 0.5
v -0.166667 0.5 0.5
v 0.166667 -0.5 0.5
v 0.166667 0.5 0.5
v 0.5 -0.5 0.5
v 0.5 0.5 0.5
v 0.5 -0.5 -0.5
v 0.5 -0.5 0.5
v 0.5 0.5 0.5
v 0.5 0.5 -0.5
v 0.166667 0.5 -0.5
v 0.166667 -0.5 -0.5
v 0.5 -0.5 -0.5
v 0.5 0.5 -0.5
v -0.166667 0.5 -0.5
v -0.166667 -0.5 -0.5
v -0.5 0.5 -0.5
v -0.5 -0.5 -0.5
v -0.5 0.5 0.5
v -0.5 -0.5 0.5
v -0.5 -0.5 -0.5
v -0.5 0.5 -0.5
v -0.166667 0.5 0.5
v -0.5 0.5 0.5
v -0.5 0.5 -0.5
v -0.166667 0.5 -0.5
v 0.166667 0.5 0.5
v 0.166667 0.5 -0.5
v 0.5 0.5 0.5
v 0.5 0.5 -0.5
vn 0 -0.5773503 0
vn 0 -0.5773503 0
vn 0 -0.5773503 0
vn 0 -0.5773503 0
vn 0 -0.5773503 0
vn 0 -0.5773503 0
vn 0 -0.5773503 0
vn 0 -0.5773503 0
vn 0 0 0.5773503
vn 0 0 0.5773503
vn 0 0 0.5773503
vn 0 0 0.5773503
vn 0 0 0.5773503
vn 0 0 0.5773503
vn 0 0 0.5773503
vn 0 0 0.5773503
vn 0.5773503 0 0
vn 0.5773503 0 0
vn 0.5773503 0 0
vn 0.5773503 0 0
vn 0 0 -0.5773503
vn 0 0 -0.5773503
vn 0 0 -0.5773503
vn 0 0 -0.5773503
vn 0 0 -0.5773503
vn 0 0 -0.5773503
vn 0 0 -0.5773503
vn 0 0 -0.5773503
vn -0.5773503 0 0
vn -0.5773503 0 0
vn -0.5773503 0 0
vn -0.5773503 0 0
vn 0 0.5773503 0
vn 0 0.5773503 0
vn 0 0.5773503 0
vn 0 0.5773503 0
vn 0 0.5773503 0
vn 0 0.5773503 0
vn 0 0.5773503 0
vn 0 0.5773503 0
vt 0 1
vt 0 0
vt 0.333333 0
vt 0.333333 1
vt 0.666667 0
vt 0.666667 1
vt 1 0
vt 1 1
vt 0.333333 0
vt 0 0
vt 0 1
vt 0.333333 1
vt 0.666667 0
vt 0.666667 1
vt 1 0
vt 1 1
vt 1 0
vt 0 0
vt 0 1
vt 1 1
vt 0.666667 1
vt 0.666667 0
vt 1 0
vt 1 1
vt 0.333333 1
vt 0.333333 0
vt 0 1
vt 0 0
vt 0 1
vt 0 0
vt 1 0
vt 1 1
vt 0.333333 0
vt 0 0
vt 0 1
vt 0.333333 1
vt 0.666667 0
vt 0.666667 1
vt 1 0
vt 1 1
usemtl baseThingPartMaterial
f 3/3/3 2/2/2 1/1/1
f 4/4/4 3/3/3 1/1/1
f 5/5/5 3/3/3 4/4/4
f 6/6/6 5/5/5 4/4/4
f 7/7/7 5/5/5 6/6/6
f 8/8/8 7/7/7 6/6/6
f 11/11/11 10/10/10 9/9/9
f 12/12/12 11/11/11 9/9/9
f 12/12/12 9/9/9 13/13/13
f 14/14/14 12/12/12 13/13/13
f 14/14/14 13/13/13 15/15/15
f 16/16/16 14/14/14 15/15/15
f 19/19/19 18/18/18 17/17/17
f 20/20/20 19/19/19 17/17/17
f 23/23/23 22/22/22 21/21/21
f 24/24/24 23/23/23 21/21/21
f 21/21/21 22/22/22 25/25/25
f 22/22/22 26/26/26 25/25/25
f 25/25/25 26/26/26 27/27/27
f 26/26/26 28/28/28 27/27/27
f 31/31/31 30/30/30 29/29/29
f 32/32/32 31/31/31 29/29/29
f 35/35/35 34/34/34 33/33/33
f 36/36/36 35/35/35 33/33/33
f 36/36/36 33/33/33 37/37/37
f 38/38/38 36/36/36 37/37/37
f 38/38/38 37/37/37 39/39/39
f 40/40/40 38/38/38 39/39/39
