# Export of Universe
# from Aaro4130 OBJ Exporter v2.0
mtllib 212.mtl
g Cube3x3
v -0.5 -0.5 0
v -0.5 -0.5 0.5
v 0 -0.5 0.5
v 0 -0.5 0
v -0.5 -0.5 -0.5
v 0 -0.5 -0.5
v 0.5 -0.5 0.5
v 0.5 -0.5 0
v 0.5 -0.5 -0.5
v 0 -0.5 0.5
v -0.5 -0.5 0.5
v -0.5 0.5 0.5
v 0 0.5 0.5
v 0.5 -0.5 0.5
v 0.5 0.5 0.5
v 0.5 -0.5 0
v 0.5 -0.5 0.5
v 0.5 0.5 0.5
v 0.5 0.5 0
v 0.5 -0.5 -0.5
v 0.5 0.5 -0.5
v 0 0.5 -0.5
v 0 -0.5 -0.5
v 0.5 -0.5 -0.5
v 0.5 0.5 -0.5
v -0.5 0.5 -0.5
v -0.5 -0.5 -0.5
v -0.5 0.5 0
v -0.5 -0.5 0
v -0.5 -0.5 -0.5
v -0.5 0.5 -0.5
v -0.5 0.5 0.5
v -0.5 -0.5 0.5
v 0 0.5 0.5
v -0.5 0.5 0.5
v -0.5 0.5 0
v 0 0.5 0
v -0.5 0.5 -0.5
v 0 0.5 -0.5
v 0.5 0.5 0.5
v 0.5 0.5 0
v 0.5 0.5 -0.5
vn 0 -0.5773503 0
vn 0 -0.5773503 0
vn 0 -0.5773503 0
vn 0 -0.5773503 0
vn 0 -0.5773503 0
vn 0 -0.5773503 0
vn 0 -0.5773503 0
vn 0 -0.5773503 0
vn 0 -0.5773503 0
vn 0 0 0.5773503
vn 0 0 0.5773503
vn 0 0 0.5773503
vn 0 0 0.5773503
vn 0 0 0.5773503
vn 0 0 0.5773503
vn 0.5773503 0 0
vn 0.5773503 0 0
vn 0.5773503 0 0
vn 0.5773503 0 0
vn 0.5773503 0 0
vn 0.5773503 0 0
vn 0 0 -0.5773503
vn 0 0 -0.5773503
vn 0 0 -0.5773503
vn 0 0 -0.5773503
vn 0 0 -0.5773503
vn 0 0 -0.5773503
vn -0.5773503 0 0
vn -0.5773503 0 0
vn -0.5773503 0 0
vn -0.5773503 0 0
vn -0.5773503 0 0
vn -0.5773503 0 0
vn 0 0.5773503 0
vn 0 0.5773503 0
vn 0 0.5773503 0
vn 0 0.5773503 0
vn 0 0.5773503 0
vn 0 0.5773503 0
vn 0 0.5773503 0
vn 0 0.5773503 0
vn 0 0.5773503 0
vt 0 0.5
vt 0 0
vt 0.5 0
vt 0.5 0.5
vt 0 1
vt 0.5 1
vt 1 0
vt 1 0.5
vt 1 1
vt 0.5 0
vt 0 0
vt 0 1
vt 0.5 1
vt 1 0
vt 1 1
vt 0.5 0
vt 0 0
vt 0 1
vt 0.5 1
vt 1 0
vt 1 1
vt 0.5 1
vt 0.5 0
vt 1 0
vt 1 1
vt 0 1
vt 0 0
vt 0.5 1
vt 0.5 0
vt 1 0
vt 1 1
vt 0 1
vt 0 0
vt 0.5 0
vt 0 0
vt 0 0.5
vt 0.5 0.5
vt 0 1
vt 0.5 1
vt 1 0
vt 1 0.5
vt 1 1
usemtl baseThingPartMaterial
f 3/3/3 2/2/2 1/1/1
f 4/4/4 3/3/3 1/1/1
f 4/4/4 1/1/1 5/5/5
f 6/6/6 4/4/4 5/5/5
f 7/7/7 3/3/3 4/4/4
f 8/8/8 7/7/7 4/4/4
f 8/8/8 4/4/4 6/6/6
f 9/9/9 8/8/8 6/6/6
f 12/12/12 11/11/11 10/10/10
f 13/13/13 12/12/12 10/10/10
f 13/13/13 10/10/10 14/14/14
f 15/15/15 13/13/13 14/14/14
f 18/18/18 17/17/17 16/16/16
f 19/19/19 18/18/18 16/16/16
f 19/19/19 16/16/16 20/20/20
f 21/21/21 19/19/19 20/20/20
f 24/24/24 23/23/23 22/22/22
f 25/25/25 24/24/24 22/22/22
f 22/22/22 23/23/23 26/26/26
f 23/23/23 27/27/27 26/26/26
f 30/30/30 29/29/29 28/28/28
f 31/31/31 30/30/30 28/28/28
f 28/28/28 29/29/29 32/32/32
f 29/29/29 33/33/33 32/32/32
f 36/36/36 35/35/35 34/34/34
f 37/37/37 36/36/36 34/34/34
f 38/38/38 36/36/36 37/37/37
f 39/39/39 38/38/38 37/37/37
f 37/37/37 34/34/34 40/40/40
f 41/41/41 37/37/37 40/40/40
f 39/39/39 37/37/37 41/41/41
f 42/42/42 39/39/39 41/41/41
