# Export of Universe
# from Aaro4130 OBJ Exporter v2.0
mtllib 214.mtl
g Cube5x3
v -0.5 -0.5 0
v -0.5 -0.5 0.5
v -0.25 -0.5 0.5
v -0.25 -0.5 0
v -0.5 -0.5 -0.5
v -0.25 -0.5 -0.5
v 0 -0.5 0.5
v 0 -0.5 0
v 0 -0.5 -0.5
v 0.25 -0.5 0.5
v 0.25 -0.5 0
v 0.25 -0.5 -0.5
v 0.5 -0.5 0.5
v 0.5 -0.5 0
v 0.5 -0.5 -0.5
v -0.25 -0.5 0.5
v -0.5 -0.5 0.5
v -0.5 0.5 0.5
v -0.25 0.5 0.5
v 0 -0.5 0.5
v 0 0.5 0.5
v 0.25 -0.5 0.5
v 0.25 0.5 0.5
v 0.5 -0.5 0.5
v 0.5 0.5 0.5
v 0.5 -0.5 0
v 0.5 -0.5 0.5
v 0.5 0.5 0.5
v 0.5 0.5 0
v 0.5 -0.5 -0.5
v 0.5 0.5 -0.5
v 0.25 0.5 -0.5
v 0.25 -0.5 -0.5
v 0.5 -0.5 -0.5
v 0.5 0.5 -0.5
v 0 0.5 -0.5
v 0 -0.5 -0.5
v -0.25 0.5 -0.5
v -0.25 -0.5 -0.5
v -0.5 0.5 -0.5
v -0.5 -0.5 -0.5
v -0.5 0.5 0
v -0.5 -0.5 0
v -0.5 -0.5 -0.5
v -0.5 0.5 -0.5
v -0.5 0.5 0.5
v -0.5 -0.5 0.5
v -0.25 0.5 0.5
v -0.5 0.5 0.5
v -0.5 0.5 0
v -0.25 0.5 0
v -0.5 0.5 -0.5
v -0.25 0.5 -0.5
v 0 0.5 0.5
v 0 0.5 0
v 0 0.5 -0.5
v 0.25 0.5 0.5
v 0.25 0.5 0
v 0.25 0.5 -0.5
v 0.5 0.5 0.5
v 0.5 0.5 0
v 0.5 0.5 -0.5
vn 0 -0.5773503 0
vn 0 -0.5773503 0
vn 0 -0.5773503 0
vn 0 -0.5773503 0
vn 0 -0.5773503 0
vn 0 -0.5773503 0
vn 0 -0.5773503 0
vn 0 -0.5773503 0
vn 0 -0.5773503 0
vn 0 -0.5773503 0
vn 0 -0.5773503 0
vn 0 -0.5773503 0
vn 0 -0.5773503 0
vn 0 -0.5773503 0
vn 0 -0.5773503 0
vn 0 0 0.5773503
vn 0 0 0.5773503
vn 0 0 0.5773503
vn 0 0 0.5773503
vn 0 0 0.5773503
vn 0 0 0.5773503
vn 0 0 0.5773503
vn 0 0 0.5773503
vn 0 0 0.5773503
vn 0 0 0.5773503
vn 0.5773503 0 0
vn 0.5773503 0 0
vn 0.5773503 0 0
vn 0.5773503 0 0
vn 0.5773503 0 0
vn 0.5773503 0 0
vn 0 0 -0.5773503
vn 0 0 -0.5773503
vn 0 0 -0.5773503
vn 0 0 -0.5773503
vn 0 0 -0.5773503
vn 0 0 -0.5773503
vn 0 0 -0.5773503
vn 0 0 -0.5773503
vn 0 0 -0.5773503
vn 0 0 -0.5773503
vn -0.5773503 0 0
vn -0.5773503 0 0
vn -0.5773503 0 0
vn -0.5773503 0 0
vn -0.5773503 0 0
vn -0.5773503 0 0
vn 0 0.5773503 0
vn 0 0.5773503 0
vn 0 0.5773503 0
vn 0 0.5773503 0
vn 0 0.5773503 0
vn 0 0.5773503 0
vn 0 0.5773503 0
vn 0 0.5773503 0
vn 0 0.5773503 0
vn 0 0.5773503 0
vn 0 0.5773503 0
vn 0 0.5773503 0
vn 0 0.5773503 0
vn 0 0.5773503 0
vn 0 0.5773503 0
vt 0 0.5
vt 0 0
vt 0.25 0
vt 0.25 0.5
vt 0 1
vt 0.25 1
vt 0.5 0
vt 0.5 0.5
vt 0.5 1
vt 0.75 0
vt 0.75 0.5
vt 0.75 1
vt 1 0
vt 1 0.5
vt 1 1
vt 0.25 0
vt 0 0
vt 0 1
vt 0.25 1
vt 0.5 0
vt 0.5 1
vt 0.75 0
vt 0.75 1
vt 1 0
vt 1 1
vt 0.5 0
vt 0 0
vt 0 1
vt 0.5 1
vt 1 0
vt 1 1
vt 0.75 1
vt 0.75 0
vt 1 0
vt 1 1
vt 0.5 1
vt 0.5 0
vt 0.25 1
vt 0.25 0
vt 0 1
vt 0 0
vt 0.5 1
vt 0.5 0
vt 1 0
vt 1 1
vt 0 1
vt 0 0
vt 0.25 0
vt 0 0
vt 0 0.5
vt 0.25 0.5
vt 0 1
vt 0.25 1
vt 0.5 0
vt 0.5 0.5
vt 0.5 1
vt 0.75 0
vt 0.75 0.5
vt 0.75 1
vt 1 0
vt 1 0.5
vt 1 1
usemtl baseThingPartMaterial
f 3/3/3 2/2/2 1/1/1
f 4/4/4 3/3/3 1/1/1
f 4/4/4 1/1/1 5/5/5
f 6/6/6 4/4/4 5/5/5
f 7/7/7 3/3/3 4/4/4
f 8/8/8 7/7/7 4/4/4
f 8/8/8 4/4/4 6/6/6
f 9/9/9 8/8/8 6/6/6
f 10/10/10 7/7/7 8/8/8
f 11/11/11 10/10/10 8/8/8
f 11/11/11 8/8/8 9/9/9
f 12/12/12 11/11/11 9/9/9
f 13/13/13 10/10/10 11/11/11
f 14/14/14 13/13/13 11/11/11
f 14/14/14 11/11/11 12/12/12
f 15/15/15 14/14/14 12/12/12
f 18/18/18 17/17/17 16/16/16
f 19/19/19 18/18/18 16/16/16
f 19/19/19 16/16/16 20/20/20
f 21/21/21 19/19/19 20/20/20
f 21/21/21 20/20/20 22/22/22
f 23/23/23 21/21/21 22/22/22
f 23/23/23 22/22/22 24/24/24
f 25/25/25 23/23/23 24/24/24
f 28/28/28 27/27/27 26/26/26
f 29/29/29 28/28/28 26/26/26
f 29/29/29 26/26/26 30/30/30
f 31/31/31 29/29/29 30/30/30
f 34/34/34 33/33/33 32/32/32
f 35/35/35 34/34/34 32/32/32
f 32/32/32 33/33/33 36/36/36
f 33/33/33 37/37/37 36/36/36
f 36/36/36 37/37/37 38/38/38
f 37/37/37 39/39/39 38/38/38
f 38/38/38 39/39/39 40/40/40
f 39/39/39 41/41/41 40/40/40
f 44/44/44 43/43/43 42/42/42
f 45/45/45 44/44/44 42/42/42
f 42/42/42 43/43/43 46/46/46
f 43/43/43 47/47/47 46/46/46
f 50/50/50 49/49/49 48/48/48
f 51/51/51 50/50/50 48/48/48
f 52/52/52 50/50/50 51/51/51
f 53/53/53 52/52/52 51/51/51
f 51/51/51 48/48/48 54/54/54
f 55/55/55 51/51/51 54/54/54
f 53/53/53 51/51/51 55/55/55
f 56/56/56 53/53/53 55/55/55
f 55/55/55 54/54/54 57/57/57
f 58/58/58 55/55/55 57/57/57
f 56/56/56 55/55/55 58/58/58
f 59/59/59 56/56/56 58/58/58
f 58/58/58 57/57/57 60/60/60
f 61/61/61 58/58/58 60/60/60
f 59/59/59 58/58/58 61/61/61
f 62/62/62 59/59/59 61/61/61
