# Export of Universe
# from Aaro4130 OBJ Exporter v2.0
mtllib 215.mtl
g Cube6x3
v -0.5 -0.5 0
v -0.5 -0.5 0.5
v -0.3 -0.5 0.5
v -0.3 -0.5 0
v -0.5 -0.5 -0.5
v -0.3 -0.5 -0.5
v -0.1 -0.5 0.5
v -0.1 -0.5 0
v -0.1 -0.5 -0.5
v 0.1 -0.5 0.5
v 0.1 -0.5 0
v 0.1 -0.5 -0.5
v 0.3 -0.5 0.5
v 0.3 -0.5 0
v 0.3 -0.5 -0.5
v 0.5 -0.5 0.5
v 0.5 -0.5 0
v 0.5 -0.5 -0.5
v -0.3 -0.5 0.5
v -0.5 -0.5 0.5
v -0.5 0.5 0.5
v -0.3 0.5 0.5
v -0.1 -0.5 0.5
v -0.1 0.5 0.5
v 0.1 -0.5 0.5
v 0.1 0.5 0.5
v 0.3 -0.5 0.5
v 0.3 0.5 0.5
v 0.5 -0.5 0.5
v 0.5 0.5 0.5
v 0.5 -0.5 0
v 0.5 -0.5 0.5
v 0.5 0.5 0.5
v 0.5 0.5 0
v 0.5 -0.5 -0.5
v 0.5 0.5 -0.5
v 0.3 0.5 -0.5
v 0.3 -0.5 -0.5
v 0.5 -0.5 -0.5
v 0.5 0.5 -0.5
v 0.1 0.5 -0.5
v 0.1 -0.5 -0.5
v -0.1 0.5 -0.5
v -0.1 -0.5 -0.5
v -0.3 0.5 -0.5
v -0.3 -0.5 -0.5
v -0.5 0.5 -0.5
v -0.5 -0.5 -0.5
v -0.5 0.5 0
v -0.5 -0.5 0
v -0.5 -0.5 -0.5
v -0.5 0.5 -0.5
v -0.5 0.5 0.5
v -0.5 -0.5 0.5
v -0.3 0.5 0.5
v -0.5 0.5 0.5
v -0.5 0.5 0
v -0.3 0.5 0
v -0.5 0.5 -0.5
v -0.3 0.5 -0.5
v -0.1 0.5 0.5
v -0.1 0.5 0
v -0.1 0.5 -0.5
v 0.1 0.5 0.5
v 0.1 0.5 0
v 0.1 0.5 -0.5
v 0.3 0.5 0.5
v 0.3 0.5 0
v 0.3 0.5 -0.5
v 0.5 0.5 0.5
v 0.5 0.5 0
v 0.5 0.5 -0.5
vn 0 -0.5773503 0
vn 0 -0.5773503 0
vn 0 -0.5773503 0
vn 0 -0.5773503 0
vn 0 -0.5773503 0
vn 0 -0.5773503 0
vn 0 -0.5773503 0
vn 0 -0.5773503 0
vn 0 -0.5773503 0
vn 0 -0.5773503 0
vn 0 -0.5773503 0
vn 0 -0.5773503 0
vn 0 -0.5773503 0
vn 0 -0.5773503 0
vn 0 -0.5773503 0
vn 0 -0.5773503 0
vn 0 -0.5773503 0
vn 0 -0.5773503 0
vn 0 0 0.5773503
vn 0 0 0.5773503
vn 0 0 0.5773503
vn 0 0 0.5773503
vn 0 0 0.5773503
vn 0 0 0.5773503
vn 0 0 0.5773503
vn 0 0 0.5773503
vn 0 0 0.5773503
vn 0 0 0.5773503
vn 0 0 0.5773503
vn 0 0 0.5773503
vn 0.5773503 0 0
vn 0.5773503 0 0
vn 0.5773503 0 0
vn 0.5773503 0 0
vn 0.5773503 0 0
vn 0.5773503 0 0
vn 0 0 -0.5773503
vn 0 0 -0.5773503
vn 0 0 -0.5773503
vn 0 0 -0.5773503
vn 0 0 -0.5773503
vn 0 0 -0.5773503
vn 0 0 -0.5773503
vn 0 0 -0.5773503
vn 0 0 -0.5773503
vn 0 0 -0.5773503
vn 0 0 -0.5773503
vn 0 0 -0.5773503
vn -0.5773503 0 0
vn -0.5773503 0 0
vn -0.5773503 0 0
vn -0.5773503 0 0
vn -0.5773503 0 0
vn -0.5773503 0 0
vn 0 0.5773503 0
vn 0 0.5773503 0
vn 0 0.5773503 0
vn 0 0.5773503 0
vn 0 0.5773503 0
vn 0 0.5773503 0
vn 0 0.5773503 0
vn 0 0.5773503 0
vn 0 0.5773503 0
vn 0 0.5773503 0
vn 0 0.5773503 0
vn 0 0.5773503 0
vn 0 0.5773503 0
vn 0 0.5773503 0
vn 0 0.5773503 0
vn 0 0.5773503 0
vn 0 0.5773503 0
vn 0 0.5773503 0
vt 0 0.5
vt 0 0
vt 0.2 0
vt 0.2 0.5
vt 0 1
vt 0.2 1
vt 0.4 0
vt 0.4 0.5
vt 0.4 1
vt 0.6 0
vt 0.6 0.5
vt 0.6 1
vt 0.8 0
vt 0.8 0.5
vt 0.8 1
vt 1 0
vt 1 0.5
vt 1 1
vt 0.2 0
vt 0 0
vt 0 1
vt 0.2 1
vt 0.4 0
vt 0.4 1
vt 0.6 0
vt 0.6 1
vt 0.8 0
vt 0.8 1
vt 1 0
vt 1 1
vt 0.5 0
vt 0 0
vt 0 1
vt 0.5 1
vt 1 0
vt 1 1
vt 0.8 1
vt 0.8 0
vt 1 0
vt 1 1
vt 0.6 1
vt 0.6 0
vt 0.4 1
vt 0.4 0
vt 0.2 1
vt 0.2 0
vt 0 1
vt 0 0
vt 0.5 1
vt 0.5 0
vt 1 0
vt 1 1
vt 0 1
vt 0 0
vt 0.2 0
vt 0 0
vt 0 0.5
vt 0.2 0.5
vt 0 1
vt 0.2 1
vt 0.4 0
vt 0.4 0.5
vt 0.4 1
vt 0.6 0
vt 0.6 0.5
vt 0.6 1
vt 0.8 0
vt 0.8 0.5
vt 0.8 1
vt 1 0
vt 1 0.5
vt 1 1
usemtl baseThingPartMaterial
f 3/3/3 2/2/2 1/1/1
f 4/4/4 3/3/3 1/1/1
f 4/4/4 1/1/1 5/5/5
f 6/6/6 4/4/4 5/5/5
f 7/7/7 3/3/3 4/4/4
f 8/8/8 7/7/7 4/4/4
f 8/8/8 4/4/4 6/6/6
f 9/9/9 8/8/8 6/6/6
f 10/10/10 7/7/7 8/8/8
f 11/11/11 10/10/10 8/8/8
f 11/11/11 8/8/8 9/9/9
f 12/12/12 11/11/11 9/9/9
f 13/13/13 10/10/10 11/11/11
f 14/14/14 13/13/13 11/11/11
f 14/14/14 11/11/11 12/12/12
f 15/15/15 14/14/14 12/12/12
f 16/16/16 13/13/13 14/14/14
f 17/17/17 16/16/16 14/14/14
f 17/17/17 14/14/14 15/15/15
f 18/18/18 17/17/17 15/15/15
f 21/21/21 20/20/20 19/19/19
f 22/22/22 21/21/21 19/19/19
f 22/22/22 19/19/19 23/23/23
f 24/24/24 22/22/22 23/23/23
f 24/24/24 23/23/23 25/25/25
f 26/26/26 24/24/24 25/25/25
f 26/26/26 25/25/25 27/27/27
f 28/28/28 26/26/26 27/27/27
f 28/28/28 27/27/27 29/29/29
f 30/30/30 28/28/28 29/29/29
f 33/33/33 32/32/32 31/31/31
f 34/34/34 33/33/33 31/31/31
f 34/34/34 31/31/31 35/35/35
f 36/36/36 34/34/34 35/35/35
f 39/39/39 38/38/38 37/37/37
f 40/40/40 39/39/39 37/37/37
f 37/37/37 38/38/38 41/41/41
f 38/38/38 42/42/42 41/41/41
f 41/41/41 42/42/42 43/43/43
f 42/42/42 44/44/44 43/43/43
f 43/43/43 44/44/44 45/45/45
f 44/44/44 46/46/46 45/45/45
f 45/45/45 46/46/46 47/47/47
f 46/46/46 48/48/48 47/47/47
f 51/51/51 50/50/50 49/49/49
f 52/52/52 51/51/51 49/49/49
f 49/49/49 50/50/50 53/53/53
f 50/50/50 54/54/54 53/53/53
f 57/57/57 56/56/56 55/55/55
f 58/58/58 57/57/57 55/55/55
f 59/59/59 57/57/57 58/58/58
f 60/60/60 59/59/59 58/58/58
f 58/58/58 55/55/55 61/61/61
f 62/62/62 58/58/58 61/61/61
f 60/60/60 58/58/58 62/62/62
f 63/63/63 60/60/60 62/62/62
f 62/62/62 61/61/61 64/64/64
f 65/65/65 62/62/62 64/64/64
f 63/63/63 62/62/62 65/65/65
f 66/66/66 63/63/63 65/65/65
f 65/65/65 64/64/64 67/67/67
f 68/68/68 65/65/65 67/67/67
f 66/66/66 65/65/65 68/68/68
f 69/69/69 66/66/66 68/68/68
f 68/68/68 67/67/67 70/70/70
f 71/71/71 68/68/68 70/70/70
f 69/69/69 68/68/68 71/71/71
f 72/72/72 69/69/69 71/71/71
