# Export of Universe
# from Aaro4130 OBJ Exporter v2.0
mtllib 219.mtl
g Cube5x4
v -0.5 -0.5 0.166667
v -0.5 -0.5 0.5
v -0.25 -0.5 0.5
v -0.25 -0.5 0.166667
v -0.5 -0.5 -0.166667
v -0.25 -0.5 -0.166667
v -0.5 -0.5 -0.5
v -0.25 -0.5 -0.5
v 0 -0.5 0.5
v 0 -0.5 0.166667
v 0 -0.5 -0.166667
v 0 -0.5 -0.5
v 0.25 -0.5 0.5
v 0.25 -0.5 0.166667
v 0.25 -0.5 -0.166667
v 0.25 -0.5 -0.5
v 0.5 -0.5 0.5
v 0.5 -0.5 0.166667
v 0.5 -0.5 -0.166667
v 0.5 -0.5 -0.5
v -0.25 -0.5 0.5
v -0.5 -0.5 0.5
v -0.5 0.5 0.5
v -0.25 0.5 0.5
v 0 -0.5 0.5
v 0 0.5 0.5
v 0.25 -0.5 0.5
v 0.25 0.5 0.5
v 0.5 -0.5 0.5
v 0.5 0.5 0.5
v 0.5 -0.5 0.166667
v 0.5 -0.5 0.5
v 0.5 0.5 0.5
v 0.5 0.5 0.166667
v 0.5 -0.5 -0.166667
v 0.5 0.5 -0.166667
v 0.5 -0.5 -0.5
v 0.5 0.5 -0.5
v 0.25 0.5 -0.5
v 0.25 -0.5 -0.5
v 0.5 -0.5 -0.5
v 0.5 0.5 -0.5
v 0 0.5 -0.5
v 0 -0.5 -0.5
v -0.25 0.5 -0.5
v -0.25 -0.5 -0.5
v -0.5 0.5 -0.5
v -0.5 -0.5 -0.5
v -0.5 0.5 -0.166667
v -0.5 -0.5 -0.166667
v -0.5 -0.5 -0.5
v -0.5 0.5 -0.5
v -0.5 0.5 0.166667
v -0.5 -0.5 0.166667
v -0.5 0.5 0.5
v -0.5 -0.5 0.5
v -0.25 0.5 0.5
v -0.5 0.5 0.5
v -0.5 0.5 0.166667
v -0.25 0.5 0.166667
v -0.5 0.5 -0.166667
v -0.25 0.5 -0.166667
v -0.5 0.5 -0.5
v -0.25 0.5 -0.5
v 0 0.5 0.5
v 0 0.5 0.166667
v 0 0.5 -0.166667
v 0 0.5 -0.5
v 0.25 0.5 0.5
v 0.25 0.5 0.166667
v 0.25 0.5 -0.166667
v 0.25 0.5 -0.5
v 0.5 0.5 0.5
v 0.5 0.5 0.166667
v 0.5 0.5 -0.166667
v 0.5 0.5 -0.5
vn 0 -0.5773503 0
vn 0 -0.5773503 0
vn 0 -0.5773503 0
vn 0 -0.5773503 0
vn 0 -0.5773503 0
vn 0 -0.5773503 0
vn 0 -0.5773503 0
vn 0 -0.5773503 0
vn 0 -0.5773503 0
vn 0 -0.5773503 0
vn 0 -0.5773503 0
vn 0 -0.5773503 0
vn 0 -0.5773503 0
vn 0 -0.5773503 0
vn 0 -0.5773503 0
vn 0 -0.5773503 0
vn 0 -0.5773503 0
vn 0 -0.5773503 0
vn 0 -0.5773503 0
vn 0 -0.5773503 0
vn 0 0 0.5773503
vn 0 0 0.5773503
vn 0 0 0.5773503
vn 0 0 0.5773503
vn 0 0 0.5773503
vn 0 0 0.5773503
vn 0 0 0.5773503
vn 0 0 0.5773503
vn 0 0 0.5773503
vn 0 0 0.5773503
vn 0.5773503 0 0
vn 0.5773503 0 0
vn 0.5773503 0 0
vn 0.5773503 0 0
vn 0.5773503 0 0
vn 0.5773503 0 0
vn 0.5773503 0 0
vn 0.5773503 0 0
vn 0 0 -0.5773503
vn 0 0 -0.5773503
vn 0 0 -0.5773503
vn 0 0 -0.5773503
vn 0 0 -0.5773503
vn 0 0 -0.5773503
vn 0 0 -0.5773503
vn 0 0 -0.5773503
vn 0 0 -0.5773503
vn 0 0 -0.5773503
vn -0.5773503 0 0
vn -0.5773503 0 0
vn -0.5773503 0 0
vn -0.5773503 0 0
vn -0.5773503 0 0
vn -0.5773503 0 0
vn -0.5773503 0 0
vn -0.5773503 0 0
vn 0 0.5773503 0
vn 0 0.5773503 0
vn 0 0.5773503 0
vn 0 0.5773503 0
vn 0 0.5773503 0
vn 0 0.5773503 0
vn 0 0.5773503 0
vn 0 0.5773503 0
vn 0 0.5773503 0
vn 0 0.5773503 0
vn 0 0.5773503 0
vn 0 0.5773503 0
vn 0 0.5773503 0
vn 0 0.5773503 0
vn 0 0.5773503 0
vn 0 0.5773503 0
vn 0 0.5773503 0
vn 0 0.5773503 0
vn 0 0.5773503 0
vn 0 0.5773503 0
vt 0 0.333333
vt 0 0
vt 0.25 0
vt 0.25 0.333333
vt 0 0.666667
vt 0.25 0.666667
vt 0 1
vt 0.25 1
vt 0.5 0
vt 0.5 0.333333
vt 0.5 0.666667
vt 0.5 1
vt 0.75 0
vt 0.75 0.333333
vt 0.75 0.666667
vt 0.75 1
vt 1 0
vt 1 0.333333
vt 1 0.666667
vt 1 1
vt 0.25 0
vt 0 0
vt 0 1
vt 0.25 1
vt 0.5 0
vt 0.5 1
vt 0.75 0
vt 0.75 1
vt 1 0
vt 1 1
vt 0.333333 0
vt 0 0
vt 0 1
vt 0.333333 1
vt 0.666667 0
vt 0.666667 1
vt 1 0
vt 1 1
vt 0.75 1
vt 0.75 0
vt 1 0
vt 1 1
vt 0.5 1
vt 0.5 0
vt 0.25 1
vt 0.25 0
vt 0 1
vt 0 0
vt 0.666667 1
vt 0.666667 0
vt 1 0
vt 1 1
vt 0.333333 1
vt 0.333333 0
vt 0 1
vt 0 0
vt 0.25 0
vt 0 0
vt 0 0.333333
vt 0.25 0.333333
vt 0 0.666667
vt 0.25 0.666667
vt 0 1
vt 0.25 1
vt 0.5 0
vt 0.5 0.333333
vt 0.5 0.666667
vt 0.5 1
vt 0.75 0
vt 0.75 0.333333
vt 0.75 0.666667
vt 0.75 1
vt 1 0
vt 1 0.333333
vt 1 0.666667
vt 1 1
usemtl baseThingPartMaterial
f 3/3/3 2/2/2 1/1/1
f 4/4/4 3/3/3 1/1/1
f 4/4/4 1/1/1 5/5/5
f 6/6/6 4/4/4 5/5/5
f 6/6/6 5/5/5 7/7/7
f 8/8/8 6/6/6 7/7/7
f 9/9/9 3/3/3 4/4/4
f 10/10/10 9/9/9 4/4/4
f 10/10/10 4/4/4 6/6/6
f 11/11/11 10/10/10 6/6/6
f 11/11/11 6/6/6 8/8/8
f 12/12/12 11/11/11 8/8/8
f 13/13/13 9/9/9 10/10/10
f 14/14/14 13/13/13 10/10/10
f 14/14/14 10/10/10 11/11/11
f 15/15/15 14/14/14 11/11/11
f 15/15/15 11/11/11 12/12/12
f 16/16/16 15/15/15 12/12/12
f 17/17/17 13/13/13 14/14/14
f 18/18/18 17/17/17 14/14/14
f 18/18/18 14/14/14 15/15/15
f 19/19/19 18/18/18 15/15/15
f 19/19/19 15/15/15 16/16/16
f 20/20/20 19/19/19 16/16/16
f 23/23/23 22/22/22 21/21/21
f 24/24/24 23/23/23 21/21/21
f 24/24/24 21/21/21 25/25/25
f 26/26/26 24/24/24 25/25/25
f 26/26/26 25/25/25 27/27/27
f 28/28/28 26/26/26 27/27/27
f 28/28/28 27/27/27 29/29/29
f 30/30/30 28/28/28 29/29/29
f 33/33/33 32/32/32 31/31/31
f 34/34/34 33/33/33 31/31/31
f 34/34/34 31/31/31 35/35/35
f 36/36/36 34/34/34 35/35/35
f 36/36/36 35/35/35 37/37/37
f 38/38/38 36/36/36 37/37/37
f 41/41/41 40/40/40 39/39/39
f 42/42/42 41/41/41 39/39/39
f 39/39/39 40/40/40 43/43/43
f 40/40/40 44/44/44 43/43/43
f 43/43/43 44/44/44 45/45/45
f 44/44/44 46/46/46 45/45/45
f 45/45/45 46/46/46 47/47/47
f 46/46/46 48/48/48 47/47/47
f 51/51/51 50/50/50 49/49/49
f 52/52/52 51/51/51 49/49/49
f 49/49/49 50/50/50 53/53/53
f 50/50/50 54/54/54 53/53/53
f 53/53/53 54/54/54 55/55/55
f 54/54/54 56/56/56 55/55/55
f 59/59/59 58/58/58 57/57/57
f 60/60/60 59/59/59 57/57/57
f 61/61/61 59/59/59 60/60/60
f 62/62/62 61/61/61 60/60/60
f 63/63/63 61/61/61 62/62/62
f 64/64/64 63/63/63 62/62/62
f 60/60/60 57/57/57 65/65/65
f 66/66/66 60/60/60 65/65/65
f 62/62/62 60/60/60 66/66/66
f 67/67/67 62/62/62 66/66/66
f 64/64/64 62/62/62 67/67/67
f 68/68/68 64/64/64 67/67/67
f 66/66/66 65/65/65 69/69/69
f 70/70/70 66/66/66 69/69/69
f 67/67/67 66/66/66 70/70/70
f 71/71/71 67/67/67 70/70/70
f 68/68/68 67/67/67 71/71/71
f 72/72/72 68/68/68 71/71/71
f 70/70/70 69/69/69 73/73/73
f 74/74/74 70/70/70 73/73/73
f 71/71/71 70/70/70 74/74/74
f 75/75/75 71/71/71 74/74/74
f 72/72/72 71/71/71 75/75/75
f 76/76/76 72/72/72 75/75/75
