# Export of Universe
# from Aaro4130 OBJ Exporter v2.0
mtllib 222.mtl
g Cube3x5
v -0.5 -0.5 0.3
v -0.5 -0.5 0.5
v 0 -0.5 0.5
v 0 -0.5 0.3
v -0.5 -0.5 0.1
v 0 -0.5 0.1
v -0.5 -0.5 -0.1
v 0 -0.5 -0.1
v -0.5 -0.5 -0.3
v 0 -0.5 -0.3
v -0.5 -0.5 -0.5
v 0 -0.5 -0.5
v 0.5 -0.5 0.5
v 0.5 -0.5 0.3
v 0.5 -0.5 0.1
v 0.5 -0.5 -0.1
v 0.5 -0.5 -0.3
v 0.5 -0.5 -0.5
v 0 -0.5 0.5
v -0.5 -0.5 0.5
v -0.5 0.5 0.5
v 0 0.5 0.5
v 0.5 -0.5 0.5
v 0.5 0.5 0.5
v 0.5 -0.5 0.3
v 0.5 -0.5 0.5
v 0.5 0.5 0.5
v 0.5 0.5 0.3
v 0.5 -0.5 0.1
v 0.5 0.5 0.1
v 0.5 -0.5 -0.1
v 0.5 0.5 -0.1
v 0.5 -0.5 -0.3
v 0.5 0.5 -0.3
v 0.5 -0.5 -0.5
v 0.5 0.5 -0.5
v 0 0.5 -0.5
v 0 -0.5 -0.5
v 0.5 -0.5 -0.5
v 0.5 0.5 -0.5
v -0.5 0.5 -0.5
v -0.5 -0.5 -0.5
v -0.5 0.5 -0.3
v -0.5 -0.5 -0.3
v -0.5 -0.5 -0.5
v -0.5 0.5 -0.5
v -0.5 0.5 -0.1
v -0.5 -0.5 -0.1
v -0.5 0.5 0.1
v -0.5 -0.5 0.1
v -0.5 0.5 0.3
v -0.5 -0.5 0.3
v -0.5 0.5 0.5
v -0.5 -0.5 0.5
v 0 0.5 0.5
v -0.5 0.5 0.5
v -0.5 0.5 0.3
v 0 0.5 0.3
v -0.5 0.5 0.1
v 0 0.5 0.1
v -0.5 0.5 -0.1
v 0 0.5 -0.1
v -0.5 0.5 -0.3
v 0 0.5 -0.3
v -0.5 0.5 -0.5
v 0 0.5 -0.5
v 0.5 0.5 0.5
v 0.5 0.5 0.3
v 0.5 0.5 0.1
v 0.5 0.5 -0.1
v 0.5 0.5 -0.3
v 0.5 0.5 -0.5
vn 0 -0.5773503 0
vn 0 -0.5773503 0
vn 0 -0.5773503 0
vn 0 -0.5773503 0
vn 0 -0.5773503 0
vn 0 -0.5773503 0
vn 0 -0.5773503 0
vn 0 -0.5773503 0
vn 0 -0.5773503 0
vn 0 -0.5773503 0
vn 0 -0.5773503 0
vn 0 -0.5773503 0
vn 0 -0.5773503 0
vn 0 -0.5773503 0
vn 0 -0.5773503 0
vn 0 -0.5773503 0
vn 0 -0.5773503 0
vn 0 -0.5773503 0
vn 0 0 0.5773503
vn 0 0 0.5773503
vn 0 0 0.5773503
vn 0 0 0.5773503
vn 0 0 0.5773503
vn 0 0 0.5773503
vn 0.5773503 0 0
vn 0.5773503 0 0
vn 0.5773503 0 0
vn 0.5773503 0 0
vn 0.5773503 0 0
vn 0.5773503 0 0
vn 0.5773503 0 0
vn 0.5773503 0 0
vn 0.5773503 0 0
vn 0.5773503 0 0
vn 0.5773503 0 0
vn 0.5773503 0 0
vn 0 0 -0.5773503
vn 0 0 -0.5773503
vn 0 0 -0.5773503
vn 0 0 -0.5773503
vn 0 0 -0.5773503
vn 0 0 -0.5773503
vn -0.5773503 0 0
vn -0.5773503 0 0
vn -0.5773503 0 0
vn -0.5773503 0 0
vn -0.5773503 0 0
vn -0.5773503 0 0
vn -0.5773503 0 0
vn -0.5773503 0 0
vn -0.5773503 0 0
vn -0.5773503 0 0
vn -0.5773503 0 0
vn -0.5773503 0 0
vn 0 0.5773503 0
vn 0 0.5773503 0
vn 0 0.5773503 0
vn 0 0.5773503 0
vn 0 0.5773503 0
vn 0 0.5773503 0
vn 0 0.5773503 0
vn 0 0.5773503 0
vn 0 0.5773503 0
vn 0 0.5773503 0
vn 0 0.5773503 0
vn 0 0.5773503 0
vn 0 0.5773503 0
vn 0 0.5773503 0
vn 0 0.5773503 0
vn 0 0.5773503 0
vn 0 0.5773503 0
vn 0 0.5773503 0
vt 0 0.2
vt 0 0
vt 0.5 0
vt 0.5 0.2
vt 0 0.4
vt 0.5 0.4
vt 0 0.6
vt 0.5 0.6
vt 0 0.8
vt 0.5 0.8
vt 0 1
vt 0.5 1
vt 1 0
vt 1 0.2
vt 1 0.4
vt 1 0.6
vt 1 0.8
vt 1 1
vt 0.5 0
vt 0 0
vt 0 1
vt 0.5 1
vt 1 0
vt 1 1
vt 0.2 0
vt 0 0
vt 0 1
vt 0.2 1
vt 0.4 0
vt 0.4 1
vt 0.6 0
vt 0.6 1
vt 0.8 0
vt 0.8 1
vt 1 0
vt 1 1
vt 0.5 1
vt 0.5 0
vt 1 0
vt 1 1
vt 0 1
vt 0 0
vt 0.8 1
vt 0.8 0
vt 1 0
vt 1 1
vt 0.6 1
vt 0.6 0
vt 0.4 1
vt 0.4 0
vt 0.2 1
vt 0.2 0
vt 0 1
vt 0 0
vt 0.5 0
vt 0 0
vt 0 0.2
vt 0.5 0.2
vt 0 0.4
vt 0.5 0.4
vt 0 0.6
vt 0.5 0.6
vt 0 0.8
vt 0.5 0.8
vt 0 1
vt 0.5 1
vt 1 0
vt 1 0.2
vt 1 0.4
vt 1 0.6
vt 1 0.8
vt 1 1
usemtl baseThingPartMaterial
f 3/3/3 2/2/2 1/1/1
f 4/4/4 3/3/3 1/1/1
f 4/4/4 1/1/1 5/5/5
f 6/6/6 4/4/4 5/5/5
f 6/6/6 5/5/5 7/7/7
f 8/8/8 6/6/6 7/7/7
f 8/8/8 7/7/7 9/9/9
f 10/10/10 8/8/8 9/9/9
f 10/10/10 9/9/9 11/11/11
f 12/12/12 10/10/10 11/11/11
f 13/13/13 3/3/3 4/4/4
f 14/14/14 13/13/13 4/4/4
f 14/14/14 4/4/4 6/6/6
f 15/15/15 14/14/14 6/6/6
f 15/15/15 6/6/6 8/8/8
f 16/16/16 15/15/15 8/8/8
f 16/16/16 8/8/8 10/10/10
f 17/17/17 16/16/16 10/10/10
f 17/17/17 10/10/10 12/12/12
f 18/18/18 17/17/17 12/12/12
f 21/21/21 20/20/20 19/19/19
f 22/22/22 21/21/21 19/19/19
f 22/22/22 19/19/19 23/23/23
f 24/24/24 22/22/22 23/23/23
f 27/27/27 26/26/26 25/25/25
f 28/28/28 27/27/27 25/25/25
f 28/28/28 25/25/25 29/29/29
f 30/30/30 28/28/28 29/29/29
f 30/30/30 29/29/29 31/31/31
f 32/32/32 30/30/30 31/31/31
f 32/32/32 31/31/31 33/33/33
f 34/34/34 32/32/32 33/33/33
f 34/34/34 33/33/33 35/35/35
f 36/36/36 34/34/34 35/35/35
f 39/39/39 38/38/38 37/37/37
f 40/40/40 39/39/39 37/37/37
f 37/37/37 38/38/38 41/41/41
f 38/38/38 42/42/42 41/41/41
f 45/45/45 44/44/44 43/43/43
f 46/46/46 45/45/45 43/43/43
f 43/43/43 44/44/44 47/47/47
f 44/44/44 48/48/48 47/47/47
f 47/47/47 48/48/48 49/49/49
f 48/48/48 50/50/50 49/49/49
f 49/49/49 50/50/50 51/51/51
f 50/50/50 52/52/52 51/51/51
f 51/51/51 52/52/52 53/53/53
f 52/52/52 54/54/54 53/53/53
f 57/57/57 56/56/56 55/55/55
f 58/58/58 57/57/57 55/55/55
f 59/59/59 57/57/57 58/58/58
f 60/60/60 59/59/59 58/58/58
f 61/61/61 59/59/59 60/60/60
f 62/62/62 61/61/61 60/60/60
f 63/63/63 61/61/61 62/62/62
f 64/64/64 63/63/63 62/62/62
f 65/65/65 63/63/63 64/64/64
f 66/66/66 65/65/65 64/64/64
f 58/58/58 55/55/55 67/67/67
f 68/68/68 58/58/58 67/67/67
f 60/60/60 58/58/58 68/68/68
f 69/69/69 60/60/60 68/68/68
f 62/62/62 60/60/60 69/69/69
f 70/70/70 62/62/62 69/69/69
f 64/64/64 62/62/62 70/70/70
f 71/71/71 64/64/64 70/70/70
f 66/66/66 64/64/64 71/71/71
f 72/72/72 66/66/66 71/71/71
