# Export of Universe
# from Aaro4130 OBJ Exporter v2.0
mtllib 223.mtl
g Cube4x5
v -0.5 -0.5 0.3
v -0.5 -0.5 0.5
v -0.166667 -0.5 0.5
v -0.166667 -0.5 0.3
v -0.5 -0.5 0.1
v -0.166667 -0.5 0.1
v -0.5 -0.5 -0.1
v -0.166667 -0.5 -0.1
v -0.5 -0.5 -0.3
v -0.166667 -0.5 -0.3
v -0.5 -0.5 -0.5
v -0.166667 -0.5 -0.5
v 0.166667 -0.5 0.5
v 0.166667 -0.5 0.3
v 0.166667 -0.5 0.1
v 0.166667 -0.5 -0.1
v 0.166667 -0.5 -0.3
v 0.166667 -0.5 -0.5
v 0.5 -0.5 0.5
v 0.5 -0.5 0.3
v 0.5 -0.5 0.1
v 0.5 -0.5 -0.1
v 0.5 -0.5 -0.3
v 0.5 -0.5 -0.5
v -0.166667 -0.5 0.5
v -0.5 -0.5 0.5
v -0.5 0.5 0.5
v -0.166667 0.5 0.5
v 0.166667 -0.5 0.5
v 0.166667 0.5 0.5
v 0.5 -0.5 0.5
v 0.5 0.5 0.5
v 0.5 -0.5 0.3
v 0.5 -0.5 0.5
v 0.5 0.5 0.5
v 0.5 0.5 0.3
v 0.5 -0.5 0.1
v 0.5 0.5 0.1
v 0.5 -0.5 -0.1
v 0.5 0.5 -0.1
v 0.5 -0.5 -0.3
v 0.5 0.5 -0.3
v 0.5 -0.5 -0.5
v 0.5 0.5 -0.5
v 0.166667 0.5 -0.5
v 0.166667 -0.5 -0.5
v 0.5 -0.5 -0.5
v 0.5 0.5 -0.5
v -0.166667 0.5 -0.5
v -0.166667 -0.5 -0.5
v -0.5 0.5 -0.5
v -0.5 -0.5 -0.5
v -0.5 0.5 -0.3
v -0.5 -0.5 -0.3
v -0.5 -0.5 -0.5
v -0.5 0.5 -0.5
v -0.5 0.5 -0.1
v -0.5 -0.5 -0.1
v -0.5 0.5 0.1
v -0.5 -0.5 0.1
v -0.5 0.5 0.3
v -0.5 -0.5 0.3
v -0.5 0.5 0.5
v -0.5 -0.5 0.5
v -0.166667 0.5 0.5
v -0.5 0.5 0.5
v -0.5 0.5 0.3
v -0.166667 0.5 0.3
v -0.5 0.5 0.1
v -0.166667 0.5 0.1
v -0.5 0.5 -0.1
v -0.166667 0.5 -0.1
v -0.5 0.5 -0.3
v -0.166667 0.5 -0.3
v -0.5 0.5 -0.5
v -0.166667 0.5 -0.5
v 0.166667 0.5 0.5
v 0.166667 0.5 0.3
v 0.166667 0.5 0.1
v 0.166667 0.5 -0.1
v 0.166667 0.5 -0.3
v 0.166667 0.5 -0.5
v 0.5 0.5 0.5
v 0.5 0.5 0.3
v 0.5 0.5 0.1
v 0.5 0.5 -0.1
v 0.5 0.5 -0.3
v 0.5 0.5 -0.5
vn 0 -0.5773503 0
vn 0 -0.5773503 0
vn 0 -0.5773503 0
vn 0 -0.5773503 0
vn 0 -0.5773503 0
vn 0 -0.5773503 0
vn 0 -0.5773503 0
vn 0 -0.5773503 0
vn 0 -0.5773503 0
vn 0 -0.5773503 0
vn 0 -0.5773503 0
vn 0 -0.5773503 0
vn 0 -0.5773503 0
vn 0 -0.5773503 0
vn 0 -0.5773503 0
vn 0 -0.5773503 0
vn 0 -0.5773503 0
vn 0 -0.5773503 0
vn 0 -0.5773503 0
vn 0 -0.5773503 0
vn 0 -0.5773503 0
vn 0 -0.5773503 0
vn 0 -0.5773503 0
vn 0 -0.5773503 0
vn 0 0 0.5773503
vn 0 0 0.5773503
vn 0 0 0.5773503
vn 0 0 0.5773503
vn 0 0 0.5773503
vn 0 0 0.5773503
vn 0 0 0.5773503
vn 0 0 0.5773503
vn 0.5773503 0 0
vn 0.5773503 0 0
vn 0.5773503 0 0
vn 0.5773503 0 0
vn 0.5773503 0 0
vn 0.5773503 0 0
vn 0.5773503 0 0
vn 0.5773503 0 0
vn 0.5773503 0 0
vn 0.5773503 0 0
vn 0.5773503 0 0
vn 0.5773503 0 0
vn 0 0 -0.5773503
vn 0 0 -0.5773503
vn 0 0 -0.5773503
vn 0 0 -0.5773503
vn 0 0 -0.5773503
vn 0 0 -0.5773503
vn 0 0 -0.5773503
vn 0 0 -0.5773503
vn -0.5773503 0 0
vn -0.5773503 0 0
vn -0.5773503 0 0
vn -0.5773503 0 0
vn -0.5773503 0 0
vn -0.5773503 0 0
vn -0.5773503 0 0
vn -0.5773503 0 0
vn -0.5773503 0 0
vn -0.5773503 0 0
vn -0.5773503 0 0
vn -0.5773503 0 0
vn 0 0.5773503 0
vn 0 0.5773503 0
vn 0 0.5773503 0
vn 0 0.5773503 0
vn 0 0.5773503 0
vn 0 0.5773503 0
vn 0 0.5773503 0
vn 0 0.5773503 0
vn 0 0.5773503 0
vn 0 0.5773503 0
vn 0 0.5773503 0
vn 0 0.5773503 0
vn 0 0.5773503 0
vn 0 0.5773503 0
vn 0 0.5773503 0
vn 0 0.5773503 0
vn 0 0.5773503 0
vn 0 0.5773503 0
vn 0 0.5773503 0
vn 0 0.5773503 0
vn 0 0.5773503 0
vn 0 0.5773503 0
vn 0 0.5773503 0
vn 0 0.5773503 0
vt 0 0.2
vt 0 0
vt 0.333333 0
vt 0.333333 0.2
vt 0 0.4
vt 0.333333 0.4
vt 0 0.6
vt 0.333333 0.6
vt 0 0.8
vt 0.333333 0.8
vt 0 1
vt 0.333333 1
vt 0.666667 0
vt 0.666667 0.2
vt 0.666667 0.4
vt 0.666667 0.6
vt 0.666667 0.8
vt 0.666667 1
vt 1 0
vt 1 0.2
vt 1 0.4
vt 1 0.6
vt 1 0.8
vt 1 1
vt 0.333333 0
vt 0 0
vt 0 1
vt 0.333333 1
vt 0.666667 0
vt 0.666667 1
vt 1 0
vt 1 1
vt 0.2 0
vt 0 0
vt 0 1
vt 0.2 1
vt 0.4 0
vt 0.4 1
vt 0.6 0
vt 0.6 1
vt 0.8 0
vt 0.8 1
vt 1 0
vt 1 1
vt 0.666667 1
vt 0.666667 0
vt 1 0
vt 1 1
vt 0.333333 1
vt 0.333333 0
vt 0 1
vt 0 0
vt 0.8 1
vt 0.8 0
vt 1 0
vt 1 1
vt 0.6 1
vt 0.6 0
vt 0.4 1
vt 0.4 0
vt 0.2 1
vt 0.2 0
vt 0 1
vt 0 0
vt 0.333333 0
vt 0 0
vt 0 0.2
vt 0.333333 0.2
vt 0 0.4
vt 0.333333 0.4
vt 0 0.6
vt 0.333333 0.6
vt 0 0.8
vt 0.333333 0.8
vt 0 1
vt 0.333333 1
vt 0.666667 0
vt 0.666667 0.2
vt 0.666667 0.4
vt 0.666667 0.6
vt 0.666667 0.8
vt 0.666667 1
vt 1 0
vt 1 0.2
vt 1 0.4
vt 1 0.6
vt 1 0.8
vt 1 1
usemtl baseThingPartMaterial
f 3/3/3 2/2/2 1/1/1
f 4/4/4 3/3/3 1/1/1
f 4/4/4 1/1/1 5/5/5
f 6/6/6 4/4/4 5/5/5
f 6/6/6 5/5/5 7/7/7
f 8/8/8 6/6/6 7/7/7
f 8/8/8 7/7/7 9/9/9
f 10/10/10 8/8/8 9/9/9
f 10/10/10 9/9/9 11/11/11
f 12/12/12 10/10/10 11/11/11
f 13/13/13 3/3/3 4/4/4
f 14/14/14 13/13/13 4/4/4
f 14/14/14 4/4/4 6/6/6
f 15/15/15 14/14/14 6/6/6
f 15/15/15 6/6/6 8/8/8
f 16/16/16 15/15/15 8/8/8
f 16/16/16 8/8/8 10/10/10
f 17/17/17 16/16/16 10/10/10
f 17/17/17 10/10/10 12/12/12
f 18/18/18 17/17/17 12/12/12
f 19/19/19 13/13/13 14/14/14
f 20/20/20 19/19/19 14/14/14
f 20/20/20 14/14/14 15/15/15
f 21/21/21 20/20/20 15/15/15
f 21/21/21 15/15/15 16/16/16
f 22/22/22 21/21/21 16/16/16
f 22/22/22 16/16/16 17/17/17
f 23/23/23 22/22/22 17/17/17
f 23/23/23 17/17/17 18/18/18
f 24/24/24 23/23/23 18/18/18
f 27/27/27 26/26/26 25/25/25
f 28/28/28 27/27/27 25/25/25
f 28/28/28 25/25/25 29/29/29
f 30/30/30 28/28/28 29/29/29
f 30/30/30 29/29/29 31/31/31
f 32/32/32 30/30/30 31/31/31
f 35/35/35 34/34/34 33/33/33
f 36/36/36 35/35/35 33/33/33
f 36/36/36 33/33/33 37/37/37
f 38/38/38 36/36/36 37/37/37
f 38/38/38 37/37/37 39/39/39
f 40/40/40 38/38/38 39/39/39
f 40/40/40 39/39/39 41/41/41
f 42/42/42 40/40/40 41/41/41
f 42/42/42 41/41/41 43/43/43
f 44/44/44 42/42/42 43/43/43
f 47/47/47 46/46/46 45/45/45
f 48/48/48 47/47/47 45/45/45
f 45/45/45 46/46/46 49/49/49
f 46/46/46 50/50/50 49/49/49
f 49/49/49 50/50/50 51/51/51
f 50/50/50 52/52/52 51/51/51
f 55/55/55 54/54/54 53/53/53
f 56/56/56 55/55/55 53/53/53
f 53/53/53 54/54/54 57/57/57
f 54/54/54 58/58/58 57/57/57
f 57/57/57 58/58/58 59/59/59
f 58/58/58 60/60/60 59/59/59
f 59/59/59 60/60/60 61/61/61
f 60/60/60 62/62/62 61/61/61
f 61/61/61 62/62/62 63/63/63
f 62/62/62 64/64/64 63/63/63
f 67/67/67 66/66/66 65/65/65
f 68/68/68 67/67/67 65/65/65
f 69/69/69 67/67/67 68/68/68
f 70/70/70 69/69/69 68/68/68
f 71/71/71 69/69/69 70/70/70
f 72/72/72 71/71/71 70/70/70
f 73/73/73 71/71/71 72/72/72
f 74/74/74 73/73/73 72/72/72
f 75/75/75 73/73/73 74/74/74
f 76/76/76 75/75/75 74/74/74
f 68/68/68 65/65/65 77/77/77
f 78/78/78 68/68/68 77/77/77
f 70/70/70 68/68/68 78/78/78
f 79/79/79 70/70/70 78/78/78
f 72/72/72 70/70/70 79/79/79
f 80/80/80 72/72/72 79/79/79
f 74/74/74 72/72/72 80/80/80
f 81/81/81 74/74/74 80/80/80
f 76/76/76 74/74/74 81/81/81
f 82/82/82 76/76/76 81/81/81
f 78/78/78 77/77/77 83/83/83
f 84/84/84 78/78/78 83/83/83
f 79/79/79 78/78/78 84/84/84
f 85/85/85 79/79/79 84/84/84
f 80/80/80 79/79/79 85/85/85
f 86/86/86 80/80/80 85/85/85
f 81/81/81 80/80/80 86/86/86
f 87/87/87 81/81/81 86/86/86
f 82/82/82 81/81/81 87/87/87
f 88/88/88 82/82/82 87/87/87
