# Export of Universe
# from Aaro4130 OBJ Exporter v2.0
mtllib 224.mtl
g Cube5x5
v -0.5 -0.5 0.3
v -0.5 -0.5 0.5
v -0.25 -0.5 0.5
v -0.25 -0.5 0.3
v -0.5 -0.5 0.1
v -0.25 -0.5 0.1
v -0.5 -0.5 -0.1
v -0.25 -0.5 -0.1
v -0.5 -0.5 -0.3
v -0.25 -0.5 -0.3
v -0.5 -0.5 -0.5
v -0.25 -0.5 -0.5
v 0 -0.5 0.5
v 0 -0.5 0.3
v 0 -0.5 0.1
v 0 -0.5 -0.1
v 0 -0.5 -0.3
v 0 -0.5 -0.5
v 0.25 -0.5 0.5
v 0.25 -0.5 0.3
v 0.25 -0.5 0.1
v 0.25 -0.5 -0.1
v 0.25 -0.5 -0.3
v 0.25 -0.5 -0.5
v 0.5 -0.5 0.5
v 0.5 -0.5 0.3
v 0.5 -0.5 0.1
v 0.5 -0.5 -0.1
v 0.5 -0.5 -0.3
v 0.5 -0.5 -0.5
v -0.25 -0.5 0.5
v -0.5 -0.5 0.5
v -0.5 0.5 0.5
v -0.25 0.5 0.5
v 0 -0.5 0.5
v 0 0.5 0.5
v 0.25 -0.5 0.5
v 0.25 0.5 0.5
v 0.5 -0.5 0.5
v 0.5 0.5 0.5
v 0.5 -0.5 0.3
v 0.5 -0.5 0.5
v 0.5 0.5 0.5
v 0.5 0.5 0.3
v 0.5 -0.5 0.1
v 0.5 0.5 0.1
v 0.5 -0.5 -0.1
v 0.5 0.5 -0.1
v 0.5 -0.5 -0.3
v 0.5 0.5 -0.3
v 0.5 -0.5 -0.5
v 0.5 0.5 -0.5
v 0.25 0.5 -0.5
v 0.25 -0.5 -0.5
v 0.5 -0.5 -0.5
v 0.5 0.5 -0.5
v 0 0.5 -0.5
v 0 -0.5 -0.5
v -0.25 0.5 -0.5
v -0.25 -0.5 -0.5
v -0.5 0.5 -0.5
v -0.5 -0.5 -0.5
v -0.5 0.5 -0.3
v -0.5 -0.5 -0.3
v -0.5 -0.5 -0.5
v -0.5 0.5 -0.5
v -0.5 0.5 -0.1
v -0.5 -0.5 -0.1
v -0.5 0.5 0.1
v -0.5 -0.5 0.1
v -0.5 0.5 0.3
v -0.5 -0.5 0.3
v -0.5 0.5 0.5
v -0.5 -0.5 0.5
v -0.25 0.5 0.5
v -0.5 0.5 0.5
v -0.5 0.5 0.3
v -0.25 0.5 0.3
v -0.5 0.5 0.1
v -0.25 0.5 0.1
v -0.5 0.5 -0.1
v -0.25 0.5 -0.1
v -0.5 0.5 -0.3
v -0.25 0.5 -0.3
v -0.5 0.5 -0.5
v -0.25 0.5 -0.5
v 0 0.5 0.5
v 0 0.5 0.3
v 0 0.5 0.1
v 0 0.5 -0.1
v 0 0.5 -0.3
v 0 0.5 -0.5
v 0.25 0.5 0.5
v 0.25 0.5 0.3
v 0.25 0.5 0.1
v 0.25 0.5 -0.1
v 0.25 0.5 -0.3
v 0.25 0.5 -0.5
v 0.5 0.5 0.5
v 0.5 0.5 0.3
v 0.5 0.5 0.1
v 0.5 0.5 -0.1
v 0.5 0.5 -0.3
v 0.5 0.5 -0.5
vn 0 -0.5773503 0
vn 0 -0.5773503 0
vn 0 -0.5773503 0
vn 0 -0.5773503 0
vn 0 -0.5773503 0
vn 0 -0.5773503 0
vn 0 -0.5773503 0
vn 0 -0.5773503 0
vn 0 -0.5773503 0
vn 0 -0.5773503 0
vn 0 -0.5773503 0
vn 0 -0.5773503 0
vn 0 -0.5773503 0
vn 0 -0.5773503 0
vn 0 -0.5773503 0
vn 0 -0.5773503 0
vn 0 -0.5773503 0
vn 0 -0.5773503 0
vn 0 -0.5773503 0
vn 0 -0.5773503 0
vn 0 -0.5773503 0
vn 0 -0.5773503 0
vn 0 -0.5773503 0
vn 0 -0.5773503 0
vn 0 -0.5773503 0
vn 0 -0.5773503 0
vn 0 -0.5773503 0
vn 0 -0.5773503 0
vn 0 -0.5773503 0
vn 0 -0.5773503 0
vn 0 0 0.5773503
vn 0 0 0.5773503
vn 0 0 0.5773503
vn 0 0 0.5773503
vn 0 0 0.5773503
vn 0 0 0.5773503
vn 0 0 0.5773503
vn 0 0 0.5773503
vn 0 0 0.5773503
vn 0 0 0.5773503
vn 0.5773503 0 0
vn 0.5773503 0 0
vn 0.5773503 0 0
vn 0.5773503 0 0
vn 0.5773503 0 0
vn 0.5773503 0 0
vn 0.5773503 0 0
vn 0.5773503 0 0
vn 0.5773503 0 0
vn 0.5773503 0 0
vn 0.5773503 0 0
vn 0.5773503 0 0
vn 0 0 -0.5773503
vn 0 0 -0.5773503
vn 0 0 -0.5773503
vn 0 0 -0.5773503
vn 0 0 -0.5773503
vn 0 0 -0.5773503
vn 0 0 -0.5773503
vn 0 0 -0.5773503
vn 0 0 -0.5773503
vn 0 0 -0.5773503
vn -0.5773503 0 0
vn -0.5773503 0 0
vn -0.5773503 0 0
vn -0.5773503 0 0
vn -0.5773503 0 0
vn -0.5773503 0 0
vn -0.5773503 0 0
vn -0.5773503 0 0
vn -0.5773503 0 0
vn -0.5773503 0 0
vn -0.5773503 0 0
vn -0.5773503 0 0
vn 0 0.5773503 0
vn 0 0.5773503 0
vn 0 0.5773503 0
vn 0 0.5773503 0
vn 0 0.5773503 0
vn 0 0.5773503 0
vn 0 0.5773503 0
vn 0 0.5773503 0
vn 0 0.5773503 0
vn 0 0.5773503 0
vn 0 0.5773503 0
vn 0 0.5773503 0
vn 0 0.5773503 0
vn 0 0.5773503 0
vn 0 0.5773503 0
vn 0 0.5773503 0
vn 0 0.5773503 0
vn 0 0.5773503 0
vn 0 0.5773503 0
vn 0 0.5773503 0
vn 0 0.5773503 0
vn 0 0.5773503 0
vn 0 0.5773503 0
vn 0 0.5773503 0
vn 0 0.5773503 0
vn 0 0.5773503 0
vn 0 0.5773503 0
vn 0 0.5773503 0
vn 0 0.5773503 0
vn 0 0.5773503 0
vt 0 0.2
vt 0 0
vt 0.25 0
vt 0.25 0.2
vt 0 0.4
vt 0.25 0.4
vt 0 0.6
vt 0.25 0.6
vt 0 0.8
vt 0.25 0.8
vt 0 1
vt 0.25 1
vt 0.5 0
vt 0.5 0.2
vt 0.5 0.4
vt 0.5 0.6
vt 0.5 0.8
vt 0.5 1
vt 0.75 0
vt 0.75 0.2
vt 0.75 0.4
vt 0.75 0.6
vt 0.75 0.8
vt 0.75 1
vt 1 0
vt 1 0.2
vt 1 0.4
vt 1 0.6
vt 1 0.8
vt 1 1
vt 0.25 0
vt 0 0
vt 0 1
vt 0.25 1
vt 0.5 0
vt 0.5 1
vt 0.75 0
vt 0.75 1
vt 1 0
vt 1 1
vt 0.2 0
vt 0 0
vt 0 1
vt 0.2 1
vt 0.4 0
vt 0.4 1
vt 0.6 0
vt 0.6 1
vt 0.8 0
vt 0.8 1
vt 1 0
vt 1 1
vt 0.75 1
vt 0.75 0
vt 1 0
vt 1 1
vt 0.5 1
vt 0.5 0
vt 0.25 1
vt 0.25 0
vt 0 1
vt 0 0
vt 0.8 1
vt 0.8 0
vt 1 0
vt 1 1
vt 0.6 1
vt 0.6 0
vt 0.4 1
vt 0.4 0
vt 0.2 1
vt 0.2 0
vt 0 1
vt 0 0
vt 0.25 0
vt 0 0
vt 0 0.2
vt 0.25 0.2
vt 0 0.4
vt 0.25 0.4
vt 0 0.6
vt 0.25 0.6
vt 0 0.8
vt 0.25 0.8
vt 0 1
vt 0.25 1
vt 0.5 0
vt 0.5 0.2
vt 0.5 0.4
vt 0.5 0.6
vt 0.5 0.8
vt 0.5 1
vt 0.75 0
vt 0.75 0.2
vt 0.75 0.4
vt 0.75 0.6
vt 0.75 0.8
vt 0.75 1
vt 1 0
vt 1 0.2
vt 1 0.4
vt 1 0.6
vt 1 0.8
vt 1 1
usemtl baseThingPartMaterial
f 3/3/3 2/2/2 1/1/1
f 4/4/4 3/3/3 1/1/1
f 4/4/4 1/1/1 5/5/5
f 6/6/6 4/4/4 5/5/5
f 6/6/6 5/5/5 7/7/7
f 8/8/8 6/6/6 7/7/7
f 8/8/8 7/7/7 9/9/9
f 10/10/10 8/8/8 9/9/9
f 10/10/10 9/9/9 11/11/11
f 12/12/12 10/10/10 11/11/11
f 13/13/13 3/3/3 4/4/4
f 14/14/14 13/13/13 4/4/4
f 14/14/14 4/4/4 6/6/6
f 15/15/15 14/14/14 6/6/6
f 15/15/15 6/6/6 8/8/8
f 16/16/16 15/15/15 8/8/8
f 16/16/16 8/8/8 10/10/10
f 17/17/17 16/16/16 10/10/10
f 17/17/17 10/10/10 12/12/12
f 18/18/18 17/17/17 12/12/12
f 19/19/19 13/13/13 14/14/14
f 20/20/20 19/19/19 14/14/14
f 20/20/20 14/14/14 15/15/15
f 21/21/21 20/20/20 15/15/15
f 21/21/21 15/15/15 16/16/16
f 22/22/22 21/21/21 16/16/16
f 22/22/22 16/16/16 17/17/17
f 23/23/23 22/22/22 17/17/17
f 23/23/23 17/17/17 18/18/18
f 24/24/24 23/23/23 18/18/18
f 25/25/25 19/19/19 20/20/20
f 26/26/26 25/25/25 20/20/20
f 26/26/26 20/20/20 21/21/21
f 27/27/27 26/26/26 21/21/21
f 27/27/27 21/21/21 22/22/22
f 28/28/28 27/27/27 22/22/22
f 28/28/28 22/22/22 23/23/23
f 29/29/29 28/28/28 23/23/23
f 29/29/29 23/23/23 24/24/24
f 30/30/30 29/29/29 24/24/24
f 33/33/33 32/32/32 31/31/31
f 34/34/34 33/33/33 31/31/31
f 34/34/34 31/31/31 35/35/35
f 36/36/36 34/34/34 35/35/35
f 36/36/36 35/35/35 37/37/37
f 38/38/38 36/36/36 37/37/37
f 38/38/38 37/37/37 39/39/39
f 40/40/40 38/38/38 39/39/39
f 43/43/43 42/42/42 41/41/41
f 44/44/44 43/43/43 41/41/41
f 44/44/44 41/41/41 45/45/45
f 46/46/46 44/44/44 45/45/45
f 46/46/46 45/45/45 47/47/47
f 48/48/48 46/46/46 47/47/47
f 48/48/48 47/47/47 49/49/49
f 50/50/50 48/48/48 49/49/49
f 50/50/50 49/49/49 51/51/51
f 52/52/52 50/50/50 51/51/51
f 55/55/55 54/54/54 53/53/53
f 56/56/56 55/55/55 53/53/53
f 53/53/53 54/54/54 57/57/57
f 54/54/54 58/58/58 57/57/57
f 57/57/57 58/58/58 59/59/59
f 58/58/58 60/60/60 59/59/59
f 59/59/59 60/60/60 61/61/61
f 60/60/60 62/62/62 61/61/61
f 65/65/65 64/64/64 63/63/63
f 66/66/66 65/65/65 63/63/63
f 63/63/63 64/64/64 67/67/67
f 64/64/64 68/68/68 67/67/67
f 67/67/67 68/68/68 69/69/69
f 68/68/68 70/70/70 69/69/69
f 69/69/69 70/70/70 71/71/71
f 70/70/70 72/72/72 71/71/71
f 71/71/71 72/72/72 73/73/73
f 72/72/72 74/74/74 73/73/73
f 77/77/77 76/76/76 75/75/75
f 78/78/78 77/77/77 75/75/75
f 79/79/79 77/77/77 78/78/78
f 80/80/80 79/79/79 78/78/78
f 81/81/81 79/79/79 80/80/80
f 82/82/82 81/81/81 80/80/80
f 83/83/83 81/81/81 82/82/82
f 84/84/84 83/83/83 82/82/82
f 85/85/85 83/83/83 84/84/84
f 86/86/86 85/85/85 84/84/84
f 78/78/78 75/75/75 87/87/87
f 88/88/88 78/78/78 87/87/87
f 80/80/80 78/78/78 88/88/88
f 89/89/89 80/80/80 88/88/88
f 82/82/82 80/80/80 89/89/89
f 90/90/90 82/82/82 89/89/89
f 84/84/84 82/82/82 90/90/90
f 91/91/91 84/84/84 90/90/90
f 86/86/86 84/84/84 91/91/91
f 92/92/92 86/86/86 91/91/91
f 88/88/88 87/87/87 93/93/93
f 94/94/94 88/88/88 93/93/93
f 89/89/89 88/88/88 94/94/94
f 95/95/95 89/89/89 94/94/94
f 90/90/90 89/89/89 95/95/95
f 96/96/96 90/90/90 95/95/95
f 91/91/91 90/90/90 96/96/96
f 97/97/97 91/91/91 96/96/96
f 92/92/92 91/91/91 97/97/97
f 98/98/98 92/92/92 97/97/97
f 94/94/94 93/93/93 99/99/99
f 100/100/100 94/94/94 99/99/99
f 95/95/95 94/94/94 100/100/100
f 101/101/101 95/95/95 100/100/100
f 96/96/96 95/95/95 101/101/101
f 102/102/102 96/96/96 101/101/101
f 97/97/97 96/96/96 102/102/102
f 103/103/103 97/97/97 102/102/102
f 98/98/98 97/97/97 103/103/103
f 104/104/104 98/98/98 103/103/103
