# Export of Universe
# from Aaro4130 OBJ Exporter v2.0
mtllib 226.mtl
g Cube6x6
v -0.5 -0.5 0.3
v -0.5 -0.5 0.5
v -0.3 -0.5 0.5
v -0.3 -0.5 0.3
v -0.5 -0.5 0.1
v -0.3 -0.5 0.1
v -0.5 -0.5 -0.1
v -0.3 -0.5 -0.1
v -0.5 -0.5 -0.3
v -0.3 -0.5 -0.3
v -0.5 -0.5 -0.5
v -0.3 -0.5 -0.5
v -0.1 -0.5 0.5
v -0.1 -0.5 0.3
v -0.1 -0.5 0.1
v -0.1 -0.5 -0.1
v -0.1 -0.5 -0.3
v -0.1 -0.5 -0.5
v 0.1 -0.5 0.5
v 0.1 -0.5 0.3
v 0.1 -0.5 0.1
v 0.1 -0.5 -0.1
v 0.1 -0.5 -0.3
v 0.1 -0.5 -0.5
v 0.3 -0.5 0.5
v 0.3 -0.5 0.3
v 0.3 -0.5 0.1
v 0.3 -0.5 -0.1
v 0.3 -0.5 -0.3
v 0.3 -0.5 -0.5
v 0.5 -0.5 0.5
v 0.5 -0.5 0.3
v 0.5 -0.5 0.1
v 0.5 -0.5 -0.1
v 0.5 -0.5 -0.3
v 0.5 -0.5 -0.5
v -0.3 -0.5 0.5
v -0.5 -0.5 0.5
v -0.5 0.5 0.5
v -0.3 0.5 0.5
v -0.1 -0.5 0.5
v -0.1 0.5 0.5
v 0.1 -0.5 0.5
v 0.1 0.5 0.5
v 0.3 -0.5 0.5
v 0.3 0.5 0.5
v 0.5 -0.5 0.5
v 0.5 0.5 0.5
v 0.5 -0.5 0.3
v 0.5 -0.5 0.5
v 0.5 0.5 0.5
v 0.5 0.5 0.3
v 0.5 -0.5 0.1
v 0.5 0.5 0.1
v 0.5 -0.5 -0.1
v 0.5 0.5 -0.1
v 0.5 -0.5 -0.3
v 0.5 0.5 -0.3
v 0.5 -0.5 -0.5
v 0.5 0.5 -0.5
v 0.3 0.5 -0.5
v 0.3 -0.5 -0.5
v 0.5 -0.5 -0.5
v 0.5 0.5 -0.5
v 0.1 0.5 -0.5
v 0.1 -0.5 -0.5
v -0.1 0.5 -0.5
v -0.1 -0.5 -0.5
v -0.3 0.5 -0.5
v -0.3 -0.5 -0.5
v -0.5 0.5 -0.5
v -0.5 -0.5 -0.5
v -0.5 0.5 -0.3
v -0.5 -0.5 -0.3
v -0.5 -0.5 -0.5
v -0.5 0.5 -0.5
v -0.5 0.5 -0.1
v -0.5 -0.5 -0.1
v -0.5 0.5 0.1
v -0.5 -0.5 0.1
v -0.5 0.5 0.3
v -0.5 -0.5 0.3
v -0.5 0.5 0.5
v -0.5 -0.5 0.5
v -0.3 0.5 0.5
v -0.5 0.5 0.5
v -0.5 0.5 0.3
v -0.3 0.5 0.3
v -0.5 0.5 0.1
v -0.3 0.5 0.1
v -0.5 0.5 -0.1
v -0.3 0.5 -0.1
v -0.5 0.5 -0.3
v -0.3 0.5 -0.3
v -0.5 0.5 -0.5
v -0.3 0.5 -0.5
v -0.1 0.5 0.5
v -0.1 0.5 0.3
v -0.1 0.5 0.1
v -0.1 0.5 -0.1
v -0.1 0.5 -0.3
v -0.1 0.5 -0.5
v 0.1 0.5 0.5
v 0.1 0.5 0.3
v 0.1 0.5 0.1
v 0.1 0.5 -0.1
v 0.1 0.5 -0.3
v 0.1 0.5 -0.5
v 0.3 0.5 0.5
v 0.3 0.5 0.3
v 0.3 0.5 0.1
v 0.3 0.5 -0.1
v 0.3 0.5 -0.3
v 0.3 0.5 -0.5
v 0.5 0.5 0.5
v 0.5 0.5 0.3
v 0.5 0.5 0.1
v 0.5 0.5 -0.1
v 0.5 0.5 -0.3
v 0.5 0.5 -0.5
vn 0 -0.5773503 0
vn 0 -0.5773503 0
vn 0 -0.5773503 0
vn 0 -0.5773503 0
vn 0 -0.5773503 0
vn 0 -0.5773503 0
vn 0 -0.5773503 0
vn 0 -0.5773503 0
vn 0 -0.5773503 0
vn 0 -0.5773503 0
vn 0 -0.5773503 0
vn 0 -0.5773503 0
vn 0 -0.5773503 0
vn 0 -0.5773503 0
vn 0 -0.5773503 0
vn 0 -0.5773503 0
vn 0 -0.5773503 0
vn 0 -0.5773503 0
vn 0 -0.5773503 0
vn 0 -0.5773503 0
vn 0 -0.5773503 0
vn 0 -0.5773503 0
vn 0 -0.5773503 0
vn 0 -0.5773503 0
vn 0 -0.5773503 0
vn 0 -0.5773503 0
vn 0 -0.5773503 0
vn 0 -0.5773503 0
vn 0 -0.5773503 0
vn 0 -0.5773503 0
vn 0 -0.5773503 0
vn 0 -0.5773503 0
vn 0 -0.5773503 0
vn 0 -0.5773503 0
vn 0 -0.5773503 0
vn 0 -0.5773503 0
vn 0 0 0.5773503
vn 0 0 0.5773503
vn 0 0 0.5773503
vn 0 0 0.5773503
vn 0 0 0.5773503
vn 0 0 0.5773503
vn 0 0 0.5773503
vn 0 0 0.5773503
vn 0 0 0.5773503
vn 0 0 0.5773503
vn 0 0 0.5773503
vn 0 0 0.5773503
vn 0.5773503 0 0
vn 0.5773503 0 0
vn 0.5773503 0 0
vn 0.5773503 0 0
vn 0.5773503 0 0
vn 0.5773503 0 0
vn 0.5773503 0 0
vn 0.5773503 0 0
vn 0.5773503 0 0
vn 0.5773503 0 0
vn 0.5773503 0 0
vn 0.5773503 0 0
vn 0 0 -0.5773503
vn 0 0 -0.5773503
vn 0 0 -0.5773503
vn 0 0 -0.5773503
vn 0 0 -0.5773503
vn 0 0 -0.5773503
vn 0 0 -0.5773503
vn 0 0 -0.5773503
vn 0 0 -0.5773503
vn 0 0 -0.5773503
vn 0 0 -0.5773503
vn 0 0 -0.5773503
vn -0.5773503 0 0
vn -0.5773503 0 0
vn -0.5773503 0 0
vn -0.5773503 0 0
vn -0.5773503 0 0
vn -0.5773503 0 0
vn -0.5773503 0 0
vn -0.5773503 0 0
vn -0.5773503 0 0
vn -0.5773503 0 0
vn -0.5773503 0 0
vn -0.5773503 0 0
vn 0 0.5773503 0
vn 0 0.5773503 0
vn 0 0.5773503 0
vn 0 0.5773503 0
vn 0 0.5773503 0
vn 0 0.5773503 0
vn 0 0.5773503 0
vn 0 0.5773503 0
vn 0 0.5773503 0
vn 0 0.5773503 0
vn 0 0.5773503 0
vn 0 0.5773503 0
vn 0 0.5773503 0
vn 0 0.5773503 0
vn 0 0.5773503 0
vn 0 0.5773503 0
vn 0 0.5773503 0
vn 0 0.5773503 0
vn 0 0.5773503 0
vn 0 0.5773503 0
vn 0 0.5773503 0
vn 0 0.5773503 0
vn 0 0.5773503 0
vn 0 0.5773503 0
vn 0 0.5773503 0
vn 0 0.5773503 0
vn 0 0.5773503 0
vn 0 0.5773503 0
vn 0 0.5773503 0
vn 0 0.5773503 0
vn 0 0.5773503 0
vn 0 0.5773503 0
vn 0 0.5773503 0
vn 0 0.5773503 0
vn 0 0.5773503 0
vn 0 0.5773503 0
vt 0 0.2
vt 0 0
vt 0.2 0
vt 0.2 0.2
vt 0 0.4
vt 0.2 0.4
vt 0 0.6
vt 0.2 0.6
vt 0 0.8
vt 0.2 0.8
vt 0 1
vt 0.2 1
vt 0.4 0
vt 0.4 0.2
vt 0.4 0.4
vt 0.4 0.6
vt 0.4 0.8
vt 0.4 1
vt 0.6 0
vt 0.6 0.2
vt 0.6 0.4
vt 0.6 0.6
vt 0.6 0.8
vt 0.6 1
vt 0.8 0
vt 0.8 0.2
vt 0.8 0.4
vt 0.8 0.6
vt 0.8 0.8
vt 0.8 1
vt 1 0
vt 1 0.2
vt 1 0.4
vt 1 0.6
vt 1 0.8
vt 1 1
vt 0.2 0
vt 0 0
vt 0 1
vt 0.2 1
vt 0.4 0
vt 0.4 1
vt 0.6 0
vt 0.6 1
vt 0.8 0
vt 0.8 1
vt 1 0
vt 1 1
vt 0.2 0
vt 0 0
vt 0 1
vt 0.2 1
vt 0.4 0
vt 0.4 1
vt 0.6 0
vt 0.6 1
vt 0.8 0
vt 0.8 1
vt 1 0
vt 1 1
vt 0.8 1
vt 0.8 0
vt 1 0
vt 1 1
vt 0.6 1
vt 0.6 0
vt 0.4 1
vt 0.4 0
vt 0.2 1
vt 0.2 0
vt 0 1
vt 0 0
vt 0.8 1
vt 0.8 0
vt 1 0
vt 1 1
vt 0.6 1
vt 0.6 0
vt 0.4 1
vt 0.4 0
vt 0.2 1
vt 0.2 0
vt 0 1
vt 0 0
vt 0.2 0
vt 0 0
vt 0 0.2
vt 0.2 0.2
vt 0 0.4
vt 0.2 0.4
vt 0 0.6
vt 0.2 0.6
vt 0 0.8
vt 0.2 0.8
vt 0 1
vt 0.2 1
vt 0.4 0
vt 0.4 0.2
vt 0.4 0.4
vt 0.4 0.6
vt 0.4 0.8
vt 0.4 1
vt 0.6 0
vt 0.6 0.2
vt 0.6 0.4
vt 0.6 0.6
vt 0.6 0.8
vt 0.6 1
vt 0.8 0
vt 0.8 0.2
vt 0.8 0.4
vt 0.8 0.6
vt 0.8 0.8
vt 0.8 1
vt 1 0
vt 1 0.2
vt 1 0.4
vt 1 0.6
vt 1 0.8
vt 1 1
usemtl baseThingPartMaterial
f 3/3/3 2/2/2 1/1/1
f 4/4/4 3/3/3 1/1/1
f 4/4/4 1/1/1 5/5/5
f 6/6/6 4/4/4 5/5/5
f 6/6/6 5/5/5 7/7/7
f 8/8/8 6/6/6 7/7/7
f 8/8/8 7/7/7 9/9/9
f 10/10/10 8/8/8 9/9/9
f 10/10/10 9/9/9 11/11/11
f 12/12/12 10/10/10 11/11/11
f 13/13/13 3/3/3 4/4/4
f 14/14/14 13/13/13 4/4/4
f 14/14/14 4/4/4 6/6/6
f 15/15/15 14/14/14 6/6/6
f 15/15/15 6/6/6 8/8/8
f 16/16/16 15/15/15 8/8/8
f 16/16/16 8/8/8 10/10/10
f 17/17/17 16/16/16 10/10/10
f 17/17/17 10/10/10 12/12/12
f 18/18/18 17/17/17 12/12/12
f 19/19/19 13/13/13 14/14/14
f 20/20/20 19/19/19 14/14/14
f 20/20/20 14/14/14 15/15/15
f 21/21/21 20/20/20 15/15/15
f 21/21/21 15/15/15 16/16/16
f 22/22/22 21/21/21 16/16/16
f 22/22/22 16/16/16 17/17/17
f 23/23/23 22/22/22 17/17/17
f 23/23/23 17/17/17 18/18/18
f 24/24/24 23/23/23 18/18/18
f 25/25/25 19/19/19 20/20/20
f 26/26/26 25/25/25 20/20/20
f 26/26/26 20/20/20 21/21/21
f 27/27/27 26/26/26 21/21/21
f 27/27/27 21/21/21 22/22/22
f 28/28/28 27/27/27 22/22/22
f 28/28/28 22/22/22 23/23/23
f 29/29/29 28/28/28 23/23/23
f 29/29/29 23/23/23 24/24/24
f 30/30/30 29/29/29 24/24/24
f 31/31/31 25/25/25 26/26/26
f 32/32/32 31/31/31 26/26/26
f 32/32/32 26/26/26 27/27/27
f 33/33/33 32/32/32 27/27/27
f 33/33/33 27/27/27 28/28/28
f 34/34/34 33/33/33 28/28/28
f 34/34/34 28/28/28 29/29/29
f 35/35/35 34/34/34 29/29/29
f 35/35/35 29/29/29 30/30/30
f 36/36/36 35/35/35 30/30/30
f 39/39/39 38/38/38 37/37/37
f 40/40/40 39/39/39 37/37/37
f 40/40/40 37/37/37 41/41/41
f 42/42/42 40/40/40 41/41/41
f 42/42/42 41/41/41 43/43/43
f 44/44/44 42/42/42 43/43/43
f 44/44/44 43/43/43 45/45/45
f 46/46/46 44/44/44 45/45/45
f 46/46/46 45/45/45 47/47/47
f 48/48/48 46/46/46 47/47/47
f 51/51/51 50/50/50 49/49/49
f 52/52/52 51/51/51 49/49/49
f 52/52/52 49/49/49 53/53/53
f 54/54/54 52/52/52 53/53/53
f 54/54/54 53/53/53 55/55/55
f 56/56/56 54/54/54 55/55/55
f 56/56/56 55/55/55 57/57/57
f 58/58/58 56/56/56 57/57/57
f 58/58/58 57/57/57 59/59/59
f 60/60/60 58/58/58 59/59/59
f 63/63/63 62/62/62 61/61/61
f 64/64/64 63/63/63 61/61/61
f 61/61/61 62/62/62 65/65/65
f 62/62/62 66/66/66 65/65/65
f 65/65/65 66/66/66 67/67/67
f 66/66/66 68/68/68 67/67/67
f 67/67/67 68/68/68 69/69/69
f 68/68/68 70/70/70 69/69/69
f 69/69/69 70/70/70 71/71/71
f 70/70/70 72/72/72 71/71/71
f 75/75/75 74/74/74 73/73/73
f 76/76/76 75/75/75 73/73/73
f 73/73/73 74/74/74 77/77/77
f 74/74/74 78/78/78 77/77/77
f 77/77/77 78/78/78 79/79/79
f 78/78/78 80/80/80 79/79/79
f 79/79/79 80/80/80 81/81/81
f 80/80/80 82/82/82 81/81/81
f 81/81/81 82/82/82 83/83/83
f 82/82/82 84/84/84 83/83/83
f 87/87/87 86/86/86 85/85/85
f 88/88/88 87/87/87 85/85/85
f 89/89/89 87/87/87 88/88/88
f 90/90/90 89/89/89 88/88/88
f 91/91/91 89/89/89 90/90/90
f 92/92/92 91/91/91 90/90/90
f 93/93/93 91/91/91 92/92/92
f 94/94/94 93/93/93 92/92/92
f 95/95/95 93/93/93 94/94/94
f 96/96/96 95/95/95 94/94/94
f 88/88/88 85/85/85 97/97/97
f 98/98/98 88/88/88 97/97/97
f 90/90/90 88/88/88 98/98/98
f 99/99/99 90/90/90 98/98/98
f 92/92/92 90/90/90 99/99/99
f 100/100/100 92/92/92 99/99/99
f 94/94/94 92/92/92 100/100/100
f 101/101/101 94/94/94 100/100/100
f 96/96/96 94/94/94 101/101/101
f 102/102/102 96/96/96 101/101/101
f 98/98/98 97/97/97 103/103/103
f 104/104/104 98/98/98 103/103/103
f 99/99/99 98/98/98 104/104/104
f 105/105/105 99/99/99 104/104/104
f 100/100/100 99/99/99 105/105/105
f 106/106/106 100/100/100 105/105/105
f 101/101/101 100/100/100 106/106/106
f 107/107/107 101/101/101 106/106/106
f 102/102/102 101/101/101 107/107/107
f 108/108/108 102/102/102 107/107/107
f 104/104/104 103/103/103 109/109/109
f 110/110/110 104/104/104 109/109/109
f 105/105/105 104/104/104 110/110/110
f 111/111/111 105/105/105 110/110/110
f 106/106/106 105/105/105 111/111/111
f 112/112/112 106/106/106 111/111/111
f 107/107/107 106/106/106 112/112/112
f 113/113/113 107/107/107 112/112/112
f 108/108/108 107/107/107 113/113/113
f 114/114/114 108/108/108 113/113/113
f 110/110/110 109/109/109 115/115/115
f 116/116/116 110/110/110 115/115/115
f 111/111/111 110/110/110 116/116/116
f 117/117/117 111/111/111 116/116/116
f 112/112/112 111/111/111 117/117/117
f 118/118/118 112/112/112 117/117/117
f 113/113/113 112/112/112 118/118/118
f 119/119/119 113/113/113 118/118/118
f 114/114/114 113/113/113 119/119/119
f 120/120/120 114/114/114 119/119/119
