# Export of Universe
# from Aaro4130 OBJ Exporter v2.0
mtllib 233.mtl
g Quad4x3
v -0.5 0 0
v -0.5 -0.5 0
v -0.166667 -0.5 0
v -0.166667 0 0
v 0.166667 -0.5 0
v 0.166667 0 0
v 0.5 -0.5 0
v 0.5 0 0
v -0.5 0.5 0
v -0.166667 0.5 0
v 0.166667 0.5 0
v 0.5 0.5 0
vn 0 0 -0.5773503
vn 0 0 -0.5773503
vn 0 0 -0.5773503
vn 0 0 -0.5773503
vn 0 0 -0.5773503
vn 0 0 -0.5773503
vn 0 0 -0.5773503
vn 0 0 -0.5773503
vn 0 0 -0.5773503
vn 0 0 -0.5773503
vn 0 0 -0.5773503
vn 0 0 -0.5773503
vt 0 0.5
vt 0 0
vt 0.333333 0
vt 0.333333 0.5
vt 0.666667 0
vt 0.666667 0.5
vt 1 0
vt 1 0.5
vt 0 1
vt 0.333333 1
vt 0.666667 1
vt 1 1
usemtl baseThingPartMaterial
f 3/3/3 2/2/2 1/1/1
f 4/4/4 3/3/3 1/1/1
f 5/5/5 3/3/3 4/4/4
f 6/6/6 5/5/5 4/4/4
f 7/7/7 5/5/5 6/6/6
f 8/8/8 7/7/7 6/6/6
f 4/4/4 1/1/1 9/9/9
f 10/10/10 4/4/4 9/9/9
f 6/6/6 4/4/4 10/10/10
f 11/11/11 6/6/6 10/10/10
f 8/8/8 6/6/6 11/11/11
f 12/12/12 8/8/8 11/11/11
