# Export of Universe
# from Aaro4130 OBJ Exporter v2.0
mtllib 239.mtl
g Quad5x4
v -0.5 -0.166667 0
v -0.5 -0.5 0
v -0.25 -0.5 0
v -0.25 -0.166667 0
v 0 -0.5 0
v 0 -0.166667 0
v 0.25 -0.5 0
v 0.25 -0.166667 0
v 0.5 -0.5 0
v 0.5 -0.166667 0
v -0.5 0.166667 0
v -0.25 0.166667 0
v 0 0.166667 0
v 0.25 0.166667 0
v 0.5 0.166667 0
v -0.5 0.5 0
v -0.25 0.5 0
v 0 0.5 0
v 0.25 0.5 0
v 0.5 0.5 0
vn 0 0 -0.5773503
vn 0 0 -0.5773503
vn 0 0 -0.5773503
vn 0 0 -0.5773503
vn 0 0 -0.5773503
vn 0 0 -0.5773503
vn 0 0 -0.5773503
vn 0 0 -0.5773503
vn 0 0 -0.5773503
vn 0 0 -0.5773503
vn 0 0 -0.5773503
vn 0 0 -0.5773503
vn 0 0 -0.5773503
vn 0 0 -0.5773503
vn 0 0 -0.5773503
vn 0 0 -0.5773503
vn 0 0 -0.5773503
vn 0 0 -0.5773503
vn 0 0 -0.5773503
vn 0 0 -0.5773503
vt 0 0.333333
vt 0 0
vt 0.25 0
vt 0.25 0.333333
vt 0.5 0
vt 0.5 0.333333
vt 0.75 0
vt 0.75 0.333333
vt 1 0
vt 1 0.333333
vt 0 0.666667
vt 0.25 0.666667
vt 0.5 0.666667
vt 0.75 0.666667
vt 1 0.666667
vt 0 1
vt 0.25 1
vt 0.5 1
vt 0.75 1
vt 1 1
usemtl baseThingPartMaterial
f 3/3/3 2/2/2 1/1/1
f 4/4/4 3/3/3 1/1/1
f 5/5/5 3/3/3 4/4/4
f 6/6/6 5/5/5 4/4/4
f 7/7/7 5/5/5 6/6/6
f 8/8/8 7/7/7 6/6/6
f 9/9/9 7/7/7 8/8/8
f 10/10/10 9/9/9 8/8/8
f 4/4/4 1/1/1 11/11/11
f 12/12/12 4/4/4 11/11/11
f 6/6/6 4/4/4 12/12/12
f 13/13/13 6/6/6 12/12/12
f 8/8/8 6/6/6 13/13/13
f 14/14/14 8/8/8 13/13/13
f 10/10/10 8/8/8 14/14/14
f 15/15/15 10/10/10 14/14/14
f 12/12/12 11/11/11 16/16/16
f 17/17/17 12/12/12 16/16/16
f 13/13/13 12/12/12 17/17/17
f 18/18/18 13/13/13 17/17/17
f 14/14/14 13/13/13 18/18/18
f 19/19/19 14/14/14 18/18/18
f 15/15/15 14/14/14 19/19/19
f 20/20/20 15/15/15 19/19/19
