# Export of Universe
# from Aaro4130 OBJ Exporter v2.0
mtllib 240.mtl
g Quad6x4
v -0.5 -0.166667 0
v -0.5 -0.5 0
v -0.3 -0.5 0
v -0.3 -0.166667 0
v -0.1 -0.5 0
v -0.1 -0.166667 0
v 0.1 -0.5 0
v 0.1 -0.166667 0
v 0.3 -0.5 0
v 0.3 -0.166667 0
v 0.5 -0.5 0
v 0.5 -0.166667 0
v -0.5 0.166667 0
v -0.3 0.166667 0
v -0.1 0.166667 0
v 0.1 0.166667 0
v 0.3 0.166667 0
v 0.5 0.166667 0
v -0.5 0.5 0
v -0.3 0.5 0
v -0.1 0.5 0
v 0.1 0.5 0
v 0.3 0.5 0
v 0.5 0.5 0
vn 0 0 -0.5773503
vn 0 0 -0.5773503
vn 0 0 -0.5773503
vn 0 0 -0.5773503
vn 0 0 -0.5773503
vn 0 0 -0.5773503
vn 0 0 -0.5773503
vn 0 0 -0.5773503
vn 0 0 -0.5773503
vn 0 0 -0.5773503
vn 0 0 -0.5773503
vn 0 0 -0.5773503
vn 0 0 -0.5773503
vn 0 0 -0.5773503
vn 0 0 -0.5773503
vn 0 0 -0.5773503
vn 0 0 -0.5773503
vn 0 0 -0.5773503
vn 0 0 -0.5773503
vn 0 0 -0.5773503
vn 0 0 -0.5773503
vn 0 0 -0.5773503
vn 0 0 -0.5773503
vn 0 0 -0.5773503
vt 0 0.333333
vt 0 0
vt 0.2 0
vt 0.2 0.333333
vt 0.4 0
vt 0.4 0.333333
vt 0.6 0
vt 0.6 0.333333
vt 0.8 0
vt 0.8 0.333333
vt 1 0
vt 1 0.333333
vt 0 0.666667
vt 0.2 0.666667
vt 0.4 0.666667
vt 0.6 0.666667
vt 0.8 0.666667
vt 1 0.666667
vt 0 1
vt 0.2 1
vt 0.4 1
vt 0.6 1
vt 0.8 1
vt 1 1
usemtl baseThingPartMaterial
f 3/3/3 2/2/2 1/1/1
f 4/4/4 3/3/3 1/1/1
f 5/5/5 3/3/3 4/4/4
f 6/6/6 5/5/5 4/4/4
f 7/7/7 5/5/5 6/6/6
f 8/8/8 7/7/7 6/6/6
f 9/9/9 7/7/7 8/8/8
f 10/10/10 9/9/9 8/8/8
f 11/11/11 9/9/9 10/10/10
f 12/12/12 11/11/11 10/10/10
f 4/4/4 1/1/1 13/13/13
f 14/14/14 4/4/4 13/13/13
f 6/6/6 4/4/4 14/14/14
f 15/15/15 6/6/6 14/14/14
f 8/8/8 6/6/6 15/15/15
f 16/16/16 8/8/8 15/15/15
f 10/10/10 8/8/8 16/16/16
f 17/17/17 10/10/10 16/16/16
f 12/12/12 10/10/10 17/17/17
f 18/18/18 12/12/12 17/17/17
f 14/14/14 13/13/13 19/19/19
f 20/20/20 14/14/14 19/19/19
f 15/15/15 14/14/14 20/20/20
f 21/21/21 15/15/15 20/20/20
f 16/16/16 15/15/15 21/21/21
f 22/22/22 16/16/16 21/21/21
f 17/17/17 16/16/16 22/22/22
f 23/23/23 17/17/17 22/22/22
f 18/18/18 17/17/17 23/23/23
f 24/24/24 18/18/18 23/23/23
