# Export of Universe
# from Aaro4130 OBJ Exporter v2.0
mtllib 241.mtl
g Quad2x5
v -0.5 -0.25 0
v -0.5 -0.5 0
v 0.5 -0.5 0
v 0.5 -0.25 0
v -0.5 0 0
v 0.5 0 0
v -0.5 0.25 0
v 0.5 0.25 0
v -0.5 0.5 0
v 0.5 0.5 0
vn 0 0 -0.5773503
vn 0 0 -0.5773503
vn 0 0 -0.5773503
vn 0 0 -0.5773503
vn 0 0 -0.5773503
vn 0 0 -0.5773503
vn 0 0 -0.5773503
vn 0 0 -0.5773503
vn 0 0 -0.5773503
vn 0 0 -0.5773503
vt 0 0.25
vt 0 0
vt 1 0
vt 1 0.25
vt 0 0.5
vt 1 0.5
vt 0 0.75
vt 1 0.75
vt 0 1
vt 1 1
usemtl baseThingPartMaterial
f 3/3/3 2/2/2 1/1/1
f 4/4/4 3/3/3 1/1/1
f 4/4/4 1/1/1 5/5/5
f 6/6/6 4/4/4 5/5/5
f 6/6/6 5/5/5 7/7/7
f 8/8/8 6/6/6 7/7/7
f 8/8/8 7/7/7 9/9/9
f 10/10/10 8/8/8 9/9/9
