# Export of Universe
# from Aaro4130 OBJ Exporter v2.0
mtllib 249.mtl
g Dodecahedron
v 0.333333 -0.333333 -0.333333
v 0.539345 0 -0.206011
v 0.333333 0.333333 -0.333333
v 0 -0.206011 -0.539345
v 0 0.206011 -0.539345
v -0.333333 0.333333 -0.333333
v 0 0.206011 -0.539345
v 0.333333 0.333333 -0.333333
v -0.206011 0.539345 0
v 0.206011 0.539345 0
v -0.333333 -0.333333 -0.333333
v 0 -0.206011 -0.539345
v 0 0.206011 -0.539345
v -0.333333 0.333333 -0.333333
v -0.539345 0 -0.206011
v 0.333333 -0.333333 -0.333333
v 0 -0.206011 -0.539345
v -0.333333 -0.333333 -0.333333
v 0.206011 -0.539345 0
v -0.206011 -0.539345 0
v 0.333333 0.333333 0.333333
v 0.539345 0 0.206011
v 0.333333 -0.333333 0.333333
v 0 0.206011 0.539345
v 0 -0.206011 0.539345
v 0.333333 -0.333333 0.333333
v 0.206011 -0.539345 0
v -0.206011 -0.539345 0
v -0.333333 -0.333333 0.333333
v 0 -0.206011 0.539345
v -0.333333 0.333333 0.333333
v 0 0.206011 0.539345
v 0 -0.206011 0.539345
v -0.333333 -0.333333 0.333333
v -0.539345 0 0.206011
v -0.333333 0.333333 0.333333
v -0.206011 0.539345 0
v 0.206011 0.539345 0
v 0.333333 0.333333 0.333333
v 0 0.206011 0.539345
v 0.333333 -0.333333 -0.333333
v 0.206011 -0.539345 0
v 0.333333 -0.333333 0.333333
v 0.539345 0 -0.206011
v 0.539345 0 0.206011
v 0.333333 0.333333 -0.333333
v 0.539345 0 -0.206011
v 0.539345 0 0.206011
v 0.333333 0.333333 0.333333
v 0.206011 0.539345 0
v -0.333333 0.333333 0.333333
v -0.539345 0 0.206011
v -0.539345 0 -0.206011
v -0.333333 0.333333 -0.333333
v -0.206011 0.539345 0
v -0.333333 -0.333333 0.333333
v -0.206011 -0.539345 0
v -0.333333 -0.333333 -0.333333
v -0.539345 0 0.206011
v -0.539345 0 -0.206011
vn 0.3035309 0 -0.4911235
vn 0.3035309 0 -0.4911235
vn 0.3035309 0 -0.4911235
vn 0.3035309 0 -0.4911235
vn 0.3035309 0 -0.4911235
vn 0 0.4911235 -0.3035309
vn 0 0.4911235 -0.3035309
vn 0 0.4911235 -0.3035309
vn 0 0.4911235 -0.3035309
vn 0 0.4911235 -0.3035309
vn -0.3035309 0 -0.4911235
vn -0.3035309 0 -0.4911235
vn -0.3035309 0 -0.4911235
vn -0.3035309 0 -0.4911235
vn -0.3035309 0 -0.4911235
vn 0 -0.4911235 -0.3035309
vn 0 -0.4911235 -0.3035309
vn 0 -0.4911235 -0.3035309
vn 0 -0.4911235 -0.3035309
vn 0 -0.4911235 -0.3035309
vn 0.3035309 0 0.4911235
vn 0.3035309 0 0.4911235
vn 0.3035309 0 0.4911235
vn 0.3035309 0 0.4911235
vn 0.3035309 0 0.4911235
vn 0 -0.4911235 0.3035309
vn 0 -0.4911235 0.3035309
vn 0 -0.4911235 0.3035309
vn 0 -0.4911235 0.3035309
vn 0 -0.4911235 0.3035309
vn -0.3035309 0 0.4911235
vn -0.3035309 0 0.4911235
vn -0.3035309 0 0.4911235
vn -0.3035309 0 0.4911235
vn -0.3035309 0 0.4911235
vn 0 0.4911235 0.3035309
vn 0 0.4911235 0.3035309
vn 0 0.4911235 0.3035309
vn 0 0.4911235 0.3035309
vn 0 0.4911235 0.3035309
vn 0.4911235 -0.3035309 0
vn 0.4911235 -0.3035309 0
vn 0.4911235 -0.3035309 0
vn 0.4911235 -0.3035309 0
vn 0.4911235 -0.3035309 0
vn 0.4911235 0.3035309 0
vn 0.4911235 0.3035309 0
vn 0.4911235 0.3035309 0
vn 0.4911235 0.3035309 0
vn 0.4911235 0.3035309 0
vn -0.4911235 0.3035309 0
vn -0.4911235 0.3035309 0
vn -0.4911235 0.3035309 0
vn -0.4911235 0.3035309 0
vn -0.4911235 0.3035309 0
vn -0.4911235 -0.3035309 0
vn -0.4911235 -0.3035309 0
vn -0.4911235 -0.3035309 0
vn -0.4911235 -0.3035309 0
vn -0.4911235 -0.3035309 0
vt 0.809016 0.190984
vt 1 0.5
vt 0.809016 0.809016
vt 0.5 0.309017
vt 0.5 0.690983
vt 0.190984 0.809016
vt 0.5 1
vt 0.809016 0.809016
vt 0.309017 0.5
vt 0.690983 0.5
vt 0.190984 0.190984
vt 0.5 0.309017
vt 0.5 0.690983
vt 0.190984 0.809016
vt 0 0.5
vt 0.809016 0.809016
vt 0.5 1
vt 0.190984 0.809016
vt 0.690983 0.5
vt 0.309017 0.5
vt 0.809016 0.809016
vt 1 0.5
vt 0.809016 0.190984
vt 0.5 0.690983
vt 0.5 0.309017
vt 0.809016 0.190984
vt 0.690983 0.5
vt 0.309017 0.5
vt 0.190984 0.190984
vt 0.5 0
vt 0.190984 0.809016
vt 0.5 0.690983
vt 0.5 0.309017
vt 0.190984 0.190984
vt 0 0.5
vt 0.190984 0.190984
vt 0.309017 0.5
vt 0.690983 0.5
vt 0.809016 0.190984
vt 0.5 0
vt 0.809016 0.190984
vt 0.5 0
vt 0.190984 0.190984
vt 0.690983 0.5
vt 0.309017 0.5
vt 0.809016 0.809016
vt 0.690983 0.5
vt 0.309017 0.5
vt 0.190984 0.809016
vt 0.5 1
vt 0.190984 0.809016
vt 0.309017 0.5
vt 0.690983 0.5
vt 0.809016 0.809016
vt 0.5 1
vt 0.190984 0.190984
vt 0.5 0
vt 0.809016 0.190984
vt 0.309017 0.5
vt 0.690983 0.5
usemtl baseThingPartMaterial
f 3/3/3 2/2/2 1/1/1
f 1/1/1 4/4/4 3/3/3
f 4/4/4 5/5/5 3/3/3
f 8/8/8 7/7/7 6/6/6
f 6/6/6 9/9/9 8/8/8
f 9/9/9 10/10/10 8/8/8
f 13/13/13 12/12/12 11/11/11
f 11/11/11 14/14/14 13/13/13
f 11/11/11 15/15/15 14/14/14
f 18/18/18 17/17/17 16/16/16
f 16/16/16 19/19/19 18/18/18
f 19/19/19 20/20/20 18/18/18
f 23/23/23 22/22/22 21/21/21
f 21/21/21 24/24/24 23/23/23
f 24/24/24 25/25/25 23/23/23
f 28/28/28 27/27/27 26/26/26
f 26/26/26 29/29/29 28/28/28
f 26/26/26 30/30/30 29/29/29
f 33/33/33 32/32/32 31/31/31
f 31/31/31 34/34/34 33/33/33
f 31/31/31 35/35/35 34/34/34
f 38/38/38 37/37/37 36/36/36
f 36/36/36 39/39/39 38/38/38
f 36/36/36 40/40/40 39/39/39
f 43/43/43 42/42/42 41/41/41
f 41/41/41 44/44/44 43/43/43
f 44/44/44 45/45/45 43/43/43
f 48/48/48 47/47/47 46/46/46
f 46/46/46 49/49/49 48/48/48
f 46/46/46 50/50/50 49/49/49
f 53/53/53 52/52/52 51/51/51
f 51/51/51 54/54/54 53/53/53
f 51/51/51 55/55/55 54/54/54
f 58/58/58 57/57/57 56/56/56
f 56/56/56 59/59/59 58/58/58
f 59/59/59 60/60/60 58/58/58
