# Export of Universe
# from Aaro4130 OBJ Exporter v2.0
mtllib 25.mtl
g BigDialog
v 0.120731 0.00698811 -0.125
v -0.0299959 0.00698812 -0.125
v 0.120731 -0.00658633 -0.125
v -0.120731 0.00658633 -0.125
v 0.0299959 -0.00698812 -0.125
v -0.120731 -0.00698811 -0.125
v 0.120731 0.0112575 0.120731
v -0.114693 0.0112575 0.120731
v 0.120731 0.0112575 -0.114693
v -0.120731 0.0112575 0.114693
v 0.114693 0.0112575 -0.120731
v -0.120731 0.0112575 -0.120731
v 0.120731 -0.00698811 0.125
v -0.0299959 -0.00698812 0.125
v 0.120731 0.00658633 0.125
v -0.120731 -0.00658633 0.125
v 0.0299959 0.00698812 0.125
v -0.120731 0.00698811 0.125
v 0.120731 -0.0112575 -0.120731
v -0.114693 -0.0112575 -0.120731
v 0.120731 -0.0112575 0.114693
v -0.120731 -0.0112575 -0.114693
v 0.114693 -0.0112575 0.120731
v -0.120731 -0.0112575 0.120731
v -0.125 0.00698811 -0.120731
v -0.125 0.00698812 0.0299959
v -0.125 -0.00658633 -0.120731
v -0.125 0.00658633 0.120731
v -0.125 -0.00698812 -0.0299959
v -0.125 -0.00698811 0.120731
v 0.125 0.00698811 0.120731
v 0.125 0.00698812 -0.0299959
v 0.125 -0.00658633 0.120731
v 0.125 0.00658633 -0.120731
v 0.125 -0.00698812 0.0299959
v 0.125 -0.00698811 -0.120731
v 0.114693 0.0112575 -0.120731
v -0.120731 0.0112575 -0.120731
v -0.0299959 0.00698812 -0.125
v 0.120731 0.00698811 -0.125
v -0.125 0.00698811 -0.120731
v -0.125 -0.00658633 -0.120731
v -0.120731 -0.00698811 -0.125
v -0.120731 0.00658633 -0.125
v -0.125 0.00698812 0.0299959
v -0.125 0.00698811 -0.120731
v -0.120731 0.0112575 -0.120731
v -0.120731 0.0112575 0.114693
v 0.125 -0.00698811 -0.120731
v 0.125 0.00658633 -0.120731
v 0.120731 0.00698811 -0.125
v 0.120731 -0.00658633 -0.125
v 0.125 0.00698812 -0.0299959
v 0.125 0.00698811 0.120731
v 0.120731 0.0112575 0.120731
v 0.120731 0.0112575 -0.114693
v -0.114693 -0.0112575 -0.120731
v 0.120731 -0.0112575 -0.120731
v 0.0299959 -0.00698812 -0.125
v -0.120731 -0.00698811 -0.125
v -0.125 -0.00698812 -0.0299959
v -0.125 -0.00698811 0.120731
v -0.120731 -0.0112575 0.120731
v -0.120731 -0.0112575 -0.114693
v 0.125 -0.00698812 0.0299959
v 0.125 -0.00698811 -0.120731
v 0.120731 -0.0112575 -0.120731
v 0.120731 -0.0112575 0.114693
v 0.114693 -0.0112575 0.120731
v -0.120731 -0.0112575 0.120731
v -0.0299959 -0.00698812 0.125
v 0.120731 -0.00698811 0.125
v -0.125 -0.00698811 0.120731
v -0.125 0.00658633 0.120731
v -0.120731 0.00698811 0.125
v -0.120731 -0.00658633 0.125
v 0.125 0.00698811 0.120731
v 0.125 -0.00658633 0.120731
v 0.120731 -0.00698811 0.125
v 0.120731 0.00658633 0.125
v 0.0299959 0.00698812 0.125
v -0.120731 0.00698811 0.125
v -0.114693 0.0112575 0.120731
v 0.120731 0.0112575 0.120731
v -0.0299959 0.00698812 -0.125
v -0.120731 0.0112575 -0.120731
v -0.125 0.00698811 -0.120731
v -0.120731 0.00658633 -0.125
v 0.114693 0.0112575 -0.120731
v 0.120731 0.00698811 -0.125
v 0.125 0.00658633 -0.120731
v 0.125 0.00658633 -0.120731
v 0.120731 0.0112575 -0.114693
v 0.114693 0.0112575 -0.120731
v 0.125 0.00698812 -0.0299959
v -0.114693 -0.0112575 -0.120731
v -0.120731 -0.00698811 -0.125
v -0.125 -0.00658633 -0.120731
v -0.125 -0.00658633 -0.120731
v -0.120731 -0.0112575 -0.114693
v -0.114693 -0.0112575 -0.120731
v -0.125 -0.00698812 -0.0299959
v 0.0299959 -0.00698812 -0.125
v 0.120731 -0.0112575 -0.120731
v 0.125 -0.00698811 -0.120731
v 0.120731 -0.00658633 -0.125
v -0.0299959 -0.00698812 0.125
v -0.120731 -0.0112575 0.120731
v -0.125 -0.00698811 0.120731
v -0.120731 -0.00658633 0.125
v 0.125 -0.00658633 0.120731
v 0.125 -0.00698812 0.0299959
v 0.120731 -0.0112575 0.114693
v 0.120731 -0.0112575 0.114693
v 0.114693 -0.0112575 0.120731
v 0.125 -0.00658633 0.120731
v 0.120731 -0.00698811 0.125
v -0.125 0.00658633 0.120731
v -0.125 0.00698812 0.0299959
v -0.120731 0.0112575 0.114693
v -0.120731 0.0112575 0.114693
v -0.114693 0.0112575 0.120731
v -0.125 0.00658633 0.120731
v -0.120731 0.00698811 0.125
v 0.120731 0.0112575 0.120731
v 0.125 0.00698811 0.120731
v 0.120731 0.00658633 0.125
v 0.0299959 0.00698812 0.125
vn 0 0 -0.5773503
vn 0 0 -0.5773503
vn 0 0 -0.5773503
vn 0 0 -0.5773503
vn 0 0 -0.5773503
vn 0 0 -0.5773503
vn 0 0.5773503 0
vn 0 0.5773503 0
vn 0 0.5773503 0
vn 0 0.5773503 0
vn 0 0.5773503 0
vn 0 0.5773503 0
vn 0 0 0.5773503
vn 0 0 0.5773503
vn 0 0 0.5773503
vn 0 0 0.5773503
vn 0 0 0.5773503
vn 0 0 0.5773503
vn 0 -0.5773503 0
vn 0 -0.5773503 0
vn 0 -0.5773503 0
vn 0 -0.5773503 0
vn 0 -0.5773503 0
vn 0 -0.5773503 0
vn -0.5773503 0 0
vn -0.5773503 0 0
vn -0.5773503 0 0
vn -0.5773503 0 0
vn -0.5773503 0 0
vn -0.5773503 0 0
vn 0.5773503 0 0
vn 0.5773503 0 0
vn 0.5773503 0 0
vn 0.5773503 0 0
vn 0.5773503 0 0
vn 0.5773503 0 0
vn 0 0.4082485 -0.408248
vn 0 0.4082485 -0.408248
vn 0 0.4082485 -0.408248
vn 0 0.4082485 -0.408248
vn -0.4082485 0 -0.408248
vn -0.4082485 0 -0.408248
vn -0.4082485 0 -0.408248
vn -0.4082485 0 -0.408248
vn -0.4082483 0.4082483 0
vn -0.4082483 0.4082483 0
vn -0.4082483 0.4082483 0
vn -0.4082483 0.4082483 0
vn 0.4082485 0 -0.408248
vn 0.4082485 0 -0.408248
vn 0.4082485 0 -0.408248
vn 0.4082485 0 -0.408248
vn 0.4082483 0.4082483 0
vn 0.4082483 0.4082483 0
vn 0.4082483 0.4082483 0
vn 0.4082483 0.4082483 0
vn 0 -0.4082485 -0.408248
vn 0 -0.4082485 -0.408248
vn 0 -0.4082485 -0.408248
vn 0 -0.4082485 -0.408248
vn -0.4082483 -0.4082483 0
vn -0.4082483 -0.4082483 0
vn -0.4082483 -0.4082483 0
vn -0.4082483 -0.4082483 0
vn 0.4082483 -0.4082483 0
vn 0.4082483 -0.4082483 0
vn 0.4082483 -0.4082483 0
vn 0.4082483 -0.4082483 0
vn 0 -0.4082485 0.408248
vn 0 -0.4082485 0.408248
vn 0 -0.4082485 0.408248
vn 0 -0.4082485 0.408248
vn -0.4082485 0 0.408248
vn -0.4082485 0 0.408248
vn -0.4082485 0 0.408248
vn -0.4082485 0 0.408248
vn 0.4082485 0 0.408248
vn 0.4082485 0 0.408248
vn 0.4082485 0 0.408248
vn 0.4082485 0 0.408248
vn 0 0.4082483 0.4082483
vn 0 0.4082483 0.4082483
vn 0 0.4082483 0.4082483
vn 0 0.4082483 0.4082483
vn -0.02589346 0.02589346 -0.5761878
vn -0.02589346 0.02589346 -0.5761878
vn -0.02589346 0.02589346 -0.5761878
vn -0.02589346 0.02589346 -0.5761878
vn 0.05661501 0.5745621 -0.002544307
vn 0.05661501 0.5745621 -0.002544307
vn 0.05661501 0.5745621 -0.002544307
vn 0.05661501 0.5745621 -0.002544307
vn 0.05661501 0.5745621 -0.002544307
vn 0.05661501 0.5745621 -0.002544307
vn 0.05661501 0.5745621 -0.002544307
vn -0.05661501 -0.5745621 -0.002544307
vn -0.05661501 -0.5745621 -0.002544307
vn -0.05661501 -0.5745621 -0.002544307
vn -0.05661501 -0.5745621 -0.002544307
vn -0.05661501 -0.5745621 -0.002544307
vn -0.05661501 -0.5745621 -0.002544307
vn -0.05661501 -0.5745621 -0.002544307
vn 0.02589346 -0.02589346 -0.5761878
vn 0.02589346 -0.02589346 -0.5761878
vn 0.02589346 -0.02589346 -0.5761878
vn 0.02589346 -0.02589346 -0.5761878
vn -0.02589346 -0.02589346 0.5761878
vn -0.02589346 -0.02589346 0.5761878
vn -0.02589346 -0.02589346 0.5761878
vn -0.02589346 -0.02589346 0.5761878
vn 0.05661501 -0.5745621 0.002544307
vn 0.05661501 -0.5745621 0.002544307
vn 0.05661501 -0.5745621 0.002544307
vn 0.05661501 -0.5745621 0.002544307
vn 0.05661501 -0.5745621 0.002544307
vn 0.05661501 -0.5745621 0.002544307
vn 0.05661501 -0.5745621 0.002544307
vn -0.226513 0.4998133 0.1794763
vn -0.226513 0.4998133 0.1794763
vn -0.226513 0.4998133 0.1794763
vn -0.226513 0.4998133 0.1794763
vn -0.226513 0.4998133 0.1794763
vn -0.226513 0.4998133 0.1794763
vn -0.226513 0.4998133 0.1794763
vn 0.3228963 0.3228957 0.353284
vn 0.3228963 0.3228957 0.353284
vn 0.3228963 0.3228957 0.353284
vn 0.3228963 0.3228957 0.353284
vt 0.189625 0.810375
vt 0.958771 0.982922
vt 0.0240541 0.0580718
vt 0.975946 0.941928
vt 0.0412291 0.0170777
vt 0.810375 0.189625
vt 0.0170777 0.982922
vt 0.958771 0.982922
vt 0.0170777 0.0412291
vt 0.982922 0.958771
vt 0.0412291 0.0170777
vt 0.982922 0.0170777
vt 0.189625 0.810375
vt 0.958771 0.982922
vt 0.0240541 0.0580718
vt 0.975946 0.941928
vt 0.0412291 0.0170777
vt 0.810375 0.189625
vt 0.0170777 0.982922
vt 0.958771 0.982922
vt 0.0170777 0.0412291
vt 0.982922 0.958771
vt 0.0412291 0.0170777
vt 0.982922 0.0170777
vt 0.189625 0.810375
vt 0.958771 0.982922
vt 0.0240541 0.0580718
vt 0.975946 0.941928
vt 0.0412291 0.0170777
vt 0.810375 0.189625
vt 0.189625 0.810375
vt 0.958771 0.982922
vt 0.0240541 0.0580718
vt 0.975946 0.941928
vt 0.0412291 0.0170777
vt 0.810375 0.189625
vt 0.0412291 0.0170777
vt 0.982922 0.0170777
vt 0.958771 0.982922
vt 0.189625 0.810375
vt 0.189625 0.810375
vt 0.0240541 0.0580718
vt 0.810375 0.189625
vt 0.975946 0.941928
vt 0.958771 0.982922
vt 0.189625 0.810375
vt 0.982922 0.0170777
vt 0.982922 0.958771
vt 0.810375 0.189625
vt 0.975946 0.941928
vt 0.189625 0.810375
vt 0.0240541 0.0580718
vt 0.958771 0.982922
vt 0.189625 0.810375
vt 0.0170777 0.982922
vt 0.0170777 0.0412291
vt 0.958771 0.982922
vt 0.0170777 0.982922
vt 0.0412291 0.0170777
vt 0.810375 0.189625
vt 0.0412291 0.0170777
vt 0.810375 0.189625
vt 0.982922 0.0170777
vt 0.982922 0.958771
vt 0.0412291 0.0170777
vt 0.810375 0.189625
vt 0.0170777 0.982922
vt 0.0170777 0.0412291
vt 0.0412291 0.0170777
vt 0.982922 0.0170777
vt 0.958771 0.982922
vt 0.189625 0.810375
vt 0.810375 0.189625
vt 0.975946 0.941928
vt 0.810375 0.189625
vt 0.975946 0.941928
vt 0.189625 0.810375
vt 0.0240541 0.0580718
vt 0.189625 0.810375
vt 0.0240541 0.0580718
vt 0.0412291 0.0170777
vt 0.810375 0.189625
vt 0.958771 0.982922
vt 0.0170777 0.982922
vt 0.958771 0.982922
vt 0.982922 0.0170777
vt 0.189625 0.810375
vt 0.975946 0.941928
vt 0.0412291 0.0170777
vt 0.189625 0.810375
vt 0.975946 0.941928
vt 0.975946 0.941928
vt 0.0170777 0.0412291
vt 0.0412291 0.0170777
vt 0.958771 0.982922
vt 0.958771 0.982922
vt 0.810375 0.189625
vt 0.0240541 0.0580718
vt 0.0240541 0.0580718
vt 0.982922 0.958771
vt 0.958771 0.982922
vt 0.0412291 0.0170777
vt 0.0412291 0.0170777
vt 0.0170777 0.982922
vt 0.810375 0.189625
vt 0.0240541 0.0580718
vt 0.958771 0.982922
vt 0.982922 0.0170777
vt 0.810375 0.189625
vt 0.975946 0.941928
vt 0.0240541 0.0580718
vt 0.0412291 0.0170777
vt 0.0170777 0.0412291
vt 0.0170777 0.0412291
vt 0.0412291 0.0170777
vt 0.0240541 0.0580718
vt 0.189625 0.810375
vt 0.975946 0.941928
vt 0.958771 0.982922
vt 0.982922 0.958771
vt 0.982922 0.958771
vt 0.958771 0.982922
vt 0.975946 0.941928
vt 0.810375 0.189625
vt 0.0170777 0.982922
vt 0.189625 0.810375
vt 0.0240541 0.0580718
vt 0.0412291 0.0170777
usemtl baseThingPartMaterial
f 3/3/3 2/2/2 1/1/1
f 2/2/2 3/3/3 4/4/4
f 3/3/3 5/5/5 4/4/4
f 5/5/5 6/6/6 4/4/4
f 9/9/9 8/8/8 7/7/7
f 8/8/8 9/9/9 10/10/10
f 9/9/9 11/11/11 10/10/10
f 11/11/11 12/12/12 10/10/10
f 15/15/15 14/14/14 13/13/13
f 14/14/14 15/15/15 16/16/16
f 15/15/15 17/17/17 16/16/16
f 17/17/17 18/18/18 16/16/16
f 21/21/21 20/20/20 19/19/19
f 20/20/20 21/21/21 22/22/22
f 21/21/21 23/23/23 22/22/22
f 23/23/23 24/24/24 22/22/22
f 27/27/27 26/26/26 25/25/25
f 26/26/26 27/27/27 28/28/28
f 27/27/27 29/29/29 28/28/28
f 29/29/29 30/30/30 28/28/28
f 33/33/33 32/32/32 31/31/31
f 32/32/32 33/33/33 34/34/34
f 33/33/33 35/35/35 34/34/34
f 35/35/35 36/36/36 34/34/34
f 39/39/39 38/38/38 37/37/37
f 40/40/40 39/39/39 37/37/37
f 43/43/43 42/42/42 41/41/41
f 44/44/44 43/43/43 41/41/41
f 47/47/47 46/46/46 45/45/45
f 48/48/48 47/47/47 45/45/45
f 51/51/51 50/50/50 49/49/49
f 52/52/52 51/51/51 49/49/49
f 55/55/55 54/54/54 53/53/53
f 56/56/56 55/55/55 53/53/53
f 59/59/59 58/58/58 57/57/57
f 60/60/60 59/59/59 57/57/57
f 63/63/63 62/62/62 61/61/61
f 64/64/64 63/63/63 61/61/61
f 67/67/67 66/66/66 65/65/65
f 68/68/68 67/67/67 65/65/65
f 71/71/71 70/70/70 69/69/69
f 72/72/72 71/71/71 69/69/69
f 75/75/75 74/74/74 73/73/73
f 76/76/76 75/75/75 73/73/73
f 79/79/79 78/78/78 77/77/77
f 80/80/80 79/79/79 77/77/77
f 83/83/83 82/82/82 81/81/81
f 84/84/84 83/83/83 81/81/81
f 87/87/87 86/86/86 85/85/85
f 88/88/88 87/87/87 85/85/85
f 91/91/91 90/90/90 89/89/89
f 94/94/94 93/93/93 92/92/92
f 93/93/93 95/95/95 92/92/92
f 98/98/98 97/97/97 96/96/96
f 101/101/101 100/100/100 99/99/99
f 100/100/100 102/102/102 99/99/99
f 105/105/105 104/104/104 103/103/103
f 106/106/106 105/105/105 103/103/103
f 109/109/109 108/108/108 107/107/107
f 110/110/110 109/109/109 107/107/107
f 113/113/113 112/112/112 111/111/111
f 116/116/116 115/115/115 114/114/114
f 116/116/116 117/117/117 115/115/115
f 120/120/120 119/119/119 118/118/118
f 123/123/123 122/122/122 121/121/121
f 123/123/123 124/124/124 122/122/122
f 127/127/127 126/126/126 125/125/125
f 128/128/128 127/127/127 125/125/125
