# Export of Universe
# from Aaro4130 OBJ Exporter v2.0
mtllib 35.mtl
g QuarterTorus4
v 0.522455 0.161803 -0.595105
v 0.500975 0.161803 -0.37708
v 0.38568 0.2 -0.400015
v 0.404895 0.2 -0.595105
v 0.287338 0.161803 -0.595105
v 0.270382 0.161803 -0.422949
v 0.328775 0.2 -0.212422
v 0.437385 0.161803 -0.167434
v 0.220166 0.161803 -0.257409
v 0.236365 0.2 -0.039535
v 0.33411 0.161803 0.025776
v 0.138619 0.161803 -0.104846
v 0.112002 0.2 0.112002
v 0.195127 0.161803 0.195127
v 0.028876 0.161803 0.028876
v -0.039535 0.2 0.236365
v 0.025776 0.161803 0.33411
v -0.104846 0.161803 0.138619
v -0.212422 0.2 0.328775
v -0.167434 0.161803 0.437385
v -0.257409 0.161803 0.220166
v -0.400015 0.2 0.38568
v -0.37708 0.161803 0.500975
v -0.422949 0.161803 0.270382
v -0.595105 0.2 0.404895
v -0.595105 0.161803 0.522455
v -0.595105 0.161803 0.287338
v 0.270382 0.161803 -0.422949
v 0.199124 0.0618034 -0.437123
v 0.214684 0.0618034 -0.595105
v 0.287338 0.161803 -0.595105
v 0.214684 -0.0618034 -0.595105
v 0.199124 -0.0618034 -0.437123
v 0.287338 -0.161803 -0.595105
v 0.270382 -0.161803 -0.422949
v 0.220166 0.161803 -0.257409
v 0.153042 0.0618034 -0.285212
v 0.153042 -0.0618034 -0.285212
v 0.220166 -0.161803 -0.257409
v 0.138619 0.161803 -0.104846
v 0.07821 0.0618034 -0.145211
v 0.07821 -0.0618034 -0.145211
v 0.138619 -0.161803 -0.104846
v 0.028876 0.161803 0.028876
v -0.022498 0.0618034 -0.022498
v -0.022498 -0.0618034 -0.022498
v 0.028876 -0.161803 0.028876
v 0.270382 -0.161803 -0.422949
v 0.38568 -0.2 -0.400015
v 0.404895 -0.2 -0.595105
v 0.287338 -0.161803 -0.595105
v 0.500975 -0.161803 -0.37708
v 0.522455 -0.161803 -0.595105
v 0.220166 -0.161803 -0.257409
v 0.328775 -0.2 -0.212422
v 0.437385 -0.161803 -0.167434
v 0.138619 -0.161803 -0.104846
v 0.236365 -0.2 -0.039535
v 0.33411 -0.161803 0.025776
v 0.028876 -0.161803 0.028876
v 0.112002 -0.2 0.112002
v 0.195127 -0.161803 0.195127
v -0.104846 -0.161803 0.138619
v -0.039535 -0.2 0.236365
v 0.025776 -0.161803 0.33411
v -0.257409 -0.161803 0.220166
v -0.212422 -0.2 0.328775
v -0.167434 -0.161803 0.437385
v -0.422949 -0.161803 0.270382
v -0.400015 -0.2 0.38568
v -0.37708 -0.161803 0.500975
v -0.595105 -0.161803 0.287338
v -0.595105 -0.2 0.404895
v -0.595105 -0.161803 0.522455
v 0.522455 -0.161803 -0.595105
v 0.500975 -0.161803 -0.37708
v 0.572235 -0.0618034 -0.362906
v 0.595105 -0.0618034 -0.595105
v 0.572235 0.0618034 -0.362906
v 0.595105 0.0618034 -0.595105
v 0.500975 0.161803 -0.37708
v 0.522455 0.161803 -0.595105
v 0.504505 -0.0618034 -0.139631
v 0.437385 -0.161803 -0.167434
v 0.504505 0.0618034 -0.139631
v 0.437385 0.161803 -0.167434
v 0.39452 -0.0618034 0.066141
v 0.33411 -0.161803 0.025776
v 0.39452 0.0618034 0.066141
v 0.33411 0.161803 0.025776
v 0.246501 -0.0618034 0.246501
v 0.195127 -0.161803 0.195127
v 0.246501 0.0618034 0.246501
v 0.195127 0.161803 0.195127
v -0.104846 0.161803 0.138619
v -0.145211 0.0618034 0.07821
v -0.022498 0.0618034 -0.022498
v 0.028876 0.161803 0.028876
v -0.022498 -0.0618034 -0.022498
v -0.145211 -0.0618034 0.07821
v 0.028876 -0.161803 0.028876
v -0.104846 -0.161803 0.138619
v -0.257409 0.161803 0.220166
v -0.285212 0.0618034 0.153042
v -0.285212 -0.0618034 0.153042
v -0.257409 -0.161803 0.220166
v -0.422949 0.161803 0.270382
v -0.437123 0.0618034 0.199124
v -0.437123 -0.0618034 0.199124
v -0.422949 -0.161803 0.270382
v -0.595105 0.161803 0.287338
v -0.595105 0.0618034 0.214684
v -0.595105 -0.0618034 0.214684
v -0.595105 -0.161803 0.287338
v 0.195127 -0.161803 0.195127
v 0.025776 -0.161803 0.33411
v 0.066141 -0.0618034 0.39452
v 0.246501 -0.0618034 0.246501
v 0.066141 0.0618034 0.39452
v 0.246501 0.0618034 0.246501
v 0.025776 0.161803 0.33411
v 0.195127 0.161803 0.195127
v -0.139631 -0.0618034 0.504505
v -0.167434 -0.161803 0.437385
v -0.139631 0.0618034 0.504505
v -0.167434 0.161803 0.437385
v -0.362906 -0.0618034 0.572235
v -0.37708 -0.161803 0.500975
v -0.362906 0.0618034 0.572235
v -0.37708 0.161803 0.500975
v -0.595105 -0.0618034 0.595105
v -0.595105 -0.161803 0.522455
v -0.595105 0.0618034 0.595105
v -0.595105 0.161803 0.522455
v 0.522455 -0.161803 -0.595105
v 0.595105 -0.0618034 -0.595105
v 0.595105 0.0618034 -0.595105
v 0.522455 0.161803 -0.595105
v 0.404895 -0.2 -0.595105
v 0.404895 0.2 -0.595105
v 0.287338 -0.161803 -0.595105
v 0.287338 0.161803 -0.595105
v 0.214684 -0.0618034 -0.595105
v 0.214684 0.0618034 -0.595105
v -0.595105 -0.161803 0.522455
v -0.595105 -0.2 0.404895
v -0.595105 -0.161803 0.287338
v -0.595105 -0.0618034 0.595105
v -0.595105 -0.0618034 0.214684
v -0.595105 0.0618034 0.595105
v -0.595105 0.0618034 0.214684
v -0.595105 0.161803 0.522455
v -0.595105 0.161803 0.287338
v -0.595105 0.2 0.404895
vn 0.1862178 0.2565413 -0.4825379
vn 0.3326386 0.4672332 0.06616654
vn 0 0.5773503 0
vn 0 0.3090556 -0.4876658
vn -0.1767299 0.2434717 -0.4927691
vn -0.3326367 0.4672346 -0.0661657
vn 0 0.5773503 0
vn 0.3133391 0.4672335 0.1297873
vn -0.3133368 0.4672348 -0.1297885
vn 0 0.5773503 0
vn 0.2819963 0.467234 0.1884244
vn -0.2819956 0.4672347 -0.1884237
vn 0 0.5773503 0
vn 0.2398177 0.4672347 0.2398177
vn -0.2398177 0.4672347 -0.2398176
vn 0 0.5773503 0
vn 0.1884244 0.467234 0.2819963
vn -0.1884237 0.4672348 -0.2819956
vn 0 0.5773503 0
vn 0.1297873 0.4672335 0.3133391
vn -0.1297885 0.4672348 -0.3133368
vn 0 0.5773503 0
vn 0.06616654 0.4672332 0.3326386
vn -0.0661657 0.4672346 -0.3326368
vn -0.2687615 0.51098 0
vn -0.4825379 0.2565413 0.1862178
vn -0.4291611 0.3125455 -0.2268688
vn -0.3326367 0.4672346 -0.0661657
vn -0.5384946 0.1785595 -0.1071138
vn -0.466321 0.1516562 -0.3047596
vn -0.1767299 0.2434717 -0.4927691
vn -0.3603899 -0.1172055 -0.4355632
vn -0.5384946 -0.1785595 -0.1071138
vn -0.1767299 -0.2434717 -0.4927691
vn -0.3326367 -0.4672346 -0.0661657
vn -0.3133368 0.4672348 -0.1297885
vn -0.5072508 0.1785595 -0.2101106
vn -0.5072508 -0.1785595 -0.2101106
vn -0.3133367 -0.4672348 -0.1297885
vn -0.2819956 0.4672347 -0.1884237
vn -0.4565138 0.1785592 -0.3050329
vn -0.4565138 -0.1785592 -0.3050329
vn -0.2819956 -0.4672347 -0.1884237
vn -0.2398177 0.4672347 -0.2398176
vn -0.3882331 0.1785591 -0.3882332
vn -0.3882331 -0.1785591 -0.3882332
vn -0.2398177 -0.4672347 -0.2398176
vn -0.3326367 -0.4672346 -0.0661657
vn 0 -0.5773503 0
vn 0 -0.3090556 -0.4876658
vn -0.1767299 -0.2434717 -0.4927691
vn 0.3326386 -0.4672332 0.06616654
vn 0.1862178 -0.2565413 -0.4825379
vn -0.3133367 -0.4672348 -0.1297885
vn 0 -0.5773503 0
vn 0.3133391 -0.4672335 0.1297873
vn -0.2819956 -0.4672347 -0.1884237
vn 0 -0.5773503 0
vn 0.2819963 -0.467234 0.1884244
vn -0.2398177 -0.4672347 -0.2398176
vn 0 -0.5773503 0
vn 0.2398177 -0.4672347 0.2398177
vn -0.1884237 -0.4672348 -0.2819956
vn 0 -0.5773503 0
vn 0.1884244 -0.467234 0.2819963
vn -0.1297885 -0.4672348 -0.3133368
vn 0 -0.5773503 0
vn 0.1297873 -0.4672335 0.3133391
vn -0.0661657 -0.4672346 -0.3326367
vn 0 -0.5773503 0
vn 0.06616654 -0.4672332 0.3326386
vn -0.4927691 -0.2434717 -0.1767299
vn -0.2687615 -0.51098 0
vn -0.4073276 -0.3311275 0.2403583
vn 0.1862178 -0.2565413 -0.4825379
vn 0.3326386 -0.4672332 0.06616654
vn 0.5384952 -0.1785577 0.1071143
vn 0.5036263 -0.1637869 -0.2299297
vn 0.5384952 0.1785577 0.1071143
vn 0.3956784 0.1286806 -0.4002666
vn 0.3326386 0.4672332 0.06616654
vn 0.1862178 0.2565413 -0.4825379
vn 0.5072525 -0.1785574 0.210108
vn 0.3133391 -0.4672335 0.1297873
vn 0.5072525 0.1785574 0.210108
vn 0.3133391 0.4672335 0.1297873
vn 0.4565144 -0.1785585 0.3050325
vn 0.2819963 -0.467234 0.1884244
vn 0.4565144 0.1785585 0.3050325
vn 0.2819963 0.467234 0.1884244
vn 0.388233 -0.1785598 0.388233
vn 0.2398177 -0.4672347 0.2398177
vn 0.388233 0.1785598 0.388233
vn 0.2398177 0.4672347 0.2398177
vn -0.1884237 0.4672348 -0.2819956
vn -0.3050329 0.1785593 -0.4565138
vn -0.3882331 0.1785591 -0.3882332
vn -0.2398177 0.4672347 -0.2398176
vn -0.3882331 -0.1785591 -0.3882332
vn -0.3050329 -0.1785592 -0.4565138
vn -0.2398177 -0.4672347 -0.2398176
vn -0.1884237 -0.4672348 -0.2819956
vn -0.1297885 0.4672348 -0.3133368
vn -0.2101106 0.1785595 -0.5072508
vn -0.2101106 -0.1785595 -0.5072508
vn -0.1297885 -0.4672348 -0.3133368
vn -0.0661657 0.4672346 -0.3326368
vn -0.1071138 0.1785595 -0.5384946
vn -0.1071138 -0.1785595 -0.5384946
vn -0.0661657 -0.4672346 -0.3326367
vn -0.4291611 0.3125455 -0.2268688
vn -0.495894 0.09144393 -0.2811769
vn -0.495894 -0.09144393 -0.2811769
vn -0.4927691 -0.2434717 -0.1767299
vn 0.2398177 -0.4672347 0.2398177
vn 0.1884244 -0.467234 0.2819963
vn 0.3050325 -0.1785585 0.4565144
vn 0.388233 -0.1785598 0.388233
vn 0.3050325 0.1785585 0.4565144
vn 0.388233 0.1785598 0.388233
vn 0.1884244 0.467234 0.2819963
vn 0.2398177 0.4672347 0.2398177
vn 0.210108 -0.1785574 0.5072526
vn 0.1297873 -0.4672335 0.3133391
vn 0.210108 0.1785574 0.5072525
vn 0.1297873 0.4672335 0.3133391
vn 0.1071143 -0.1785577 0.5384952
vn 0.06616654 -0.4672332 0.3326386
vn 0.1071143 0.1785577 0.5384952
vn 0.06616654 0.4672332 0.3326386
vn -0.4793759 -0.0995123 0.3059892
vn -0.4073276 -0.3311275 0.2403583
vn -0.4793759 0.0995123 0.3059892
vn -0.4825379 0.2565413 0.1862178
vn 0.1862178 -0.2565413 -0.4825379
vn 0.5036263 -0.1637869 -0.2299297
vn 0.3956784 0.1286806 -0.4002666
vn 0.1862178 0.2565413 -0.4825379
vn 0 -0.3090556 -0.4876658
vn 0 0.3090556 -0.4876658
vn -0.1767299 -0.2434717 -0.4927691
vn -0.1767299 0.2434717 -0.4927691
vn -0.3603899 -0.1172055 -0.4355632
vn -0.466321 0.1516562 -0.3047596
vn -0.4073276 -0.3311275 0.2403583
vn -0.2687615 -0.51098 0
vn -0.4927691 -0.2434717 -0.1767299
vn -0.4793759 -0.0995123 0.3059892
vn -0.495894 -0.09144393 -0.2811769
vn -0.4793759 0.0995123 0.3059892
vn -0.495894 0.09144393 -0.2811769
vn -0.4825379 0.2565413 0.1862178
vn -0.4291611 0.3125455 -0.2268688
vn -0.2687615 0.51098 0
vt 0.93896 1
vt 0.920913 0.816818
vt 0.824044 0.836088
vt 0.840188 1
vt 0.741418 1
vt 0.727172 0.855357
vt 0.776233 0.678474
vt 0.867486 0.640676
vt 0.684981 0.716272
vt 0.698591 0.533217
vt 0.780715 0.478343
vt 0.616466 0.58809
vt 0.594103 0.405897
vt 0.663943 0.336057
vt 0.524261 0.475739
vt 0.466783 0.301409
vt 0.521657 0.219285
vt 0.41191 0.383534
vt 0.321526 0.223767
vt 0.359324 0.132514
vt 0.283728 0.315019
vt 0.163912 0.175956
vt 0.183182 0.0790869
vt 0.144643 0.272828
vt 0 0.159812
vt 0 0.0610397
vt 0 0.258582
vt 0.855357 0.904508
vt 0.867265 0.654508
vt 1 0.654508
vt 1 0.904508
vt 1 0.345491
vt 0.867265 0.345491
vt 1 0.0954925
vt 0.855357 0.0954925
vt 0.716272 0.904508
vt 0.739632 0.654508
vt 0.739632 0.345491
vt 0.716272 0.0954925
vt 0.58809 0.904508
vt 0.622005 0.654508
vt 0.622005 0.345491
vt 0.58809 0.0954925
vt 0.475739 0.904508
vt 0.518903 0.654508
vt 0.518903 0.345491
vt 0.475739 0.0954925
vt 0.727172 0.855357
vt 0.824044 0.836088
vt 0.840188 1
vt 0.741418 1
vt 0.920913 0.816818
vt 0.93896 1
vt 0.684981 0.716272
vt 0.776233 0.678474
vt 0.867486 0.640676
vt 0.616466 0.58809
vt 0.698591 0.533217
vt 0.780715 0.478343
vt 0.524261 0.475739
vt 0.594103 0.405897
vt 0.663943 0.336057
vt 0.41191 0.383534
vt 0.466783 0.301409
vt 0.521657 0.219285
vt 0.283728 0.315019
vt 0.321526 0.223767
vt 0.359324 0.132514
vt 0.144643 0.272828
vt 0.163912 0.175956
vt 0.183182 0.0790869
vt 0 0.258582
vt 0 0.159812
vt 0 0.0610397
vt 1 0.0954925
vt 0.816818 0.0954925
vt 0.804909 0.345491
vt 1 0.345491
vt 0.804909 0.654508
vt 1 0.654508
vt 0.816818 0.904508
vt 1 0.904508
vt 0.617316 0.345491
vt 0.640676 0.0954925
vt 0.617316 0.654508
vt 0.640676 0.904508
vt 0.444429 0.345491
vt 0.478343 0.0954925
vt 0.444429 0.654508
vt 0.478343 0.904508
vt 0.292893 0.345491
vt 0.336057 0.0954925
vt 0.292893 0.654508
vt 0.336057 0.904508
vt 0.41191 0.904508
vt 0.377995 0.654508
vt 0.481097 0.654508
vt 0.524261 0.904508
vt 0.481097 0.345491
vt 0.377995 0.345491
vt 0.524261 0.0954925
vt 0.41191 0.0954925
vt 0.283728 0.904508
vt 0.260368 0.654508
vt 0.260368 0.345491
vt 0.283728 0.0954925
vt 0.144643 0.904508
vt 0.132735 0.654508
vt 0.132735 0.345491
vt 0.144643 0.0954925
vt 0 0.904508
vt 0 0.654508
vt 0 0.345491
vt 0 0.0954925
vt 0.663943 0.0954925
vt 0.521657 0.0954925
vt 0.555571 0.345491
vt 0.707107 0.345491
vt 0.555571 0.654508
vt 0.707107 0.654508
vt 0.521657 0.904508
vt 0.663943 0.904508
vt 0.382684 0.345491
vt 0.359324 0.0954925
vt 0.382684 0.654508
vt 0.359324 0.904508
vt 0.195091 0.345491
vt 0.183182 0.0954925
vt 0.195091 0.654508
vt 0.183182 0.904508
vt 0 0.345491
vt 0 0.0954925
vt 0 0.654508
vt 0 0.904508
vt 0.93896 0.0954925
vt 1 0.345491
vt 1 0.654508
vt 0.93896 0.904508
vt 0.840188 0
vt 0.840188 1
vt 0.741418 0.0954925
vt 0.741418 0.904508
vt 0.680375 0.345491
vt 0.680375 0.654508
vt 0.0610397 0.0954925
vt 0.159812 0
vt 0.258582 0.0954925
vt 0 0.345491
vt 0.319625 0.345491
vt 0 0.654508
vt 0.319625 0.654508
vt 0.0610397 0.904508
vt 0.258582 0.904508
vt 0.159812 1
usemtl baseThingPartMaterial
f 3/3/3 2/2/2 1/1/1
f 4/4/4 3/3/3 1/1/1
f 4/4/4 5/5/5 3/3/3
f 5/5/5 6/6/6 3/3/3
f 3/3/3 7/7/7 2/2/2
f 3/3/3 6/6/6 7/7/7
f 7/7/7 8/8/8 2/2/2
f 6/6/6 9/9/9 7/7/7
f 7/7/7 10/10/10 8/8/8
f 7/7/7 9/9/9 10/10/10
f 10/10/10 11/11/11 8/8/8
f 9/9/9 12/12/12 10/10/10
f 10/10/10 13/13/13 11/11/11
f 10/10/10 12/12/12 13/13/13
f 13/13/13 14/14/14 11/11/11
f 12/12/12 15/15/15 13/13/13
f 13/13/13 16/16/16 14/14/14
f 13/13/13 15/15/15 16/16/16
f 16/16/16 17/17/17 14/14/14
f 15/15/15 18/18/18 16/16/16
f 16/16/16 19/19/19 17/17/17
f 16/16/16 18/18/18 19/19/19
f 19/19/19 20/20/20 17/17/17
f 18/18/18 21/21/21 19/19/19
f 19/19/19 22/22/22 20/20/20
f 19/19/19 21/21/21 22/22/22
f 22/22/22 23/23/23 20/20/20
f 21/21/21 24/24/24 22/22/22
f 22/22/22 25/25/25 23/23/23
f 22/22/22 24/24/24 25/25/25
f 25/25/25 26/26/26 23/23/23
f 24/24/24 27/27/27 25/25/25
f 30/30/30 29/29/29 28/28/28
f 31/31/31 30/30/30 28/28/28
f 30/30/30 32/32/32 29/29/29
f 32/32/32 33/33/33 29/29/29
f 32/32/32 34/34/34 33/33/33
f 34/34/34 35/35/35 33/33/33
f 28/28/28 29/29/29 36/36/36
f 29/29/29 37/37/37 36/36/36
f 29/29/29 33/33/33 37/37/37
f 33/33/33 38/38/38 37/37/37
f 33/33/33 35/35/35 38/38/38
f 35/35/35 39/39/39 38/38/38
f 36/36/36 37/37/37 40/40/40
f 37/37/37 41/41/41 40/40/40
f 37/37/37 38/38/38 41/41/41
f 38/38/38 42/42/42 41/41/41
f 38/38/38 39/39/39 42/42/42
f 39/39/39 43/43/43 42/42/42
f 40/40/40 41/41/41 44/44/44
f 41/41/41 45/45/45 44/44/44
f 41/41/41 42/42/42 45/45/45
f 42/42/42 46/46/46 45/45/45
f 42/42/42 43/43/43 46/46/46
f 43/43/43 47/47/47 46/46/46
f 50/50/50 49/49/49 48/48/48
f 51/51/51 50/50/50 48/48/48
f 52/52/52 49/49/49 50/50/50
f 53/53/53 52/52/52 50/50/50
f 48/48/48 49/49/49 54/54/54
f 49/49/49 55/55/55 54/54/54
f 56/56/56 55/55/55 49/49/49
f 52/52/52 56/56/56 49/49/49
f 54/54/54 55/55/55 57/57/57
f 55/55/55 58/58/58 57/57/57
f 59/59/59 58/58/58 55/55/55
f 56/56/56 59/59/59 55/55/55
f 57/57/57 58/58/58 60/60/60
f 58/58/58 61/61/61 60/60/60
f 62/62/62 61/61/61 58/58/58
f 59/59/59 62/62/62 58/58/58
f 60/60/60 61/61/61 63/63/63
f 61/61/61 64/64/64 63/63/63
f 65/65/65 64/64/64 61/61/61
f 62/62/62 65/65/65 61/61/61
f 63/63/63 64/64/64 66/66/66
f 64/64/64 67/67/67 66/66/66
f 68/68/68 67/67/67 64/64/64
f 65/65/65 68/68/68 64/64/64
f 66/66/66 67/67/67 69/69/69
f 67/67/67 70/70/70 69/69/69
f 71/71/71 70/70/70 67/67/67
f 68/68/68 71/71/71 67/67/67
f 69/69/69 70/70/70 72/72/72
f 70/70/70 73/73/73 72/72/72
f 74/74/74 73/73/73 70/70/70
f 71/71/71 74/74/74 70/70/70
f 77/77/77 76/76/76 75/75/75
f 78/78/78 77/77/77 75/75/75
f 79/79/79 77/77/77 78/78/78
f 80/80/80 79/79/79 78/78/78
f 81/81/81 79/79/79 80/80/80
f 82/82/82 81/81/81 80/80/80
f 77/77/77 83/83/83 76/76/76
f 83/83/83 84/84/84 76/76/76
f 85/85/85 83/83/83 77/77/77
f 79/79/79 85/85/85 77/77/77
f 86/86/86 85/85/85 79/79/79
f 81/81/81 86/86/86 79/79/79
f 83/83/83 87/87/87 84/84/84
f 87/87/87 88/88/88 84/84/84
f 89/89/89 87/87/87 83/83/83
f 85/85/85 89/89/89 83/83/83
f 90/90/90 89/89/89 85/85/85
f 86/86/86 90/90/90 85/85/85
f 87/87/87 91/91/91 88/88/88
f 91/91/91 92/92/92 88/88/88
f 93/93/93 91/91/91 87/87/87
f 89/89/89 93/93/93 87/87/87
f 94/94/94 93/93/93 89/89/89
f 90/90/90 94/94/94 89/89/89
f 97/97/97 96/96/96 95/95/95
f 98/98/98 97/97/97 95/95/95
f 97/97/97 99/99/99 96/96/96
f 99/99/99 100/100/100 96/96/96
f 99/99/99 101/101/101 100/100/100
f 101/101/101 102/102/102 100/100/100
f 95/95/95 96/96/96 103/103/103
f 96/96/96 104/104/104 103/103/103
f 96/96/96 100/100/100 104/104/104
f 100/100/100 105/105/105 104/104/104
f 100/100/100 102/102/102 105/105/105
f 102/102/102 106/106/106 105/105/105
f 103/103/103 104/104/104 107/107/107
f 104/104/104 108/108/108 107/107/107
f 104/104/104 105/105/105 108/108/108
f 105/105/105 109/109/109 108/108/108
f 105/105/105 106/106/106 109/109/109
f 106/106/106 110/110/110 109/109/109
f 107/107/107 108/108/108 111/111/111
f 108/108/108 112/112/112 111/111/111
f 108/108/108 109/109/109 112/112/112
f 109/109/109 113/113/113 112/112/112
f 109/109/109 110/110/110 113/113/113
f 110/110/110 114/114/114 113/113/113
f 117/117/117 116/116/116 115/115/115
f 118/118/118 117/117/117 115/115/115
f 119/119/119 117/117/117 118/118/118
f 120/120/120 119/119/119 118/118/118
f 121/121/121 119/119/119 120/120/120
f 122/122/122 121/121/121 120/120/120
f 117/117/117 123/123/123 116/116/116
f 123/123/123 124/124/124 116/116/116
f 125/125/125 123/123/123 117/117/117
f 119/119/119 125/125/125 117/117/117
f 126/126/126 125/125/125 119/119/119
f 121/121/121 126/126/126 119/119/119
f 123/123/123 127/127/127 124/124/124
f 127/127/127 128/128/128 124/124/124
f 129/129/129 127/127/127 123/123/123
f 125/125/125 129/129/129 123/123/123
f 130/130/130 129/129/129 125/125/125
f 126/126/126 130/130/130 125/125/125
f 127/127/127 131/131/131 128/128/128
f 131/131/131 132/132/132 128/128/128
f 133/133/133 131/131/131 127/127/127
f 129/129/129 133/133/133 127/127/127
f 134/134/134 133/133/133 129/129/129
f 130/130/130 134/134/134 129/129/129
f 137/137/137 136/136/136 135/135/135
f 135/135/135 138/138/138 137/137/137
f 135/135/135 139/139/139 138/138/138
f 139/139/139 140/140/140 138/138/138
f 139/139/139 141/141/141 140/140/140
f 141/141/141 142/142/142 140/140/140
f 141/141/141 143/143/143 142/142/142
f 143/143/143 144/144/144 142/142/142
f 147/147/147 146/146/146 145/145/145
f 145/145/145 148/148/148 147/147/147
f 148/148/148 149/149/149 147/147/147
f 148/148/148 150/150/150 149/149/149
f 150/150/150 151/151/151 149/149/149
f 150/150/150 152/152/152 151/151/151
f 152/152/152 153/153/153 151/151/151
f 152/152/152 154/154/154 153/153/153
