# Export of Universe
# from Aaro4130 OBJ Exporter v2.0
mtllib 37.mtl
g QuarterTorus6
v 0.505615 0.0404508 -0.523775
v 0.485835 0.0404508 -0.322951
v 0.45701 0.05 -0.328685
v 0.476225 0.05 -0.523775
v 0.446836 0.0404508 -0.523775
v 0.428186 0.0404508 -0.334418
v 0.400105 0.05 -0.141092
v 0.427257 0.0404508 -0.129845
v 0.372952 0.0404508 -0.152338
v 0.307695 0.05 0.031795
v 0.332131 0.0404508 0.048123
v 0.283258 0.0404508 0.015467
v 0.183332 0.05 0.183332
v 0.204113 0.0404508 0.204113
v 0.16255 0.0404508 0.16255
v 0.031795 0.05 0.307695
v 0.048123 0.0404508 0.332131
v 0.015467 0.0404508 0.283258
v -0.141092 0.05 0.400105
v -0.129845 0.0404508 0.427257
v -0.152338 0.0404508 0.372952
v -0.328685 0.05 0.45701
v -0.322951 0.0404508 0.485835
v -0.334418 0.0404508 0.428186
v -0.523775 0.05 0.476225
v -0.523775 0.0404508 0.505615
v -0.523775 0.0404508 0.446836
v 0.428186 0.0404508 -0.334418
v 0.410371 0.0154509 -0.337962
v 0.428672 0.0154509 -0.523775
v 0.446836 0.0404508 -0.523775
v 0.428672 -0.0154509 -0.523775
v 0.410371 -0.0154509 -0.337962
v 0.446836 -0.0404508 -0.523775
v 0.428186 -0.0404508 -0.334418
v 0.372952 0.0404508 -0.152338
v 0.356171 0.0154509 -0.159289
v 0.356171 -0.0154509 -0.159289
v 0.372952 -0.0404508 -0.152338
v 0.283258 0.0404508 0.015467
v 0.268156 0.0154509 0.00537604
v 0.268156 -0.0154509 0.00537604
v 0.283258 -0.0404508 0.015467
v 0.16255 0.0404508 0.16255
v 0.149707 0.0154509 0.149707
v 0.149707 -0.0154509 0.149707
v 0.16255 -0.0404508 0.16255
v 0.428186 -0.0404508 -0.334418
v 0.45701 -0.05 -0.328685
v 0.476225 -0.05 -0.523775
v 0.446836 -0.0404508 -0.523775
v 0.485835 -0.0404508 -0.322951
v 0.505615 -0.0404508 -0.523775
v 0.372952 -0.0404508 -0.152338
v 0.400105 -0.05 -0.141092
v 0.427257 -0.0404508 -0.129845
v 0.283258 -0.0404508 0.015467
v 0.307695 -0.05 0.031795
v 0.332131 -0.0404508 0.048123
v 0.16255 -0.0404508 0.16255
v 0.183332 -0.05 0.183332
v 0.204113 -0.0404508 0.204113
v 0.015467 -0.0404508 0.283258
v 0.031795 -0.05 0.307695
v 0.048123 -0.0404508 0.332131
v -0.152338 -0.0404508 0.372952
v -0.141092 -0.05 0.400105
v -0.129845 -0.0404508 0.427257
v -0.334418 -0.0404508 0.428186
v -0.328685 -0.05 0.45701
v -0.322951 -0.0404508 0.485835
v -0.523775 -0.0404508 0.446836
v -0.523775 -0.05 0.476225
v -0.523775 -0.0404508 0.505615
v 0.505615 -0.0404508 -0.523775
v 0.485835 -0.0404508 -0.322951
v 0.503645 -0.0154509 -0.319408
v 0.523775 -0.0154509 -0.523775
v 0.503645 0.0154509 -0.319408
v 0.523775 0.0154509 -0.523775
v 0.485835 0.0404508 -0.322951
v 0.505615 0.0404508 -0.523775
v 0.444038 -0.0154509 -0.122894
v 0.427257 -0.0404508 -0.129845
v 0.444038 0.0154509 -0.122894
v 0.427257 0.0404508 -0.129845
v 0.347233 -0.0154509 0.058214
v 0.332131 -0.0404508 0.048123
v 0.347233 0.0154509 0.058214
v 0.332131 0.0404508 0.048123
v 0.216957 -0.0154509 0.216957
v 0.204113 -0.0404508 0.204113
v 0.216957 0.0154509 0.216957
v 0.204113 0.0404508 0.204113
v 0.015467 0.0404508 0.283258
v 0.00537604 0.0154509 0.268156
v 0.149707 0.0154509 0.149707
v 0.16255 0.0404508 0.16255
v 0.149707 -0.0154509 0.149707
v 0.00537604 -0.0154509 0.268156
v 0.16255 -0.0404508 0.16255
v 0.015467 -0.0404508 0.283258
v -0.152338 0.0404508 0.372952
v -0.159289 0.0154509 0.356171
v -0.159289 -0.0154509 0.356171
v -0.152338 -0.0404508 0.372952
v -0.334418 0.0404508 0.428186
v -0.337962 0.0154509 0.410371
v -0.337962 -0.0154509 0.410371
v -0.334418 -0.0404508 0.428186
v -0.523775 0.0404508 0.446836
v -0.523775 0.0154509 0.428672
v -0.523775 -0.0154509 0.428672
v -0.523775 -0.0404508 0.446836
v 0.204113 -0.0404508 0.204113
v 0.048123 -0.0404508 0.332131
v 0.058214 -0.0154509 0.347233
v 0.216957 -0.0154509 0.216957
v 0.058214 0.0154509 0.347233
v 0.216957 0.0154509 0.216957
v 0.048123 0.0404508 0.332131
v 0.204113 0.0404508 0.204113
v -0.122894 -0.0154509 0.444038
v -0.129845 -0.0404508 0.427257
v -0.122894 0.0154509 0.444038
v -0.129845 0.0404508 0.427257
v -0.319408 -0.0154509 0.503645
v -0.322951 -0.0404508 0.485835
v -0.319408 0.0154509 0.503645
v -0.322951 0.0404508 0.485835
v -0.523775 -0.0154509 0.523775
v -0.523775 -0.0404508 0.505615
v -0.523775 0.0154509 0.523775
v -0.523775 0.0404508 0.505615
v 0.505615 -0.0404508 -0.523775
v 0.523775 -0.0154509 -0.523775
v 0.523775 0.0154509 -0.523775
v 0.505615 0.0404508 -0.523775
v 0.476225 -0.05 -0.523775
v 0.476225 0.05 -0.523775
v 0.446836 -0.0404508 -0.523775
v 0.446836 0.0404508 -0.523775
v 0.428672 -0.0154509 -0.523775
v 0.428672 0.0154509 -0.523775
v -0.523775 -0.0404508 0.505615
v -0.523775 -0.05 0.476225
v -0.523775 -0.0404508 0.446836
v -0.523775 -0.0154509 0.523775
v -0.523775 -0.0154509 0.428672
v -0.523775 0.0154509 0.523775
v -0.523775 0.0154509 0.428672
v -0.523775 0.0404508 0.505615
v -0.523775 0.0404508 0.446836
v -0.523775 0.05 0.476225
vn 0.186227 0.2565292 -0.4825407
vn 0.3326544 0.4672218 0.06616791
vn 0 0.5773503 0
vn 0 0.3090554 -0.4876659
vn -0.176729 0.2434733 -0.4927686
vn -0.3326343 0.4672365 -0.0661653
vn 0 0.5773503 0
vn 0.3133435 0.46723 0.1297893
vn -0.3133353 0.4672358 -0.1297881
vn 0 0.5773503 0
vn 0.2819959 0.4672346 0.1884237
vn -0.2819961 0.4672344 -0.1884238
vn 0 0.5773503 0
vn 0.2398174 0.467235 0.2398174
vn -0.2398187 0.4672336 -0.2398187
vn 0 0.5773503 0
vn 0.1884237 0.4672346 0.2819959
vn -0.1884238 0.4672344 -0.2819961
vn 0 0.5773503 0
vn 0.1297893 0.46723 0.3133435
vn -0.1297881 0.4672358 -0.3133354
vn 0 0.5773503 0
vn 0.06616791 0.4672218 0.3326544
vn -0.0661653 0.4672365 -0.3326343
vn -0.2687624 0.5109795 0
vn -0.4825407 0.2565292 0.186227
vn -0.4291605 0.3125473 -0.2268675
vn -0.3326343 0.4672365 -0.0661653
vn -0.5384936 0.1785627 -0.1071134
vn -0.4663199 0.1516594 -0.3047597
vn -0.176729 0.2434733 -0.4927686
vn -0.3603889 -0.1172079 -0.4355634
vn -0.5384936 -0.1785627 -0.1071134
vn -0.176729 -0.2434733 -0.4927686
vn -0.3326343 -0.4672365 -0.0661653
vn -0.3133353 0.4672358 -0.1297881
vn -0.5072506 0.1785603 -0.2101104
vn -0.5072506 -0.1785603 -0.2101104
vn -0.3133354 -0.4672358 -0.1297881
vn -0.2819961 0.4672344 -0.1884238
vn -0.4565147 0.1785568 -0.3050329
vn -0.4565147 -0.1785568 -0.3050329
vn -0.2819961 -0.4672344 -0.1884238
vn -0.2398187 0.4672336 -0.2398187
vn -0.388234 0.1785552 -0.388234
vn -0.388234 -0.1785552 -0.388234
vn -0.2398187 -0.4672336 -0.2398187
vn -0.3326343 -0.4672365 -0.0661653
vn 0 -0.5773503 0
vn 0 -0.3090554 -0.4876659
vn -0.176729 -0.2434733 -0.4927686
vn 0.3326544 -0.4672218 0.06616791
vn 0.186227 -0.2565292 -0.4825407
vn -0.3133354 -0.4672358 -0.1297881
vn 0 -0.5773503 0
vn 0.3133435 -0.46723 0.1297893
vn -0.2819961 -0.4672344 -0.1884238
vn 0 -0.5773503 0
vn 0.2819959 -0.4672346 0.1884237
vn -0.2398187 -0.4672336 -0.2398187
vn 0 -0.5773503 0
vn 0.2398174 -0.467235 0.2398174
vn -0.1884238 -0.4672344 -0.2819961
vn 0 -0.5773503 0
vn 0.1884237 -0.4672346 0.2819959
vn -0.1297881 -0.4672358 -0.3133354
vn 0 -0.5773503 0
vn 0.1297893 -0.46723 0.3133435
vn -0.0661653 -0.4672365 -0.3326343
vn 0 -0.5773503 0
vn 0.06616791 -0.4672218 0.3326544
vn -0.4927686 -0.2434733 -0.176729
vn -0.2687624 -0.5109795 0
vn -0.4073319 -0.331113 0.240371
vn 0.186227 -0.2565292 -0.4825407
vn 0.3326544 -0.4672218 0.06616791
vn 0.5385026 -0.178537 0.1071113
vn 0.5036361 -0.1637624 -0.2299258
vn 0.5385026 0.178537 0.1071113
vn 0.3956881 0.128662 -0.4002628
vn 0.3326544 0.4672218 0.06616791
vn 0.186227 0.2565292 -0.4825407
vn 0.5072551 -0.1785514 0.210107
vn 0.3133435 -0.46723 0.1297893
vn 0.5072551 0.1785514 0.210107
vn 0.3133435 0.46723 0.1297893
vn 0.4565139 -0.1785594 0.3050327
vn 0.2819959 -0.4672346 0.1884237
vn 0.4565139 0.1785595 0.3050328
vn 0.2819959 0.4672346 0.1884237
vn 0.3882328 -0.1785604 0.3882328
vn 0.2398174 -0.467235 0.2398174
vn 0.3882328 0.1785604 0.3882329
vn 0.2398174 0.467235 0.2398174
vn -0.1884238 0.4672344 -0.2819961
vn -0.3050329 0.1785568 -0.4565147
vn -0.388234 0.1785552 -0.388234
vn -0.2398187 0.4672336 -0.2398187
vn -0.388234 -0.1785552 -0.388234
vn -0.3050329 -0.1785568 -0.4565147
vn -0.2398187 -0.4672336 -0.2398187
vn -0.1884238 -0.4672344 -0.2819961
vn -0.1297881 0.4672358 -0.3133354
vn -0.2101104 0.1785603 -0.5072506
vn -0.2101104 -0.1785603 -0.5072506
vn -0.1297881 -0.4672358 -0.3133354
vn -0.0661653 0.4672365 -0.3326343
vn -0.1071134 0.1785627 -0.5384936
vn -0.1071134 -0.1785627 -0.5384936
vn -0.0661653 -0.4672365 -0.3326343
vn -0.4291605 0.3125473 -0.2268675
vn -0.4958942 0.09144579 -0.281176
vn -0.4958942 -0.09144579 -0.281176
vn -0.4927686 -0.2434733 -0.176729
vn 0.2398174 -0.467235 0.2398174
vn 0.1884237 -0.4672346 0.2819959
vn 0.3050328 -0.1785595 0.4565139
vn 0.3882328 -0.1785604 0.3882328
vn 0.3050327 0.1785594 0.4565139
vn 0.3882328 0.1785604 0.3882329
vn 0.1884237 0.4672346 0.2819959
vn 0.2398174 0.467235 0.2398174
vn 0.210107 -0.1785514 0.5072551
vn 0.1297893 -0.46723 0.3133435
vn 0.210107 0.1785514 0.5072551
vn 0.1297893 0.46723 0.3133435
vn 0.1071113 -0.178537 0.5385026
vn 0.06616791 -0.4672218 0.3326544
vn 0.1071113 0.178537 0.5385026
vn 0.06616791 0.4672218 0.3326544
vn -0.4793733 -0.09949831 0.3059978
vn -0.4073319 -0.331113 0.240371
vn -0.4793733 0.09949831 0.3059978
vn -0.4825407 0.2565292 0.186227
vn 0.186227 -0.2565292 -0.4825407
vn 0.5036361 -0.1637624 -0.2299258
vn 0.3956881 0.128662 -0.4002628
vn 0.186227 0.2565292 -0.4825407
vn 0 -0.3090554 -0.4876659
vn 0 0.3090554 -0.4876659
vn -0.176729 -0.2434733 -0.4927686
vn -0.176729 0.2434733 -0.4927686
vn -0.3603889 -0.1172079 -0.4355634
vn -0.4663199 0.1516594 -0.3047597
vn -0.4073319 -0.331113 0.240371
vn -0.2687624 -0.5109795 0
vn -0.4927686 -0.2434733 -0.176729
vn -0.4793733 -0.09949831 0.3059978
vn -0.4958942 -0.09144579 -0.281176
vn -0.4793733 0.09949831 0.3059978
vn -0.4958942 0.09144579 -0.281176
vn -0.4825407 0.2565292 0.186227
vn -0.4291605 0.3125473 -0.2268675
vn -0.2687624 0.5109795 0
vt 0.982664 1
vt 0.963782 0.808292
vt 0.936266 0.813765
vt 0.954608 1
vt 0.926553 1
vt 0.90875 0.819238
vt 0.881944 0.634688
vt 0.907863 0.623951
vt 0.856023 0.645423
vt 0.793728 0.469648
vt 0.817055 0.454061
vt 0.7704 0.485235
vt 0.67501 0.32499
vt 0.694848 0.305152
vt 0.655172 0.344828
vt 0.530352 0.206272
vt 0.545939 0.182945
vt 0.514765 0.2296
vt 0.365312 0.118056
vt 0.376049 0.0921369
vt 0.354577 0.143977
vt 0.186235 0.0637344
vt 0.191708 0.0362178
vt 0.180762 0.09125
vt 0 0.0453916
vt 0 0.0173357
vt 0 0.0734466
vt 0.819238 0.904508
vt 0.822621 0.654509
vt 1 0.654509
vt 1 0.904508
vt 1 0.345491
vt 0.822621 0.345491
vt 1 0.095492
vt 0.819238 0.095492
vt 0.645423 0.904508
vt 0.652059 0.654509
vt 0.652059 0.345491
vt 0.645423 0.095492
vt 0.485235 0.904508
vt 0.494868 0.654509
vt 0.494868 0.345491
vt 0.485235 0.095492
vt 0.344828 0.904508
vt 0.357088 0.654509
vt 0.357088 0.345491
vt 0.344828 0.095492
vt 0.90875 0.819238
vt 0.936266 0.813765
vt 0.954608 1
vt 0.926553 1
vt 0.963782 0.808292
vt 0.982664 1
vt 0.856023 0.645423
vt 0.881944 0.634688
vt 0.907863 0.623951
vt 0.7704 0.485235
vt 0.793728 0.469648
vt 0.817055 0.454061
vt 0.655172 0.344828
vt 0.67501 0.32499
vt 0.694848 0.305152
vt 0.514765 0.2296
vt 0.530352 0.206272
vt 0.545939 0.182945
vt 0.354577 0.143977
vt 0.365312 0.118056
vt 0.376049 0.0921369
vt 0.180762 0.09125
vt 0.186235 0.0637344
vt 0.191708 0.0362178
vt 0 0.0734466
vt 0 0.0453916
vt 0 0.0173357
vt 1 0.095492
vt 0.808292 0.095492
vt 0.80491 0.345491
vt 1 0.345491
vt 0.80491 0.654509
vt 1 0.654509
vt 0.808292 0.904508
vt 1 0.904508
vt 0.617316 0.345491
vt 0.623951 0.095492
vt 0.617316 0.654509
vt 0.623951 0.904508
vt 0.444428 0.345491
vt 0.454061 0.095492
vt 0.444428 0.654509
vt 0.454061 0.904508
vt 0.292891 0.345491
vt 0.305152 0.095492
vt 0.292891 0.654509
vt 0.305152 0.904508
vt 0.514765 0.904508
vt 0.505132 0.654509
vt 0.642912 0.654509
vt 0.655172 0.904508
vt 0.642912 0.345491
vt 0.505132 0.345491
vt 0.655172 0.095492
vt 0.514765 0.095492
vt 0.354577 0.904508
vt 0.347941 0.654509
vt 0.347941 0.345491
vt 0.354577 0.095492
vt 0.180762 0.904508
vt 0.177379 0.654509
vt 0.177379 0.345491
vt 0.180762 0.095492
vt 0 0.904508
vt 0 0.654509
vt 0 0.345491
vt 0 0.095492
vt 0.694848 0.095492
vt 0.545939 0.095492
vt 0.555572 0.345491
vt 0.707109 0.345491
vt 0.555572 0.654509
vt 0.707109 0.654509
vt 0.545939 0.904508
vt 0.694848 0.904508
vt 0.382684 0.345491
vt 0.376049 0.095492
vt 0.382684 0.654509
vt 0.376049 0.904508
vt 0.19509 0.345491
vt 0.191708 0.095492
vt 0.19509 0.654509
vt 0.191708 0.904508
vt 0 0.345491
vt 0 0.095492
vt 0 0.654509
vt 0 0.904508
vt 0.982664 0.095492
vt 1 0.345491
vt 1 0.654509
vt 0.982664 0.904508
vt 0.954608 0
vt 0.954608 1
vt 0.926553 0.095492
vt 0.926553 0.904508
vt 0.909214 0.345491
vt 0.909214 0.654509
vt 0.0173357 0.095492
vt 0.0453916 0
vt 0.0734466 0.095492
vt 0 0.345491
vt 0.0907861 0.345491
vt 0 0.654509
vt 0.0907861 0.654509
vt 0.0173357 0.904508
vt 0.0734466 0.904508
vt 0.0453916 1
usemtl baseThingPartMaterial
f 3/3/3 2/2/2 1/1/1
f 4/4/4 3/3/3 1/1/1
f 4/4/4 5/5/5 3/3/3
f 5/5/5 6/6/6 3/3/3
f 3/3/3 7/7/7 2/2/2
f 3/3/3 6/6/6 7/7/7
f 7/7/7 8/8/8 2/2/2
f 6/6/6 9/9/9 7/7/7
f 7/7/7 10/10/10 8/8/8
f 7/7/7 9/9/9 10/10/10
f 10/10/10 11/11/11 8/8/8
f 9/9/9 12/12/12 10/10/10
f 10/10/10 13/13/13 11/11/11
f 10/10/10 12/12/12 13/13/13
f 13/13/13 14/14/14 11/11/11
f 12/12/12 15/15/15 13/13/13
f 13/13/13 16/16/16 14/14/14
f 13/13/13 15/15/15 16/16/16
f 16/16/16 17/17/17 14/14/14
f 15/15/15 18/18/18 16/16/16
f 16/16/16 19/19/19 17/17/17
f 16/16/16 18/18/18 19/19/19
f 19/19/19 20/20/20 17/17/17
f 18/18/18 21/21/21 19/19/19
f 19/19/19 22/22/22 20/20/20
f 19/19/19 21/21/21 22/22/22
f 22/22/22 23/23/23 20/20/20
f 21/21/21 24/24/24 22/22/22
f 22/22/22 25/25/25 23/23/23
f 22/22/22 24/24/24 25/25/25
f 25/25/25 26/26/26 23/23/23
f 24/24/24 27/27/27 25/25/25
f 30/30/30 29/29/29 28/28/28
f 31/31/31 30/30/30 28/28/28
f 30/30/30 32/32/32 29/29/29
f 32/32/32 33/33/33 29/29/29
f 32/32/32 34/34/34 33/33/33
f 34/34/34 35/35/35 33/33/33
f 28/28/28 29/29/29 36/36/36
f 29/29/29 37/37/37 36/36/36
f 29/29/29 33/33/33 37/37/37
f 33/33/33 38/38/38 37/37/37
f 33/33/33 35/35/35 38/38/38
f 35/35/35 39/39/39 38/38/38
f 36/36/36 37/37/37 40/40/40
f 37/37/37 41/41/41 40/40/40
f 37/37/37 38/38/38 41/41/41
f 38/38/38 42/42/42 41/41/41
f 38/38/38 39/39/39 42/42/42
f 39/39/39 43/43/43 42/42/42
f 40/40/40 41/41/41 44/44/44
f 41/41/41 45/45/45 44/44/44
f 41/41/41 42/42/42 45/45/45
f 42/42/42 46/46/46 45/45/45
f 42/42/42 43/43/43 46/46/46
f 43/43/43 47/47/47 46/46/46
f 50/50/50 49/49/49 48/48/48
f 51/51/51 50/50/50 48/48/48
f 52/52/52 49/49/49 50/50/50
f 53/53/53 52/52/52 50/50/50
f 48/48/48 49/49/49 54/54/54
f 49/49/49 55/55/55 54/54/54
f 56/56/56 55/55/55 49/49/49
f 52/52/52 56/56/56 49/49/49
f 54/54/54 55/55/55 57/57/57
f 55/55/55 58/58/58 57/57/57
f 59/59/59 58/58/58 55/55/55
f 56/56/56 59/59/59 55/55/55
f 57/57/57 58/58/58 60/60/60
f 58/58/58 61/61/61 60/60/60
f 62/62/62 61/61/61 58/58/58
f 59/59/59 62/62/62 58/58/58
f 60/60/60 61/61/61 63/63/63
f 61/61/61 64/64/64 63/63/63
f 65/65/65 64/64/64 61/61/61
f 62/62/62 65/65/65 61/61/61
f 63/63/63 64/64/64 66/66/66
f 64/64/64 67/67/67 66/66/66
f 68/68/68 67/67/67 64/64/64
f 65/65/65 68/68/68 64/64/64
f 66/66/66 67/67/67 69/69/69
f 67/67/67 70/70/70 69/69/69
f 71/71/71 70/70/70 67/67/67
f 68/68/68 71/71/71 67/67/67
f 69/69/69 70/70/70 72/72/72
f 70/70/70 73/73/73 72/72/72
f 74/74/74 73/73/73 70/70/70
f 71/71/71 74/74/74 70/70/70
f 77/77/77 76/76/76 75/75/75
f 78/78/78 77/77/77 75/75/75
f 79/79/79 77/77/77 78/78/78
f 80/80/80 79/79/79 78/78/78
f 81/81/81 79/79/79 80/80/80
f 82/82/82 81/81/81 80/80/80
f 77/77/77 83/83/83 76/76/76
f 83/83/83 84/84/84 76/76/76
f 85/85/85 83/83/83 77/77/77
f 79/79/79 85/85/85 77/77/77
f 86/86/86 85/85/85 79/79/79
f 81/81/81 86/86/86 79/79/79
f 83/83/83 87/87/87 84/84/84
f 87/87/87 88/88/88 84/84/84
f 89/89/89 87/87/87 83/83/83
f 85/85/85 89/89/89 83/83/83
f 90/90/90 89/89/89 85/85/85
f 86/86/86 90/90/90 85/85/85
f 87/87/87 91/91/91 88/88/88
f 91/91/91 92/92/92 88/88/88
f 93/93/93 91/91/91 87/87/87
f 89/89/89 93/93/93 87/87/87
f 94/94/94 93/93/93 89/89/89
f 90/90/90 94/94/94 89/89/89
f 97/97/97 96/96/96 95/95/95
f 98/98/98 97/97/97 95/95/95
f 97/97/97 99/99/99 96/96/96
f 99/99/99 100/100/100 96/96/96
f 99/99/99 101/101/101 100/100/100
f 101/101/101 102/102/102 100/100/100
f 95/95/95 96/96/96 103/103/103
f 96/96/96 104/104/104 103/103/103
f 96/96/96 100/100/100 104/104/104
f 100/100/100 105/105/105 104/104/104
f 100/100/100 102/102/102 105/105/105
f 102/102/102 106/106/106 105/105/105
f 103/103/103 104/104/104 107/107/107
f 104/104/104 108/108/108 107/107/107
f 104/104/104 105/105/105 108/108/108
f 105/105/105 109/109/109 108/108/108
f 105/105/105 106/106/106 109/109/109
f 106/106/106 110/110/110 109/109/109
f 107/107/107 108/108/108 111/111/111
f 108/108/108 112/112/112 111/111/111
f 108/108/108 109/109/109 112/112/112
f 109/109/109 113/113/113 112/112/112
f 109/109/109 110/110/110 113/113/113
f 110/110/110 114/114/114 113/113/113
f 117/117/117 116/116/116 115/115/115
f 118/118/118 117/117/117 115/115/115
f 119/119/119 117/117/117 118/118/118
f 120/120/120 119/119/119 118/118/118
f 121/121/121 119/119/119 120/120/120
f 122/122/122 121/121/121 120/120/120
f 117/117/117 123/123/123 116/116/116
f 123/123/123 124/124/124 116/116/116
f 125/125/125 123/123/123 117/117/117
f 119/119/119 125/125/125 117/117/117
f 126/126/126 125/125/125 119/119/119
f 121/121/121 126/126/126 119/119/119
f 123/123/123 127/127/127 124/124/124
f 127/127/127 128/128/128 124/124/124
f 129/129/129 127/127/127 123/123/123
f 125/125/125 129/129/129 123/123/123
f 130/130/130 129/129/129 125/125/125
f 126/126/126 130/130/130 125/125/125
f 127/127/127 131/131/131 128/128/128
f 131/131/131 132/132/132 128/128/128
f 133/133/133 131/131/131 127/127/127
f 129/129/129 133/133/133 127/127/127
f 134/134/134 133/133/133 129/129/129
f 130/130/130 134/134/134 129/129/129
f 137/137/137 136/136/136 135/135/135
f 135/135/135 138/138/138 137/137/137
f 135/135/135 139/139/139 138/138/138
f 139/139/139 140/140/140 138/138/138
f 139/139/139 141/141/141 140/140/140
f 141/141/141 142/142/142 140/140/140
f 141/141/141 143/143/143 142/142/142
f 143/143/143 144/144/144 142/142/142
f 147/147/147 146/146/146 145/145/145
f 145/145/145 148/148/148 147/147/147
f 148/148/148 149/149/149 147/147/147
f 148/148/148 150/150/150 149/149/149
f 150/150/150 151/151/151 149/149/149
f 150/150/150 152/152/152 151/151/151
f 152/152/152 153/153/153 151/151/151
f 152/152/152 154/154/154 153/153/153
