# Export of Universe
# from Aaro4130 OBJ Exporter v2.0
mtllib 38.mtl
g CurvedRamp
v -1 -0.5468655 -0.3133055
v -1 0.9053069 -0.1668293
v -1 0.4865382 0.05700731
v -1 0.1194846 0.3582409
v -1 -0.1817486 0.725295
v -1 -0.4055851 1.144064
v -1 1.359697 -0.3046675
v -1 -0.5434225 1.598455
v -1 -0.5468655 1.633413
v -1 1.359697 -0.3046675
v -1 -0.5468655 -0.3133055
v -1 1.4474 -0.3133055
v 1 -0.5468655 -0.3133055
v 1 -0.4055836 1.144063
v 1 -0.1817471 0.7252937
v 1 0.1194858 0.3582396
v 1 0.4865394 0.05700612
v 1 0.9053081 -0.1668305
v 1 1.359699 -0.3046687
v 1 1.447389 -0.3133055
v 1 -0.4055836 1.144063
v 1 -0.5468655 -0.3133055
v 1 -0.543421 1.598453
v 1 -0.5468655 1.633424
v -1 -0.5468655 1.633413
v 1 -0.5468655 1.633424
v 1 -0.5468655 -0.3133055
v -1 -0.5468655 -0.3133055
v 1 1.447389 -0.3133055
v -1 1.4474 -0.3133055
v -1 -0.5468655 -0.3133055
v 1 -0.5468655 -0.3133055
v -1 1.359697 -0.3046675
v -1 1.4474 -0.3133055
v 1 1.447389 -0.3133055
v 1 1.359699 -0.3046687
v 1 0.9053081 -0.1668305
v -1 0.9053069 -0.1668293
v 1 0.4865394 0.05700612
v -1 0.4865382 0.05700731
v 1 0.1194858 0.3582396
v -1 0.1194846 0.3582409
v 1 -0.1817471 0.7252937
v -1 -0.1817486 0.725295
v 1 -0.4055836 1.144063
v -1 -0.4055851 1.144064
v 1 -0.543421 1.598453
v -1 -0.5434225 1.598455
v -1 -0.5468655 1.633413
v 1 -0.5468655 1.633424
vn -0.5773503 0 0
vn -0.5773503 0 0
vn -0.5773503 0 0
vn -0.5773503 0 0
vn -0.5773503 0 0
vn -0.5773503 0 0
vn -0.5773503 0 0
vn -0.5773503 0 0
vn -0.5773503 0 0
vn -0.5773503 0 0
vn -0.5773503 0 0
vn -0.5773503 0 0
vn 0.5773503 0 0
vn 0.5773503 0 0
vn 0.5773503 0 0
vn 0.5773503 0 0
vn 0.5773503 0 0
vn 0.5773503 0 0
vn 0.5773503 0 0
vn 0.5773503 0 0
vn 0.5773503 0 0
vn 0.5773503 0 0
vn 0.5773503 0 0
vn 0.5773503 0 0
vn 0 -0.5773503 0
vn 0 -0.5773503 0
vn 0 -0.5773503 0
vn 0 -0.5773503 0
vn 0 0 -0.5773503
vn 0 0 -0.5773503
vn 0 0 -0.5773503
vn 0 0 -0.5773503
vn 0 0.1126279 0.5662581
vn 0 0.05657789 0.5745714
vn 0 0.05657789 0.5745714
vn 0 0.1126279 0.5662581
vn 0 0.2209413 0.5334026
vn 0 0.2209413 0.5334026
vn 0 0.3207603 0.4800481
vn 0 0.3207603 0.4800481
vn 0 0.4082483 0.4082483
vn 0 0.4082483 0.4082483
vn 0 0.4800481 0.3207603
vn 0 0.4800481 0.3207603
vn 0 0.5334026 0.2209413
vn 0 0.5334026 0.2209413
vn 0 0.5662581 0.1126279
vn 0 0.5662581 0.1126279
vn 0 0.5745714 0.05657789
vn 0 0.5745714 0.05657789
vt 0.05640888 0.5527902
vt 0.7824951 0.6260283
vt 0.5731107 0.7379466
vt 0.389584 0.8885634
vt 0.2389672 1.07209
vt 0.127049 1.281475
vt 1.00969 0.5571092
vt 0.05813038 1.50867
vt 0.05640888 1.52615
vt 0.009690284 0.5571092
vt -0.9435911 0.5527902
vt 0.05354166 0.5527902
vt 0.05640888 0.5527902
vt 0.1270498 1.281474
vt 0.238968 1.07209
vt 0.3895846 0.8885628
vt 0.5731113 0.737946
vt 0.7824957 0.6260277
vt 1.009691 0.5571087
vt 1.053536 0.5527902
vt 0.1270498 0.2814744
vt 0.05640888 -0.4472098
vt 0.05813097 0.5086696
vt 0.05640888 0.5261552
vt -0.01191377 0.9782467
vt 0.9880864 0.9782522
vt 0.9880864 0.004887104
vt -0.01191377 0.004887104
vt 0.9902343 1.00294
vt -0.009765863 1.002945
vt -0.009765863 0.005812346
vt 0.9902343 0.005812346
vt 0.005353868 0.9220219
vt 0.004916012 0.9969723
vt 0.5974712 0.9969691
vt 0.5979096 0.9220185
vt 0.5979088 0.7813349
vt 0.005352795 0.7813384
vt 0.5979079 0.6406511
vt 0.005351543 0.6406546
vt 0.5979068 0.4999669
vt 0.005350351 0.4999707
vt 0.5979058 0.3592829
vt 0.005349159 0.3592867
vt 0.5979048 0.2185989
vt 0.005347967 0.2186025
vt 0.597904 0.07791495
vt 0.005346894 0.07791846
vt 0.000367761 0.00056237
vt 0.5976654 0.002139151
usemtl baseThingPartMaterial
f 3/3/3 2/2/2 1/1/1
f 4/4/4 3/3/3 1/1/1
f 5/5/5 4/4/4 1/1/1
f 6/6/6 5/5/5 1/1/1
f 7/7/7 1/1/1 2/2/2
f 8/8/8 6/6/6 1/1/1
f 9/9/9 8/8/8 1/1/1
f 12/12/12 11/11/11 10/10/10
f 15/15/15 14/14/14 13/13/13
f 16/16/16 15/15/15 13/13/13
f 17/17/17 16/16/16 13/13/13
f 18/18/18 17/17/17 13/13/13
f 19/19/19 18/18/18 13/13/13
f 20/20/20 19/19/19 13/13/13
f 23/23/23 22/22/22 21/21/21
f 24/24/24 22/22/22 23/23/23
f 27/27/27 26/26/26 25/25/25
f 28/28/28 27/27/27 25/25/25
f 31/31/31 30/30/30 29/29/29
f 32/32/32 31/31/31 29/29/29
f 35/35/35 34/34/34 33/33/33
f 36/36/36 35/35/35 33/33/33
f 37/37/37 36/36/36 33/33/33
f 38/38/38 37/37/37 33/33/33
f 39/39/39 37/37/37 38/38/38
f 40/40/40 39/39/39 38/38/38
f 41/41/41 39/39/39 40/40/40
f 42/42/42 41/41/41 40/40/40
f 43/43/43 41/41/41 42/42/42
f 44/44/44 43/43/43 42/42/42
f 45/45/45 43/43/43 44/44/44
f 46/46/46 45/45/45 44/44/44
f 47/47/47 45/45/45 46/46/46
f 48/48/48 47/47/47 46/46/46
f 47/47/47 48/48/48 49/49/49
f 50/50/50 47/47/47 49/49/49
