# Export of Universe
# from Aaro4130 OBJ Exporter v2.0
mtllib 45.mtl
g QuarterPipeRotated6
v -0.0482486 0.5 0.671751
v -0.0482486 0 0.671751
v 0.0698963 0 0.527792
v 0.0698963 0.5 0.527792
v 0.157686 0 0.36355
v 0.157686 0.5 0.36355
v 0.211746 0 0.185336
v 0.211746 0.5 0.185336
v 0.229999 0 5.55112E-17
v 0.229999 0.5 5.55112E-17
v 0.211746 0 -0.185336
v 0.211746 0.5 -0.185336
v 0.157686 0 -0.36355
v 0.157686 0.5 -0.36355
v 0.0698963 0 -0.527792
v 0.0698963 0.5 -0.527792
v -0.0482486 0 -0.671751
v -0.0482486 0.5 -0.671751
v 0.111469 0.5 0.55557
v -0.0128932 0.5 0.707107
v -0.0482486 0.5 0.671751
v 0.0698963 0.5 0.527792
v 0.20388 0.5 0.382684
v 0.157686 0.5 0.36355
v 0.260785 0.5 0.195091
v 0.211746 0.5 0.185336
v 0.28 0.5 1.11022E-16
v 0.229999 0.5 5.55112E-17
v 0.260785 0.5 -0.195091
v 0.211746 0.5 -0.185336
v 0.20388 0.5 -0.382684
v 0.157686 0.5 -0.36355
v 0.111469 0.5 -0.55557
v 0.0698963 0.5 -0.527792
v -0.0128932 0.5 -0.707107
v -0.0482486 0.5 -0.671751
v 0.111469 0 0.55557
v -0.0128932 0 0.707107
v -0.0128932 0.5 0.707107
v 0.111469 0.5 0.55557
v 0.20388 0 0.382684
v 0.20388 0.5 0.382684
v 0.260785 0 0.195091
v 0.260785 0.5 0.195091
v 0.28 0 1.11022E-16
v 0.28 0.5 1.11022E-16
v 0.260785 0 -0.195091
v 0.260785 0.5 -0.195091
v 0.20388 0 -0.382684
v 0.20388 0.5 -0.382684
v 0.111469 0 -0.55557
v 0.111469 0.5 -0.55557
v -0.0128932 0 -0.707107
v -0.0128932 0.5 -0.707107
v -0.0482486 0 0.671751
v -0.0128932 0 0.707107
v 0.111469 0 0.55557
v 0.0698963 0 0.527792
v 0.20388 0 0.382684
v 0.157686 0 0.36355
v 0.260785 0 0.195091
v 0.211746 0 0.185336
v 0.28 0 1.11022E-16
v 0.229999 0 5.55112E-17
v 0.260785 0 -0.195091
v 0.211746 0 -0.185336
v 0.20388 0 -0.382684
v 0.157686 0 -0.36355
v 0.111469 0 -0.55557
v 0.0698963 0 -0.527792
v -0.0128932 0 -0.707107
v -0.0482486 0 -0.671751
v -0.0482486 0 0.671751
v -0.0482486 0.5 0.671751
v -0.0128932 0.5 0.707107
v -0.0128932 0 0.707107
v -0.0128932 0.5 -0.707107
v -0.0482486 0.5 -0.671751
v -0.0482486 0 -0.671751
v -0.0128932 0 -0.707107
vn -0.4462966 0 -0.3662685
vn -0.4462966 0 -0.3662685
vn -0.4800483 0 -0.32076
vn -0.4800483 0 -0.32076
vn -0.5334021 0 -0.2209422
vn -0.5334021 0 -0.2209422
vn -0.5662571 0 -0.112633
vn -0.5662571 0 -0.112633
vn -0.5773503 0 0
vn -0.5773503 0 0
vn -0.5662571 0 0.112633
vn -0.5662571 0 0.112633
vn -0.5334021 0 0.2209422
vn -0.5334021 0 0.2209422
vn -0.4800483 0 0.32076
vn -0.4800483 0 0.32076
vn -0.4462966 0 0.3662685
vn -0.4462966 0 0.3662685
vn 0 0.5773503 0
vn 0 0.5773503 0
vn 0 0.5773503 0
vn 0 0.5773503 0
vn 0 0.5773503 0
vn 0 0.5773503 0
vn 0 0.5773503 0
vn 0 0.5773503 0
vn 0 0.5773503 0
vn 0 0.5773503 0
vn 0 0.5773503 0
vn 0 0.5773503 0
vn 0 0.5773503 0
vn 0 0.5773503 0
vn 0 0.5773503 0
vn 0 0.5773503 0
vn 0 0.5773503 0
vn 0 0.5773503 0
vn 0.4800488 0 0.3207593
vn 0.4462992 0 0.3662653
vn 0.4462992 0 0.3662653
vn 0.4800488 0 0.3207593
vn 0.5334017 0 0.2209433
vn 0.5334017 0 0.2209433
vn 0.5662567 0 0.1126348
vn 0.5662567 0 0.1126348
vn 0.5773503 0 0
vn 0.5773503 0 0
vn 0.5662567 0 -0.1126348
vn 0.5662567 0 -0.1126348
vn 0.5334017 0 -0.2209433
vn 0.5334017 0 -0.2209433
vn 0.4800488 0 -0.3207593
vn 0.4800488 0 -0.3207593
vn 0.4462992 0 -0.3662653
vn 0.4462992 0 -0.3662653
vn 0 -0.5773503 0
vn 0 -0.5773503 0
vn 0 -0.5773503 0
vn 0 -0.5773503 0
vn 0 -0.5773503 0
vn 0 -0.5773503 0
vn 0 -0.5773503 0
vn 0 -0.5773503 0
vn 0 -0.5773503 0
vn 0 -0.5773503 0
vn 0 -0.5773503 0
vn 0 -0.5773503 0
vn 0 -0.5773503 0
vn 0 -0.5773503 0
vn 0 -0.5773503 0
vn 0 -0.5773503 0
vn 0 -0.5773503 0
vn 0 -0.5773503 0
vn -0.4082516 0 0.4082449
vn -0.4082516 0 0.4082449
vn -0.4082516 0 0.4082449
vn -0.4082516 0 0.4082449
vn -0.4082516 0 -0.4082449
vn -0.4082516 0 -0.4082449
vn -0.4082516 0 -0.4082449
vn -0.4082516 0 -0.4082449
vt 0.0250004 1
vt 0.0250004 0
vt 0.126795 0
vt 0.126795 1
vt 0.242931 0
vt 0.242931 1
vt 0.368948 0
vt 0.368948 1
vt 0.5 0
vt 0.5 1
vt 0.631052 0
vt 0.631052 1
vt 0.757069 0
vt 0.757069 1
vt 0.873205 0
vt 0.873205 1
vt 0.975 0
vt 0.975 1
vt 0.486575 0.107153
vt 0.107709 0
vt 0 0.0250004
vt 0.359925 0.126795
vt 0.768103 0.229402
vt 0.627374 0.242931
vt 0.941462 0.36205
vt 0.792066 0.368948
vt 1 0.5
vt 0.847673 0.5
vt 0.941462 0.63795
vt 0.792066 0.631052
vt 0.768103 0.770598
vt 0.627374 0.757069
vt 0.486575 0.892847
vt 0.359925 0.873205
vt 0.107709 1
vt 0 0.975
vt 0.107153 0
vt 0 0
vt 0 1
vt 0.107153 1
vt 0.229402 0
vt 0.229402 1
vt 0.36205 0
vt 0.36205 1
vt 0.5 0
vt 0.5 1
vt 0.63795 0
vt 0.63795 1
vt 0.770598 0
vt 0.770598 1
vt 0.892847 0
vt 0.892847 1
vt 1 0
vt 1 1
vt 0 0.0250004
vt 0.107709 0
vt 0.486575 0.107153
vt 0.359925 0.126795
vt 0.768103 0.229402
vt 0.627374 0.242931
vt 0.941462 0.36205
vt 0.792066 0.368948
vt 1 0.5
vt 0.847673 0.5
vt 0.941462 0.63795
vt 0.792066 0.631052
vt 0.768103 0.770598
vt 0.627374 0.757069
vt 0.486575 0.892847
vt 0.359925 0.873205
vt 0.107709 1
vt 0 0.975
vt 0.0250004 0
vt 0.0250004 1
vt 0 1
vt 0 0
vt 1 1
vt 0.975 1
vt 0.975 0
vt 1 0
usemtl baseThingPartMaterial
f 3/3/3 2/2/2 1/1/1
f 4/4/4 3/3/3 1/1/1
f 5/5/5 3/3/3 4/4/4
f 6/6/6 5/5/5 4/4/4
f 7/7/7 5/5/5 6/6/6
f 8/8/8 7/7/7 6/6/6
f 9/9/9 7/7/7 8/8/8
f 10/10/10 9/9/9 8/8/8
f 11/11/11 9/9/9 10/10/10
f 12/12/12 11/11/11 10/10/10
f 13/13/13 11/11/11 12/12/12
f 14/14/14 13/13/13 12/12/12
f 15/15/15 13/13/13 14/14/14
f 16/16/16 15/15/15 14/14/14
f 17/17/17 15/15/15 16/16/16
f 18/18/18 17/17/17 16/16/16
f 21/21/21 20/20/20 19/19/19
f 22/22/22 21/21/21 19/19/19
f 22/22/22 19/19/19 23/23/23
f 24/24/24 22/22/22 23/23/23
f 24/24/24 23/23/23 25/25/25
f 26/26/26 24/24/24 25/25/25
f 26/26/26 25/25/25 27/27/27
f 28/28/28 26/26/26 27/27/27
f 28/28/28 27/27/27 29/29/29
f 30/30/30 28/28/28 29/29/29
f 30/30/30 29/29/29 31/31/31
f 32/32/32 30/30/30 31/31/31
f 32/32/32 31/31/31 33/33/33
f 34/34/34 32/32/32 33/33/33
f 34/34/34 33/33/33 35/35/35
f 36/36/36 34/34/34 35/35/35
f 39/39/39 38/38/38 37/37/37
f 40/40/40 39/39/39 37/37/37
f 40/40/40 37/37/37 41/41/41
f 42/42/42 40/40/40 41/41/41
f 42/42/42 41/41/41 43/43/43
f 44/44/44 42/42/42 43/43/43
f 44/44/44 43/43/43 45/45/45
f 46/46/46 44/44/44 45/45/45
f 46/46/46 45/45/45 47/47/47
f 48/48/48 46/46/46 47/47/47
f 48/48/48 47/47/47 49/49/49
f 50/50/50 48/48/48 49/49/49
f 50/50/50 49/49/49 51/51/51
f 52/52/52 50/50/50 51/51/51
f 52/52/52 51/51/51 53/53/53
f 54/54/54 52/52/52 53/53/53
f 57/57/57 56/56/56 55/55/55
f 58/58/58 57/57/57 55/55/55
f 59/59/59 57/57/57 58/58/58
f 60/60/60 59/59/59 58/58/58
f 61/61/61 59/59/59 60/60/60
f 62/62/62 61/61/61 60/60/60
f 63/63/63 61/61/61 62/62/62
f 64/64/64 63/63/63 62/62/62
f 65/65/65 63/63/63 64/64/64
f 66/66/66 65/65/65 64/64/64
f 67/67/67 65/65/65 66/66/66
f 68/68/68 67/67/67 66/66/66
f 69/69/69 67/67/67 68/68/68
f 70/70/70 69/69/69 68/68/68
f 71/71/71 69/69/69 70/70/70
f 72/72/72 71/71/71 70/70/70
f 75/75/75 74/74/74 73/73/73
f 76/76/76 75/75/75 73/73/73
f 79/79/79 78/78/78 77/77/77
f 80/80/80 79/79/79 77/77/77
