# Export of Universe
# from Aaro4130 OBJ Exporter v2.0
mtllib 5.mtl
g Cylinder
v -1.386057 0.000499073 0.4149944
v -1.385183 -2.81096E-06 -0.3840755
v -1.271231 0.5483748 -0.3840757
v -1.272154 0.548848 0.4149931
v -1.284872 -0.5213122 0.4149963
v -1.28476 -0.5189009 -0.384076
v -0.980179 0.9801532 -0.3840715
v -0.9805899 0.9809695 0.4149617
v -0.9825876 -0.9820443 0.4149653
v -0.9817175 -0.9817556 -0.3840719
v -0.5621991 -1.266392 0.4150296
v -0.5619835 -1.265391 -0.3840801
v -0.000107123 -1.383425 0.4150669
v -1.4814E-05 -1.382531 -0.3840844
v -0.5371603 1.272865 -0.3840799
v -0.5380955 1.273666 0.4150266
v -1.38853E-05 1.379434 -0.3840839
v -0.000105638 1.380409 0.4150614
v 0.5653074 1.261179 -0.3840795
v 0.5659431 1.262088 0.4150238
v 0.9805418 0.9805014 -0.3840717
v 0.9808597 0.9813988 0.4149625
v 1.293016 0.4965987 -0.3840759
v 1.294756 0.4949193 0.4149956
v 1.385891 -1.94763E-06 -0.3840757
v 1.386753 0.000500452 0.4149956
v 1.271509 -0.5524883 -0.384076
v 1.27244 -0.5528185 0.4149965
v 0.9820808 -0.9821043 -0.384072
v 0.9828583 -0.9824743 0.4149661
v 0.5330172 -1.277941 -0.3840805
v 0.5328886 -1.279076 0.4150335
v -1.4814E-05 -1.382531 -0.3840844
v -0.000107123 -1.383425 0.4150669
v 0 0 -0.3840759
v 0.5653074 1.261179 -0.3840795
v -1.38853E-05 1.379434 -0.3840839
v 0.9805418 0.9805014 -0.3840717
v 1.293016 0.4965987 -0.3840759
v 1.385891 -1.94763E-06 -0.3840757
v -1.4814E-05 -1.382531 -0.3840844
v 1.271509 -0.5524883 -0.384076
v 0.9820808 -0.9821043 -0.384072
v -1.385183 -2.81096E-06 -0.3840755
v -1.28476 -0.5189009 -0.384076
v -0.9817175 -0.9817556 -0.3840719
v -0.5371603 1.272865 -0.3840799
v -0.980179 0.9801532 -0.3840715
v -1.271231 0.5483748 -0.3840757
v -1.4814E-05 -1.382531 -0.3840844
v 0.5330172 -1.277941 -0.3840805
v 0.9820808 -0.9821043 -0.384072
v -0.9817175 -0.9817556 -0.3840719
v -0.5619835 -1.265391 -0.3840801
v -1.4814E-05 -1.382531 -0.3840844
v -0.000449751 -0.007279992 0.4150111
v -0.000107123 -1.383425 0.4150669
v -0.5621991 -1.266392 0.4150296
v 0.5328886 -1.279076 0.4150335
v 0.9828583 -0.9824743 0.4149661
v 1.27244 -0.5528185 0.4149965
v 1.386753 0.000500452 0.4149956
v 0.01964116 0.000512604 0.4150111
v 1.294756 0.4949193 0.4149956
v 0.9808597 0.9813988 0.4149625
v 0.5659431 1.262088 0.4150238
v -0.000105638 1.380409 0.4150614
v -0.5380955 1.273666 0.4150266
v -0.9805899 0.9809695 0.4149617
v -1.272154 0.548848 0.4149931
v -0.9825876 -0.9820443 0.4149653
v -1.284872 -0.5213122 0.4149963
v -1.386057 0.000499073 0.4149944
v -0.01826214 0.000512745 0.4150111
v -1.272154 0.548848 0.4149931
v -0.000449751 -0.007279992 0.4150111
v -0.01826214 0.000512745 0.4150111
v 1.294756 0.4949193 0.4149956
v 0.01964116 0.000512604 0.4150111
vn -0.5773365 0.00392924 -0.000599061
vn -0.5773372 0.003841147 -0.0005990616
vn -0.5319826 0.2243377 -0.0006871581
vn -0.5319799 0.224344 -0.0006871775
vn -0.5348482 -0.2174175 -0.000651933
vn -0.5349996 -0.2170446 -0.0006519242
vn -0.4063759 0.4101115 -0.0007047887
vn -0.4063405 0.4101466 -0.0007047884
vn -0.4111887 -0.4052858 -0.0007224122
vn -0.4111362 -0.4053391 -0.0007224129
vn -0.224766 -0.5318018 -0.0006519352
vn -0.2248172 -0.5317802 -0.0006519304
vn -0.003418295 -0.5773397 -0.0007047819
vn -0.003400676 -0.5773398 -0.0007047819
vn -0.2194438 0.5340198 -0.0007400318
vn -0.2195315 0.5339838 -0.0007400306
vn 0.002960166 0.5773423 -0.0007047849
vn 0.002942546 0.5773423 -0.0007047851
vn 0.2249919 0.5317062 -0.0007224045
vn 0.2250282 0.5316908 -0.0007224076
vn 0.4126119 0.403837 -0.0005990676
vn 0.4125596 0.4038905 -0.0005990684
vn 0.5363446 0.2136991 -0.0006695508
vn 0.5364934 0.2133252 -0.0006695386
vn 0.5773219 -0.005673664 -0.0007400205
vn 0.5773228 -0.00558554 -0.0007400217
vn 0.5321237 -0.2240029 -0.0006342998
vn 0.5321299 -0.223988 -0.0006343073
vn 0.4061281 -0.410357 -0.0006166882
vn 0.4061636 -0.4103219 -0.0006166886
vn 0.2185234 -0.5343973 -0.0006519203
vn 0.2184355 -0.5344332 -0.000651921
vn -0.003400676 -0.5773398 -0.0007047819
vn -0.003418295 -0.5773397 -0.0007047819
vn 0 0 -0.5773503
vn 0 0 -0.5773503
vn 0 0 -0.5773503
vn 0 0 -0.5773503
vn 0 0 -0.5773503
vn 0 0 -0.5773503
vn 0 0 -0.5773503
vn 0 0 -0.5773503
vn 0 0 -0.5773503
vn 0 0 -0.5773503
vn 0 0 -0.5773503
vn 0 0 -0.5773503
vn 0 0 -0.5773503
vn 0 0 -0.5773503
vn 0 0 -0.5773503
vn 0 0 -0.5773503
vn 0 0 -0.5773503
vn 0 0 -0.5773503
vn 0 0 -0.5773503
vn 0 0 -0.5773503
vn 0 0 -0.5773503
vn 0 0 0.5773503
vn 0 1.761986E-05 0.5773503
vn -3.523973E-05 1.761986E-05 0.5773503
vn 3.523973E-05 1.761986E-05 0.5773503
vn 1.761986E-05 0 0.5773503
vn 0 -1.761986E-05 0.5773503
vn 0 0 0.5773503
vn 0 0 0.5773503
vn 0 1.761986E-05 0.5773503
vn 1.761986E-05 0 0.5773503
vn 3.523973E-05 -1.761986E-05 0.5773503
vn 0 -1.761986E-05 0.5773503
vn -3.523973E-05 -1.761986E-05 0.5773503
vn -1.761986E-05 0 0.5773503
vn 0 1.761986E-05 0.5773503
vn -1.761986E-05 0 0.5773503
vn 0 0 0.5773503
vn 0 0 0.5773503
vn 0 1.761986E-05 0.5773503
vn 0 1.761986E-05 0.5773503
vn 0 0 0.5773503
vn 0 1.761986E-05 0.5773503
vn 0 1.761986E-05 0.5773503
vn 0 0 0.5773503
vt 0.2511795 0.003321766
vt 0.2499568 0.9989452
vt 0.3146073 0.9993773
vt 0.3156893 0.003753244
vt 0.1898328 0.002657651
vt 0.1888349 0.9982837
vt 0.3760592 0.9997881
vt 0.3771068 0.004164099
vt 0.1252543 0.001958668
vt 0.1238564 0.9975805
vt 0.06524008 0.001010358
vt 0.06382185 0.9966319
vt 0.001570105 4.35114E-06
vt 0 0.9956235
vt 0.4388681 0.9998955
vt 0.4397543 0.004271745
vt 0.4999233 1
vt 0.500799 0.004376709
vt 0.5642897 0.9998887
vt 0.5651394 0.004265844
vt 0.6237851 0.9997857
vt 0.624489 0.004163622
vt 0.6914104 0.9993324
vt 0.6923301 0.003709435
vt 0.7498812 0.9989406
vt 0.75041 0.003320634
vt 0.8149607 0.9982351
vt 0.8154498 0.002615869
vt 0.8759722 0.9975737
vt 0.8763256 0.001956224
vt 0.9394065 0.9965703
vt 0.9397459 0.000953086
vt 0.9998188 0.9956147
vt 1 0
vt 0.5 0.4999999
vt 0.6960407 0.9312574
vt 0.5100754 1
vt 0.8679327 0.8677172
vt 0.9387603 0.6646401
vt 1 0.4890542
vt 0.4899246 0
vt 0.924023 0.2967699
vt 0.8527953 0.1165049
vt 0 0.5109457
vt 0.06401407 0.3274045
vt 0.1320672 0.1322827
vt 0.3312087 0.9425721
vt 0.1472047 0.8834949
vt 0.07546925 0.7019451
vt 0.4899246 0
vt 0.6669328 0.05683106
vt 0.8527953 0.1165049
vt 0.1320672 0.1322827
vt 0.3055246 0.06816387
vt 0.4899246 0
vt 0.4998437 0.4885484
vt 0.49155 0.07164579
vt 0.3370519 0.1287565
vt 0.6398196 0.11925
vt 0.7958801 0.1693556
vt 0.8555672 0.3204131
vt 0.919337 0.4818029
vt 0.5059151 0.4908512
vt 0.8682492 0.6282812
vt 0.8085753 0.7993776
vt 0.6645676 0.8526105
vt 0.50845 0.9103199
vt 0.3582566 0.862098
vt 0.20412 0.8126101
vt 0.1439073 0.6602228
vt 0.1914245 0.1825881
vt 0.1346223 0.3454507
vt 0.0806629 0.5001628
vt 0.4945536 0.4911
vt 0.1439073 0.6602228
vt 0.4998437 0.4885484
vt 0.4945536 0.4911
vt 0.8682492 0.6282812
vt 0.5059151 0.4908512
usemtl baseThingPartMaterial
f 3/3/3 2/2/2 1/1/1
f 4/4/4 3/3/3 1/1/1
f 5/5/5 1/1/1 2/2/2
f 6/6/6 5/5/5 2/2/2
f 7/7/7 3/3/3 4/4/4
f 8/8/8 7/7/7 4/4/4
f 9/9/9 5/5/5 6/6/6
f 10/10/10 9/9/9 6/6/6
f 11/11/11 9/9/9 10/10/10
f 12/12/12 11/11/11 10/10/10
f 13/13/13 11/11/11 12/12/12
f 14/14/14 13/13/13 12/12/12
f 15/15/15 7/7/7 8/8/8
f 16/16/16 15/15/15 8/8/8
f 17/17/17 15/15/15 16/16/16
f 18/18/18 17/17/17 16/16/16
f 19/19/19 17/17/17 18/18/18
f 20/20/20 19/19/19 18/18/18
f 21/21/21 19/19/19 20/20/20
f 22/22/22 21/21/21 20/20/20
f 23/23/23 21/21/21 22/22/22
f 24/24/24 23/23/23 22/22/22
f 25/25/25 23/23/23 24/24/24
f 26/26/26 25/25/25 24/24/24
f 27/27/27 25/25/25 26/26/26
f 28/28/28 27/27/27 26/26/26
f 29/29/29 27/27/27 28/28/28
f 30/30/30 29/29/29 28/28/28
f 31/31/31 29/29/29 30/30/30
f 32/32/32 31/31/31 30/30/30
f 33/33/33 31/31/31 32/32/32
f 34/34/34 33/33/33 32/32/32
f 37/37/37 36/36/36 35/35/35
f 36/36/36 38/38/38 35/35/35
f 38/38/38 39/39/39 35/35/35
f 39/39/39 40/40/40 35/35/35
f 35/35/35 40/40/40 41/41/41
f 40/40/40 42/42/42 41/41/41
f 42/42/42 43/43/43 41/41/41
f 35/35/35 41/41/41 44/44/44
f 44/44/44 41/41/41 45/45/45
f 45/45/45 41/41/41 46/46/46
f 37/37/37 35/35/35 47/47/47
f 47/47/47 35/35/35 48/48/48
f 48/48/48 35/35/35 49/49/49
f 49/49/49 35/35/35 44/44/44
f 52/52/52 51/51/51 50/50/50
f 55/55/55 54/54/54 53/53/53
f 58/58/58 57/57/57 56/56/56
f 56/56/56 57/57/57 59/59/59
f 59/59/59 60/60/60 56/56/56
f 56/56/56 60/60/60 61/61/61
f 61/61/61 62/62/62 56/56/56
f 62/62/62 63/63/63 56/56/56
f 62/62/62 64/64/64 63/63/63
f 64/64/64 65/65/65 56/56/56
f 56/56/56 65/65/65 66/66/66
f 66/66/66 67/67/67 56/56/56
f 56/56/56 67/67/67 68/68/68
f 68/68/68 69/69/69 56/56/56
f 56/56/56 69/69/69 70/70/70
f 58/58/58 56/56/56 71/71/71
f 71/71/71 56/56/56 72/72/72
f 72/72/72 56/56/56 73/73/73
f 56/56/56 74/74/74 73/73/73
f 73/73/73 74/74/74 70/70/70
f 77/77/77 76/76/76 75/75/75
f 79/79/79 78/78/78 76/76/76
