# Export of Universe
# from Aaro4130 OBJ Exporter v2.0
mtllib 52.mtl
g Hexagon
v 0.5000002 -0.5 -0.8660253
v 0.5000002 0.5 -0.8660253
v -0.4999999 0.5 -0.8660255
v -0.4999999 -0.5 -0.8660255
v -0.4999999 -0.5 -0.8660255
v -0.4999999 0.5 -0.8660255
v -1 0.5 -1.490116E-07
v -1 -0.5 -1.490116E-07
v -1 -0.5 -1.490116E-07
v -1 0.5 -1.490116E-07
v -0.5000001 0.5 0.8660254
v -0.5000001 -0.5 0.8660254
v -0.5000001 -0.5 0.8660254
v -0.5000001 0.5 0.8660254
v 0.5 0.5 0.8660254
v 0.5 -0.5 0.8660254
v 0.5 -0.5 0.8660254
v 0.5 0.5 0.8660254
v 1 0.5 0
v 1 -0.5 0
v 1 -0.5 0
v 1 0.5 0
v 0.5000002 0.5 -0.8660253
v 0.5000002 -0.5 -0.8660253
v -0.4999999 -0.5 -0.8660255
v 0 -0.5 0
v 0.5000002 -0.5 -0.8660253
v -1 -0.5 -1.490116E-07
v -0.5000001 -0.5 0.8660254
v 0.5 -0.5 0.8660254
v 1 -0.5 0
v 0.5000002 0.5 -0.8660253
v 0 0.5 0
v -0.4999999 0.5 -0.8660255
v -1 0.5 -1.490116E-07
v -0.5000001 0.5 0.8660254
v 0.5 0.5 0.8660254
v 1 0.5 0
vn 0 0 -0.5773503
vn 0 0 -0.5773503
vn 0 0 -0.5773503
vn 0 0 -0.5773503
vn -0.4999999 0 -0.2886752
vn -0.4999999 0 -0.2886752
vn -0.4999999 0 -0.2886752
vn -0.4999999 0 -0.2886752
vn -0.5000001 0 0.2886751
vn -0.5000001 0 0.2886751
vn -0.5000001 0 0.2886751
vn -0.5000001 0 0.2886751
vn 0 0 0.5773503
vn 0 0 0.5773503
vn 0 0 0.5773503
vn 0 0 0.5773503
vn 0.5 0 0.2886751
vn 0.5 0 0.2886751
vn 0.5 0 0.2886751
vn 0.5 0 0.2886751
vn 0.5000001 0 -0.288675
vn 0.5000001 0 -0.288675
vn 0.5000001 0 -0.288675
vn 0.5000001 0 -0.288675
vn 0 -0.5773503 0
vn 0 -0.5773503 0
vn 0 -0.5773503 0
vn 0 -0.5773503 0
vn 0 -0.5773503 0
vn 0 -0.5773503 0
vn 0 -0.5773503 0
vn 0 0.5773503 0
vn 0 0.5773503 0
vn 0 0.5773503 0
vn 0 0.5773503 0
vn 0 0.5773503 0
vn 0 0.5773503 0
vn 0 0.5773503 0
vt 0.4266636 0.5000001
vt 0.179525 0.5000001
vt 0.179525 0.7471386
vt 0.4266636 0.7471386
vt 0.6852663 0.9280586
vt 0.9324059 0.9280586
vt 0.9324059 0.7140298
vt 0.6852663 0.7140298
vt 0.6852663 0.7140298
vt 0.9324059 0.7140298
vt 0.9324059 0.5000006
vt 0.6852663 0.5000006
vt 0.001861142 0.7508684
vt 0.001861142 0.9980081
vt 0.2490008 0.9980081
vt 0.2490008 0.7508684
vt 0.4323957 0.9280584
vt 0.6795343 0.9280584
vt 0.6795343 0.7140295
vt 0.4323957 0.7140295
vt 0.4323957 0.7140295
vt 0.6795343 0.7140295
vt 0.6795343 0.5000006
vt 0.4323957 0.5000006
vt 0.001861142 0.3727015
vt 0.21589 0.2491317
vt 0.001861142 0.1255619
vt 0.21589 0.4962713
vt 0.4299189 0.3727015
vt 0.4299189 0.1255619
vt 0.21589 0.001992064
vt 0.8652825 0.1255619
vt 0.6512536 0.2491312
vt 0.8652825 0.3727004
vt 0.6512536 0.4962708
vt 0.4372248 0.3727004
vt 0.4372248 0.1255619
vt 0.6512536 0.001991527
usemtl baseThingPartMaterial
f 3/3/3 2/2/2 1/1/1
f 4/4/4 3/3/3 1/1/1
f 7/7/7 6/6/6 5/5/5
f 8/8/8 7/7/7 5/5/5
f 11/11/11 10/10/10 9/9/9
f 12/12/12 11/11/11 9/9/9
f 15/15/15 14/14/14 13/13/13
f 16/16/16 15/15/15 13/13/13
f 19/19/19 18/18/18 17/17/17
f 20/20/20 19/19/19 17/17/17
f 23/23/23 22/22/22 21/21/21
f 24/24/24 23/23/23 21/21/21
f 27/27/27 26/26/26 25/25/25
f 25/25/25 26/26/26 28/28/28
f 28/28/28 26/26/26 29/29/29
f 29/29/29 26/26/26 30/30/30
f 30/30/30 26/26/26 31/31/31
f 31/31/31 26/26/26 27/27/27
f 34/34/34 33/33/33 32/32/32
f 35/35/35 33/33/33 34/34/34
f 36/36/36 33/33/33 35/35/35
f 37/37/37 33/33/33 36/36/36
f 38/38/38 33/33/33 37/37/37
f 32/32/32 33/33/33 38/38/38
