# Export of Universe
# from Aaro4130 OBJ Exporter v2.0
mtllib 60.mtl
g CubeBevel1
v -0.450005 -0.5 0.4500051
v -0.450005 -0.5 -0.4500051
v -0.5 -0.450005 -0.4500051
v -0.5 -0.450005 0.4500051
v -0.450005 -0.450005 0.5
v 0.450005 -0.450005 0.5
v 0.450005 -0.5 0.4500051
v -0.450005 -0.5 0.4500051
v -0.5 -0.450005 0.4500051
v -0.5 0.450005 0.4500051
v -0.450005 0.450005 0.5
v -0.450005 -0.450005 0.5
v 0.5 -0.450005 0.4500051
v 0.5 -0.450005 -0.4500051
v 0.450005 -0.5 -0.4500051
v 0.450005 -0.5 0.4500051
v 0.450005 -0.450005 0.5
v 0.450005 0.450005 0.5
v 0.5 0.450005 0.4500051
v 0.5 -0.450005 0.4500051
v -0.5 0.450005 0.4500051
v -0.5 0.450005 -0.4500051
v -0.450005 0.5 -0.4500051
v -0.450005 0.5 0.4500051
v -0.450005 0.5 0.4500051
v 0.450005 0.5 0.4500051
v 0.450005 0.450005 0.5
v -0.450005 0.450005 0.5
v 0.450005 0.5 0.4500051
v 0.450005 0.5 -0.4500051
v 0.5 0.450005 -0.4500051
v 0.5 0.450005 0.4500051
v -0.5 0.450005 -0.4500051
v -0.5 -0.450005 -0.4500051
v -0.450005 -0.450005 -0.5
v -0.450005 0.450005 -0.5
v -0.450005 0.450005 -0.5
v 0.450005 0.450005 -0.5
v 0.450005 0.5 -0.4500051
v -0.450005 0.5 -0.4500051
v 0.450005 0.450005 -0.5
v 0.450005 -0.450005 -0.5
v 0.5 -0.450005 -0.4500051
v 0.5 0.450005 -0.4500051
v -0.450005 -0.5 -0.4500051
v 0.450005 -0.5 -0.4500051
v 0.450005 -0.450005 -0.5
v -0.450005 -0.450005 -0.5
v -0.450005 -0.450005 0.5
v -0.450005 0.450005 0.5
v 0.450005 0.450005 0.5
v 0.450005 -0.450005 0.5
v -0.450005 0.5 0.4500051
v -0.450005 0.5 -0.4500051
v 0.450005 0.5 -0.4500051
v 0.450005 0.5 0.4500051
v -0.450005 0.450005 -0.5
v -0.450005 -0.450005 -0.5
v 0.450005 -0.450005 -0.5
v 0.450005 0.450005 -0.5
v -0.450005 -0.5 -0.4500051
v -0.450005 -0.5 0.4500051
v 0.450005 -0.5 0.4500051
v 0.450005 -0.5 -0.4500051
v 0.5 -0.450005 0.4500051
v 0.5 0.450005 0.4500051
v 0.5 0.450005 -0.4500051
v 0.5 -0.450005 -0.4500051
v -0.5 -0.450005 -0.4500051
v -0.5 0.450005 -0.4500051
v -0.5 0.450005 0.4500051
v -0.5 -0.450005 0.4500051
v -0.450005 -0.5 0.4500051
v -0.5 -0.450005 0.4500051
v -0.450005 -0.450005 0.5
v 0.5 -0.450005 0.4500051
v 0.450005 -0.5 0.4500051
v 0.450005 -0.450005 0.5
v -0.5 0.450005 0.4500051
v -0.450005 0.5 0.4500051
v -0.450005 0.450005 0.5
v 0.450005 0.5 0.4500051
v 0.5 0.450005 0.4500051
v 0.450005 0.450005 0.5
v -0.5 0.450005 -0.4500051
v -0.450005 0.450005 -0.5
v -0.450005 0.5 -0.4500051
v 0.450005 0.450005 -0.5
v 0.5 0.450005 -0.4500051
v 0.450005 0.5 -0.4500051
v -0.5 -0.450005 -0.4500051
v -0.450005 -0.5 -0.4500051
v -0.450005 -0.450005 -0.5
v 0.450005 -0.5 -0.4500051
v 0.5 -0.450005 -0.4500051
v 0.450005 -0.450005 -0.5
vn -0.4082482 -0.4082483 0
vn -0.4082482 -0.4082483 0
vn -0.4082482 -0.4082483 0
vn -0.4082482 -0.4082483 0
vn 0 -0.4082481 0.4082485
vn 0 -0.4082481 0.4082485
vn 0 -0.4082481 0.4082485
vn 0 -0.4082481 0.4082485
vn -0.4082481 0 0.4082485
vn -0.4082481 0 0.4082485
vn -0.4082481 0 0.4082485
vn -0.4082481 0 0.4082485
vn 0.4082482 -0.4082483 0
vn 0.4082482 -0.4082483 0
vn 0.4082482 -0.4082483 0
vn 0.4082482 -0.4082483 0
vn 0.4082481 0 0.4082485
vn 0.4082481 0 0.4082485
vn 0.4082481 0 0.4082485
vn 0.4082481 0 0.4082485
vn -0.4082482 0.4082483 0
vn -0.4082482 0.4082483 0
vn -0.4082482 0.4082483 0
vn -0.4082482 0.4082483 0
vn 0 0.4082481 0.4082485
vn 0 0.4082481 0.4082485
vn 0 0.4082481 0.4082485
vn 0 0.4082481 0.4082485
vn 0.4082482 0.4082483 0
vn 0.4082482 0.4082483 0
vn 0.4082482 0.4082483 0
vn 0.4082482 0.4082483 0
vn -0.4082481 0 -0.4082485
vn -0.4082481 0 -0.4082485
vn -0.4082481 0 -0.4082485
vn -0.4082481 0 -0.4082485
vn 0 0.4082481 -0.4082485
vn 0 0.4082481 -0.4082485
vn 0 0.4082481 -0.4082485
vn 0 0.4082481 -0.4082485
vn 0.4082481 0 -0.4082485
vn 0.4082481 0 -0.4082485
vn 0.4082481 0 -0.4082485
vn 0.4082481 0 -0.4082485
vn 0 -0.4082481 -0.4082485
vn 0 -0.4082481 -0.4082485
vn 0 -0.4082481 -0.4082485
vn 0 -0.4082481 -0.4082485
vn 0 0 0.5773503
vn 0 0 0.5773503
vn 0 0 0.5773503
vn 0 0 0.5773503
vn 0 0.5773503 0
vn 0 0.5773503 0
vn 0 0.5773503 0
vn 0 0.5773503 0
vn 0 0 -0.5773503
vn 0 0 -0.5773503
vn 0 0 -0.5773503
vn 0 0 -0.5773503
vn 0 -0.5773503 0
vn 0 -0.5773503 0
vn 0 -0.5773503 0
vn 0 -0.5773503 0
vn 0.5773503 0 0
vn 0.5773503 0 0
vn 0.5773503 0 0
vn 0.5773503 0 0
vn -0.5773503 0 0
vn -0.5773503 0 0
vn -0.5773503 0 0
vn -0.5773503 0 0
vn -0.3333333 -0.3333333 0.3333333
vn -0.3333333 -0.3333333 0.3333333
vn -0.3333333 -0.3333333 0.3333333
vn 0.3333333 -0.3333333 0.3333333
vn 0.3333333 -0.3333333 0.3333333
vn 0.3333333 -0.3333333 0.3333333
vn -0.3333333 0.3333333 0.3333333
vn -0.3333333 0.3333333 0.3333333
vn -0.3333333 0.3333333 0.3333333
vn 0.3333333 0.3333333 0.3333333
vn 0.3333333 0.3333333 0.3333333
vn 0.3333333 0.3333333 0.3333333
vn -0.3333333 0.3333333 -0.3333333
vn -0.3333333 0.3333333 -0.3333333
vn -0.3333333 0.3333333 -0.3333333
vn 0.3333333 0.3333333 -0.3333333
vn 0.3333333 0.3333333 -0.3333333
vn 0.3333333 0.3333333 -0.3333333
vn -0.3333333 -0.3333333 -0.3333333
vn -0.3333333 -0.3333333 -0.3333333
vn -0.3333333 -0.3333333 -0.3333333
vn 0.3333333 -0.3333333 -0.3333333
vn 0.3333333 -0.3333333 -0.3333333
vn 0.3333333 -0.3333333 -0.3333333
vt 0.3256933 0.001992163
vt 0.01892351 0.001992163
vt 0.01892351 0.01903326
vt 0.3256933 0.01903326
vt 0.3501491 0.3428434
vt 0.6569189 0.3428434
vt 0.6569189 0.3258023
vt 0.3501491 0.3258023
vt 0.3256933 0.01903326
vt 0.3256933 0.325803
vt 0.3427344 0.325803
vt 0.3427344 0.01903326
vt 0.6192814 0.3636563
vt 0.9260499 0.3636563
vt 0.9260499 0.3466153
vt 0.6192814 0.3466153
vt 0.6022406 0.3636563
vt 0.6022406 0.6704261
vt 0.6192814 0.6704261
vt 0.6192814 0.3636563
vt 0.3256933 0.325803
vt 0.01892351 0.325803
vt 0.01892351 0.3428437
vt 0.3256933 0.3428437
vt 0.2896723 0.3636571
vt 0.5964421 0.3636571
vt 0.5964421 0.3466164
vt 0.2896723 0.3466164
vt 0.6192814 0.6874669
vt 0.9260499 0.6874669
vt 0.9260499 0.6704261
vt 0.6192814 0.6704261
vt 0.01892351 0.325803
vt 0.01892351 0.01903326
vt 0.001882785 0.01903326
vt 0.001882785 0.325803
vt 0.2896723 0.6874664
vt 0.5964421 0.6874664
vt 0.5964421 0.6704258
vt 0.2896723 0.6704258
vt 0.9430907 0.6704261
vt 0.9430907 0.3636563
vt 0.9260499 0.3636563
vt 0.9260499 0.6704261
vt 0.3501491 0.01903252
vt 0.6569189 0.01903252
vt 0.6569189 0.001991792
vt 0.3501491 0.001991792
vt 0.001882414 0.6912383
vt 0.001882414 0.9980081
vt 0.3086522 0.9980081
vt 0.3086522 0.6912383
vt 0.2896723 0.3636571
vt 0.2896723 0.6704258
vt 0.5964421 0.6704258
vt 0.5964421 0.3636571
vt 0.3151566 0.9980081
vt 0.6219253 0.9980081
vt 0.6219253 0.6912395
vt 0.3151566 0.6912395
vt 0.3501491 0.01903252
vt 0.3501491 0.3258023
vt 0.6569189 0.3258023
vt 0.6569189 0.01903252
vt 0.6192814 0.3636563
vt 0.6192814 0.6704261
vt 0.9260499 0.6704261
vt 0.9260499 0.3636563
vt 0.01892351 0.01903326
vt 0.01892351 0.325803
vt 0.3256933 0.325803
vt 0.3256933 0.01903326
vt 0.3256933 0.001992163
vt 0.3256933 0.01903326
vt 0.3427344 0.01903326
vt 0.6192814 0.3636563
vt 0.6192814 0.3466153
vt 0.6022406 0.3636563
vt 0.3256933 0.325803
vt 0.3256933 0.3428437
vt 0.3427344 0.325803
vt 0.6192814 0.6874669
vt 0.6192814 0.6704261
vt 0.6022406 0.6704261
vt 0.01892351 0.325803
vt 0.001882785 0.325803
vt 0.01892351 0.3428437
vt 0.9430907 0.6704261
vt 0.9260499 0.6704261
vt 0.9260499 0.6874669
vt 0.01892351 0.01903326
vt 0.01892351 0.001992163
vt 0.001882785 0.01903326
vt 0.9260499 0.3466153
vt 0.9260499 0.3636563
vt 0.9430907 0.3636563
usemtl baseThingPartMaterial
f 3/3/3 2/2/2 1/1/1
f 4/4/4 3/3/3 1/1/1
f 7/7/7 6/6/6 5/5/5
f 8/8/8 7/7/7 5/5/5
f 11/11/11 10/10/10 9/9/9
f 12/12/12 11/11/11 9/9/9
f 15/15/15 14/14/14 13/13/13
f 16/16/16 15/15/15 13/13/13
f 19/19/19 18/18/18 17/17/17
f 20/20/20 19/19/19 17/17/17
f 23/23/23 22/22/22 21/21/21
f 24/24/24 23/23/23 21/21/21
f 27/27/27 26/26/26 25/25/25
f 28/28/28 27/27/27 25/25/25
f 31/31/31 30/30/30 29/29/29
f 32/32/32 31/31/31 29/29/29
f 35/35/35 34/34/34 33/33/33
f 36/36/36 35/35/35 33/33/33
f 39/39/39 38/38/38 37/37/37
f 40/40/40 39/39/39 37/37/37
f 43/43/43 42/42/42 41/41/41
f 44/44/44 43/43/43 41/41/41
f 47/47/47 46/46/46 45/45/45
f 48/48/48 47/47/47 45/45/45
f 51/51/51 50/50/50 49/49/49
f 52/52/52 51/51/51 49/49/49
f 55/55/55 54/54/54 53/53/53
f 56/56/56 55/55/55 53/53/53
f 59/59/59 58/58/58 57/57/57
f 60/60/60 59/59/59 57/57/57
f 63/63/63 62/62/62 61/61/61
f 64/64/64 63/63/63 61/61/61
f 67/67/67 66/66/66 65/65/65
f 68/68/68 67/67/67 65/65/65
f 71/71/71 70/70/70 69/69/69
f 72/72/72 71/71/71 69/69/69
f 75/75/75 74/74/74 73/73/73
f 78/78/78 77/77/77 76/76/76
f 81/81/81 80/80/80 79/79/79
f 84/84/84 83/83/83 82/82/82
f 87/87/87 86/86/86 85/85/85
f 90/90/90 89/89/89 88/88/88
f 93/93/93 92/92/92 91/91/91
f 96/96/96 95/95/95 94/94/94
