# Export of Universe
# from Aaro4130 OBJ Exporter v2.0
mtllib 64.mtl
g HalfCylinder
v 1.29904 -0.5 0
v 1.44889 -0.5 0.361771
v 1.44889 0.5 0.361771
v 1.29904 0.5 0
v 1.06066 -0.5 -0.31066
v 1.06066 0.5 -0.31066
v 1.5 0.5 0.75
v 1.5 -0.5 0.75
v 0.75 -0.5 -0.54904
v 1.06066 -0.5 -0.31066
v 1.06066 0.5 -0.31066
v 0.75 0.5 -0.54904
v 0.388229 -0.5 -0.69889
v 0.388229 0.5 -0.69889
v 0 -0.5 -0.75
v 0 0.5 -0.75
v -0.388229 0.5 -0.69889
v -0.388229 -0.5 -0.69889
v -0.75 0.5 -0.54904
v -0.75 -0.5 -0.54904
v -1.06066 0.5 -0.31066
v -1.06066 -0.5 -0.31066
v -1.29904 0.5 0
v -1.29904 -0.5 0
v -1.06066 -0.5 -0.31066
v -1.06066 0.5 -0.31066
v -1.44889 0.5 0.361771
v -1.44889 -0.5 0.361771
v -1.5 0.5 0.75
v -1.5 -0.5 0.75
v 0.388229 -0.5 -0.69889
v 0 -0.5 -0.75
v -0.388229 -0.5 -0.69889
v 0.75 -0.5 -0.54904
v -0.75 -0.5 -0.54904
v 1.06066 -0.5 -0.31066
v -1.06066 -0.5 -0.31066
v 1.29904 -0.5 0
v -1.29904 -0.5 0
v 1.44889 -0.5 0.361771
v -1.44889 -0.5 0.361771
v 1.5 -0.5 0.75
v -1.5 -0.5 0.75
v -0.388229 0.5 -0.69889
v 0 0.5 -0.75
v 0.388229 0.5 -0.69889
v -0.75 0.5 -0.54904
v 0.75 0.5 -0.54904
v -1.06066 0.5 -0.31066
v 1.06066 0.5 -0.31066
v -1.29904 0.5 0
v 1.29904 0.5 0
v -1.44889 0.5 0.361771
v 1.44889 0.5 0.361771
v -1.5 0.5 0.75
v 1.5 0.5 0.75
v 1.5 -0.5 0.75
v -1.5 -0.5 0.75
v -1.5 0.5 0.75
v 1.5 0.5 0.75
vn 0.4999995 0 -0.288676
vn 0.5576779 0 -0.149428
vn 0.5576779 0 -0.149428
vn 0.4999995 0 -0.288676
vn 0.4082483 0 -0.4082483
vn 0.4082483 0 -0.4082483
vn 0.5724112 0 -0.07535747
vn 0.5724112 0 -0.07535747
vn 0.288676 0 -0.4999995
vn 0.4082483 0 -0.4082483
vn 0.4082483 0 -0.4082483
vn 0.288676 0 -0.4999995
vn 0.149428 0 -0.5576779
vn 0.149428 0 -0.5576779
vn 0 0 -0.5773503
vn 0 0 -0.5773503
vn -0.149428 0 -0.5576779
vn -0.149428 0 -0.5576779
vn -0.288676 0 -0.4999995
vn -0.288676 0 -0.4999995
vn -0.4082483 0 -0.4082483
vn -0.4082483 0 -0.4082483
vn -0.4999995 0 -0.288676
vn -0.4999995 0 -0.288676
vn -0.4082483 0 -0.4082483
vn -0.4082483 0 -0.4082483
vn -0.5576779 0 -0.149428
vn -0.5576779 0 -0.149428
vn -0.5724112 0 -0.07535747
vn -0.5724112 0 -0.07535747
vn 0 -0.5773503 0
vn 0 -0.5773503 0
vn 0 -0.5773503 0
vn 0 -0.5773503 0
vn 0 -0.5773503 0
vn 0 -0.5773503 0
vn 0 -0.5773503 0
vn 0 -0.5773503 0
vn 0 -0.5773503 0
vn 0 -0.5773503 0
vn 0 -0.5773503 0
vn 0 -0.5773503 0
vn 0 -0.5773503 0
vn 0 0.5773503 0
vn 0 0.5773503 0
vn 0 0.5773503 0
vn 0 0.5773503 0
vn 0 0.5773503 0
vn 0 0.5773503 0
vn 0 0.5773503 0
vn 0 0.5773503 0
vn 0 0.5773503 0
vn 0 0.5773503 0
vn 0 0.5773503 0
vn 0 0.5773503 0
vn 0 0.5773503 0
vn 0 0 0.5773503
vn 0 0 0.5773503
vn 0 0 0.5773503
vn 0 0 0.5773503
vt 0.5 0
vt 0.258819 0
vt 0.258819 1
vt 0.5 1
vt 0.707107 0
vt 0.707107 1
vt 0 1
vt 0 0
vt 0.75 0
vt 0.853553 0
vt 0.853553 1
vt 0.75 1
vt 0.62941 0
vt 0.62941 1
vt 0.5 0
vt 0.5 1
vt 0.37059 1
vt 0.37059 0
vt 0.25 1
vt 0.25 0
vt 0.146447 1
vt 0.146447 0
vt 0.5 1
vt 0.5 0
vt 0.707107 0
vt 0.707107 1
vt 0.258819 1
vt 0.258819 0
vt 0 1
vt 0 0
vt 0.62941 0.965927
vt 0.5 1
vt 0.37059 0.965927
vt 0.75 0.866027
vt 0.25 0.866027
vt 0.853553 0.707107
vt 0.146447 0.707107
vt 0.933013 0.5
vt 0.0669867 0.5
vt 0.982963 0.258819
vt 0.0170367 0.258819
vt 1 0
vt 0 0
vt 0.37059 0.965927
vt 0.5 1
vt 0.62941 0.965927
vt 0.25 0.866027
vt 0.75 0.866027
vt 0.146447 0.707107
vt 0.853553 0.707107
vt 0.0669867 0.5
vt 0.933013 0.5
vt 0.0170367 0.258819
vt 0.982963 0.258819
vt 0 0
vt 1 0
vt 1 0
vt 0 0
vt 0 1
vt 1 1
usemtl baseThingPartMaterial
f 3/3/3 2/2/2 1/1/1
f 4/4/4 3/3/3 1/1/1
f 4/4/4 1/1/1 5/5/5
f 6/6/6 4/4/4 5/5/5
f 2/2/2 3/3/3 7/7/7
f 8/8/8 2/2/2 7/7/7
f 11/11/11 10/10/10 9/9/9
f 12/12/12 11/11/11 9/9/9
f 12/12/12 9/9/9 13/13/13
f 14/14/14 12/12/12 13/13/13
f 14/14/14 13/13/13 15/15/15
f 16/16/16 14/14/14 15/15/15
f 16/16/16 15/15/15 17/17/17
f 15/15/15 18/18/18 17/17/17
f 17/17/17 18/18/18 19/19/19
f 18/18/18 20/20/20 19/19/19
f 19/19/19 20/20/20 21/21/21
f 20/20/20 22/22/22 21/21/21
f 25/25/25 24/24/24 23/23/23
f 26/26/26 25/25/25 23/23/23
f 23/23/23 24/24/24 27/27/27
f 24/24/24 28/28/28 27/27/27
f 29/29/29 27/27/27 28/28/28
f 30/30/30 29/29/29 28/28/28
f 33/33/33 32/32/32 31/31/31
f 31/31/31 34/34/34 33/33/33
f 34/34/34 35/35/35 33/33/33
f 34/34/34 36/36/36 35/35/35
f 36/36/36 37/37/37 35/35/35
f 36/36/36 38/38/38 37/37/37
f 38/38/38 39/39/39 37/37/37
f 38/38/38 40/40/40 39/39/39
f 40/40/40 41/41/41 39/39/39
f 40/40/40 42/42/42 41/41/41
f 42/42/42 43/43/43 41/41/41
f 46/46/46 45/45/45 44/44/44
f 44/44/44 47/47/47 46/46/46
f 47/47/47 48/48/48 46/46/46
f 47/47/47 49/49/49 48/48/48
f 49/49/49 50/50/50 48/48/48
f 49/49/49 51/51/51 50/50/50
f 51/51/51 52/52/52 50/50/50
f 51/51/51 53/53/53 52/52/52
f 53/53/53 54/54/54 52/52/52
f 53/53/53 55/55/55 54/54/54
f 55/55/55 56/56/56 54/54/54
f 59/59/59 58/58/58 57/57/57
f 60/60/60 59/59/59 57/57/57
