# Export of Universe
# from Aaro4130 OBJ Exporter v2.0
mtllib 66.mtl
g QuarterSphere
v 0.413784 0.75 -0.504774
v 0.375 0.388228 -0.649519
v 0.75 0.388228 -0.698889
v 0.75 0.75 -0.549038
v 0.100481 0.75 -0.375
v 0.0255556 0.388228 -0.504774
v -0.168559 0.75 -0.168559
v -0.274519 0.388228 -0.274519
v 0.475481 1.06066 -0.274519
v 0.75 1.06066 -0.31066
v 0.21967 1.06066 -0.168559
v -1.11022E-16 1.06066 0
v 0.75 -9.18485E-17 -0.75
v 0.361771 -9.18485E-17 -0.698889
v 0.75 -0.388229 -0.698889
v 0.375 -0.388229 -0.649519
v 0.75 -0.75 -0.549038
v 0.413784 -0.75 -0.504774
v 0.75 -1.06066 -0.31066
v 0.475481 -1.06066 -0.274519
v 0.100481 -0.75 -0.375
v 0.21967 -1.06066 -0.168559
v -0.168559 -0.75 -0.168559
v -1.11022E-16 -1.06066 0
v 0.0255556 -0.388229 -0.504774
v -0.274519 -0.388229 -0.274519
v -1.11022E-16 -9.18485E-17 -0.549038
v -0.31066 -9.18485E-17 -0.31066
v -0.375 0.75 0.100481
v -0.504774 0.388228 0.0255556
v -0.274519 0.388228 -0.274519
v -0.168559 0.75 -0.168559
v -0.504774 0.75 0.413784
v -0.649519 0.388228 0.375
v -0.168559 1.06066 0.21967
v -1.11022E-16 1.06066 0
v -0.274519 1.06066 0.475481
v -0.549038 0.75 0.75
v -0.698889 0.388228 0.75
v -0.31066 1.06066 0.75
v -0.31066 -9.18485E-17 -0.31066
v -0.549038 -9.18485E-17 0
v -0.274519 -0.388229 -0.274519
v -0.504774 -0.388229 0.0255556
v -0.168559 -0.75 -0.168559
v -0.375 -0.75 0.100481
v -1.11022E-16 -1.06066 0
v -0.168559 -1.06066 0.21967
v -0.504774 -0.75 0.413784
v -0.274519 -1.06066 0.475481
v -0.649519 -0.388229 0.375
v -0.698889 -9.18485E-17 0.361771
v -0.549038 -0.75 0.75
v -0.31066 -1.06066 0.75
v -0.698889 -0.388229 0.75
v -0.75 -9.18485E-17 0.75
v 0.555886 1.29904 0.0255556
v 0.475481 1.06066 -0.274519
v 0.75 1.06066 -0.31066
v 0.75 1.29904 -1.19209E-07
v 0.375 1.29904 0.100481
v 0.21967 1.06066 -0.168559
v 0.21967 1.29904 0.21967
v -1.11022E-16 1.06066 0
v 0.100481 1.29904 0.375
v -0.168559 1.06066 0.21967
v 0.0255556 1.29904 0.555886
v -0.274519 1.06066 0.475481
v 0.649519 1.44889 0.375
v 0.75 1.44889 0.361772
v 0.555886 1.44889 0.413784
v 0.475481 1.44889 0.475481
v 0.413784 1.44889 0.555886
v 0.375 1.44889 0.649519
v 0.75 1.5 0.75
v -0.31066 1.06066 0.75
v -1.19209E-07 1.29904 0.75
v 0.361772 1.44889 0.75
v 0.649519 -1.44889 0.375
v 0.75 -1.5 0.75
v 0.75 -1.44889 0.361771
v 0.555886 -1.44889 0.413784
v 0.475481 -1.44889 0.475481
v 0.413784 -1.44889 0.555886
v 0.375 -1.44889 0.649519
v 0.555886 -1.29904 0.0255556
v 0.75 -1.29904 0
v 0.375 -1.29904 0.100481
v 0.21967 -1.29904 0.21967
v 0.100481 -1.29904 0.375
v 0.0255556 -1.29904 0.555886
v 0.475481 -1.06066 -0.274519
v 0.75 -1.06066 -0.31066
v 0.21967 -1.06066 -0.168559
v -1.11022E-16 -1.06066 0
v -0.168559 -1.06066 0.21967
v -0.274519 -1.06066 0.475481
v -1.11022E-16 -1.29904 0.75
v 0.361771 -1.44889 0.75
v -0.31066 -1.06066 0.75
v 0.361772 1.44889 0.75
v 0.75 1.5 0.75
v 0.75 -1.5 0.75
v 0.361771 -1.44889 0.75
v -1.19209E-07 1.29904 0.75
v -1.11022E-16 -1.29904 0.75
v -0.31066 -1.06066 0.75
v -0.31066 1.06066 0.75
v -0.549038 0.75 0.75
v -0.549038 -0.75 0.75
v -0.698889 0.388228 0.75
v -0.698889 -0.388229 0.75
v -0.75 0 0.75
v 0.75 -1.44889 0.361771
v 0.75 -1.5 0.75
v 0.75 1.5 0.75
v 0.75 -1.29904 0
v 0.75 -1.06066 -0.31066
v 0.75 -0.75 -0.549038
v 0.75 -0.388229 -0.698889
v 0.75 -1.11022E-16 -0.75
v 0.75 0.388228 -0.698889
v 0.75 0.75 -0.549038
v 0.75 1.06066 -0.31066
v 0.75 1.29904 -1.19209E-07
v 0.75 1.44889 0.361772
vn -0.1294001 0.2887382 -0.4829277
vn -0.144335 0.14947 -0.5386645
vn -0.07283191 0.1482759 -0.5532116
vn -0.06539815 0.28688 -0.4967457
vn -0.2499816 0.2887379 -0.4329815
vn -0.2788334 0.1494696 -0.4829535
vn -0.3535278 0.288738 -0.3535277
vn -0.3943299 0.1494694 -0.3943299
vn -0.105647 0.4083072 -0.3942808
vn -0.05350798 0.4065498 -0.4064327
vn -0.2040945 0.4083073 -0.3535024
vn -0.2886333 0.4083074 -0.2886333
vn -0.07535931 0 -0.5724109
vn -0.1494296 0 -0.5576774
vn -0.07283192 -0.1482761 -0.5532116
vn -0.144335 -0.1494701 -0.5386645
vn -0.06539813 -0.2868803 -0.4967456
vn -0.1294001 -0.2887384 -0.4829276
vn -0.05350792 -0.4065498 -0.4064326
vn -0.105647 -0.4083072 -0.3942808
vn -0.2499815 -0.2887382 -0.4329813
vn -0.2040945 -0.4083073 -0.3535024
vn -0.3535276 -0.2887383 -0.3535276
vn -0.2886333 -0.4083074 -0.2886333
vn -0.2788333 -0.1494699 -0.4829535
vn -0.3943299 -0.1494696 -0.3943299
vn -0.2886754 0 -0.4999999
vn -0.4082483 0 -0.4082482
vn -0.4329815 0.288738 -0.2499816
vn -0.4829535 0.1494696 -0.2788334
vn -0.3943299 0.1494694 -0.3943299
vn -0.3535278 0.288738 -0.3535277
vn -0.4829277 0.2887381 -0.1294001
vn -0.5386645 0.14947 -0.144335
vn -0.3535024 0.4083073 -0.2040945
vn -0.2886333 0.4083074 -0.2886333
vn -0.3942808 0.4083071 -0.105647
vn -0.4967457 0.28688 -0.06539815
vn -0.5532116 0.1482759 -0.07283191
vn -0.4064327 0.4065498 -0.05350798
vn -0.4082483 0 -0.4082482
vn -0.4999999 0 -0.2886754
vn -0.3943299 -0.1494696 -0.3943299
vn -0.4829535 -0.1494698 -0.2788333
vn -0.3535276 -0.2887383 -0.3535276
vn -0.4329813 -0.2887382 -0.2499815
vn -0.2886333 -0.4083074 -0.2886333
vn -0.3535024 -0.4083073 -0.2040945
vn -0.4829276 -0.2887384 -0.1294001
vn -0.3942808 -0.4083072 -0.105647
vn -0.5386645 -0.1494701 -0.144335
vn -0.5576774 0 -0.1494295
vn -0.4967456 -0.2868803 -0.06539813
vn -0.4064326 -0.4065498 -0.05350792
vn -0.5532116 -0.1482761 -0.07283192
vn -0.5724109 0 -0.07535931
vn -0.07469816 0.5000364 -0.278778
vn -0.105647 0.4083072 -0.3942808
vn -0.05350798 0.4065498 -0.4064327
vn -0.03791435 0.498957 -0.2879892
vn -0.144306 0.5000364 -0.2499454
vn -0.2040945 0.4083073 -0.3535024
vn -0.2040796 0.5000364 -0.2040796
vn -0.2886333 0.4083074 -0.2886333
vn -0.2499454 0.5000364 -0.144306
vn -0.3535024 0.4083073 -0.2040945
vn -0.278778 0.5000364 -0.07469816
vn -0.3942808 0.4083071 -0.105647
vn -0.03866395 0.5576889 -0.1442966
vn -0.01965537 0.5573657 -0.1493003
vn -0.07469344 0.5576889 -0.1293728
vn -0.1056325 0.5576889 -0.1056325
vn -0.1293728 0.5576889 -0.07469345
vn -0.1442966 0.5576889 -0.03866395
vn -0.04859718 0.5732451 -0.04859718
vn -0.4064327 0.4065498 -0.05350798
vn -0.2879892 0.498957 -0.03791435
vn -0.1493003 0.5573657 -0.01965537
vn -0.03866431 -0.5576889 -0.1442966
vn -0.04859726 -0.5732451 -0.04859726
vn -0.01965609 -0.5573655 -0.1493002
vn -0.07469344 -0.5576889 -0.1293728
vn -0.1056325 -0.5576889 -0.1056325
vn -0.1293728 -0.5576889 -0.07469344
vn -0.1442966 -0.5576889 -0.03866431
vn -0.07469831 -0.5000364 -0.278778
vn -0.03791464 -0.4989569 -0.2879892
vn -0.144306 -0.5000364 -0.2499454
vn -0.2040796 -0.5000364 -0.2040796
vn -0.2499454 -0.5000364 -0.144306
vn -0.278778 -0.5000364 -0.07469831
vn -0.105647 -0.4083072 -0.3942808
vn -0.05350792 -0.4065498 -0.4064326
vn -0.2040945 -0.4083073 -0.3535024
vn -0.2886333 -0.4083074 -0.2886333
vn -0.3535024 -0.4083073 -0.2040945
vn -0.3942808 -0.4083072 -0.105647
vn -0.2879892 -0.4989569 -0.03791464
vn -0.1493002 -0.5573655 -0.01965609
vn -0.4064326 -0.4065498 -0.05350792
vn 0 0 0.5773503
vn 0 0 0.5773503
vn 0 0 0.5773503
vn 0 0 0.5773503
vn 0 0 0.5773503
vn 0 0 0.5773503
vn 0 0 0.5773503
vn 0 0 0.5773503
vn 0 0 0.5773503
vn 0 0 0.5773503
vn 0 0 0.5773503
vn 0 0 0.5773503
vn 0 0 0.5773503
vn 0.5773503 0 0
vn 0.5773503 0 0
vn 0.5773503 0 0
vn 0.5773503 0 0
vn 0.5773503 0 0
vn 0.5773503 0 0
vn 0.5773503 0 0
vn 0.5773503 0 0
vn 0.5773503 0 0
vn 0.5773503 0 0
vn 0.5773503 0 0
vn 0.5773503 0 0
vn 0.5773503 0 0
vt 0.775856 0.75
vt 0.75 0.629409
vt 1 0.629409
vt 1 0.75
vt 0.566987 0.75
vt 0.517037 0.629409
vt 0.387627 0.75
vt 0.316987 0.629409
vt 0.816987 0.853553
vt 1 0.853553
vt 0.646447 0.853553
vt 0.5 0.853553
vt 1 0.5
vt 0.741181 0.5
vt 1 0.37059
vt 0.75 0.37059
vt 1 0.25
vt 0.775856 0.25
vt 1 0.146447
vt 0.816987 0.146447
vt 0.566987 0.25
vt 0.646447 0.146447
vt 0.387627 0.25
vt 0.5 0.146447
vt 0.517037 0.37059
vt 0.316987 0.37059
vt 0.5 0.5
vt 0.292893 0.5
vt 0.433013 0.75
vt 0.482963 0.629409
vt 0.683013 0.629409
vt 0.612373 0.75
vt 0.224144 0.75
vt 0.25 0.629409
vt 0.353553 0.853553
vt 0.5 0.853553
vt 0.183013 0.853553
vt 0 0.75
vt 0 0.629409
vt 0 0.853553
vt 0.707107 0.5
vt 0.5 0.5
vt 0.683013 0.37059
vt 0.482963 0.37059
vt 0.612373 0.25
vt 0.433013 0.25
vt 0.5 0.146447
vt 0.353553 0.146447
vt 0.224144 0.25
vt 0.183013 0.146447
vt 0.25 0.37059
vt 0.258819 0.5
vt 0 0.25
vt 0 0.146447
vt 0 0.37059
vt 0 0.5
vt 0.870591 0.482963
vt 0.816987 0.683013
vt 1 0.707107
vt 1 0.5
vt 0.75 0.433013
vt 0.646447 0.612373
vt 0.646447 0.353553
vt 0.5 0.5
vt 0.566987 0.25
vt 0.387627 0.353553
vt 0.517037 0.129409
vt 0.316987 0.183013
vt 0.933013 0.25
vt 1 0.258819
vt 0.870591 0.224144
vt 0.816987 0.183013
vt 0.775856 0.129409
vt 0.75 0.0669873
vt 1 0
vt 0.292893 0
vt 0.5 0
vt 0.741181 0
vt 0.933013 0.25
vt 1 0
vt 1 0.258819
vt 0.870591 0.224144
vt 0.816987 0.183013
vt 0.775856 0.129409
vt 0.75 0.0669873
vt 0.870591 0.482963
vt 1 0.5
vt 0.75 0.433013
vt 0.646447 0.353553
vt 0.566987 0.25
vt 0.517037 0.129409
vt 0.816987 0.683013
vt 1 0.707107
vt 0.646447 0.612373
vt 0.5 0.5
vt 0.387627 0.353553
vt 0.316987 0.183013
vt 0.5 0
vt 0.741181 0
vt 0.292893 0
vt 0.741181 0.982963
vt 1 1
vt 1 0
vt 0.741181 0.0170367
vt 0.5 0.933013
vt 0.5 0.0669867
vt 0.292893 0.146447
vt 0.292893 0.853553
vt 0.133975 0.75
vt 0.133975 0.25
vt 0.034074 0.629409
vt 0.034074 0.37059
vt 0 0.5
vt 0.258819 0.0170367
vt 0 0
vt 0 1
vt 0.5 0.0669867
vt 0.707107 0.146447
vt 0.866025 0.25
vt 0.965926 0.37059
vt 1 0.5
vt 0.965926 0.629409
vt 0.866025 0.75
vt 0.707107 0.853553
vt 0.5 0.933013
vt 0.258819 0.982963
usemtl baseThingPartMaterial
f 3/3/3 2/2/2 1/1/1
f 4/4/4 3/3/3 1/1/1
f 1/1/1 2/2/2 5/5/5
f 2/2/2 6/6/6 5/5/5
f 5/5/5 6/6/6 7/7/7
f 6/6/6 8/8/8 7/7/7
f 4/4/4 1/1/1 9/9/9
f 10/10/10 4/4/4 9/9/9
f 1/1/1 5/5/5 11/11/11
f 9/9/9 1/1/1 11/11/11
f 5/5/5 7/7/7 12/12/12
f 11/11/11 5/5/5 12/12/12
f 3/3/3 13/13/13 2/2/2
f 13/13/13 14/14/14 2/2/2
f 2/2/2 14/14/14 6/6/6
f 13/13/13 15/15/15 14/14/14
f 15/15/15 16/16/16 14/14/14
f 15/15/15 17/17/17 16/16/16
f 17/17/17 18/18/18 16/16/16
f 17/17/17 19/19/19 18/18/18
f 19/19/19 20/20/20 18/18/18
f 18/18/18 20/20/20 21/21/21
f 20/20/20 22/22/22 21/21/21
f 21/21/21 22/22/22 23/23/23
f 22/22/22 24/24/24 23/23/23
f 18/18/18 21/21/21 25/25/25
f 16/16/16 18/18/18 25/25/25
f 21/21/21 23/23/23 26/26/26
f 25/25/25 21/21/21 26/26/26
f 16/16/16 25/25/25 27/27/27
f 14/14/14 16/16/16 27/27/27
f 25/25/25 26/26/26 28/28/28
f 27/27/27 25/25/25 28/28/28
f 14/14/14 27/27/27 6/6/6
f 27/27/27 28/28/28 8/8/8
f 6/6/6 27/27/27 8/8/8
f 31/31/31 30/30/30 29/29/29
f 32/32/32 31/31/31 29/29/29
f 29/29/29 30/30/30 33/33/33
f 30/30/30 34/34/34 33/33/33
f 32/32/32 29/29/29 35/35/35
f 36/36/36 32/32/32 35/35/35
f 29/29/29 33/33/33 37/37/37
f 35/35/35 29/29/29 37/37/37
f 33/33/33 34/34/34 38/38/38
f 34/34/34 39/39/39 38/38/38
f 33/33/33 38/38/38 40/40/40
f 37/37/37 33/33/33 40/40/40
f 31/31/31 41/41/41 30/30/30
f 41/41/41 42/42/42 30/30/30
f 30/30/30 42/42/42 34/34/34
f 41/41/41 43/43/43 42/42/42
f 43/43/43 44/44/44 42/42/42
f 43/43/43 45/45/45 44/44/44
f 45/45/45 46/46/46 44/44/44
f 45/45/45 47/47/47 46/46/46
f 47/47/47 48/48/48 46/46/46
f 46/46/46 48/48/48 49/49/49
f 48/48/48 50/50/50 49/49/49
f 46/46/46 49/49/49 51/51/51
f 44/44/44 46/46/46 51/51/51
f 44/44/44 51/51/51 52/52/52
f 42/42/42 44/44/44 52/52/52
f 42/42/42 52/52/52 34/34/34
f 34/34/34 52/52/52 39/39/39
f 53/53/53 49/49/49 50/50/50
f 54/54/54 53/53/53 50/50/50
f 55/55/55 51/51/51 49/49/49
f 53/53/53 55/55/55 49/49/49
f 56/56/56 52/52/52 51/51/51
f 55/55/55 56/56/56 51/51/51
f 52/52/52 56/56/56 39/39/39
f 59/59/59 58/58/58 57/57/57
f 60/60/60 59/59/59 57/57/57
f 57/57/57 58/58/58 61/61/61
f 58/58/58 62/62/62 61/61/61
f 61/61/61 62/62/62 63/63/63
f 62/62/62 64/64/64 63/63/63
f 63/63/63 64/64/64 65/65/65
f 64/64/64 66/66/66 65/65/65
f 65/65/65 66/66/66 67/67/67
f 66/66/66 68/68/68 67/67/67
f 60/60/60 57/57/57 69/69/69
f 70/70/70 60/60/60 69/69/69
f 57/57/57 61/61/61 71/71/71
f 69/69/69 57/57/57 71/71/71
f 61/61/61 63/63/63 72/72/72
f 71/71/71 61/61/61 72/72/72
f 63/63/63 65/65/65 73/73/73
f 72/72/72 63/63/63 73/73/73
f 65/65/65 67/67/67 74/74/74
f 73/73/73 65/65/65 74/74/74
f 69/69/69 71/71/71 75/75/75
f 71/71/71 72/72/72 75/75/75
f 72/72/72 73/73/73 75/75/75
f 73/73/73 74/74/74 75/75/75
f 75/75/75 70/70/70 69/69/69
f 67/67/67 68/68/68 76/76/76
f 77/77/77 67/67/67 76/76/76
f 67/67/67 77/77/77 78/78/78
f 74/74/74 67/67/67 78/78/78
f 75/75/75 74/74/74 78/78/78
f 81/81/81 80/80/80 79/79/79
f 79/79/79 80/80/80 82/82/82
f 82/82/82 80/80/80 83/83/83
f 83/83/83 80/80/80 84/84/84
f 84/84/84 80/80/80 85/85/85
f 81/81/81 79/79/79 86/86/86
f 87/87/87 81/81/81 86/86/86
f 79/79/79 82/82/82 88/88/88
f 86/86/86 79/79/79 88/88/88
f 82/82/82 83/83/83 89/89/89
f 88/88/88 82/82/82 89/89/89
f 83/83/83 84/84/84 90/90/90
f 89/89/89 83/83/83 90/90/90
f 84/84/84 85/85/85 91/91/91
f 90/90/90 84/84/84 91/91/91
f 87/87/87 86/86/86 92/92/92
f 93/93/93 87/87/87 92/92/92
f 86/86/86 88/88/88 94/94/94
f 92/92/92 86/86/86 94/94/94
f 88/88/88 89/89/89 95/95/95
f 94/94/94 88/88/88 95/95/95
f 89/89/89 90/90/90 96/96/96
f 95/95/95 89/89/89 96/96/96
f 90/90/90 91/91/91 97/97/97
f 96/96/96 90/90/90 97/97/97
f 98/98/98 91/91/91 85/85/85
f 99/99/99 98/98/98 85/85/85
f 99/99/99 85/85/85 80/80/80
f 100/100/100 97/97/97 91/91/91
f 98/98/98 100/100/100 91/91/91
f 103/103/103 102/102/102 101/101/101
f 101/101/101 104/104/104 103/103/103
f 101/101/101 105/105/105 104/104/104
f 105/105/105 106/106/106 104/104/104
f 105/105/105 107/107/107 106/106/106
f 105/105/105 108/108/108 107/107/107
f 108/108/108 109/109/109 107/107/107
f 109/109/109 110/110/110 107/107/107
f 109/109/109 111/111/111 110/110/110
f 111/111/111 112/112/112 110/110/110
f 111/111/111 113/113/113 112/112/112
f 116/116/116 115/115/115 114/114/114
f 114/114/114 117/117/117 116/116/116
f 117/117/117 118/118/118 116/116/116
f 118/118/118 119/119/119 116/116/116
f 119/119/119 120/120/120 116/116/116
f 120/120/120 121/121/121 116/116/116
f 121/121/121 122/122/122 116/116/116
f 122/122/122 123/123/123 116/116/116
f 123/123/123 124/124/124 116/116/116
f 124/124/124 125/125/125 116/116/116
f 125/125/125 126/126/126 116/116/116
