# Export of Universe
# from Aaro4130 OBJ Exporter v2.0
mtllib 7.mtl
g Trapeze
v -1 1 -0.3652094
v -0.6469016 0.6469016 0.4328025
v -0.6469016 -0.6469016 0.4328025
v -1 -1 -0.3652094
v -0.6469016 0.6469016 0.4328025
v -1 1 -0.3652094
v 1 1 -0.3652094
v 0.6469016 0.6469016 0.4328025
v 0.6469016 0.6469016 0.4328025
v 1 1 -0.3652094
v 1 -1 -0.3652094
v 0.6469016 -0.6469016 0.4328025
v -1 -1 -0.3652094
v -0.6469016 -0.6469016 0.4328025
v 0.6469016 -0.6469016 0.4328025
v 1 -1 -0.3652094
v -1 -1 -0.3652094
v 1 -1 -0.3652094
v 1 1 -0.3652094
v -1 1 -0.3652094
v 0.6469016 -0.6469016 0.4328025
v -0.6469016 -0.6469016 0.4328025
v -0.6469016 0.6469016 0.4328025
v 0.6469016 0.6469016 0.4328025
vn -0.527975 0 0.2336144
vn -0.527975 0 0.2336144
vn -0.527975 0 0.2336144
vn -0.527975 0 0.2336144
vn 0 0.527975 0.2336144
vn 0 0.527975 0.2336144
vn 0 0.527975 0.2336144
vn 0 0.527975 0.2336144
vn 0.527975 0 0.2336144
vn 0.527975 0 0.2336144
vn 0.527975 0 0.2336144
vn 0.527975 0 0.2336144
vn 0 -0.527975 0.2336144
vn 0 -0.527975 0.2336144
vn 0 -0.527975 0.2336144
vn 0 -0.527975 0.2336144
vn 0 0 -0.5773503
vn 0 0 -0.5773503
vn 0 0 -0.5773503
vn 0 0 -0.5773503
vn 0 0 0.5773503
vn 0 0 0.5773503
vn 0 0 0.5773503
vn 0 0 0.5773503
vt 1 0
vt 0.8234508 1
vt 0.1765493 1
vt 0 0
vt 0.1765491 0.9999997
vt 0 0
vt 1 0
vt 0.8234506 0.9999997
vt 0.8234508 1
vt 1 0
vt 0 0
vt 0.1765493 1
vt 0 3.57704E-07
vt 0.1765491 1
vt 0.8234506 1
vt 1 3.57704E-07
vt 0 0
vt 0 1
vt 1 1
vt 1 0
vt 0 0
vt 0 1
vt 1 1
vt 1 0
usemtl baseThingPartMaterial
f 3/3/3 2/2/2 1/1/1
f 4/4/4 3/3/3 1/1/1
f 7/7/7 6/6/6 5/5/5
f 8/8/8 7/7/7 5/5/5
f 11/11/11 10/10/10 9/9/9
f 12/12/12 11/11/11 9/9/9
f 15/15/15 14/14/14 13/13/13
f 16/16/16 15/15/15 13/13/13
f 19/19/19 18/18/18 17/17/17
f 20/20/20 19/19/19 17/17/17
f 23/23/23 22/22/22 21/21/21
f 24/24/24 23/23/23 21/21/21
