# Export of Universe
# from Aaro4130 OBJ Exporter v2.0
mtllib 70.mtl
g Heptagon
v 1 -1 0
v 0.62349 -1 0.781832
v 1 1 0
v 0.62349 1 0.781832
v 0.62349 -1 0.781832
v -0.222521 -1 0.974928
v 0.62349 1 0.781832
v -0.222521 1 0.974928
v -0.222521 -1 0.974928
v -0.900969 -1 0.433884
v -0.222521 1 0.974928
v -0.900969 1 0.433884
v -0.900969 -1 0.433884
v -0.900969 -1 -0.433884
v -0.900969 1 0.433884
v -0.900969 1 -0.433884
v -0.900969 -1 -0.433884
v -0.222521 -1 -0.974928
v -0.900969 1 -0.433884
v -0.222521 1 -0.974928
v -0.222521 -1 -0.974928
v 0.62349 -1 -0.781831
v -0.222521 1 -0.974928
v 0.62349 1 -0.781831
v 0.62349 -1 -0.781831
v 1 -1 1.74846E-07
v 0.62349 1 -0.781831
v 1 1 1.74846E-07
v 1 -1 0
v 0 -1 0
v 0.62349 -1 0.781832
v -0.222521 -1 0.974928
v -0.900969 -1 0.433884
v -0.900969 -1 -0.433884
v -0.222521 -1 -0.974928
v 0.62349 -1 -0.781831
v 1 1 0
v 0.62349 1 0.781832
v 0 1 0
v -0.222521 1 0.974928
v -0.900969 1 0.433884
v -0.900969 1 -0.433884
v -0.222521 1 -0.974928
v 0.62349 1 -0.781831
vn 0.5201747 0 0.2505027
vn 0.5201747 0 0.2505027
vn 0.5201747 0 0.2505027
vn 0.5201747 0 0.2505027
vn 0.1284722 0 0.5628749
vn 0.1284722 0 0.5628749
vn 0.1284722 0 0.5628749
vn 0.1284722 0 0.5628749
vn -0.3599719 0 0.4513907
vn -0.3599719 0 0.4513907
vn -0.3599719 0 0.4513907
vn -0.3599719 0 0.4513907
vn -0.5773503 0 0
vn -0.5773503 0 0
vn -0.5773503 0 0
vn -0.5773503 0 0
vn -0.3599719 0 -0.4513907
vn -0.3599719 0 -0.4513907
vn -0.3599719 0 -0.4513907
vn -0.3599719 0 -0.4513907
vn 0.1284728 0 -0.5628748
vn 0.1284728 0 -0.5628748
vn 0.1284728 0 -0.5628748
vn 0.1284728 0 -0.5628748
vn 0.5201746 0 -0.2505029
vn 0.5201746 0 -0.2505029
vn 0.5201746 0 -0.2505029
vn 0.5201746 0 -0.2505029
vn 0 -0.5773503 0
vn 0 -0.5773503 0
vn 0 -0.5773503 0
vn 0 -0.5773503 0
vn 0 -0.5773503 0
vn 0 -0.5773503 0
vn 0 -0.5773503 0
vn 0 -0.5773503 0
vn 0 0.5773503 0
vn 0 0.5773503 0
vn 0 0.5773503 0
vn 0 0.5773503 0
vn 0 0.5773503 0
vn 0 0.5773503 0
vn 0 0.5773503 0
vn 0 0.5773503 0
vt 0 0
vt 0.142857 0
vt 0 1
vt 0.142857 1
vt 0.142857 0
vt 0.285714 0
vt 0.142857 1
vt 0.285714 1
vt 0.285714 0
vt 0.428571 0
vt 0.285714 1
vt 0.428571 1
vt 0.428571 0
vt 0.571429 0
vt 0.428571 1
vt 0.571429 1
vt 0.571429 0
vt 0.714286 0
vt 0.571429 1
vt 0.714286 1
vt 0.714286 0
vt 0.857143 0
vt 0.714286 1
vt 0.857143 1
vt 0.857143 0
vt 1 0
vt 0.857143 1
vt 1 1
vt 1 0.5
vt 0.5 0.5
vt 0.811745 0.890916
vt 0.388739 0.987464
vt 0.0495155 0.716942
vt 0.0495156 0.283058
vt 0.388739 0.012536
vt 0.811745 0.109084
vt 1 0.5
vt 0.811745 0.890916
vt 0.5 0.5
vt 0.388739 0.987464
vt 0.0495155 0.716942
vt 0.0495156 0.283058
vt 0.388739 0.012536
vt 0.811745 0.109084
usemtl baseThingPartMaterial
f 3/3/3 2/2/2 1/1/1
f 3/3/3 4/4/4 2/2/2
f 7/7/7 6/6/6 5/5/5
f 7/7/7 8/8/8 6/6/6
f 11/11/11 10/10/10 9/9/9
f 11/11/11 12/12/12 10/10/10
f 15/15/15 14/14/14 13/13/13
f 15/15/15 16/16/16 14/14/14
f 19/19/19 18/18/18 17/17/17
f 19/19/19 20/20/20 18/18/18
f 23/23/23 22/22/22 21/21/21
f 23/23/23 24/24/24 22/22/22
f 27/27/27 26/26/26 25/25/25
f 27/27/27 28/28/28 26/26/26
f 31/31/31 30/30/30 29/29/29
f 32/32/32 30/30/30 31/31/31
f 33/33/33 30/30/30 32/32/32
f 34/34/34 30/30/30 33/33/33
f 35/35/35 30/30/30 34/34/34
f 36/36/36 30/30/30 35/35/35
f 29/29/29 30/30/30 36/36/36
f 39/39/39 38/38/38 37/37/37
f 39/39/39 40/40/40 38/38/38
f 39/39/39 41/41/41 40/40/40
f 39/39/39 42/42/42 41/41/41
f 39/39/39 43/43/43 42/42/42
f 39/39/39 44/44/44 43/43/43
f 39/39/39 37/37/37 44/44/44
