# Export of Universe
# from Aaro4130 OBJ Exporter v2.0
mtllib 81.mtl
g QuarterBowlCube
v 0.297067 -0.26537 -0.75
v 0.75 -0.325 -0.75
v 0.3125 -0.26537 -0.632772
v 0.357748 -0.26537 -0.523533
v 0.429728 -0.26537 -0.429728
v 0.523533 -0.26537 -0.357748
v 0.632772 -0.26537 -0.3125
v 0.75 -0.26537 -0.297067
v -0.095185 -0.090544 -0.523533
v -0.125 -0.090544 -0.75
v -0.00777203 -0.090544 -0.3125
v 0.131281 -0.090544 -0.131281
v 0.3125 -0.090544 0.00777203
v 0.523533 -0.090544 0.095185
v 0.75 -0.090544 0.125
v -0.44527 0.18756 -0.429728
v -0.48744 0.18756 -0.75
v -0.32165 0.18756 -0.131282
v -0.125 0.18756 0.125
v 0.131282 0.18756 0.32165
v 0.429728 0.18756 0.44527
v 0.75 0.18756 0.48744
v -0.62126 0.425 -0.382573
v -0.66963 0.425 -0.75
v -0.48744 0.18756 -0.75
v -0.44527 0.18756 -0.429728
v -0.47943 0.425 -0.040186
v -0.32165 0.18756 -0.131282
v -0.25383 0.425 0.25383
v -0.125 0.18756 0.125
v 0.040186 0.425 0.47943
v -0.25383 0.425 0.25383
v -0.125 0.18756 0.125
v 0.131282 0.18756 0.32165
v 0.382573 0.425 0.62126
v 0.429728 0.18756 0.44527
v 0.75 0.425 0.66963
v 0.75 0.18756 0.48744
v -0.75 0.425 0.75
v -0.75 -0.425 0.75
v -0.75 -0.425 -0.75
v -0.75 0.425 -0.75
v 0.75 -0.425 0.75
v -0.75 -0.425 0.75
v -0.75 0.425 0.75
v 0.75 0.425 0.75
v -0.75 0.425 0.75
v -0.75 0.425 -0.75
v -0.66963 0.425 -0.75
v -0.62126 0.425 -0.382573
v -0.47943 0.425 -0.040186
v -0.25383 0.425 0.25383
v 0.040186 0.425 0.47943
v 0.382573 0.425 0.62126
v 0.75 0.425 0.66963
v 0.75 0.425 0.75
v 0.75 -0.425 -0.75
v -0.75 -0.425 -0.75
v -0.75 -0.425 0.75
v 0.75 -0.425 0.75
v -0.75 -0.425 -0.75
v 0.75 -0.425 -0.75
v 0.75 -0.325 -0.75
v 0.297067 -0.26537 -0.75
v -0.125 -0.090544 -0.75
v -0.48744 0.18756 -0.75
v -0.66963 0.425 -0.75
v -0.75 0.425 -0.75
v 0.75 -0.325 -0.75
v 0.75 -0.425 -0.75
v 0.75 -0.425 0.75
v 0.75 -0.26537 -0.297067
v 0.75 -0.090544 0.125
v 0.75 0.18756 0.48744
v 0.75 0.425 0.75
v 0.75 0.425 0.66963
vn 0.1493018 0.5573652 -0.01965576
vn 0.04859849 0.5732449 -0.04859849
vn 0.1442982 0.5576885 -0.03866443
vn 0.1293741 0.5576885 -0.07469419
vn 0.1056335 0.5576885 -0.1056335
vn 0.07469419 0.5576885 -0.1293741
vn 0.03866443 0.5576885 -0.1442982
vn 0.01965576 0.5573652 -0.1493018
vn 0.278776 0.5000374 -0.0746987
vn 0.2879867 0.4989583 -0.03791585
vn 0.2499444 0.5000373 -0.1443049
vn 0.2040783 0.5000374 -0.2040783
vn 0.1443049 0.5000373 -0.2499444
vn 0.0746987 0.5000374 -0.278776
vn 0.03791585 0.4989583 -0.2879867
vn 0.3942783 0.4083089 -0.1056493
vn 0.40643 0.4065521 -0.0535102
vn 0.3535019 0.4083078 -0.2040942
vn 0.2886331 0.4083077 -0.2886331
vn 0.2040942 0.4083078 -0.3535019
vn 0.1056493 0.4083089 -0.3942783
vn 0.0535102 0.4065521 -0.40643
vn 0.4424347 0.3514683 -0.1185536
vn 0.4555644 0.3495669 -0.05997799
vn 0.40643 0.4065521 -0.0535102
vn 0.3942783 0.4083089 -0.1056493
vn 0.396678 0.3514662 -0.2290226
vn 0.3535019 0.4083078 -0.2040942
vn 0.3238868 0.3514655 -0.3238868
vn 0.2886331 0.4083077 -0.2886331
vn 0.2290226 0.3514662 -0.396678
vn 0.3238868 0.3514655 -0.3238868
vn 0.2886331 0.4083077 -0.2886331
vn 0.2040942 0.4083078 -0.3535019
vn 0.1185536 0.3514683 -0.4424347
vn 0.1056493 0.4083089 -0.3942783
vn 0.05997799 0.3495669 -0.4555644
vn 0.0535102 0.4065521 -0.40643
vn -0.5773503 0 0
vn -0.5773503 0 0
vn -0.5773503 0 0
vn -0.5773503 0 0
vn 0 0 0.5773503
vn 0 0 0.5773503
vn 0 0 0.5773503
vn 0 0 0.5773503
vn 0 0.5773503 0
vn 0 0.5773503 0
vn 0 0.5773503 0
vn 0 0.5773503 0
vn 0 0.5773503 0
vn 0 0.5773503 0
vn 0 0.5773503 0
vn 0 0.5773503 0
vn 0 0.5773503 0
vn 0 0.5773503 0
vn 0 -0.5773503 0
vn 0 -0.5773503 0
vn 0 -0.5773503 0
vn 0 -0.5773503 0
vn 0 0 -0.5773503
vn 0 0 -0.5773503
vn 0 0 -0.5773503
vn 0 0 -0.5773503
vn 0 0 -0.5773503
vn 0 0 -0.5773503
vn 0 0 -0.5773503
vn 0 0 -0.5773503
vn 0.5773503 0 0
vn 0.5773503 0 0
vn 0.5773503 0 0
vn 0.5773503 0 0
vn 0.5773503 0 0
vn 0.5773503 0 0
vn 0.5773503 0 0
vn 0.5773503 0 0
vt 0.698045 1
vt 1 1
vt 0.708333 0.921848
vt 0.738499 0.849022
vt 0.786485 0.786485
vt 0.849022 0.738499
vt 0.921848 0.708333
vt 1 0.698045
vt 0.436543 0.849022
vt 0.416667 1
vt 0.494819 0.708333
vt 0.587521 0.587521
vt 0.708333 0.494819
vt 0.849022 0.436543
vt 1 0.416667
vt 0.203153 0.786485
vt 0.17504 1
vt 0.285567 0.587521
vt 0.416667 0.416667
vt 0.587521 0.285567
vt 0.786485 0.203153
vt 1 0.17504
vt 0.755049 1
vt 1 1
vt 1 0.720659
vt 0.786485 0.720659
vt 0.526791 1
vt 0.587521 0.720659
vt 0.33078 1
vt 0.416667 0.720659
vt 0.526791 1
vt 0.33078 1
vt 0.416667 0.720659
vt 0.587521 0.720659
vt 0.755049 1
vt 0.786485 0.720659
vt 1 1
vt 1 0.720659
vt 0 1
vt 0 0
vt 1 0
vt 1 1
vt 1 0
vt 0 0
vt 0 1
vt 1 1
vt 0 0
vt 0 1
vt 0.05358 1
vt 0.0858267 0.755049
vt 0.18038 0.526791
vt 0.33078 0.33078
vt 0.526791 0.18038
vt 0.755049 0.0858267
vt 1 0.05358
vt 1 0
vt 1 1
vt 0 1
vt 0 0
vt 1 0
vt 0 0
vt 1 0
vt 1 0.117647
vt 0.698045 0.1878
vt 0.416667 0.393478
vt 0.17504 0.720659
vt 0.05358 1
vt 0 1
vt 1 0.117647
vt 1 0
vt 0 0
vt 0.698045 0.1878
vt 0.416667 0.393478
vt 0.17504 0.720659
vt 0 1
vt 0.05358 1
usemtl baseThingPartMaterial
f 3/3/3 2/2/2 1/1/1
f 4/4/4 2/2/2 3/3/3
f 5/5/5 2/2/2 4/4/4
f 6/6/6 2/2/2 5/5/5
f 7/7/7 2/2/2 6/6/6
f 8/8/8 2/2/2 7/7/7
f 9/9/9 3/3/3 1/1/1
f 10/10/10 9/9/9 1/1/1
f 11/11/11 4/4/4 3/3/3
f 9/9/9 11/11/11 3/3/3
f 12/12/12 5/5/5 4/4/4
f 11/11/11 12/12/12 4/4/4
f 13/13/13 6/6/6 5/5/5
f 12/12/12 13/13/13 5/5/5
f 14/14/14 7/7/7 6/6/6
f 13/13/13 14/14/14 6/6/6
f 15/15/15 8/8/8 7/7/7
f 14/14/14 15/15/15 7/7/7
f 16/16/16 9/9/9 10/10/10
f 17/17/17 16/16/16 10/10/10
f 18/18/18 11/11/11 9/9/9
f 16/16/16 18/18/18 9/9/9
f 19/19/19 12/12/12 11/11/11
f 18/18/18 19/19/19 11/11/11
f 20/20/20 13/13/13 12/12/12
f 19/19/19 20/20/20 12/12/12
f 21/21/21 14/14/14 13/13/13
f 20/20/20 21/21/21 13/13/13
f 22/22/22 15/15/15 14/14/14
f 21/21/21 22/22/22 14/14/14
f 25/25/25 24/24/24 23/23/23
f 26/26/26 25/25/25 23/23/23
f 26/26/26 23/23/23 27/27/27
f 28/28/28 26/26/26 27/27/27
f 28/28/28 27/27/27 29/29/29
f 30/30/30 28/28/28 29/29/29
f 33/33/33 32/32/32 31/31/31
f 34/34/34 33/33/33 31/31/31
f 34/34/34 31/31/31 35/35/35
f 36/36/36 34/34/34 35/35/35
f 36/36/36 35/35/35 37/37/37
f 38/38/38 36/36/36 37/37/37
f 41/41/41 40/40/40 39/39/39
f 42/42/42 41/41/41 39/39/39
f 45/45/45 44/44/44 43/43/43
f 46/46/46 45/45/45 43/43/43
f 49/49/49 48/48/48 47/47/47
f 47/47/47 50/50/50 49/49/49
f 47/47/47 51/51/51 50/50/50
f 47/47/47 52/52/52 51/51/51
f 47/47/47 53/53/53 52/52/52
f 47/47/47 54/54/54 53/53/53
f 47/47/47 55/55/55 54/54/54
f 47/47/47 56/56/56 55/55/55
f 59/59/59 58/58/58 57/57/57
f 60/60/60 59/59/59 57/57/57
f 63/63/63 62/62/62 61/61/61
f 61/61/61 64/64/64 63/63/63
f 61/61/61 65/65/65 64/64/64
f 61/61/61 66/66/66 65/65/65
f 61/61/61 67/67/67 66/66/66
f 61/61/61 68/68/68 67/67/67
f 71/71/71 70/70/70 69/69/69
f 69/69/69 72/72/72 71/71/71
f 72/72/72 73/73/73 71/71/71
f 73/73/73 74/74/74 71/71/71
f 74/74/74 75/75/75 71/71/71
f 74/74/74 76/76/76 75/75/75
