# Export of Universe
# from Aaro4130 OBJ Exporter v2.0
mtllib 82.mtl
g CubeHole
v 1.5 -0.5 1.5
v -1.5 -0.5 1.5
v -1.5 0.5 1.5
v 1.5 0.5 1.5
v 1.5 -0.5 -1.5
v 1.5 -0.5 1.5
v 1.5 0.5 1.5
v 1.5 0.5 -1.5
v -1.5 0.5 -1.5
v -1.5 -0.5 -1.5
v 1.5 -0.5 -1.5
v 1.5 0.5 -1.5
v -1.5 0.5 1.5
v -1.5 -0.5 1.5
v -1.5 -0.5 -1.5
v -1.5 0.5 -1.5
v 1.5 -0.5 -1.5
v -1.5 -0.5 -1.5
v 0 -0.5 -1.4
v 0.362347 -0.5 -1.3523
v 0.7 -0.5 -1.21244
v 0.989949 -0.5 -0.989949
v 1.21244 -0.5 -0.7
v 1.3523 -0.5 -0.362347
v 1.4 -0.5 -2.77556E-17
v 1.5 -0.5 1.5
v 1.3523 -0.5 0.362347
v 1.21244 -0.5 0.7
v 0.989949 -0.5 0.989949
v 0.7 -0.5 1.21244
v 0.362347 -0.5 1.3523
v -2.77556E-17 -0.5 1.4
v -0.362347 -0.5 -1.3523
v -0.7 -0.5 -1.21244
v -0.989949 -0.5 -0.989949
v -1.21244 -0.5 -0.7
v -1.3523 -0.5 -0.362347
v -1.4 -0.5 0
v -1.5 -0.5 1.5
v -1.3523 -0.5 0.362347
v -1.21244 -0.5 0.7
v -0.989949 -0.5 0.989949
v -0.7 -0.5 1.21244
v -0.362347 -0.5 1.3523
v -1.5 0.5 -1.5
v 1.5 0.5 -1.5
v 2.77556E-17 0.5 -1.4
v -0.362347 0.5 -1.3523
v -0.7 0.5 -1.21244
v -0.989949 0.5 -0.989949
v -1.21244 0.5 -0.7
v -1.3523 0.5 -0.362347
v -1.4 0.5 2.77556E-17
v -1.5 0.5 1.5
v -1.3523 0.5 0.362347
v -1.21244 0.5 0.7
v -0.989949 0.5 0.989949
v -0.7 0.5 1.21244
v -0.362347 0.5 1.3523
v 0 0.5 1.4
v 1.5 0.5 1.5
v 1.4 0.5 0
v 1.3523 0.5 0.362347
v 1.21244 0.5 0.7
v 0.989949 0.5 0.989949
v 0.7 0.5 1.21244
v 0.362347 0.5 1.3523
v 1.3523 0.5 -0.362347
v 1.21244 0.5 -0.7
v 0.989949 0.5 -0.989949
v 0.7 0.5 -1.21244
v 0.362347 0.5 -1.3523
v 1.4 0.5 0
v 1.4 -0.5 0
v 1.3523 -0.5 -0.362347
v 1.3523 0.5 -0.362347
v 1.21244 -0.5 -0.7
v 1.21244 0.5 -0.7
v 0.989949 -0.5 -0.989949
v 0.989949 0.5 -0.989949
v 1.3523 0.5 0.362347
v 1.3523 -0.5 0.362347
v 1.21244 0.5 0.7
v 1.21244 -0.5 0.7
v 0.989949 0.5 0.989949
v 0.989949 -0.5 0.989949
v 0.989949 0.5 -0.989949
v 0.989949 -0.5 -0.989949
v 0.7 -0.5 -1.21244
v 0.7 0.5 -1.21244
v 0.362347 -0.5 -1.3523
v 0.362347 0.5 -1.3523
v 0 -0.5 -1.4
v 0 0.5 -1.4
v -0.362347 -0.5 -1.3523
v -0.362347 0.5 -1.3523
v -0.7 -0.5 -1.21244
v -0.7 0.5 -1.21244
v -0.989949 -0.5 -0.989949
v -0.989949 0.5 -0.989949
v -0.989949 0.5 -0.989949
v -0.989949 -0.5 -0.989949
v -1.21244 -0.5 -0.7
v -1.21244 0.5 -0.7
v -1.3523 -0.5 -0.362347
v -1.3523 0.5 -0.362347
v -1.4 -0.5 0
v -1.4 0.5 0
v -1.3523 -0.5 0.362347
v -1.3523 0.5 0.362347
v -1.21244 -0.5 0.7
v -1.21244 0.5 0.7
v -0.989949 -0.5 0.989949
v -0.989949 0.5 0.989949
v -0.989949 0.5 0.989949
v -0.989949 -0.5 0.989949
v -0.7 -0.5 1.21244
v -0.7 0.5 1.21244
v -0.362347 -0.5 1.3523
v -0.362347 0.5 1.3523
v 0 -0.5 1.4
v 0 0.5 1.4
v 0.362347 -0.5 1.3523
v 0.362347 0.5 1.3523
v 0.7 -0.5 1.21244
v 0.7 0.5 1.21244
v 0.989949 -0.5 0.989949
v 0.989949 0.5 0.989949
vn 0 0 0.5773503
vn 0 0 0.5773503
vn 0 0 0.5773503
vn 0 0 0.5773503
vn 0.5773503 0 0
vn 0.5773503 0 0
vn 0.5773503 0 0
vn 0.5773503 0 0
vn 0 0 -0.5773503
vn 0 0 -0.5773503
vn 0 0 -0.5773503
vn 0 0 -0.5773503
vn -0.5773503 0 0
vn -0.5773503 0 0
vn -0.5773503 0 0
vn -0.5773503 0 0
vn 0 -0.5773503 0
vn 0 -0.5773503 0
vn 0 -0.5773503 0
vn 0 -0.5773503 0
vn 0 -0.5773503 0
vn 0 -0.5773503 0
vn 0 -0.5773503 0
vn 0 -0.5773503 0
vn 0 -0.5773503 0
vn 0 -0.5773503 0
vn 0 -0.5773503 0
vn 0 -0.5773503 0
vn 0 -0.5773503 0
vn 0 -0.5773503 0
vn 0 -0.5773503 0
vn 0 -0.5773503 0
vn 0 -0.5773503 0
vn 0 -0.5773503 0
vn 0 -0.5773503 0
vn 0 -0.5773503 0
vn 0 -0.5773503 0
vn 0 -0.5773503 0
vn 0 -0.5773503 0
vn 0 -0.5773503 0
vn 0 -0.5773503 0
vn 0 -0.5773503 0
vn 0 -0.5773503 0
vn 0 -0.5773503 0
vn 0 0.5773503 0
vn 0 0.5773503 0
vn 0 0.5773503 0
vn 0 0.5773503 0
vn 0 0.5773503 0
vn 0 0.5773503 0
vn 0 0.5773503 0
vn 0 0.5773503 0
vn 0 0.5773503 0
vn 0 0.5773503 0
vn 0 0.5773503 0
vn 0 0.5773503 0
vn 0 0.5773503 0
vn 0 0.5773503 0
vn 0 0.5773503 0
vn 0 0.5773503 0
vn 0 0.5773503 0
vn 0 0.5773503 0
vn 0 0.5773503 0
vn 0 0.5773503 0
vn 0 0.5773503 0
vn 0 0.5773503 0
vn 0 0.5773503 0
vn 0 0.5773503 0
vn 0 0.5773503 0
vn 0 0.5773503 0
vn 0 0.5773503 0
vn 0 0.5773503 0
vn -0.5773503 0 0
vn -0.5773503 0 0
vn -0.5576784 0 0.149426
vn -0.5576784 0 0.149426
vn -0.4999985 0 0.2886778
vn -0.4999985 0 0.2886778
vn -0.4082483 0 0.4082483
vn -0.4082483 0 0.4082483
vn -0.5576784 0 -0.149426
vn -0.5576784 0 -0.149426
vn -0.4999985 0 -0.2886778
vn -0.4999985 0 -0.2886778
vn -0.4082483 0 -0.4082483
vn -0.4082483 0 -0.4082483
vn -0.4082483 0 0.4082483
vn -0.4082483 0 0.4082483
vn -0.2886778 0 0.4999985
vn -0.2886778 0 0.4999985
vn -0.149426 0 0.5576784
vn -0.149426 0 0.5576784
vn 0 0 0.5773503
vn 0 0 0.5773503
vn 0.149426 0 0.5576784
vn 0.149426 0 0.5576784
vn 0.2886778 0 0.4999985
vn 0.2886778 0 0.4999985
vn 0.4082483 0 0.4082483
vn 0.4082483 0 0.4082483
vn 0.4082483 0 0.4082483
vn 0.4082483 0 0.4082483
vn 0.4999985 0 0.2886778
vn 0.4999985 0 0.2886778
vn 0.5576784 0 0.149426
vn 0.5576784 0 0.149426
vn 0.5773503 0 0
vn 0.5773503 0 0
vn 0.5576784 0 -0.149426
vn 0.5576784 0 -0.149426
vn 0.4999985 0 -0.2886778
vn 0.4999985 0 -0.2886778
vn 0.4082483 0 -0.4082483
vn 0.4082483 0 -0.4082483
vn 0.4082483 0 -0.4082483
vn 0.4082483 0 -0.4082483
vn 0.2886778 0 -0.4999985
vn 0.2886778 0 -0.4999985
vn 0.149426 0 -0.5576784
vn 0.149426 0 -0.5576784
vn 0 0 -0.5773503
vn 0 0 -0.5773503
vn -0.149426 0 -0.5576784
vn -0.149426 0 -0.5576784
vn -0.2886778 0 -0.4999985
vn -0.2886778 0 -0.4999985
vn -0.4082483 0 -0.4082483
vn -0.4082483 0 -0.4082483
vt 1 0
vt 0 0
vt 0 1
vt 1 1
vt 1 0
vt 0 0
vt 0 1
vt 1 1
vt 0 1
vt 0 0
vt 1 0
vt 1 1
vt 0 1
vt 0 0
vt 1 0
vt 1 1
vt 1 1
vt 0 1
vt 0.5 0.966667
vt 0.620782 0.950767
vt 0.733333 0.904147
vt 0.829983 0.829983
vt 0.904147 0.733333
vt 0.950767 0.620782
vt 0.966667 0.5
vt 1 0
vt 0.950767 0.379218
vt 0.904147 0.266667
vt 0.829983 0.170017
vt 0.733333 0.0958533
vt 0.620782 0.0492333
vt 0.5 0.0333333
vt 0.379218 0.950767
vt 0.266667 0.904147
vt 0.170017 0.829983
vt 0.0958533 0.733333
vt 0.0492333 0.620782
vt 0.0333333 0.5
vt 0 0
vt 0.0492333 0.379218
vt 0.0958533 0.266667
vt 0.170017 0.170017
vt 0.266667 0.0958533
vt 0.379218 0.0492333
vt 0 1
vt 1 1
vt 0.5 0.966667
vt 0.379218 0.950767
vt 0.266667 0.904147
vt 0.170017 0.829983
vt 0.0958533 0.733333
vt 0.0492333 0.620782
vt 0.0333333 0.5
vt 0 0
vt 0.0492333 0.379218
vt 0.0958533 0.266667
vt 0.170017 0.170017
vt 0.266667 0.0958533
vt 0.379218 0.0492333
vt 0.5 0.0333333
vt 1 0
vt 0.966667 0.5
vt 0.950767 0.379218
vt 0.904147 0.266667
vt 0.829983 0.170017
vt 0.733333 0.0958533
vt 0.620782 0.0492333
vt 0.950767 0.620782
vt 0.904147 0.733333
vt 0.829983 0.829983
vt 0.733333 0.904147
vt 0.620782 0.950767
vt 0.5 1
vt 0.5 0
vt 0.620782 0
vt 0.620782 1
vt 0.733333 0
vt 0.733333 1
vt 0.829983 0
vt 0.829983 1
vt 0.379218 1
vt 0.379218 0
vt 0.266667 1
vt 0.266667 0
vt 0.170017 1
vt 0.170017 0
vt 0.829983 1
vt 0.829983 0
vt 0.733333 0
vt 0.733333 1
vt 0.620782 0
vt 0.620782 1
vt 0.5 0
vt 0.5 1
vt 0.379218 0
vt 0.379218 1
vt 0.266667 0
vt 0.266667 1
vt 0.170017 0
vt 0.170017 1
vt 0.829983 1
vt 0.829983 0
vt 0.733333 0
vt 0.733333 1
vt 0.620782 0
vt 0.620782 1
vt 0.5 0
vt 0.5 1
vt 0.379218 0
vt 0.379218 1
vt 0.266667 0
vt 0.266667 1
vt 0.170017 0
vt 0.170017 1
vt 0.170017 1
vt 0.170017 0
vt 0.266667 0
vt 0.266667 1
vt 0.379218 0
vt 0.379218 1
vt 0.5 0
vt 0.5 1
vt 0.620782 0
vt 0.620782 1
vt 0.733333 0
vt 0.733333 1
vt 0.829983 0
vt 0.829983 1
usemtl baseThingPartMaterial
f 3/3/3 2/2/2 1/1/1
f 4/4/4 3/3/3 1/1/1
f 7/7/7 6/6/6 5/5/5
f 8/8/8 7/7/7 5/5/5
f 11/11/11 10/10/10 9/9/9
f 12/12/12 11/11/11 9/9/9
f 15/15/15 14/14/14 13/13/13
f 16/16/16 15/15/15 13/13/13
f 19/19/19 18/18/18 17/17/17
f 17/17/17 20/20/20 19/19/19
f 17/17/17 21/21/21 20/20/20
f 17/17/17 22/22/22 21/21/21
f 23/23/23 22/22/22 17/17/17
f 17/17/17 24/24/24 23/23/23
f 17/17/17 25/25/25 24/24/24
f 17/17/17 26/26/26 25/25/25
f 26/26/26 27/27/27 25/25/25
f 26/26/26 28/28/28 27/27/27
f 26/26/26 29/29/29 28/28/28
f 26/26/26 30/30/30 29/29/29
f 26/26/26 31/31/31 30/30/30
f 26/26/26 32/32/32 31/31/31
f 18/18/18 19/19/19 33/33/33
f 18/18/18 33/33/33 34/34/34
f 18/18/18 34/34/34 35/35/35
f 18/18/18 35/35/35 36/36/36
f 18/18/18 36/36/36 37/37/37
f 18/18/18 37/37/37 38/38/38
f 38/38/38 39/39/39 18/18/18
f 32/32/32 26/26/26 39/39/39
f 38/38/38 40/40/40 39/39/39
f 40/40/40 41/41/41 39/39/39
f 41/41/41 42/42/42 39/39/39
f 42/42/42 43/43/43 39/39/39
f 43/43/43 44/44/44 39/39/39
f 44/44/44 32/32/32 39/39/39
f 47/47/47 46/46/46 45/45/45
f 45/45/45 48/48/48 47/47/47
f 45/45/45 49/49/49 48/48/48
f 45/45/45 50/50/50 49/49/49
f 45/45/45 51/51/51 50/50/50
f 45/45/45 52/52/52 51/51/51
f 45/45/45 53/53/53 52/52/52
f 45/45/45 54/54/54 53/53/53
f 54/54/54 55/55/55 53/53/53
f 54/54/54 56/56/56 55/55/55
f 54/54/54 57/57/57 56/56/56
f 54/54/54 58/58/58 57/57/57
f 54/54/54 59/59/59 58/58/58
f 54/54/54 60/60/60 59/59/59
f 60/60/60 54/54/54 61/61/61
f 62/62/62 61/61/61 46/46/46
f 62/62/62 63/63/63 61/61/61
f 63/63/63 64/64/64 61/61/61
f 64/64/64 65/65/65 61/61/61
f 65/65/65 66/66/66 61/61/61
f 66/66/66 67/67/67 61/61/61
f 67/67/67 60/60/60 61/61/61
f 46/46/46 68/68/68 62/62/62
f 46/46/46 69/69/69 68/68/68
f 46/46/46 70/70/70 69/69/69
f 71/71/71 70/70/70 46/46/46
f 46/46/46 72/72/72 71/71/71
f 46/46/46 47/47/47 72/72/72
f 75/75/75 74/74/74 73/73/73
f 76/76/76 75/75/75 73/73/73
f 77/77/77 75/75/75 76/76/76
f 78/78/78 77/77/77 76/76/76
f 79/79/79 77/77/77 78/78/78
f 80/80/80 79/79/79 78/78/78
f 73/73/73 74/74/74 81/81/81
f 74/74/74 82/82/82 81/81/81
f 81/81/81 82/82/82 83/83/83
f 82/82/82 84/84/84 83/83/83
f 83/83/83 84/84/84 85/85/85
f 84/84/84 86/86/86 85/85/85
f 89/89/89 88/88/88 87/87/87
f 90/90/90 89/89/89 87/87/87
f 91/91/91 89/89/89 90/90/90
f 92/92/92 91/91/91 90/90/90
f 93/93/93 91/91/91 92/92/92
f 94/94/94 93/93/93 92/92/92
f 95/95/95 93/93/93 94/94/94
f 96/96/96 95/95/95 94/94/94
f 97/97/97 95/95/95 96/96/96
f 98/98/98 97/97/97 96/96/96
f 99/99/99 97/97/97 98/98/98
f 100/100/100 99/99/99 98/98/98
f 103/103/103 102/102/102 101/101/101
f 104/104/104 103/103/103 101/101/101
f 105/105/105 103/103/103 104/104/104
f 106/106/106 105/105/105 104/104/104
f 107/107/107 105/105/105 106/106/106
f 108/108/108 107/107/107 106/106/106
f 109/109/109 107/107/107 108/108/108
f 110/110/110 109/109/109 108/108/108
f 111/111/111 109/109/109 110/110/110
f 112/112/112 111/111/111 110/110/110
f 113/113/113 111/111/111 112/112/112
f 114/114/114 113/113/113 112/112/112
f 117/117/117 116/116/116 115/115/115
f 118/118/118 117/117/117 115/115/115
f 119/119/119 117/117/117 118/118/118
f 120/120/120 119/119/119 118/118/118
f 121/121/121 119/119/119 120/120/120
f 122/122/122 121/121/121 120/120/120
f 123/123/123 121/121/121 122/122/122
f 124/124/124 123/123/123 122/122/122
f 125/125/125 123/123/123 124/124/124
f 126/126/126 125/125/125 124/124/124
f 127/127/127 125/125/125 126/126/126
f 128/128/128 127/127/127 126/126/126
