# Export of Universe
# from Aaro4130 OBJ Exporter v2.0
mtllib 87.mtl
g QuarterSphereRotated
v 0.649519 0.75 -0.375
v 0.724444 0.388228 -0.504775
v 1.02452 0.388228 -0.274519
v 0.918559 0.75 -0.168559
v 0.336216 0.75 -0.504775
v 0.375 0.388228 -0.649519
v 4.78035E-08 0.75 -0.549039
v 8.99504E-08 0.388228 -0.698889
v -0.336216 0.75 -0.504775
v -0.375 0.388228 -0.649519
v -0.649518 0.75 -0.375
v -0.724444 0.388228 -0.504775
v 0.53033 1.06066 -0.168559
v 0.75 1.06066 -2.98023E-08
v 0.274519 1.06066 -0.274519
v 5.83402E-08 1.06066 -0.31066
v -0.274519 1.06066 -0.274519
v -0.53033 1.06066 -0.168559
v -0.918558 0.75 -0.168559
v -1.02452 0.388228 -0.274519
v -0.75 1.06066 -7.45058E-09
v 0.388229 -9.18485E-17 -0.698889
v 0.75 -9.18485E-17 -0.549039
v 0.724444 -0.388229 -0.504775
v 1.02452 -0.388229 -0.274519
v 0.918559 -0.75 -0.168559
v 0.649519 -0.75 -0.375
v 0.75 -1.06066 -2.98023E-08
v 0.53033 -1.06066 -0.168559
v 0.336216 -0.75 -0.504775
v 0.274519 -1.06066 -0.274519
v 4.78035E-08 -0.75 -0.549039
v 5.83402E-08 -1.06066 -0.31066
v -0.336216 -0.75 -0.504775
v -0.274519 -1.06066 -0.274519
v -0.649518 -0.75 -0.375
v -0.53033 -1.06066 -0.168559
v 0.375 -0.388229 -0.649519
v 8.99504E-08 -0.388229 -0.698889
v -0.375 -0.388229 -0.649519
v -0.724444 -0.388229 -0.504775
v 6.8877E-08 -9.18485E-17 -0.75
v -0.388228 -9.18485E-17 -0.698889
v -0.75 -9.18485E-17 -0.549039
v -0.918558 -0.75 -0.168559
v -0.75 -1.06066 -7.45058E-09
v -1.02452 -0.388229 -0.274519
v -1.06066 -9.18485E-17 -0.31066
v 0.375 1.29904 0.100481
v 0.53033 1.06066 -0.168559
v 0.75 1.06066 -2.98023E-08
v 0.53033 1.29904 0.21967
v 0.194114 1.29904 0.0255555
v 0.274519 1.06066 -0.274519
v 5.83402E-08 1.29904 -1.49012E-08
v 5.83402E-08 1.06066 -0.31066
v -0.194114 1.29904 0.0255555
v -0.274519 1.06066 -0.274519
v -0.375 1.29904 0.100481
v -0.53033 1.06066 -0.168559
v 0.194114 1.44889 0.413784
v 0.274519 1.44889 0.475481
v 0.100481 1.44889 0.375
v 6.8877E-08 1.44889 0.361771
v -0.100481 1.44889 0.375
v -0.194114 1.44889 0.413784
v 4.76455E-08 1.5 0.75
v -0.75 1.06066 -7.45058E-09
v -0.53033 1.29904 0.21967
v -0.274519 1.44889 0.475481
v 0.194114 -1.44889 0.413784
v 4.76455E-08 -1.5 0.75
v 0.274519 -1.44889 0.47548
v 0.100481 -1.44889 0.375
v 6.8877E-08 -1.44889 0.361771
v -0.100481 -1.44889 0.375
v -0.194114 -1.44889 0.413784
v 0.375 -1.29904 0.100481
v 0.53033 -1.29904 0.21967
v 0.194114 -1.29904 0.0255555
v 5.83402E-08 -1.29904 -1.49012E-08
v -0.194114 -1.29904 0.0255555
v -0.375 -1.29904 0.100481
v 0.53033 -1.06066 -0.168559
v 0.75 -1.06066 -2.98023E-08
v 0.274519 -1.06066 -0.274519
v 5.83402E-08 -1.06066 -0.31066
v -0.274519 -1.06066 -0.274519
v -0.53033 -1.06066 -0.168559
v -0.53033 -1.29904 0.21967
v -0.274519 -1.44889 0.47548
v -0.75 -1.06066 -7.45058E-09
v 1.06066 -9.18485E-17 -0.31066
v -0.274519 1.44889 0.475481
v 4.76455E-08 1.5 0.75
v 4.76455E-08 -1.5 0.75
v -0.274519 -1.44889 0.47548
v -0.53033 1.29904 0.21967
v -0.53033 -1.29904 0.21967
v -0.75 1.06066 -7.45058E-09
v -0.75 -1.06066 -7.45058E-09
v -0.918558 0.75 -0.168559
v -0.918558 -0.75 -0.168559
v -1.02452 0.388228 -0.274519
v -1.02452 -0.388229 -0.274519
v -1.06066 0 -0.31066
v 0.274519 -1.44889 0.47548
v 4.76455E-08 -1.5 0.75
v 4.76455E-08 1.5 0.75
v 0.53033 -1.29904 0.21967
v 0.75 -1.06066 -2.98023E-08
v 0.918559 -0.75 -0.168559
v 1.02452 -0.388229 -0.274519
v 1.06066 -1.11022E-16 -0.31066
v 1.02452 0.388228 -0.274519
v 0.918559 0.75 -0.168559
v 0.75 1.06066 -2.98023E-08
v 0.53033 1.29904 0.21967
v 0.274519 1.44889 0.475481
vn 0.2499816 0.2887382 -0.4329813
vn 0.2788332 0.1494698 -0.4829536
vn 0.3396799 0.1482756 -0.4426796
vn 0.3050086 0.28688 -0.3974958
vn 0.1294003 0.2887382 -0.4829277
vn 0.1443348 0.1494696 -0.5386647
vn 0 0.2887383 -0.4999635
vn 0 0.1494693 -0.5576668
vn -0.1294004 0.2887383 -0.4829276
vn -0.1443348 0.1494696 -0.5386647
vn -0.2499817 0.2887383 -0.4329811
vn -0.2788331 0.14947 -0.4829535
vn 0.2040946 0.4083074 -0.3535022
vn 0.2495554 0.4065501 -0.3252268
vn 0.1056471 0.4083075 -0.3942804
vn 0 0.4083076 -0.4081891
vn -0.1056472 0.4083074 -0.3942804
vn -0.2040947 0.4083072 -0.3535023
vn -0.3050086 0.28688 -0.3974958
vn -0.3396797 0.148276 -0.4426796
vn -0.2495555 0.4065498 -0.3252271
vn 0.1494289 0 -0.5576776
vn 0.2886751 0 -0.5000001
vn 0.2788332 -0.14947 -0.4829535
vn 0.3396798 -0.1482758 -0.4426796
vn 0.3050086 -0.2868802 -0.3974957
vn 0.2499816 -0.2887385 -0.4329811
vn 0.2495554 -0.4065501 -0.3252268
vn 0.2040946 -0.4083074 -0.3535022
vn 0.1294003 -0.2887385 -0.4829275
vn 0.1056471 -0.4083074 -0.3942804
vn 0 -0.2887385 -0.4999634
vn 0 -0.4083076 -0.4081891
vn -0.1294004 -0.2887385 -0.4829275
vn -0.1056472 -0.4083074 -0.3942804
vn -0.2499817 -0.2887385 -0.432981
vn -0.2040947 -0.4083072 -0.3535023
vn 0.1443348 -0.1494698 -0.5386646
vn 0 -0.1494695 -0.5576667
vn -0.1443348 -0.1494698 -0.5386646
vn -0.2788331 -0.1494702 -0.4829535
vn 0 0 -0.5773503
vn -0.1494288 0 -0.5576776
vn -0.2886749 0 -0.5000001
vn -0.3050086 -0.2868803 -0.3974957
vn -0.2495555 -0.4065498 -0.3252271
vn -0.3396797 -0.1482762 -0.4426795
vn -0.3514689 0 -0.4580425
vn 0.1443061 0.5000364 -0.2499454
vn 0.2040946 0.4083074 -0.3535022
vn 0.2495554 0.4065501 -0.3252268
vn 0.1768295 0.498957 -0.2304485
vn 0.07469831 0.5000364 -0.278778
vn 0.1056471 0.4083075 -0.3942804
vn 0 0.5000363 -0.2886122
vn 0 0.4083076 -0.4081891
vn -0.0746983 0.5000364 -0.278778
vn -0.1056472 0.4083074 -0.3942804
vn -0.1443061 0.5000364 -0.2499454
vn -0.2040947 0.4083072 -0.3535023
vn 0.07469345 0.5576889 -0.1293728
vn 0.09167258 0.5573657 -0.1194699
vn 0.03866431 0.5576889 -0.1442966
vn 0 0.5576889 -0.1493868
vn -0.0386643 0.5576889 -0.1442966
vn -0.07469345 0.5576889 -0.1293728
vn 0 0.5732451 -0.06872683
vn -0.2495555 0.4065498 -0.3252271
vn -0.1768295 0.498957 -0.2304485
vn -0.09167256 0.5573657 -0.1194699
vn 0.07469323 -0.5576888 -0.129373
vn 0 -0.5732451 -0.06872693
vn 0.09167214 -0.5573655 -0.1194704
vn 0.03866431 -0.5576889 -0.1442966
vn 0 -0.5576889 -0.1493868
vn -0.0386643 -0.5576889 -0.1442966
vn -0.07469323 -0.5576889 -0.129373
vn 0.1443059 -0.5000364 -0.2499455
vn 0.1768294 -0.4989569 -0.2304488
vn 0.07469831 -0.5000364 -0.278778
vn 0 -0.5000363 -0.2886122
vn -0.0746983 -0.5000364 -0.278778
vn -0.144306 -0.5000364 -0.2499455
vn 0.2040946 -0.4083074 -0.3535022
vn 0.2495554 -0.4065501 -0.3252268
vn 0.1056471 -0.4083074 -0.3942804
vn 0 -0.4083076 -0.4081891
vn -0.1056472 -0.4083074 -0.3942804
vn -0.2040947 -0.4083072 -0.3535023
vn -0.1768294 -0.4989569 -0.2304488
vn -0.09167214 -0.5573655 -0.1194703
vn -0.2495555 -0.4065498 -0.3252271
vn 0.3514689 0 -0.4580425
vn -0.4082485 0 0.4082481
vn -0.4082482 0 0.4082483
vn -0.4082486 0 0.4082479
vn -0.4082482 0 0.4082483
vn -0.408248 0 0.4082485
vn -0.408248 0 0.4082485
vn -0.4082487 0 0.4082479
vn -0.4082491 0 0.4082474
vn -0.4082478 0 0.4082488
vn -0.4082461 0 0.4082505
vn -0.4082476 0 0.4082489
vn -0.4082492 0 0.4082473
vn -0.4082541 0 0.4082424
vn 0.4082483 0 0.4082482
vn 0.4082491 0 0.4082474
vn 0.4082482 0 0.4082483
vn 0.4082479 0 0.4082486
vn 0.4082483 0 0.4082482
vn 0.4082478 0 0.4082487
vn 0.4082482 0 0.4082484
vn 0.4082482 0 0.4082484
vn 0.4082481 0 0.4082484
vn 0.4082486 0 0.4082479
vn 0.4082483 0 0.4082482
vn 0.4082483 0 0.4082482
vn 0.4082483 0 0.4082482
vt 0.806186 0.75
vt 0.841506 0.629409
vt 0.982963 0.629409
vt 0.933013 0.75
vt 0.658494 0.75
vt 0.676777 0.629409
vt 0.5 0.75
vt 0.5 0.629409
vt 0.341506 0.75
vt 0.323223 0.629409
vt 0.193814 0.75
vt 0.158494 0.629409
vt 0.75 0.853553
vt 0.853553 0.853553
vt 0.629409 0.853553
vt 0.5 0.853553
vt 0.37059 0.853553
vt 0.25 0.853553
vt 0.0669875 0.75
vt 0.0170365 0.629409
vt 0.146447 0.853553
vt 0.683013 0.5
vt 0.853553 0.5
vt 0.841506 0.37059
vt 0.982963 0.37059
vt 0.933013 0.25
vt 0.806186 0.25
vt 0.853553 0.146447
vt 0.75 0.146447
vt 0.658494 0.25
vt 0.629409 0.146447
vt 0.5 0.25
vt 0.5 0.146447
vt 0.341506 0.25
vt 0.37059 0.146447
vt 0.193814 0.25
vt 0.25 0.146447
vt 0.676777 0.37059
vt 0.5 0.37059
vt 0.323223 0.37059
vt 0.158494 0.37059
vt 0.5 0.5
vt 0.316988 0.5
vt 0.146447 0.5
vt 0.0669875 0.25
vt 0.146447 0.146447
vt 0.0170365 0.37059
vt 0 0.5
vt 0.676777 0.433013
vt 0.75 0.612373
vt 0.853553 0.5
vt 0.75 0.353553
vt 0.591506 0.482963
vt 0.629409 0.683013
vt 0.5 0.5
vt 0.5 0.707107
vt 0.408494 0.482963
vt 0.37059 0.683013
vt 0.323223 0.433013
vt 0.25 0.612373
vt 0.591506 0.224144
vt 0.629409 0.183013
vt 0.547367 0.25
vt 0.5 0.258819
vt 0.452633 0.25
vt 0.408494 0.224144
vt 0.5 0
vt 0.146447 0.5
vt 0.25 0.353553
vt 0.37059 0.183013
vt 0.591506 0.224144
vt 0.5 0
vt 0.629409 0.183013
vt 0.547367 0.25
vt 0.5 0.258819
vt 0.452633 0.25
vt 0.408494 0.224144
vt 0.676777 0.433013
vt 0.75 0.353553
vt 0.591506 0.482963
vt 0.5 0.5
vt 0.408494 0.482963
vt 0.323223 0.433013
vt 0.75 0.612373
vt 0.853553 0.5
vt 0.629409 0.683013
vt 0.5 0.707107
vt 0.37059 0.683013
vt 0.25 0.612373
vt 0.25 0.353553
vt 0.37059 0.183013
vt 0.146447 0.5
vt 1 0.5
vt 0.183013 0.982963
vt 0 1
vt 0 0
vt 0.183013 0.0170367
vt 0.353553 0.933013
vt 0.353553 0.0669867
vt 0.5 0.853553
vt 0.5 0.146447
vt 0.612373 0.75
vt 0.612373 0.25
vt 0.683013 0.629409
vt 0.683013 0.37059
vt 0.707107 0.5
vt 0.183013 0.0170367
vt 0 0
vt 0 1
vt 0.353553 0.0669867
vt 0.5 0.146447
vt 0.612373 0.25
vt 0.683013 0.37059
vt 0.707107 0.5
vt 0.683013 0.629409
vt 0.612373 0.75
vt 0.5 0.853553
vt 0.353553 0.933013
vt 0.183013 0.982963
usemtl baseThingPartMaterial
f 3/3/3 2/2/2 1/1/1
f 4/4/4 3/3/3 1/1/1
f 1/1/1 2/2/2 5/5/5
f 2/2/2 6/6/6 5/5/5
f 5/5/5 6/6/6 7/7/7
f 6/6/6 8/8/8 7/7/7
f 7/7/7 8/8/8 9/9/9
f 8/8/8 10/10/10 9/9/9
f 9/9/9 10/10/10 11/11/11
f 10/10/10 12/12/12 11/11/11
f 4/4/4 1/1/1 13/13/13
f 14/14/14 4/4/4 13/13/13
f 1/1/1 5/5/5 15/15/15
f 13/13/13 1/1/1 15/15/15
f 5/5/5 7/7/7 16/16/16
f 15/15/15 5/5/5 16/16/16
f 7/7/7 9/9/9 17/17/17
f 16/16/16 7/7/7 17/17/17
f 9/9/9 11/11/11 18/18/18
f 17/17/17 9/9/9 18/18/18
f 11/11/11 12/12/12 19/19/19
f 12/12/12 20/20/20 19/19/19
f 11/11/11 19/19/19 21/21/21
f 18/18/18 11/11/11 21/21/21
f 6/6/6 22/22/22 8/8/8
f 23/23/23 22/22/22 6/6/6
f 23/23/23 24/24/24 22/22/22
f 25/25/25 24/24/24 23/23/23
f 25/25/25 26/26/26 24/24/24
f 26/26/26 27/27/27 24/24/24
f 26/26/26 28/28/28 27/27/27
f 28/28/28 29/29/29 27/27/27
f 27/27/27 29/29/29 30/30/30
f 29/29/29 31/31/31 30/30/30
f 30/30/30 31/31/31 32/32/32
f 31/31/31 33/33/33 32/32/32
f 32/32/32 33/33/33 34/34/34
f 33/33/33 35/35/35 34/34/34
f 34/34/34 35/35/35 36/36/36
f 35/35/35 37/37/37 36/36/36
f 27/27/27 30/30/30 38/38/38
f 24/24/24 27/27/27 38/38/38
f 30/30/30 32/32/32 39/39/39
f 38/38/38 30/30/30 39/39/39
f 32/32/32 34/34/34 40/40/40
f 39/39/39 32/32/32 40/40/40
f 34/34/34 36/36/36 41/41/41
f 40/40/40 34/34/34 41/41/41
f 38/38/38 39/39/39 42/42/42
f 22/22/22 38/38/38 42/42/42
f 24/24/24 38/38/38 22/22/22
f 39/39/39 40/40/40 43/43/43
f 42/42/42 39/39/39 43/43/43
f 40/40/40 41/41/41 44/44/44
f 43/43/43 40/40/40 44/44/44
f 22/22/22 42/42/42 8/8/8
f 42/42/42 43/43/43 10/10/10
f 8/8/8 42/42/42 10/10/10
f 43/43/43 44/44/44 12/12/12
f 10/10/10 43/43/43 12/12/12
f 45/45/45 36/36/36 37/37/37
f 46/46/46 45/45/45 37/37/37
f 47/47/47 41/41/41 36/36/36
f 45/45/45 47/47/47 36/36/36
f 48/48/48 44/44/44 41/41/41
f 47/47/47 48/48/48 41/41/41
f 44/44/44 48/48/48 20/20/20
f 12/12/12 44/44/44 20/20/20
f 51/51/51 50/50/50 49/49/49
f 52/52/52 51/51/51 49/49/49
f 49/49/49 50/50/50 53/53/53
f 50/50/50 54/54/54 53/53/53
f 53/53/53 54/54/54 55/55/55
f 54/54/54 56/56/56 55/55/55
f 55/55/55 56/56/56 57/57/57
f 56/56/56 58/58/58 57/57/57
f 57/57/57 58/58/58 59/59/59
f 58/58/58 60/60/60 59/59/59
f 52/52/52 49/49/49 61/61/61
f 62/62/62 52/52/52 61/61/61
f 49/49/49 53/53/53 63/63/63
f 61/61/61 49/49/49 63/63/63
f 53/53/53 55/55/55 64/64/64
f 63/63/63 53/53/53 64/64/64
f 55/55/55 57/57/57 65/65/65
f 64/64/64 55/55/55 65/65/65
f 57/57/57 59/59/59 66/66/66
f 65/65/65 57/57/57 66/66/66
f 61/61/61 63/63/63 67/67/67
f 63/63/63 64/64/64 67/67/67
f 64/64/64 65/65/65 67/67/67
f 65/65/65 66/66/66 67/67/67
f 67/67/67 62/62/62 61/61/61
f 59/59/59 60/60/60 68/68/68
f 69/69/69 59/59/59 68/68/68
f 59/59/59 69/69/69 70/70/70
f 66/66/66 59/59/59 70/70/70
f 67/67/67 66/66/66 70/70/70
f 73/73/73 72/72/72 71/71/71
f 71/71/71 72/72/72 74/74/74
f 74/74/74 72/72/72 75/75/75
f 75/75/75 72/72/72 76/76/76
f 76/76/76 72/72/72 77/77/77
f 73/73/73 71/71/71 78/78/78
f 79/79/79 73/73/73 78/78/78
f 71/71/71 74/74/74 80/80/80
f 78/78/78 71/71/71 80/80/80
f 74/74/74 75/75/75 81/81/81
f 80/80/80 74/74/74 81/81/81
f 75/75/75 76/76/76 82/82/82
f 81/81/81 75/75/75 82/82/82
f 76/76/76 77/77/77 83/83/83
f 82/82/82 76/76/76 83/83/83
f 79/79/79 78/78/78 84/84/84
f 85/85/85 79/79/79 84/84/84
f 78/78/78 80/80/80 86/86/86
f 84/84/84 78/78/78 86/86/86
f 80/80/80 81/81/81 87/87/87
f 86/86/86 80/80/80 87/87/87
f 81/81/81 82/82/82 88/88/88
f 87/87/87 81/81/81 88/88/88
f 82/82/82 83/83/83 89/89/89
f 88/88/88 82/82/82 89/89/89
f 90/90/90 83/83/83 77/77/77
f 91/91/91 90/90/90 77/77/77
f 91/91/91 77/77/77 72/72/72
f 92/92/92 89/89/89 83/83/83
f 90/90/90 92/92/92 83/83/83
f 93/93/93 25/25/25 23/23/23
f 93/93/93 23/23/23 2/2/2
f 3/3/3 93/93/93 2/2/2
f 2/2/2 23/23/23 6/6/6
f 96/96/96 95/95/95 94/94/94
f 94/94/94 97/97/97 96/96/96
f 94/94/94 98/98/98 97/97/97
f 98/98/98 99/99/99 97/97/97
f 98/98/98 100/100/100 99/99/99
f 100/100/100 101/101/101 99/99/99
f 100/100/100 102/102/102 101/101/101
f 102/102/102 103/103/103 101/101/101
f 102/102/102 104/104/104 103/103/103
f 104/104/104 105/105/105 103/103/103
f 104/104/104 106/106/106 105/105/105
f 109/109/109 108/108/108 107/107/107
f 107/107/107 110/110/110 109/109/109
f 110/110/110 111/111/111 109/109/109
f 111/111/111 112/112/112 109/109/109
f 112/112/112 113/113/113 109/109/109
f 113/113/113 114/114/114 109/109/109
f 114/114/114 115/115/115 109/109/109
f 115/115/115 116/116/116 109/109/109
f 116/116/116 117/117/117 109/109/109
f 117/117/117 118/118/118 109/109/109
f 118/118/118 119/119/119 109/109/109
