# Export of Universe
# from Aaro4130 OBJ Exporter v2.0
mtllib 89.mtl
g QuarterBowlSoft
v -0.62813 0.997 -0.064979
v -0.73205 1 1.11022E-16
v -0.93185 1 -0.482362
v -0.81594 0.997 -0.518399
v -0.32936 0.997 0.32438
v -0.41421 1 0.41421
v 0.06 0.997 0.62315
v 0 1 0.73205
v 0.51342 0.997 0.81096
v 0.482362 1 0.93185
v 1 0.997 0.87502
v 1 1 1
v -0.879345 0.997 -1
v -1 1 -1
v 0.5 -0.931852 -0.866025
v 1 -1 -1
v 0.482362 -0.931852 -1
v 0.551712 -0.931852 -0.741181
v 0.633975 -0.931852 -0.633975
v 0.741181 -0.931852 -0.551712
v 0.866025 -0.931852 -0.5
v 1 -0.931852 -0.482362
v 0.034074 -0.732051 -0.741181
v 0 -0.732051 -1
v 0.133975 -0.732051 -0.5
v 0.292893 -0.732051 -0.292893
v 0.5 -0.732051 -0.133975
v 0.741181 -0.732051 -0.034074
v 1 -0.732051 1.11022E-16
v -0.36603 -0.414214 -0.633975
v -0.41421 -0.414214 -1
v -0.22474 -0.414214 -0.292893
v 0 -0.414214 1.11022E-16
v 0.292893 -0.414214 0.22474
v 0.633975 -0.414214 0.36603
v 1 -0.414214 0.41421
v 0.53 -0.81894 -0.879042
v 0.578609 -0.81894 -0.761689
v 0.185936 -0.631128 -0.534979
v 0.09203 -0.631128 -0.761689
v 0.33532 -0.631128 -0.340298
v 0.655936 -0.81894 -0.660915
v 0.53 -0.631128 -0.190915
v 0.75671 -0.81894 -0.583588
v 0.75671 -0.631128 -0.097008
v 0.874064 -0.81894 -0.534979
v 1 -0.631128 -0.064979
v 1 -0.81894 -0.518399
v -0.15126 -0.332361 -0.340298
v -0.28406 -0.332361 -0.660915
v 0.06 -0.332361 -0.064979
v 0.33532 -0.332361 0.14628
v 0.655936 -0.332361 0.27909
v 1 -0.332361 0.32438
v 0.997126 -0.882243 -1
v 0.995021 -0.882073 -1
v 0.991377 -0.881689 -1
v 0.98142 -0.880468 -1
v 0.514075 -0.81894 -1
v 1 -0.882345 -1
v 0.998666 -0.882321 -1
v 0.0606555 -0.631128 -1
v -0.328705 -0.332361 -1
v -0.67303 0 -0.551712
v -0.36603 -0.414214 -0.633975
v -0.41421 -0.414214 -1
v -0.73205 0 -1
v -0.5 0 -0.133975
v -0.22474 -0.414214 -0.292893
v -0.22474 0 0.22474
v 0 -0.414214 1.11022E-16
v -0.86603 0.48236 -0.5
v -0.93185 0.48236 -1
v -0.67303 0.48236 -0.034074
v -0.36603 0.48236 0.36603
v -0.93185 1 -0.482362
v -1 1 -1
v -0.73205 1 1.11022E-16
v -0.41421 1 0.41421
v -0.28406 -0.332361 -0.660915
v -0.15126 -0.332361 -0.340298
v -0.41 0.057 -0.190915
v -0.57265 0.057 -0.583588
v -0.15126 0.057 0.14628
v 0.06 -0.332361 -0.064979
v -0.57265 0.51042 -0.097008
v -0.75406 0.51042 -0.534979
v -0.28406 0.51042 0.27909
v -0.62813 0.997 -0.064979
v -0.81594 0.997 -0.518399
v -0.32936 0.997 0.32438
v -0.627474 0.057 -1
v -0.328705 -0.332361 -1
v -0.815285 0.51042 -1
v -0.879345 0.997 -1
v 0.133975 0 0.5
v 0.292893 -0.414214 0.22474
v 0 -0.414214 1.11022E-16
v -0.22474 0 0.22474
v 0.551712 0 0.67303
v 0.633975 -0.414214 0.36603
v 1 0 0.73205
v 1 -0.414214 0.41421
v 0.034074 0.48236 0.67303
v -0.36603 0.48236 0.36603
v 0.5 0.48236 0.86603
v 1 0.48236 0.93185
v 0 1 0.73205
v -0.41421 1 0.41421
v 0.482362 1 0.93185
v 1 1 1
v 0.06 -0.332361 -0.064979
v 0.33532 -0.332361 0.14628
v 0.185936 0.057 0.40502
v -0.15126 0.057 0.14628
v 0.578609 0.057 0.56767
v 0.655936 -0.332361 0.27909
v 1 0.057 0.62315
v 1 -0.332361 0.32438
v 0.09203 0.51042 0.56767
v -0.28406 0.51042 0.27909
v 0.53 0.51042 0.74909
v 1 0.51042 0.81096
v 0.06 0.997 0.62315
v -0.32936 0.997 0.32438
v 0.51342 0.997 0.81096
v 1 0.997 0.87502
v 1 -0.882345 -1
v 1 -1 -1
v 1 -0.931852 -0.482362
v 1 -0.81894 -0.518399
v 1 -0.732051 1.11022E-16
v 1 -0.631128 -0.064979
v 1 -0.414214 0.41421
v 1 -0.332361 0.32438
v 1 -2.22045E-16 0.73205
v 1 0.057 0.62315
v 1 0.48236 0.93185
v 1 0.51042 0.81096
v 1 1 1
v 1 0.997 0.87502
v 0.482362 -0.931852 -1
v 1 -1 -1
v 1 -0.882345 -1
v 0.998666 -0.882321 -1
v 0.997126 -0.882243 -1
v 0.995021 -0.882073 -1
v 0.991377 -0.881689 -1
v 0.98142 -0.880468 -1
v 0.514075 -0.81894 -1
v 0.0606555 -0.631128 -1
v 0 -0.732051 -1
v -0.328705 -0.332361 -1
v -0.41421 -0.414214 -1
v -0.627474 0.057 -1
v -0.73205 1.11022E-16 -1
v -0.815285 0.51042 -1
v -0.93185 0.48236 -1
v -0.879345 0.997 -1
v -1 1 -1
vn 0.3329083 0.430773 -0.1921976
vn -0.3701971 0.3880747 0.2137415
vn -0.4128576 0.3881267 0.110633
vn 0.37136 0.4307263 -0.0994987
vn 0.271788 0.4308119 -0.2717825
vn -0.3022916 0.3880315 0.3022991
vn 0.192168 0.4308415 -0.3328369
vn -0.2137677 0.3879971 0.3702633
vn 0.09946755 0.4308599 -0.3712133
vn -0.1106592 0.387976 0.4129921
vn 0.3459849 0.3449303 -0.3076537
vn 0.474942 0.2205937 0.2431087
vn 0.2225238 0.2492711 -0.4708295
vn -0.3542367 0.3217102 -0.323036
vn -0.1442977 -0.5576886 0.03866445
vn 0.04779259 -0.5733804 -0.04779259
vn -0.03235215 -0.1207756 -0.5636488
vn -0.1293737 -0.5576886 0.07469416
vn -0.1056333 -0.5576886 0.1056333
vn -0.07469417 -0.5576886 0.1293737
vn -0.03866445 -0.5576886 0.1442977
vn 0.478381 -0.3122334 0.08363795
vn -0.2787769 -0.5000369 0.0746982
vn -0.1638145 -0.2838185 -0.4753369
vn -0.2499449 -0.5000365 0.1443066
vn -0.2040794 -0.5000365 0.2040794
vn -0.1443066 -0.5000365 0.2499449
vn -0.0746982 -0.5000369 0.2787769
vn 0.4753369 -0.2838185 0.1638145
vn -0.39428 -0.4083079 0.1056471
vn -0.2343191 -0.2343867 -0.4727481
vn -0.3535014 -0.4083072 0.2040964
vn -0.2886336 -0.4083071 0.2886336
vn -0.2040964 -0.4083072 0.3535014
vn -0.1056471 -0.4083079 0.39428
vn 0.4727481 -0.2343867 0.2343191
vn 0.1442978 0.5576885 -0.0386652
vn 0.1293737 0.5576885 -0.07469451
vn 0.2499451 0.5000368 -0.1443051
vn 0.2787776 0.5000365 -0.07469828
vn 0.2040787 0.5000369 -0.2040791
vn 0.1056332 0.5576886 -0.1056333
vn 0.1443063 0.5000369 -0.2499441
vn 0.07469353 0.5576886 -0.1293739
vn 0.07469764 0.5000374 -0.2787763
vn 0.03866505 0.5576886 -0.1442977
vn 0.4880377 0.267161 -0.1541997
vn 0.4849688 0.3026024 -0.08105794
vn 0.3535021 0.4083081 -0.2040934
vn 0.3942798 0.4083081 -0.1056473
vn 0.2886327 0.4083077 -0.2886335
vn 0.2040959 0.4083074 -0.3535015
vn 0.1056471 0.4083078 -0.3942801
vn 0.4906621 0.215187 -0.2151246
vn 0.02525207 0.3836236 -0.4307302
vn 0.0360501 0.3872492 -0.4266987
vn 0.04470881 0.3921316 -0.4213872
vn 0.05061992 0.3980573 -0.415116
vn 0.1033662 0.3858812 -0.4168267
vn 0.3760615 0.1848063 -0.3971873
vn 0.01299677 0.3813961 -0.4332452
vn 0.1541995 0.2671597 -0.4880384
vn 0.2151229 0.2151864 -0.4906631
vn -0.4829272 -0.2887392 0.1293999
vn -0.39428 -0.4083079 0.1056471
vn -0.2343191 -0.2343867 -0.4727481
vn -0.4967457 -0.2868807 0.06539476
vn -0.4329796 -0.2887397 0.2499828
vn -0.3535014 -0.4083072 0.2040964
vn -0.3535267 -0.2887404 0.3535267
vn -0.2886336 -0.4083071 0.2886336
vn -0.5386645 -0.1494703 0.1443349
vn -0.3244783 -0.0869693 -0.4695566
vn -0.4829532 -0.14947 0.2788338
vn -0.3943298 -0.1494703 0.3943298
vn -0.4128576 0.3881267 0.110633
vn -0.3542367 0.3217102 -0.323036
vn -0.3701971 0.3880747 0.2137415
vn -0.3022916 0.3880315 0.3022991
vn 0.3942798 0.4083081 -0.1056473
vn 0.3535021 0.4083081 -0.2040934
vn 0.4329816 0.2887381 -0.249981
vn 0.4829277 0.2887379 -0.1294008
vn 0.353527 0.2887383 -0.3535282
vn 0.2886327 0.4083077 -0.2886335
vn 0.4829538 0.1494703 -0.2788326
vn 0.5386645 0.1494699 -0.1443349
vn 0.394329 0.14947 -0.3943306
vn 0.3329083 0.430773 -0.1921976
vn 0.37136 0.4307263 -0.0994987
vn 0.271788 0.4308119 -0.2717825
vn 0.2606732 0.1505436 -0.4926656
vn 0.2151229 0.2151864 -0.4906631
vn 0.2887701 0.07739815 -0.4939177
vn 0.2225238 0.2492711 -0.4708295
vn -0.2499828 -0.2887397 0.4329796
vn -0.2040964 -0.4083072 0.3535014
vn -0.2886336 -0.4083071 0.2886336
vn -0.3535267 -0.2887404 0.3535267
vn -0.1293999 -0.2887392 0.4829272
vn -0.1056471 -0.4083079 0.39428
vn -0.06539476 -0.2868807 0.4967457
vn 0.4727481 -0.2343867 0.2343191
vn -0.2788338 -0.14947 0.4829532
vn -0.3943298 -0.1494703 0.3943298
vn -0.1443349 -0.1494703 0.5386645
vn 0.4695566 -0.0869693 0.3244783
vn -0.2137677 0.3879971 0.3702633
vn -0.3022916 0.3880315 0.3022991
vn -0.1106592 0.387976 0.4129921
vn 0.474942 0.2205937 0.2431087
vn 0.2886327 0.4083077 -0.2886335
vn 0.2040959 0.4083074 -0.3535015
vn 0.2499828 0.2887383 -0.4329806
vn 0.353527 0.2887383 -0.3535282
vn 0.1294006 0.2887385 -0.4829275
vn 0.1056471 0.4083078 -0.3942801
vn 0.4926645 0.1505445 -0.2606748
vn 0.4906621 0.215187 -0.2151246
vn 0.2788342 0.1494701 -0.4829529
vn 0.394329 0.14947 -0.3943306
vn 0.1443347 0.1494698 -0.5386646
vn 0.4939168 0.0773982 -0.2887716
vn 0.192168 0.4308415 -0.3328369
vn 0.271788 0.4308119 -0.2717825
vn 0.09946755 0.4308599 -0.3712133
vn 0.3459849 0.3449303 -0.3076537
vn 0.3760615 0.1848063 -0.3971873
vn 0.04779259 -0.5733804 -0.04779259
vn 0.478381 -0.3122334 0.08363795
vn 0.4849688 0.3026024 -0.08105794
vn 0.4753369 -0.2838185 0.1638145
vn 0.4880377 0.267161 -0.1541997
vn 0.4727481 -0.2343867 0.2343191
vn 0.4906621 0.215187 -0.2151246
vn 0.5773503 0 0
vn 0.4926645 0.1505445 -0.2606748
vn 0.4695566 -0.0869693 0.3244783
vn 0.4939168 0.0773982 -0.2887716
vn 0.474942 0.2205937 0.2431087
vn 0.3459849 0.3449303 -0.3076537
vn -0.03235215 -0.1207756 -0.5636488
vn 0.04779259 -0.5733804 -0.04779259
vn 0.3760615 0.1848063 -0.3971873
vn 0.01299677 0.3813961 -0.4332452
vn 0.02525207 0.3836236 -0.4307302
vn 0.0360501 0.3872492 -0.4266987
vn 0.04470881 0.3921316 -0.4213872
vn 0.05061992 0.3980573 -0.415116
vn 0.1033662 0.3858812 -0.4168267
vn 0.1541995 0.2671597 -0.4880384
vn -0.1638145 -0.2838185 -0.4753369
vn 0.2151229 0.2151864 -0.4906631
vn -0.2343191 -0.2343867 -0.4727481
vn 0.2606732 0.1505436 -0.4926656
vn 0 0 -0.5773503
vn 0.2887701 0.07739815 -0.4939177
vn -0.3244783 -0.0869693 -0.4695566
vn 0.2225238 0.2492711 -0.4708295
vn -0.3542367 0.3217102 -0.323036
vt 0.185935 0.532489
vt 0.133975 0.5
vt 0.034075 0.741181
vt 0.09203 0.7592
vt 0.33532 0.33781
vt 0.292895 0.292895
vt 0.53 0.188425
vt 0.5 0.133975
vt 0.75671 0.09452
vt 0.741181 0.034075
vt 1 0.06249
vt 1 0
vt 0.0603275 1
vt 0 1
vt 0.75 0.933012
vt 1 1
vt 0.741181 1
vt 0.775856 0.870591
vt 0.816988 0.816988
vt 0.870591 0.775856
vt 0.933012 0.75
vt 1 0.741181
vt 0.517037 0.870591
vt 0.5 1
vt 0.566988 0.75
vt 0.646446 0.646446
vt 0.75 0.566988
vt 0.870591 0.517037
vt 1 0.5
vt 0.316985 0.816988
vt 0.292895 1
vt 0.38763 0.646446
vt 0.5 0.5
vt 0.646446 0.38763
vt 0.816988 0.316985
vt 1 0.292895
vt 0.765 0.939521
vt 0.789304 0.880844
vt 0.592968 0.767489
vt 0.546015 0.880844
vt 0.66766 0.670149
vt 0.827968 0.830458
vt 0.765 0.595457
vt 0.878355 0.791794
vt 0.878355 0.548504
vt 0.937032 0.767489
vt 1 0.532489
vt 1 0.7592
vt 0.42437 0.670149
vt 0.35797 0.830458
vt 0.53 0.532489
vt 0.66766 0.42686
vt 0.827968 0.360455
vt 1 0.33781
vt 0.998563 1
vt 0.99751 1
vt 0.995688 1
vt 0.99071 1
vt 0.757038 1
vt 1 1
vt 0.999333 1
vt 0.530328 1
vt 0.335647 1
vt 0.775856 0.5
vt 0.816988 0.292893
vt 1 0.292893
vt 1 0.5
vt 0.566988 0.5
vt 0.646446 0.292893
vt 0.38763 0.5
vt 0.5 0.292893
vt 0.75 0.74118
vt 1 0.74118
vt 0.517037 0.74118
vt 0.316985 0.74118
vt 0.741181 1
vt 1 1
vt 0.5 1
vt 0.292895 1
vt 0.830458 0.33382
vt 0.670149 0.33382
vt 0.595457 0.5285
vt 0.791794 0.5285
vt 0.42686 0.5285
vt 0.532489 0.33382
vt 0.548504 0.75521
vt 0.767489 0.75521
vt 0.360455 0.75521
vt 0.532489 0.9985
vt 0.7592 0.9985
vt 0.33781 0.9985
vt 1 0.5285
vt 1 0.33382
vt 1 0.75521
vt 1 0.9985
vt 0.566988 0.5
vt 0.646446 0.292893
vt 0.5 0.292893
vt 0.38763 0.5
vt 0.775856 0.5
vt 0.816988 0.292893
vt 1 0.5
vt 1 0.292893
vt 0.517037 0.74118
vt 0.316985 0.74118
vt 0.75 0.74118
vt 1 0.74118
vt 0.5 1
vt 0.292895 1
vt 0.741181 1
vt 1 1
vt 0.53 0.33382
vt 0.66766 0.33382
vt 0.592968 0.5285
vt 0.42437 0.5285
vt 0.789304 0.5285
vt 0.827968 0.33382
vt 1 0.5285
vt 1 0.33382
vt 0.546015 0.75521
vt 0.35797 0.75521
vt 0.765 0.75521
vt 1 0.75521
vt 0.53 0.9985
vt 0.33532 0.9985
vt 0.75671 0.9985
vt 1 0.9985
vt 1 0.0588275
vt 1 0
vt 0.741181 0.034074
vt 0.7592 0.09053
vt 0.5 0.133974
vt 0.532489 0.184436
vt 0.292895 0.292893
vt 0.33781 0.33382
vt 0.133975 0.5
vt 0.188425 0.5285
vt 0.034075 0.74118
vt 0.09452 0.75521
vt 0 1
vt 0.06249 0.9985
vt 0.741181 0.034074
vt 1 0
vt 1 0.0588275
vt 0.999333 0.0588395
vt 0.998563 0.0588785
vt 0.99751 0.0589635
vt 0.995688 0.0591555
vt 0.99071 0.059766
vt 0.757038 0.09053
vt 0.530328 0.184436
vt 0.5 0.133974
vt 0.335647 0.33382
vt 0.292895 0.292893
vt 0.186263 0.5285
vt 0.133975 0.5
vt 0.0923575 0.75521
vt 0.034075 0.74118
vt 0.0603275 0.9985
vt 0 1
usemtl baseThingPartMaterial
f 3/3/3 2/2/2 1/1/1
f 4/4/4 3/3/3 1/1/1
f 1/1/1 2/2/2 5/5/5
f 2/2/2 6/6/6 5/5/5
f 5/5/5 6/6/6 7/7/7
f 6/6/6 8/8/8 7/7/7
f 7/7/7 8/8/8 9/9/9
f 8/8/8 10/10/10 9/9/9
f 9/9/9 10/10/10 11/11/11
f 10/10/10 12/12/12 11/11/11
f 4/4/4 13/13/13 3/3/3
f 13/13/13 14/14/14 3/3/3
f 17/17/17 16/16/16 15/15/15
f 15/15/15 16/16/16 18/18/18
f 18/18/18 16/16/16 19/19/19
f 19/19/19 16/16/16 20/20/20
f 20/20/20 16/16/16 21/21/21
f 21/21/21 16/16/16 22/22/22
f 17/17/17 15/15/15 23/23/23
f 24/24/24 17/17/17 23/23/23
f 15/15/15 18/18/18 25/25/25
f 23/23/23 15/15/15 25/25/25
f 18/18/18 19/19/19 26/26/26
f 25/25/25 18/18/18 26/26/26
f 19/19/19 20/20/20 27/27/27
f 26/26/26 19/19/19 27/27/27
f 20/20/20 21/21/21 28/28/28
f 27/27/27 20/20/20 28/28/28
f 21/21/21 22/22/22 29/29/29
f 28/28/28 21/21/21 29/29/29
f 24/24/24 23/23/23 30/30/30
f 31/31/31 24/24/24 30/30/30
f 23/23/23 25/25/25 32/32/32
f 30/30/30 23/23/23 32/32/32
f 25/25/25 26/26/26 33/33/33
f 32/32/32 25/25/25 33/33/33
f 26/26/26 27/27/27 34/34/34
f 33/33/33 26/26/26 34/34/34
f 27/27/27 28/28/28 35/35/35
f 34/34/34 27/27/27 35/35/35
f 28/28/28 29/29/29 36/36/36
f 35/35/35 28/28/28 36/36/36
f 39/39/39 38/38/38 37/37/37
f 40/40/40 39/39/39 37/37/37
f 39/39/39 41/41/41 38/38/38
f 41/41/41 42/42/42 38/38/38
f 41/41/41 43/43/43 42/42/42
f 43/43/43 44/44/44 42/42/42
f 43/43/43 45/45/45 44/44/44
f 45/45/45 46/46/46 44/44/44
f 45/45/45 47/47/47 46/46/46
f 47/47/47 48/48/48 46/46/46
f 49/49/49 39/39/39 40/40/40
f 50/50/50 49/49/49 40/40/40
f 51/51/51 41/41/41 39/39/39
f 49/49/49 51/51/51 39/39/39
f 52/52/52 43/43/43 41/41/41
f 51/51/51 52/52/52 41/41/41
f 53/53/53 45/45/45 43/43/43
f 52/52/52 53/53/53 43/43/43
f 54/54/54 47/47/47 45/45/45
f 53/53/53 54/54/54 45/45/45
f 42/42/42 44/44/44 55/55/55
f 56/56/56 42/42/42 55/55/55
f 38/38/38 42/42/42 56/56/56
f 57/57/57 38/38/38 56/56/56
f 37/37/37 38/38/38 57/57/57
f 58/58/58 37/37/37 57/57/57
f 59/59/59 37/37/37 58/58/58
f 46/46/46 48/48/48 60/60/60
f 61/61/61 46/46/46 60/60/60
f 44/44/44 46/46/46 61/61/61
f 55/55/55 44/44/44 61/61/61
f 37/37/37 59/59/59 40/40/40
f 59/59/59 62/62/62 40/40/40
f 40/40/40 62/62/62 50/50/50
f 62/62/62 63/63/63 50/50/50
f 66/66/66 65/65/65 64/64/64
f 67/67/67 66/66/66 64/64/64
f 64/64/64 65/65/65 68/68/68
f 65/65/65 69/69/69 68/68/68
f 68/68/68 69/69/69 70/70/70
f 69/69/69 71/71/71 70/70/70
f 67/67/67 64/64/64 72/72/72
f 73/73/73 67/67/67 72/72/72
f 64/64/64 68/68/68 74/74/74
f 72/72/72 64/64/64 74/74/74
f 68/68/68 70/70/70 75/75/75
f 74/74/74 68/68/68 75/75/75
f 73/73/73 72/72/72 76/76/76
f 77/77/77 73/73/73 76/76/76
f 72/72/72 74/74/74 78/78/78
f 76/76/76 72/72/72 78/78/78
f 74/74/74 75/75/75 79/79/79
f 78/78/78 74/74/74 79/79/79
f 82/82/82 81/81/81 80/80/80
f 83/83/83 82/82/82 80/80/80
f 82/82/82 84/84/84 81/81/81
f 84/84/84 85/85/85 81/81/81
f 86/86/86 82/82/82 83/83/83
f 87/87/87 86/86/86 83/83/83
f 88/88/88 84/84/84 82/82/82
f 86/86/86 88/88/88 82/82/82
f 89/89/89 86/86/86 87/87/87
f 90/90/90 89/89/89 87/87/87
f 91/91/91 88/88/88 86/86/86
f 89/89/89 91/91/91 86/86/86
f 92/92/92 83/83/83 80/80/80
f 93/93/93 92/92/92 80/80/80
f 94/94/94 87/87/87 83/83/83
f 92/92/92 94/94/94 83/83/83
f 95/95/95 90/90/90 87/87/87
f 94/94/94 95/95/95 87/87/87
f 98/98/98 97/97/97 96/96/96
f 99/99/99 98/98/98 96/96/96
f 96/96/96 97/97/97 100/100/100
f 97/97/97 101/101/101 100/100/100
f 100/100/100 101/101/101 102/102/102
f 101/101/101 103/103/103 102/102/102
f 99/99/99 96/96/96 104/104/104
f 105/105/105 99/99/99 104/104/104
f 96/96/96 100/100/100 106/106/106
f 104/104/104 96/96/96 106/106/106
f 100/100/100 102/102/102 107/107/107
f 106/106/106 100/100/100 107/107/107
f 105/105/105 104/104/104 108/108/108
f 109/109/109 105/105/105 108/108/108
f 104/104/104 106/106/106 110/110/110
f 108/108/108 104/104/104 110/110/110
f 106/106/106 107/107/107 111/111/111
f 110/110/110 106/106/106 111/111/111
f 114/114/114 113/113/113 112/112/112
f 115/115/115 114/114/114 112/112/112
f 114/114/114 116/116/116 113/113/113
f 116/116/116 117/117/117 113/113/113
f 116/116/116 118/118/118 117/117/117
f 118/118/118 119/119/119 117/117/117
f 120/120/120 114/114/114 115/115/115
f 121/121/121 120/120/120 115/115/115
f 122/122/122 116/116/116 114/114/114
f 120/120/120 122/122/122 114/114/114
f 123/123/123 118/118/118 116/116/116
f 122/122/122 123/123/123 116/116/116
f 124/124/124 120/120/120 121/121/121
f 125/125/125 124/124/124 121/121/121
f 126/126/126 122/122/122 120/120/120
f 124/124/124 126/126/126 120/120/120
f 127/127/127 123/123/123 122/122/122
f 126/126/126 127/127/127 122/122/122
f 130/130/130 129/129/129 128/128/128
f 128/128/128 131/131/131 130/130/130
f 131/131/131 132/132/132 130/130/130
f 131/131/131 133/133/133 132/132/132
f 133/133/133 134/134/134 132/132/132
f 133/133/133 135/135/135 134/134/134
f 135/135/135 136/136/136 134/134/134
f 135/135/135 137/137/137 136/136/136
f 137/137/137 138/138/138 136/136/136
f 137/137/137 139/139/139 138/138/138
f 139/139/139 140/140/140 138/138/138
f 139/139/139 141/141/141 140/140/140
f 144/144/144 143/143/143 142/142/142
f 142/142/142 145/145/145 144/144/144
f 142/142/142 146/146/146 145/145/145
f 142/142/142 147/147/147 146/146/146
f 142/142/142 148/148/148 147/147/147
f 142/142/142 149/149/149 148/148/148
f 142/142/142 150/150/150 149/149/149
f 142/142/142 151/151/151 150/150/150
f 142/142/142 152/152/152 151/151/151
f 152/152/152 153/153/153 151/151/151
f 152/152/152 154/154/154 153/153/153
f 154/154/154 155/155/155 153/153/153
f 154/154/154 156/156/156 155/155/155
f 156/156/156 157/157/157 155/155/155
f 156/156/156 158/158/158 157/157/157
f 158/158/158 159/159/159 157/157/157
f 158/158/158 160/160/160 159/159/159
